<svg xmlns="http://www.w3.org/2000/svg">
<defs>
<font id="GTHaptikBold" horiz-adv-x="640" >
  <font-face 
    font-family="GT Haptik Bold"
    font-weight="750"
    font-stretch="normal"
    units-per-em="1000"
    panose-1="2 0 5 5 2 0 0 2 0 4"
    ascent="800"
    descent="-200"
    x-height="500"
    cap-height="700"
    bbox="-176 -299 1277 973"
    underline-thickness="0"
    underline-position="0"
    unicode-range="U+0020-FB04"
  />
<missing-glyph horiz-adv-x="873" 
d="M319 580l-64 -95v-68h-30v68l-65 95h34l46 -64l45 64h34zM606 474q0 8 -2 18.5t-12.5 20.5t-33 16.5t-63.5 6.5q-40 0 -101 -12v-171q0 -12 -10 -18.5t-22 -10.5t-22 -9t-10 -14q0 -16 22 -16q35 0 70.5 8.5t73.5 8.5q30 0 59 -6.5t51 -18.5v197zM408 414q0 35 22 57.5
t57 22.5q36 0 58.5 -22.5t22.5 -57.5t-22.5 -58t-58.5 -23q-35 0 -57 23t-22 58zM540 414q0 23 -15 37t-38 14q-22 0 -36.5 -14t-14.5 -37t14.5 -37.5t36.5 -14.5q23 0 38 14.5t15 37.5zM365 577q0 15 -7 25.5t-17.5 17t-24 9.5t-26.5 3q-20 0 -43 -4.5t-47 -11t-46 -14.5
l-40 -15v-230q45 17 89.5 29.5t86.5 12.5q17 0 37.5 -3t37.5 -11v192zM713 373v-100h-29v100h29zM58 676q0 16 10.5 26t26.5 10q15 0 26 -10t11 -26q0 -10 -4.5 -19.5t-13.5 -14.5v-24q18 7 40 14.5t45.5 13.5t46.5 10t44 4q19 0 37.5 -5t33.5 -15t24 -26t9 -37v-25
q17 4 45 8t57 4q25 0 49.5 -3.5t44 -13t32 -25.5t12.5 -41v-48q18 5 37.5 8.5t39.5 3.5q62 0 87 -22.5t25 -56.5v-240q-31 19 -58.5 25.5t-53.5 6.5q-29 0 -57.5 -10t-60.5 -10q-48 0 -48 46v86q-23 5 -49 5q-35 0 -70.5 -9t-73.5 -9q-23 0 -35.5 12.5t-12.5 33.5v68h-14
q-21 0 -44.5 -4.5t-47.5 -11t-46 -14.5l-38 -14v-327h-39v643q-17 11 -17 33zM364 352q0 5 -9 9.5t-23 6.5v-32q9 5 20.5 7.5t11.5 8.5zM606 238q0 11 -10 16t-24 10v-47q11 8 22.5 11t11.5 10zM679 231q0 19 20 19q19 0 19 -19q0 -20 -19 -20q-20 0 -20 20zM796 365
q0 31 -23.5 41t-61.5 10q-29 0 -77 -12v-167q0 -14 -9.5 -20.5t-21.5 -11t-21.5 -9.5t-9.5 -15q0 -16 21 -16q29 0 58.5 10.5t60.5 10.5q23 0 44 -4t40 -11v194z" />
    <glyph glyph-name="IJ" unicode="IJ" horiz-adv-x="572" 
d="M214 700v-700h-140v700h140zM508 700v-459q0 -60 -17.5 -105.5t-48.5 -75.5t-72 -45t-88 -15l2 140q39 0 61.5 26t22.5 76v458h140z" />
    <glyph glyph-name="ij" unicode="ij" horiz-adv-x="532" 
d="M315 643q0 36 24 60.5t60 24.5t60.5 -24.5t24.5 -60.5t-24.5 -60t-60.5 -24t-60 24t-24 60zM47 643q0 36 24 60.5t60 24.5t60.5 -24.5t24.5 -60.5t-24.5 -60t-60.5 -24t-60 24t-24 60zM465 500v-515q0 -100 -54 -145t-155 -45h-18q-8 0 -19 1v122h14q60 0 80 19.5
t20 59.5v503h132zM197 500v-500h-132v500h132z" />
    <glyph glyph-name="ff" unicode="ff" horiz-adv-x="799" 
d="M505 389h-263v-389h-132v389h-101v111h101v25q0 49 14 84t38 57.5t57 33.5t72 11q28 0 50.5 -2.5t47.5 -6.5v-122q-23 4 -41 6t-35 2q-40 0 -55.5 -19t-15.5 -58v-11h263v25q0 49 14 84t38 57.5t57 33.5t72 11q28 0 50.5 -2.5t47.5 -6.5v-122q-23 4 -41 6t-35 2
q-40 0 -55.5 -19t-15.5 -58v-11h142v-111h-142v-389h-132v389z" />
    <glyph glyph-name="fi" unicode="fi" horiz-adv-x="666" 
d="M451 643q0 36 24 60.5t60 24.5t60.5 -24.5t24.5 -60.5t-24.5 -60t-60.5 -24t-60 24t-24 60zM601 500v-500h-132v500h132zM242 389v-389h-132v389h-101v111h101v25q0 49 14 84t38 57.5t57 33.5t72 11q28 0 50.5 -2.5t47.5 -6.5v-122q-23 4 -41 6t-35 2q-40 0 -55.5 -19
t-15.5 -58v-11h142v-111h-142z" />
    <glyph glyph-name="fl" unicode="fl" horiz-adv-x="652" 
d="M595 700v-700h-133v700h133zM242 389v-389h-132v389h-101v111h101v25q0 49 14 84t38 57.5t57 33.5t72 11q28 0 50.5 -2.5t47.5 -6.5v-122q-23 4 -41 6t-35 2q-40 0 -55.5 -19t-15.5 -58v-11h142v-111h-142z" />
    <glyph glyph-name="ffi" unicode="ffi" horiz-adv-x="1052" 
d="M837 643q0 36 24 60.5t60 24.5t60.5 -24.5t24.5 -60.5t-24.5 -60t-60.5 -24t-60 24t-24 60zM987 500v-500h-132v500h132zM505 389h-263v-389h-132v389h-101v111h101v25q0 49 14 84t38 57.5t57 33.5t72 11q28 0 50.5 -2.5t47.5 -6.5v-122q-23 4 -41 6t-35 2
q-40 0 -55.5 -19t-15.5 -58v-11h263v25q0 49 14 84t38 57.5t57 33.5t72 11q28 0 50.5 -2.5t47.5 -6.5v-122q-23 4 -41 6t-35 2q-40 0 -55.5 -19t-15.5 -58v-11h142v-111h-142v-389h-132v389z" />
    <glyph glyph-name="ffl" unicode="ffl" horiz-adv-x="1044" 
d="M981 700v-700h-133v700h133zM505 389h-263v-389h-132v389h-101v111h101v25q0 49 14 84t38 57.5t57 33.5t72 11q28 0 50.5 -2.5t47.5 -6.5v-122q-23 4 -41 6t-35 2q-40 0 -55.5 -19t-15.5 -58v-11h263v25q0 49 14 84t38 57.5t57 33.5t72 11q28 0 50.5 -2.5t47.5 -6.5v-122
q-23 4 -41 6t-35 2q-40 0 -55.5 -19t-15.5 -58v-11h142v-111h-142v-389h-132v389z" />
    <glyph glyph-name=".notdef" horiz-adv-x="873" 
d="M319 580l-64 -95v-68h-30v68l-65 95h34l46 -64l45 64h34zM606 474q0 8 -2 18.5t-12.5 20.5t-33 16.5t-63.5 6.5q-40 0 -101 -12v-171q0 -12 -10 -18.5t-22 -10.5t-22 -9t-10 -14q0 -16 22 -16q35 0 70.5 8.5t73.5 8.5q30 0 59 -6.5t51 -18.5v197zM408 414q0 35 22 57.5
t57 22.5q36 0 58.5 -22.5t22.5 -57.5t-22.5 -58t-58.5 -23q-35 0 -57 23t-22 58zM540 414q0 23 -15 37t-38 14q-22 0 -36.5 -14t-14.5 -37t14.5 -37.5t36.5 -14.5q23 0 38 14.5t15 37.5zM365 577q0 15 -7 25.5t-17.5 17t-24 9.5t-26.5 3q-20 0 -43 -4.5t-47 -11t-46 -14.5
l-40 -15v-230q45 17 89.5 29.5t86.5 12.5q17 0 37.5 -3t37.5 -11v192zM713 373v-100h-29v100h29zM58 676q0 16 10.5 26t26.5 10q15 0 26 -10t11 -26q0 -10 -4.5 -19.5t-13.5 -14.5v-24q18 7 40 14.5t45.5 13.5t46.5 10t44 4q19 0 37.5 -5t33.5 -15t24 -26t9 -37v-25
q17 4 45 8t57 4q25 0 49.5 -3.5t44 -13t32 -25.5t12.5 -41v-48q18 5 37.5 8.5t39.5 3.5q62 0 87 -22.5t25 -56.5v-240q-31 19 -58.5 25.5t-53.5 6.5q-29 0 -57.5 -10t-60.5 -10q-48 0 -48 46v86q-23 5 -49 5q-35 0 -70.5 -9t-73.5 -9q-23 0 -35.5 12.5t-12.5 33.5v68h-14
q-21 0 -44.5 -4.5t-47.5 -11t-46 -14.5l-38 -14v-327h-39v643q-17 11 -17 33zM364 352q0 5 -9 9.5t-23 6.5v-32q9 5 20.5 7.5t11.5 8.5zM606 238q0 11 -10 16t-24 10v-47q11 8 22.5 11t11.5 10zM679 231q0 19 20 19q19 0 19 -19q0 -20 -19 -20q-20 0 -20 20zM796 365
q0 31 -23.5 41t-61.5 10q-29 0 -77 -12v-167q0 -14 -9.5 -20.5t-21.5 -11t-21.5 -9.5t-9.5 -15q0 -16 21 -16q29 0 58.5 10.5t60.5 10.5q23 0 44 -4t40 -11v194z" />
    <glyph glyph-name=".null" horiz-adv-x="0" 
 />
    <glyph glyph-name="nonmarkingreturn" horiz-adv-x="333" 
 />
    <glyph glyph-name="NULL" horiz-adv-x="0" 
 />
    <glyph glyph-name="NULL" horiz-adv-x="0" 
 />
    <glyph glyph-name="space" unicode=" " horiz-adv-x="284" 
 />
    <glyph glyph-name="exclam" unicode="!" horiz-adv-x="362" 
d="M251 700v-458h-140v458h140zM181 190q41 0 68.5 -27t27.5 -68t-27.5 -68t-68.5 -27t-67.5 27t-26.5 68t26.5 68t67.5 27z" />
    <glyph glyph-name="quotedbl" unicode="&#x22;" horiz-adv-x="431" 
d="M186 700v-282h-116v282h116zM361 700v-282h-116v282h116z" />
    <glyph glyph-name="numbersign" unicode="#" horiz-adv-x="609" 
d="M373 422h-108l-20 -133h109zM340 196h-109l-29 -196h-94l29 196h-107l14 93h107l19 133h-107l14 93h107l27 185h95l-27 -185h108l27 185h95l-27 -185h97l-14 -93h-97l-20 -133h98l-14 -93h-98l-29 -196h-94z" />
    <glyph glyph-name="dollar" unicode="$" horiz-adv-x="561" 
d="M195 498q0 -23 14 -37t39 -25v121q-26 -7 -39.5 -22.5t-13.5 -36.5zM367 203q0 24 -14.5 38.5t-39.5 25.5v-124q54 12 54 60zM248 -80v82q-36 3 -68.5 15t-59 33.5t-45.5 53t-28 73.5l125 54q17 -74 76 -87v144l-5 2q-33 10 -66.5 25.5t-60.5 39.5t-44 59t-17 85
q0 43 14.5 78t40 60.5t61 41t77.5 19.5v82h65v-82q77 -8 130.5 -52.5t70.5 -122.5l-127 -51q-16 71 -74 84v-143q2 -1 5 -1.5t5 -1.5q36 -12 69 -27.5t58.5 -39t41 -57.5t15.5 -83q0 -45 -14.5 -80.5t-40.5 -61t-61.5 -40.5t-77.5 -19v-82h-65z" />
    <glyph glyph-name="percent" unicode="%" horiz-adv-x="824" 
d="M657 725l65 -54l-562 -696l-65 54zM197 700q34 0 64 -12.5t51.5 -34t34 -51.5t12.5 -64q0 -35 -12.5 -64.5t-34 -51t-51.5 -34t-64 -12.5q-35 0 -64.5 12.5t-51 34t-34 51t-12.5 64.5q0 34 12.5 64t34 51.5t51 34t64.5 12.5zM268 538q0 31 -20 51t-51 20t-51 -20t-20 -51
t20 -51t51 -20t51 20t20 51zM465 162q0 34 12.5 64t34 51.5t51 34t64.5 12.5q34 0 64 -12.5t51.5 -34t34 -51.5t12.5 -64q0 -35 -12.5 -64.5t-34 -51t-51.5 -34t-64 -12.5q-35 0 -64.5 12.5t-51 34t-34 51t-12.5 64.5zM627 233q-31 0 -51 -20t-20 -51t20 -51t51 -20t51 20
t20 51t-20 51t-51 20z" />
    <glyph glyph-name="ampersand" unicode="&#x26;" horiz-adv-x="753" 
d="M311 457q25 17 40.5 35.5t15.5 44.5q0 27 -15 41t-37 14q-23 0 -38 -14.5t-15 -37.5q0 -17 7.5 -32t21.5 -29zM307 119q29 0 55.5 10t50.5 27l-133 143q-32 -19 -51.5 -40t-19.5 -54q0 -38 24.5 -62t73.5 -24zM502 60q-42 -34 -90.5 -53t-107.5 -19q-53 0 -95.5 15
t-72 42.5t-45.5 66.5t-16 86q0 36 9.5 65t25.5 52t38 41.5t47 34.5q-29 31 -49.5 65.5t-20.5 84.5q0 35 13 66.5t37 55t59.5 37t80.5 13.5q42 0 76 -12.5t58 -35t37 -55t13 -71.5q0 -61 -29 -102.5t-73 -70.5l102 -108q14 22 26.5 46t24.5 50l111 -65q-16 -35 -33 -67
t-37 -61l68 -73l-97 -93z" />
    <glyph glyph-name="quotesingle" unicode="'" horiz-adv-x="256" 
d="M186 700v-282h-116v282h116z" />
    <glyph glyph-name="parenleft" unicode="(" horiz-adv-x="356" 
d="M53 321q0 140 49.5 260.5t141.5 214.5l92 -81q-36 -42 -64.5 -85.5t-48.5 -91.5t-30.5 -101.5t-10.5 -115.5q0 -123 41 -224t113 -186l-93 -81q-45 47 -80.5 105t-60 121.5t-37 131t-12.5 133.5z" />
    <glyph glyph-name="parenright" unicode=")" horiz-adv-x="354" 
d="M112 796q92 -94 141.5 -214.5t49.5 -260.5q0 -66 -12.5 -133.5t-37 -131t-60 -121.5t-80.5 -105l-93 81q72 85 113 186t41 224q0 62 -10.5 115.5t-30.5 101.5t-48.5 91.5t-64.5 85.5z" />
    <glyph glyph-name="asterisk" unicode="*" horiz-adv-x="459" 
d="M281 720v-114l108 35l32 -97l-109 -35l67 -92l-82 -61l-68 92l-67 -92l-83 61l67 92l-108 35l32 97l108 -35v114h103z" />
    <glyph glyph-name="plus" unicode="+" 
d="M390 589v-200h200v-140h-200v-199h-140v199h-200v140h200v200h140z" />
    <glyph glyph-name="comma" unicode="," horiz-adv-x="330" 
d="M197 187l103 -57l-184 -330l-103 55z" />
    <glyph glyph-name="hyphen" unicode="-" horiz-adv-x="626" 
d="M546 370v-140h-466v140h466z" />
    <glyph glyph-name="period" unicode="." horiz-adv-x="325" 
d="M162 190q41 0 68.5 -27t27.5 -68t-27.5 -68t-68.5 -27t-67.5 27t-26.5 68t26.5 68t67.5 27z" />
    <glyph glyph-name="slash" unicode="/" horiz-adv-x="902" 
d="M750 791l102 -91l-704 -791l-103 90z" />
    <glyph glyph-name="zero" unicode="0" horiz-adv-x="776" 
d="M54 350q0 78 26 142.5t71 110.5t106 71.5t131 25.5t131 -25.5t106 -71.5t71 -110.5t26 -142.5t-26 -142.5t-71 -110.5t-106 -71.5t-131 -25.5t-131 25.5t-106 71.5t-71 110.5t-26 142.5zM582 350q0 48 -14.5 87t-40.5 66.5t-61.5 42t-77.5 14.5t-78 -14.5t-61.5 -42
t-40 -66.5t-14.5 -87t14.5 -87t40 -66.5t61.5 -42t78 -14.5t77.5 14.5t61.5 42t40.5 66.5t14.5 87zM307 350q0 34 23.5 57.5t57.5 23.5t58 -23.5t24 -57.5t-24 -57.5t-58 -23.5t-57.5 23.5t-23.5 57.5z" />
    <glyph glyph-name="one" unicode="1" horiz-adv-x="489" 
d="M391 700v-700h-140v483l-133 -131l-97 101l252 247h118z" />
    <glyph glyph-name="two" unicode="2" horiz-adv-x="567" 
d="M32 549q13 24 34 50.5t51 49t70 37t92 14.5t95 -16.5t74 -45.5t48 -70.5t17 -90.5q0 -62 -24 -108t-59 -80l-153 -149h236v-140h-461v112l268 260q22 21 37.5 44.5t15.5 52.5q0 41 -27.5 66t-69.5 25q-25 0 -46 -8.5t-38.5 -22t-31.5 -31t-23 -35.5z" />
    <glyph glyph-name="three" unicode="3" horiz-adv-x="558" 
d="M32 587q14 23 36 43.5t51.5 36t65 24.5t76.5 9q56 0 100 -14.5t74.5 -40.5t46.5 -61.5t16 -77.5q0 -32 -8.5 -57.5t-22 -45t-31.5 -33t-36 -20.5q19 -8 36.5 -21t31 -32.5t22 -45t8.5 -57.5q0 -43 -16 -79t-46.5 -61.5t-74.5 -39.5t-100 -14q-83 0 -142.5 33.5
t-87.5 82.5l96 104q23 -41 59.5 -60.5t75.5 -19.5q45 0 70.5 18.5t25.5 52.5q0 32 -24.5 51t-68.5 20h-53v137h53q44 1 68.5 20t24.5 51q0 33 -26 51.5t-70 18.5q-38 0 -74.5 -20t-60.5 -59z" />
    <glyph glyph-name="four" unicode="4" horiz-adv-x="680" 
d="M534 700v-449h104v-140h-104v-111h-140v111h-364v120l389 469h115zM394 453l-166 -202h166v202z" />
    <glyph glyph-name="five" unicode="5" horiz-adv-x="569" 
d="M514 700v-140h-294v-84q3 1 16.5 2.5t23.5 1.5q57 0 104 -15.5t80 -45.5t51.5 -74t18.5 -101q0 -60 -19.5 -105.5t-54 -76t-82 -46.5t-102.5 -16q-65 0 -124 18.5t-97 44.5l59 126q41 -24 83 -36.5t78 -12.5q24 0 45.5 6t37.5 18.5t25.5 31.5t9.5 45q0 46 -33.5 73
t-107.5 27q-29 0 -68 -5.5t-84 -16.5v381h434z" />
    <glyph glyph-name="six" unicode="6" horiz-adv-x="578" 
d="M298 0q-75 0 -125.5 29.5t-80.5 78.5q-25 42 -36 95.5t-11 118.5q0 72 15 140t49.5 121t90 85t137.5 32q42 0 82 -10.5t87 -32.5l-55 -127q-29 14 -59.5 22t-62.5 8q-31 0 -55 -10t-40.5 -26.5t-26 -38t-11.5 -43.5v-2q25 14 54.5 23t55.5 9q47 0 88.5 -16t72.5 -46
t49 -73.5t18 -97.5t-18 -98.5t-49.5 -75.5t-75 -48t-93.5 -17zM293 332q-45 0 -73.5 -26.5t-28.5 -69.5q0 -45 29.5 -70.5t72.5 -25.5q45 0 73 26.5t28 70.5q0 43 -28 69t-73 26z" />
    <glyph glyph-name="seven" unicode="7" horiz-adv-x="547" 
d="M514 700v-117l-305 -583h-158l294 560h-308v140h477z" />
    <glyph glyph-name="eight" unicode="8" horiz-adv-x="579" 
d="M60 508q0 44 17 79.5t47.5 60.5t72.5 38.5t92 13.5t92.5 -13.5t73 -38.5t47.5 -60.5t17 -78.5q0 -49 -23.5 -91t-71.5 -68q48 -26 71.5 -68t23.5 -90q0 -44 -17 -79.5t-47.5 -60.5t-73 -38.5t-92.5 -13.5t-92 13.5t-72.5 38.5t-47.5 60.5t-17 79.5q0 50 23 92t70 66
q-46 24 -69.5 65.5t-23.5 92.5zM379 491q0 31 -24 50t-65 19q-42 0 -66 -19t-24 -50q0 -33 25.5 -52t64.5 -19q38 0 63.5 19t25.5 52zM379 209q0 34 -25.5 52.5t-63.5 18.5q-39 0 -64.5 -18.5t-25.5 -52.5q0 -31 24 -50t66 -19q41 0 65 19t24 50z" />
    <glyph glyph-name="nine" unicode="9" horiz-adv-x="579" 
d="M393 465q0 45 -29.5 70t-72.5 25q-45 0 -73 -26.5t-28 -70.5q0 -43 28 -69t73 -26t73.5 26.5t28.5 70.5zM50 459q0 54 18 98.5t50.5 76t77.5 49t98 17.5q64 0 110.5 -23.5t76.5 -65.5q31 -43 44.5 -102.5t13.5 -135.5q0 -77 -15 -145t-49 -118.5t-89 -80t-135 -29.5
q-47 0 -89.5 10.5t-87.5 31.5l50 127q32 -14 66 -21.5t62 -7.5q33 0 57 10.5t40.5 27t25.5 37.5t11 43v1q-24 -14 -50 -22.5t-60 -8.5q-47 0 -88 15.5t-71.5 45.5t-48.5 73t-18 97z" />
    <glyph glyph-name="colon" unicode=":" horiz-adv-x="325" 
d="M162 512q41 0 68.5 -27t27.5 -68t-27.5 -68t-68.5 -27t-67.5 27t-26.5 68t26.5 68t67.5 27zM162 190q41 0 68.5 -27t27.5 -68t-27.5 -68t-68.5 -27t-67.5 27t-26.5 68t26.5 68t67.5 27z" />
    <glyph glyph-name="semicolon" unicode=";" horiz-adv-x="414" 
d="M150 417q0 41 27 68t68 27t68 -27t27 -68t-27 -68t-68 -27t-68 27t-27 68zM195 187l104 -57l-184 -330l-104 55z" />
    <glyph glyph-name="less" unicode="&#x3c;" 
d="M516 587l57 -136l-333 -132l333 -133l-57 -136l-450 190v157z" />
    <glyph glyph-name="equal" unicode="=" 
d="M592 487v-140h-544v140h544zM592 253v-140h-544v140h544z" />
    <glyph glyph-name="greater" unicode="&#x3e;" 
d="M573 397v-157l-450 -190l-57 136l333 133l-333 132l57 136z" />
    <glyph glyph-name="question" unicode="?" horiz-adv-x="557" 
d="M50 474q0 109 58.5 167.5t160.5 58.5q49 0 87.5 -14.5t65.5 -41t41 -62.5t14 -78q0 -30 -6.5 -52.5t-17.5 -41t-25 -33.5t-30 -29l-28 -23q-13 -11 -23.5 -23t-16.5 -26t-6 -33v-12h-140v39q0 27 9 49.5t23 40.5t31 33t34 28q22 17 39 34.5t17 40.5q0 26 -16.5 45
t-54.5 19t-59 -22t-21 -64h-136zM258 190q41 0 68.5 -27t27.5 -68t-27.5 -68t-68.5 -27t-67.5 27t-26.5 68t26.5 68t67.5 27z" />
    <glyph glyph-name="at" unicode="@" horiz-adv-x="965" 
d="M895 351q0 -59 -14 -107t-39.5 -82t-62 -52.5t-80.5 -18.5q-45 0 -72 19.5t-39 57.5q-20 -32 -54 -54.5t-83 -22.5q-32 0 -58.5 10.5t-45 28.5t-28.5 42.5t-10 51.5q0 28 10.5 50t28 38t40.5 25t49 12l116 12q0 32 -16 46.5t-51 14.5q-29 0 -54 -12.5t-37 -41.5l-83 52
q20 47 64 74t113 27q45 0 77.5 -12t54 -34t31.5 -51.5t10 -65.5v-120q0 -45 36 -45t56 40.5t20 109.5q0 51 -17.5 97t-52.5 81t-88 55.5t-124 20.5q-73 0 -129 -23t-94.5 -63t-58 -94t-19.5 -115q0 -64 20.5 -118.5t59.5 -94t95 -62t127 -22.5q54 0 104 9t88 21l14 -112
q-42 -14 -93 -23t-113 -9q-98 0 -176.5 32t-133 87.5t-84 130.5t-29.5 161q0 84 29 159t84 130.5t133 88t177 32.5q93 0 167 -27.5t126.5 -75.5t80.5 -114t28 -144zM467 188q34 0 60.5 20.5t26.5 56.5v13l-95 -13q-17 -2 -28.5 -12.5t-11.5 -27.5q0 -15 11 -26t37 -11z" />
    <glyph glyph-name="A" unicode="A" horiz-adv-x="792" 
d="M277 250h238l-119 258zM580 110h-368l-51 -110h-154l324 700h130l324 -700h-154z" />
    <glyph glyph-name="B" unicode="B" horiz-adv-x="627" 
d="M372 700q49 0 88 -15t66 -41t41 -62.5t14 -78.5q0 -55 -23.5 -94t-63.5 -59q41 -20 64 -59.5t23 -93.5q0 -42 -14 -78.5t-41 -62.5t-66 -41t-88 -15h-298v700h298zM441 492q0 30 -19 49t-53 19h-155v-140h155q32 0 52 20t20 52zM441 208q0 33 -20 52.5t-52 19.5h-155
v-140h155q34 0 53 18.5t19 49.5z" />
    <glyph glyph-name="C" unicode="C" horiz-adv-x="650" 
d="M38 351q0 75 26.5 138.5t73.5 110.5t111 73.5t138 26.5q71 0 137 -24t117 -72l-67 -129q-39 42 -86 63.5t-101 21.5q-45 0 -83.5 -15.5t-66.5 -43t-43.5 -66.5t-15.5 -85q0 -47 15.5 -85.5t43.5 -66t66 -43t83 -15.5q28 0 63 6.5t73 26.5l30 -137q-42 -17 -81.5 -26.5
t-84.5 -9.5q-74 0 -137.5 26.5t-110 74t-73.5 111.5t-27 139z" />
    <glyph glyph-name="D" unicode="D" horiz-adv-x="708" 
d="M328 700q74 0 137 -26.5t108.5 -73t71.5 -110.5t26 -140t-26 -140t-71.5 -110.5t-108.5 -73t-137 -26.5h-254v700h254zM531 350q0 45 -15 83.5t-41.5 66.5t-64 44t-82.5 16h-114v-420h114q45 0 82.5 16t64 44t41.5 66.5t15 83.5z" />
    <glyph glyph-name="E" unicode="E" horiz-adv-x="581" 
d="M526 700v-140h-312v-140h312v-140h-312v-140h312v-140h-452v700h452z" />
    <glyph glyph-name="F" unicode="F" horiz-adv-x="559" 
d="M526 700v-140h-312v-140h312v-140h-312v-280h-140v700h452z" />
    <glyph glyph-name="G" unicode="G" horiz-adv-x="653" 
d="M38 349q0 76 26 140t72.5 111t111.5 73.5t143 26.5q70 0 134.5 -24t115.5 -72l-67 -129q-39 42 -85.5 63.5t-100.5 21.5q-47 0 -85.5 -15.5t-66 -43t-43 -66.5t-15.5 -85q0 -47 15 -85.5t43 -66t67 -43t86 -15.5q14 0 28 3v114h-131v140h271v-369q-42 -13 -82.5 -20.5
t-85.5 -7.5q-77 0 -141.5 26t-111 72.5t-72.5 110.5t-26 140z" />
    <glyph glyph-name="H" unicode="H" horiz-adv-x="734" 
d="M661 700v-700h-140v280h-307v-280h-140v700h140v-280h307v280h140z" />
    <glyph glyph-name="I" unicode="I" horiz-adv-x="288" 
d="M214 700v-700h-140v700h140z" />
    <glyph glyph-name="J" unicode="J" horiz-adv-x="521" 
d="M458 700v-459q0 -60 -17.5 -105.5t-48 -75.5t-71.5 -45t-89 -15q-55 0 -96.5 18t-69.5 48t-42.5 69.5t-14.5 81.5l127 57q0 -62 23 -98t74 -36q42 0 63.5 26t21.5 76v458h140z" />
    <glyph glyph-name="K" unicode="K" horiz-adv-x="705" 
d="M302 294l-88 -88v-206h-140v700h140v-295l294 295h197l-304 -306l305 -394h-178z" />
    <glyph glyph-name="L" unicode="L" horiz-adv-x="541" 
d="M214 700v-560h318v-140h-458v700h140z" />
    <glyph glyph-name="M" unicode="M" horiz-adv-x="1007" 
d="M214 0h-140v700h135l295 -517l294 517h135v-700h-140v407l-232 -407h-115l-232 407v-407z" />
    <glyph glyph-name="N" unicode="N" horiz-adv-x="780" 
d="M710 700v-700h-122l-378 460v-460h-140v700h122l378 -460v460h140z" />
    <glyph glyph-name="O" unicode="O" horiz-adv-x="775" 
d="M38 350q0 75 26.5 139t73.5 111t111 73.5t139 26.5t139 -26.5t111 -73.5t73.5 -111t26.5 -139t-26.5 -139t-73.5 -111t-111 -73.5t-139 -26.5t-139 26.5t-111 73.5t-73.5 111t-26.5 139zM598 350q0 46 -15.5 84.5t-43.5 66.5t-66.5 43.5t-84.5 15.5t-84.5 -15.5
t-66.5 -43.5t-43.5 -66.5t-15.5 -84.5t15.5 -84.5t43.5 -66.5t66.5 -43.5t84.5 -15.5t84.5 15.5t66.5 43.5t43.5 66.5t15.5 84.5z" />
    <glyph glyph-name="P" unicode="P" horiz-adv-x="618" 
d="M348 700q54 0 99 -18.5t77.5 -51t51 -77.5t18.5 -98t-18.5 -97.5t-51 -77t-77.5 -51t-99 -18.5h-134v-211h-140v700h274zM454 455q0 46 -27.5 75.5t-78.5 29.5h-134v-209h134q51 0 78.5 29.5t27.5 74.5z" />
    <glyph glyph-name="Q" unicode="Q" horiz-adv-x="813" 
d="M582 55q-42 -26 -90.5 -40.5t-103.5 -14.5q-75 0 -139 26.5t-111 73.5t-73.5 111t-26.5 139t26.5 139t73.5 111t111 73.5t139 26.5t139 -26.5t111 -73.5t73.5 -111t26.5 -139q0 -56 -15 -105.5t-42 -91.5l164 -165l-96 -100zM388 140q49 0 90 18l-155 155l96 102
l159 -159q20 43 20 94q0 46 -15.5 84.5t-43.5 66.5t-66.5 43.5t-84.5 15.5t-84.5 -15.5t-66.5 -43.5t-43.5 -66.5t-15.5 -84.5t15.5 -84.5t43.5 -66.5t66.5 -43.5t84.5 -15.5z" />
    <glyph glyph-name="R" unicode="R" horiz-adv-x="687" 
d="M375 211h-161v-211h-140v700h306q54 0 99.5 -18.5t78 -51t51 -77.5t18.5 -97q0 -68 -30 -122t-81 -86l156 -248l-165 -1zM287 351l-21 34l120 70l55 -88q46 28 46 89q0 45 -28 74.5t-79 29.5h-166v-209h73z" />
    <glyph glyph-name="S" unicode="S" horiz-adv-x="553" 
d="M51 499q0 48 17 85t47.5 63t72 39.5t89.5 13.5q89 0 151.5 -45t81.5 -132l-127 -51q-11 48 -38 68t-69 20q-43 0 -64 -18t-21 -44q0 -19 9.5 -31.5t26.5 -22t40 -17.5l52 -17q36 -12 69 -27.5t58.5 -39t41 -57.5t15.5 -83t-17.5 -87t-47.5 -63.5t-71.5 -39t-89.5 -13.5
q-41 0 -78.5 10t-69 31.5t-54 55t-32.5 80.5l125 54q21 -91 110 -91q41 0 63 17t22 46q0 19 -9.5 32.5t-26.5 23t-39 16.5l-49 15q-33 10 -66.5 25.5t-60.5 39.5t-44 59t-17 85z" />
    <glyph glyph-name="T" unicode="T" horiz-adv-x="656" 
d="M398 560v-560h-140v560h-253v140h646v-140h-253z" />
    <glyph glyph-name="U" unicode="U" horiz-adv-x="767" 
d="M709 700v-376q0 -72 -24.5 -131.5t-68 -102.5t-103 -66.5t-129.5 -23.5t-129.5 23.5t-103 66.5t-68.5 102.5t-25 131.5v376h140v-376q0 -43 14 -77t39 -58t59 -36.5t74 -12.5t73.5 12.5t58.5 36.5t39 58t14 77v376h140z" />
    <glyph glyph-name="V" unicode="V" horiz-adv-x="783" 
d="M330 0l-331 700h155l238 -503l237 503h155l-331 -700h-123z" />
    <glyph glyph-name="W" unicode="W" horiz-adv-x="1240" 
d="M281 0l-271 700h150l189 -488l202 488h138l202 -488l189 488h150l-271 -700h-131l-208 499l-208 -499h-131z" />
    <glyph glyph-name="X" unicode="X" horiz-adv-x="765" 
d="M9 0l283 350l-283 350h180l193 -238l193 238h181l-283 -350l283 -350h-181l-192 238l-193 -238h-181z" />
    <glyph glyph-name="Y" unicode="Y" horiz-adv-x="710" 
d="M285 0v271l-286 429h169l187 -280l187 280h169l-286 -429v-271h-140z" />
    <glyph glyph-name="Z" unicode="Z" horiz-adv-x="665" 
d="M618 700v-101l-362 -459h362v-140h-571v101l362 459h-362v140h571z" />
    <glyph glyph-name="bracketleft" unicode="[" horiz-adv-x="346" 
d="M332 761v-115h-119v-665h119v-115h-241v895h241z" />
    <glyph glyph-name="backslash" unicode="\" horiz-adv-x="902" 
d="M146 791l706 -792l-103 -90l-704 791z" />
    <glyph glyph-name="bracketright" unicode="]" horiz-adv-x="346" 
d="M255 761v-895h-241v115h119v665h-119v115h241z" />
    <glyph glyph-name="asciicircum" unicode="^" horiz-adv-x="477" 
d="M310 714l147 -270l-115 -59l-104 193l-104 -193l-114 59l147 270h143z" />
    <glyph glyph-name="underscore" unicode="_" horiz-adv-x="598" 
d="M568 16v-122h-538v122h538z" />
    <glyph glyph-name="grave" unicode="`" horiz-adv-x="383" 
d="M109 768l224 -136l-58 -93l-225 136z" />
    <glyph glyph-name="a" unicode="a" horiz-adv-x="538" 
d="M352 222l-124 -15q-31 -5 -46.5 -19.5t-15.5 -35.5q0 -24 18 -38.5t53 -14.5q26 0 47.5 8.5t36.5 22.5t23 32.5t8 39.5v20zM42 398q25 57 83 85t140 28q110 0 164.5 -49t54.5 -154v-309h-132v68q-20 -30 -57.5 -54t-96.5 -24q-37 0 -68 11.5t-53.5 32t-35 49t-12.5 63.5
q0 34 12 61.5t33.5 47.5t50.5 32.5t64 15.5l137 12q26 3 26 20v8q0 22 -21 36t-66 14q-20 0 -39 -3.5t-36 -11t-30 -19.5t-20 -30z" />
    <glyph glyph-name="b" unicode="b" horiz-adv-x="611" 
d="M190 700v-272q26 36 67.5 60.5t100.5 24.5q46 0 87 -17.5t72 -51t49 -82.5t18 -112t-18 -112t-49.5 -82.5t-73 -51t-87.5 -17.5q-55 0 -97 22.5t-69 60.5v-70h-132v700h132zM448 250q0 30 -10 55t-27.5 42.5t-41.5 27t-52 9.5q-56 0 -93.5 -35.5t-37.5 -98.5
q0 -62 37.5 -98t93.5 -36q28 0 52 9.5t41.5 27t27.5 42.5t10 55z" />
    <glyph glyph-name="c" unicode="c" horiz-adv-x="502" 
d="M27 250q0 59 20 107.5t55.5 83t84.5 53t107 18.5q60 0 108 -19.5t82 -53.5l-75 -106q-21 21 -49 35.5t-66 14.5q-28 0 -52 -9.5t-41.5 -27t-27.5 -42t-10 -54.5t10 -54.5t27.5 -42t41.5 -27t52 -9.5q38 0 67.5 15t50.5 36l73 -106q-32 -32 -81 -53t-112 -21
q-57 0 -106 18.5t-84 53t-55 82.5t-20 108z" />
    <glyph glyph-name="d" unicode="d" horiz-adv-x="611" 
d="M294 384q-28 0 -52 -9.5t-41.5 -27t-27.5 -42.5t-10 -55t10 -55t27.5 -42.5t41.5 -27t52 -9.5q56 0 93.5 36t37.5 98q0 63 -37.5 98.5t-93.5 35.5zM553 700v-700h-132v70q-27 -38 -69 -60.5t-97 -22.5q-47 0 -88 17.5t-72.5 51t-49.5 82.5t-18 112t18 112t49 82.5t72 51
t87 17.5q59 0 100.5 -24.5t67.5 -60.5v272h132z" />
    <glyph glyph-name="e" unicode="e" horiz-adv-x="555" 
d="M27 250q0 55 18 103t51 83.5t80.5 55.5t106.5 20q57 0 103 -19t78 -53.5t49 -84t17 -109.5v-36h-368l1 -2q6 -25 19.5 -43t31.5 -30t39.5 -17.5t43.5 -5.5q45 0 80.5 14t61.5 37l55 -109q-31 -26 -79 -46t-120 -20q-63 0 -113 20t-84.5 55t-52.5 83t-18 104zM386 306
q-5 41 -32 67.5t-75 26.5t-78 -24.5t-40 -69.5h225z" />
    <glyph glyph-name="f" unicode="f" horiz-adv-x="404" 
d="M242 389v-389h-132v389h-101v111h101v25q0 49 14 84t38 57.5t57 33.5t72 11q28 0 50.5 -2.5t47.5 -6.5v-122q-23 4 -41 6t-35 2q-40 0 -55.5 -19t-15.5 -58v-11h142v-111h-142z" />
    <glyph glyph-name="g" unicode="g" horiz-adv-x="617" 
d="M428 250q0 63 -36.5 98.5t-93.5 35.5q-28 0 -52 -9.5t-41.5 -27t-27.5 -42.5t-10 -55t10 -55t27.5 -42.5t41.5 -27t52 -9.5q57 0 93.5 36t36.5 98zM31 252q0 63 18.5 111.5t50.5 81.5t73.5 50t88.5 17q58 0 100 -24t63 -58v70h132v-467q0 -48 -13 -92.5t-44.5 -78.5
t-83.5 -54.5t-131 -20.5q-76 0 -129 21t-92 57l65 109q32 -31 68.5 -47t82.5 -16q42 0 70 10t45.5 27.5t24.5 41t7 50.5v32q-25 -35 -66 -56t-95 -21q-50 0 -93 17t-74.5 49.5t-49.5 80.5t-18 110z" />
    <glyph glyph-name="h" unicode="h" horiz-adv-x="581" 
d="M190 700v-272q25 38 63.5 61t94.5 23q88 0 132.5 -53.5t44.5 -148.5v-310h-135v277q0 54 -23.5 81t-67.5 27q-57 0 -83 -39.5t-26 -106.5v-239h-132v700h132z" />
    <glyph glyph-name="i" unicode="i" horiz-adv-x="262" 
d="M47 643q0 36 24 60.5t60 24.5t60.5 -24.5t24.5 -60.5t-24.5 -60t-60.5 -24t-60 24t-24 60zM197 500v-500h-132v500h132z" />
    <glyph glyph-name="j" unicode="j" horiz-adv-x="277" 
d="M60 643q0 36 24 60.5t60 24.5t60.5 -24.5t24.5 -60.5t-24.5 -60t-60.5 -24t-60 24t-24 60zM210 500v-515q0 -100 -54 -145t-155 -45h-19q-7 0 -18 1v122h14q60 0 80 19.5t20 59.5v503h132z" />
    <glyph glyph-name="k" unicode="k" horiz-adv-x="553" 
d="M242 196l-52 -51v-145h-132v700h132v-392l181 192h175l-215 -215l215 -285h-170z" />
    <glyph glyph-name="l" unicode="l" horiz-adv-x="248" 
d="M191 700v-700h-133v700h133z" />
    <glyph glyph-name="m" unicode="m" horiz-adv-x="914" 
d="M497 419q23 41 64 67t104 26q88 0 138.5 -55t50.5 -153v-304h-133v277q0 108 -90 108q-30 0 -51 -11t-34 -30.5t-19 -46t-6 -58.5v-239h-132v277q0 108 -91 108q-30 0 -50.5 -11t-33.5 -30.5t-18.5 -46t-5.5 -58.5v-239h-132v500h128v-73q23 36 60 60.5t96 24.5
q112 0 155 -93z" />
    <glyph glyph-name="n" unicode="n" horiz-adv-x="585" 
d="M186 428q26 37 66.5 60.5t95.5 23.5q88 0 132.5 -53.5t44.5 -148.5v-310h-135v277q0 57 -24.5 82.5t-66.5 25.5q-58 0 -83.5 -39.5t-25.5 -106.5v-239h-132v500h128v-72z" />
    <glyph glyph-name="o" unicode="o" horiz-adv-x="592" 
d="M27 250q0 58 20.5 106.5t56.5 83t85 53.5t107 19t107 -19t85 -53.5t56.5 -83t20.5 -106.5q0 -59 -20.5 -107t-56.5 -82.5t-85 -53.5t-107 -19t-107 19t-85 53.5t-56.5 82.5t-20.5 107zM429 250q0 30 -10 54.5t-28 42t-42.5 27t-52.5 9.5t-52.5 -9.5t-42.5 -27t-28 -42
t-10 -54.5t10 -54.5t28 -42t42.5 -27t52.5 -9.5t52.5 9.5t42.5 27t28 42t10 54.5z" />
    <glyph glyph-name="p" unicode="p" horiz-adv-x="611" 
d="M317 116q28 0 52 9.5t41.5 27t27.5 42.5t10 55t-10 55t-27.5 42.5t-41.5 27t-52 9.5q-56 0 -93.5 -36t-37.5 -98q0 -63 37.5 -98.5t93.5 -35.5zM58 -200v700h132v-70q27 38 69 60.5t97 22.5q46 0 87.5 -17.5t73 -51t49.5 -82.5t18 -112t-18 -112t-49 -82.5t-72 -51
t-87 -17.5q-59 0 -100.5 24.5t-67.5 60.5v-272h-132z" />
    <glyph glyph-name="q" unicode="q" horiz-adv-x="611" 
d="M421 -200v272q-26 -36 -67.5 -60.5t-100.5 -24.5q-46 0 -87 17.5t-72 51t-49 82.5t-18 112t18 112t49.5 82.5t72.5 51t88 17.5q55 0 97 -22.5t69 -60.5v70h132v-700h-132zM163 250q0 -30 10 -55t27.5 -42.5t41.5 -27t52 -9.5q56 0 93.5 35.5t37.5 98.5q0 62 -37.5 98
t-93.5 36q-28 0 -52 -9.5t-41.5 -27t-27.5 -42.5t-10 -55z" />
    <glyph glyph-name="r" unicode="r" horiz-adv-x="386" 
d="M185 418q20 44 54.5 69t87.5 25q14 0 25.5 -2t23.5 -5v-142q-14 5 -29 6.5t-31 1.5q-66 0 -96 -36.5t-30 -108.5v-226h-132v500h127v-82z" />
    <glyph glyph-name="s" unicode="s" horiz-adv-x="478" 
d="M46 353q0 76 56 117.5t155 41.5q69 0 117.5 -20t81.5 -54l-74 -96q-21 23 -58 37t-77 14q-64 0 -64 -35q0 -9 5.5 -15.5t19 -12t36.5 -10.5l55 -12q33 -7 62 -17.5t50.5 -28.5t34.5 -45t13 -66q0 -86 -58 -124.5t-158 -38.5q-72 0 -130.5 20.5t-91.5 62.5l77 100
q25 -30 65 -47.5t93 -17.5q28 0 47.5 8.5t19.5 29.5q0 10 -5.5 17t-18.5 12t-34 10l-53 12q-28 6 -57.5 16t-53.5 28t-39.5 45.5t-15.5 68.5z" />
    <glyph glyph-name="t" unicode="t" horiz-adv-x="394" 
d="M358 10q-28 -7 -55.5 -11t-52.5 -4q-70 0 -108.5 36t-38.5 122v236h-91v111h91v134h132v-134h127v-111h-127v-217q0 -24 12 -34.5t38 -10.5q15 0 30.5 1.5t42.5 6.5v-125z" />
    <glyph glyph-name="u" unicode="u" horiz-adv-x="578" 
d="M518 500v-500h-128v76q-26 -38 -64 -63t-95 -25q-87 0 -130 54.5t-43 146.5v311h135v-278q0 -54 20 -80.5t64 -26.5q56 0 82 40.5t26 105.5v239h133z" />
    <glyph glyph-name="v" unicode="v" horiz-adv-x="544" 
d="M222 0l-225 500h148l127 -310l128 310h147l-225 -500h-100z" />
    <glyph glyph-name="w" unicode="w" horiz-adv-x="851" 
d="M200 0l-203 500h144l112 -298l119 298h107l120 -298l111 298h144l-203 -500h-100l-125 297l-126 -297h-100z" />
    <glyph glyph-name="x" unicode="x" horiz-adv-x="563" 
d="M282 151l-116 -151h-159l195 256l-187 244h159l107 -140l107 140h160l-187 -245l195 -255h-159z" />
    <glyph glyph-name="y" unicode="y" horiz-adv-x="538" 
d="M87 -200l122 272l-212 428h154l128 -274l123 274h140l-315 -700h-140z" />
    <glyph glyph-name="z" unicode="z" horiz-adv-x="488" 
d="M456 500v-103l-253 -275h261v-122h-440v103l252 275h-234v122h414z" />
    <glyph glyph-name="braceleft" unicode="{" horiz-adv-x="382" 
d="M372 761v-116h-46q-26 0 -42 -13.5t-16 -40.5v-160q0 -37 -16 -69.5t-64 -45.5q24 -6 39.5 -17.5t24.5 -26.5t12.5 -32t3.5 -35v-169q0 -27 16 -40.5t42 -13.5h46v-116h-47q-40 0 -72.5 8t-56 27t-36.5 49.5t-13 74.5v159q0 34 -24.5 50.5t-81.5 17.5v121q57 2 81.5 22
t24.5 54v154q0 44 13 74t36.5 49t56 27t72.5 8h47z" />
    <glyph glyph-name="bar" unicode="|" horiz-adv-x="322" 
d="M222 761v-895h-122v895h122z" />
    <glyph glyph-name="braceright" unicode="}" horiz-adv-x="382" 
d="M57 761q40 0 72.5 -8t56 -27t36.5 -49t13 -74v-154q0 -34 24.5 -54t81.5 -22v-121q-57 -1 -81.5 -17.5t-24.5 -50.5v-159q0 -44 -13 -74.5t-36.5 -49.5t-56 -27t-72.5 -8h-47v116h46q26 0 42 13.5t16 40.5v169q0 18 3.5 35t12.5 32t24.5 26.5t39.5 17.5q-48 13 -64 45.5
t-16 69.5v160q0 27 -16 40.5t-42 13.5h-46v116h47z" />
    <glyph glyph-name="asciitilde" unicode="~" horiz-adv-x="755" 
d="M70 328q16 15 37.5 31.5t46 30.5t51.5 23.5t55 9.5q37 0 69.5 -13t60.5 -28l54 -28q26 -13 48 -13q26 0 54 18t59 45l80 -91q-17 -17 -38.5 -36t-46 -35.5t-52 -27t-55.5 -10.5q-35 0 -67 13t-61 28l-55 28q-26 13 -48 13q-26 0 -53.5 -18.5t-58.5 -44.5z" />
    <glyph glyph-name="exclamdown" unicode="&#xa1;" horiz-adv-x="362" 
d="M277 405q0 -41 -27.5 -68t-68.5 -27t-67.5 27t-26.5 68t26.5 68t67.5 27t68.5 -27t27.5 -68zM111 -200v458h140v-458h-140z" />
    <glyph glyph-name="cent" unicode="&#xa2;" horiz-adv-x="502" 
d="M485 62q-29 -29 -71.5 -49t-96.5 -24v-66h-65v67q-50 6 -91 27t-71 55t-46.5 79t-16.5 99t16.5 98.5t46.5 78t71 55t91 27.5v70h65v-68q53 -4 94.5 -22.5t72.5 -49.5l-75 -106q-18 18 -40.5 31t-51.5 17v-262q30 4 53.5 17.5t41.5 31.5zM163 250q0 -48 24.5 -81.5
t64.5 -45.5v254q-40 -12 -64.5 -45.5t-24.5 -81.5z" />
    <glyph glyph-name="sterling" unicode="&#xa3;" horiz-adv-x="633" 
d="M607 92q-16 -18 -34 -34.5t-42.5 -29.5t-56.5 -20.5t-75 -7.5h-334v126q38 5 58.5 24t20.5 61v120h-84v72h84v93q0 43 13 80.5t39.5 65t65.5 43t91 15.5q35 0 65 -9t54.5 -23t44 -33t34.5 -38l-92 -99q-20 29 -45 46.5t-53 17.5q-38 0 -57.5 -21.5t-19.5 -59.5v-78h172
v-72h-172v-111q0 -32 -11.5 -52.5t-25.5 -29.5h152q52 0 84.5 20t59.5 52z" />
    <glyph glyph-name="currency" unicode="&#xa4;" horiz-adv-x="533" 
d="M266 433q-18 0 -34 -7t-28 -19t-19 -28.5t-7 -34.5t7 -34.5t19 -28.5t28 -19t34 -7q38 0 64 26t26 63t-26 63t-64 26zM266 131q-72 0 -126 42l-70 -70l-46 46l71 70q-19 26 -29.5 58t-10.5 67t10.5 67.5t30.5 58.5l-73 74l45 46l73 -74q26 20 58 30.5t67 10.5t66.5 -10.5
t57.5 -29.5l74 74l46 -46l-74 -73q20 -27 31 -59.5t11 -68.5q0 -35 -10 -66t-28 -57l70 -71l-46 -46l-69 71q-27 -21 -59.5 -32.5t-69.5 -11.5z" />
    <glyph glyph-name="yen" unicode="&#xa5;" horiz-adv-x="710" 
d="M425 129v-129h-140v129h-165v75h165v62h-165v75h118l-239 359h169l187 -280l187 280h169l-239 -359h118v-75h-165v-62h165v-75h-165z" />
    <glyph glyph-name="brokenbar" unicode="&#xa6;" horiz-adv-x="322" 
d="M222 761v-388h-122v388h122zM222 284v-418h-122v418h122z" />
    <glyph glyph-name="section" unicode="&#xa7;" horiz-adv-x="552" 
d="M252 343q-25 -8 -43.5 -24t-18.5 -38q0 -15 9 -26t24 -20t35 -18l43 -17q25 8 43 24t18 38q0 15 -9 26t-24 20t-35 18zM284 712q60 0 113.5 -22.5t97.5 -70.5l-86 -99q-19 23 -53.5 42.5t-74.5 19.5q-32 0 -49 -13.5t-17 -33.5q0 -22 21 -36t53 -27l69 -28
q37 -14 69 -36.5t53 -55.5t21 -82q0 -48 -20.5 -82.5t-54.5 -55.5q23 -22 36.5 -51t13.5 -69q0 -39 -14 -72t-40.5 -57t-65 -38t-87.5 -14q-59 0 -112.5 22t-99.5 71l87 98q18 -23 52.5 -42t74.5 -19q33 0 49.5 14t16.5 34q0 22 -21 36.5t-53 27.5l-69 27q-37 15 -69 37
t-53 54.5t-21 81.5q0 51 22 84.5t54 53.5q-23 22 -37 51.5t-14 69.5q0 39 14.5 72t41.5 57t65.5 37.5t86.5 13.5z" />
    <glyph glyph-name="dieresis" unicode="&#xa8;" horiz-adv-x="462" 
d="M50 644q0 33 22.5 55.5t55.5 22.5t55.5 -22.5t22.5 -55.5t-22.5 -55.5t-55.5 -22.5t-55.5 22.5t-22.5 55.5zM256 644q0 33 22.5 55.5t55.5 22.5t55.5 -22.5t22.5 -55.5t-22.5 -55.5t-55.5 -22.5t-55.5 22.5t-22.5 55.5z" />
    <glyph glyph-name="copyright" unicode="&#xa9;" horiz-adv-x="824" 
d="M50 350q0 78 27.5 144t75.5 114.5t114.5 76t144.5 27.5t144.5 -27.5t114.5 -76t75.5 -114.5t27.5 -144t-27.5 -144t-75.5 -114.5t-114.5 -76t-144.5 -27.5t-144.5 27.5t-114.5 76t-75.5 114.5t-27.5 144zM687 350q0 60 -20 110.5t-56.5 87t-87 57t-111.5 20.5
q-60 0 -110.5 -20.5t-87 -57t-56.5 -87t-20 -110.5t20 -110.5t56.5 -87t87 -56.5t110.5 -20q61 0 111.5 20t87 56.5t56.5 87t20 110.5zM223 352q0 42 15 78t41.5 62.5t62.5 41.5t78 15q87 0 146 -65l-39 -67q-24 25 -49.5 38.5t-58.5 13.5q-24 0 -45 -8.5t-37 -23.5
t-25 -36.5t-9 -48.5q0 -54 33.5 -86t83.5 -32q32 0 57.5 13.5t49.5 36.5l39 -67q-59 -63 -145 -63q-42 0 -78.5 15t-63 41.5t-41.5 63t-15 78.5z" />
    <glyph glyph-name="ordfeminine" unicode="&#xaa;" horiz-adv-x="458" 
d="M166 453q0 -16 12 -26t37 -10q36 0 62.5 21.5t26.5 54.5v8l-99 -13q-39 -6 -39 -35zM408 330h-104v55q-20 -29 -49 -46t-72 -17q-60 0 -96.5 34t-36.5 90q0 31 11 53t29.5 36.5t42.5 22t50 10.5l121 13q0 54 -74 54q-35 0 -62 -12t-40 -36l-73 68q54 74 176 74
q85 0 131 -37.5t46 -122.5v-239z" />
    <glyph glyph-name="guillemotleft" unicode="&#xab;" horiz-adv-x="686" 
d="M40 260l224 238l88 -80l-150 -158l150 -158l-88 -79zM300 260l225 238l87 -80l-150 -158l150 -158l-87 -79z" />
    <glyph glyph-name="logicalnot" unicode="&#xac;" 
d="M583 457v-319h-140v179h-387v140h527z" />
    <glyph glyph-name="softhyphen" unicode="&#xad;" horiz-adv-x="530" 
d="M450 370v-140h-370v140h370z" />
    <glyph glyph-name="registered" unicode="&#xae;" horiz-adv-x="824" 
d="M50 350q0 78 27.5 144t75.5 114.5t114.5 76t144.5 27.5t144.5 -27.5t114.5 -76t75.5 -114.5t27.5 -144t-27.5 -144t-75.5 -114.5t-114.5 -76t-144.5 -27.5t-144.5 27.5t-114.5 76t-75.5 114.5t-27.5 144zM687 350q0 60 -20 110.5t-56.5 87t-87 57t-111.5 20.5
q-60 0 -110.5 -20.5t-87 -57t-56.5 -87t-20 -110.5t20 -110.5t56.5 -87t87 -56.5t110.5 -20q61 0 111.5 20t87 56.5t56.5 87t20 110.5zM492 420q0 20 -15 35t-39 15h-83v-100h83q24 0 39 13.5t15 36.5zM285 171v368h155q28 0 51.5 -9t40 -25t25.5 -38t9 -47q0 -42 -22 -72
t-60 -41l83 -136h-84l-76 129l3 1h-55v-130h-70z" />
    <glyph glyph-name="macron" unicode="&#xaf;" horiz-adv-x="400" 
d="M350 695v-99h-300v99h300z" />
    <glyph glyph-name="degree" unicode="&#xb0;" horiz-adv-x="395" 
d="M50 590q0 31 11 57t31 45t47 30t59 11q31 0 58 -11t47 -30t31 -45t11 -57q0 -30 -11 -56t-31 -45t-47 -30t-58 -11q-32 0 -59 11t-47 30t-31 45t-11 56zM260 590q0 26 -16.5 44t-45.5 18t-45.5 -18t-16.5 -44t16.5 -44t45.5 -18t45.5 18t16.5 44z" />
    <glyph glyph-name="plusminus" unicode="&#xb1;" 
d="M389 606v-111h201v-139h-201v-110h-138v110h-201v139h201v111h138zM590 187v-139h-540v139h540z" />
    <glyph glyph-name="twosuperior" unicode="&#xb2;" horiz-adv-x="367" 
d="M29 731q7 12 19 27.5t30.5 29t44 23t59.5 9.5q66 0 105 -37t39 -98q0 -39 -15 -67.5t-38 -50.5l-76 -70h129v-97h-286v76l155 146q14 13 24 26.5t10 30.5q0 20 -13.5 32t-36.5 12q-29 0 -48.5 -16.5t-30.5 -33.5z" />
    <glyph glyph-name="threesuperior" unicode="&#xb3;" horiz-adv-x="363" 
d="M24 763q19 23 55.5 40t87.5 17q75 0 112.5 -32.5t37.5 -83.5q0 -42 -20.5 -64.5t-43.5 -29.5q23 -7 43.5 -29.5t20.5 -64.5q0 -51 -37.5 -83.5t-112.5 -32.5q-51 0 -87.5 17.5t-55.5 40.5l62 73q17 -20 39 -27t42 -7q54 0 54 33q0 14 -13.5 23.5t-39.5 9.5h-34v94h34
q53 2 53 33q0 33 -54 33q-20 0 -42 -7t-39 -27z" />
    <glyph glyph-name="acute" unicode="&#xb4;" horiz-adv-x="383" 
d="M275 767l58 -92l-225 -136l-58 92z" />
    <glyph glyph-name="uni00B5" unicode="&#xb5;" 
d="M264 -12q-12 0 -23 1t-22 3v-192h-128v700h135v-278q0 -54 20 -80.5t64 -26.5q56 0 82 40.5t26 105.5v239h133v-500h-128v76q-26 -38 -64 -63t-95 -25z" />
    <glyph glyph-name="paragraph" unicode="&#xb6;" horiz-adv-x="573" 
d="M543 700v-834h-117v722h-104v-722h-117v452q-39 3 -71 19.5t-55.5 43t-36 60.5t-12.5 73q0 40 15 74t42 59t64 39t81 14h311z" />
    <glyph glyph-name="periodcentered" unicode="&#xb7;" horiz-adv-x="390" 
d="M195 446q41 0 68.5 -27t27.5 -68t-27.5 -68t-68.5 -27t-67.5 27t-26.5 68t26.5 68t67.5 27z" />
    <glyph glyph-name="cedilla" unicode="&#xb8;" horiz-adv-x="299" 
d="M164 46q45 -46 65 -83t20 -70q0 -48 -31.5 -77t-84.5 -29q-21 0 -42 5t-41 12v103q23 -7 38.5 -10.5t27.5 -3.5q11 0 17 4.5t6 17.5q0 18 -16.5 48.5t-61.5 82.5h103z" />
    <glyph glyph-name="onesuperior" unicode="&#xb9;" horiz-adv-x="319" 
d="M253 820v-420h-96v268l-72 -69l-67 70l155 151h80z" />
    <glyph glyph-name="ordmasculine" unicode="&#xba;" horiz-adv-x="518" 
d="M50 525q0 45 15.5 82.5t43 64.5t66 42t84.5 15t84 -15t66 -42t43.5 -64.5t15.5 -82.5t-15.5 -82.5t-43.5 -64.5t-66 -42t-84 -15t-84.5 15t-66 42t-43 64.5t-15.5 82.5zM358 525q0 43 -27.5 71.5t-71.5 28.5t-71.5 -28.5t-27.5 -71.5t27.5 -71.5t71.5 -28.5t71.5 28.5
t27.5 71.5z" />
    <glyph glyph-name="guillemotright" unicode="&#xbb;" horiz-adv-x="686" 
d="M422 23l-88 79l150 158l-150 158l88 80l224 -238zM161 23l-87 79l150 158l-150 158l87 80l225 -238z" />
    <glyph glyph-name="onequarter" unicode="&#xbc;" horiz-adv-x="895" 
d="M714 725l65 -54l-562 -696l-65 54zM285 700v-420h-96v268l-72 -69l-67 70l155 151h80zM792 420v-265h53v-96h-53v-59h-97v59h-213v82l230 279h80zM695 250l-76 -95h76v95z" />
    <glyph glyph-name="onehalf" unicode="&#xbd;" horiz-adv-x="912" 
d="M704 725l65 -54l-562 -696l-65 54zM285 700v-420h-96v268l-72 -69l-67 70l155 151h80zM564 331q7 12 19 27.5t30.5 29t44 23t59.5 9.5q66 0 105 -37t39 -98q0 -39 -15 -67.5t-38 -50.5l-76 -70h129v-97h-286v76l155 146q14 13 24 26.5t10 30.5q0 20 -13.5 32t-36.5 12
q-29 0 -48.5 -16.5t-30.5 -33.5z" />
    <glyph glyph-name="threequarters" unicode="&#xbe;" horiz-adv-x="901" 
d="M729 725l65 -54l-561 -696l-65 54zM798 420v-265h53v-96h-53v-59h-97v59h-213v82l230 279h80zM193 700q75 0 112.5 -32.5t37.5 -83.5q0 -42 -20.5 -64.5t-43.5 -29.5q23 -7 43.5 -29.5t20.5 -64.5q0 -51 -37.5 -83.5t-112.5 -32.5q-51 0 -87.5 17.5t-55.5 40.5l62 73
q17 -20 39 -27t42 -7q54 0 54 33q0 14 -13.5 23.5t-39.5 9.5h-34v94h34q53 2 53 33q0 33 -54 33q-20 0 -42 -7t-39 -27l-62 74q19 23 55.5 40t87.5 17zM701 250l-76 -95h76v95z" />
    <glyph glyph-name="questiondown" unicode="&#xbf;" horiz-adv-x="557" 
d="M299 310q-41 0 -68.5 27t-27.5 68t27.5 68t68.5 27t67.5 -27t26.5 -68t-26.5 -68t-67.5 -27zM507 26q0 -109 -58.5 -167.5t-160.5 -58.5q-49 0 -87.5 14.5t-65.5 41t-41 62.5t-14 78q0 30 6.5 52.5t17.5 41t25 33.5t30 29l28 23q13 11 23.5 23t16.5 26t6 33v12h140v-39
q0 -27 -9 -49.5t-23 -40.5t-31 -33l-34 -28q-22 -17 -39 -34.5t-17 -40.5q0 -26 16.5 -45t54.5 -19t59 22t21 64h136z" />
    <glyph glyph-name="Agrave" unicode="&#xc0;" horiz-adv-x="792" 
d="M305 939l224 -136l-58 -93l-225 136zM277 250h238l-119 258zM580 110h-368l-51 -110h-154l324 700h130l324 -700h-154z" />
    <glyph glyph-name="Aacute" unicode="&#xc1;" horiz-adv-x="792" 
d="M479 938l58 -92l-225 -136l-58 92zM277 250h238l-119 258zM580 110h-368l-51 -110h-154l324 700h130l324 -700h-154z" />
    <glyph glyph-name="Acircumflex" unicode="&#xc2;" horiz-adv-x="792" 
d="M390 943l185 -157l-69 -73l-116 100l-117 -100l-68 73zM277 250h238l-119 258zM580 110h-368l-51 -110h-154l324 700h130l324 -700h-154z" />
    <glyph glyph-name="Atilde" unicode="&#xc3;" horiz-adv-x="792" 
d="M462 731q-20 0 -38 7t-34 15l-30 15q-14 7 -27 7q-17 0 -33.5 -13.5t-32.5 -28.5l-65 68l26 27q14 14 30.5 25t34.5 18.5t38 7.5t38 -7t34 -15l30 -15q14 -7 27 -7q17 0 33.5 13.5t32.5 28.5l65 -68l-26 -27q-14 -14 -30.5 -25t-34.5 -18.5t-38 -7.5zM277 250h238
l-119 258zM580 110h-368l-51 -110h-154l324 700h130l324 -700h-154z" />
    <glyph glyph-name="Adieresis" unicode="&#xc4;" horiz-adv-x="792" 
d="M215 810q0 33 22.5 55.5t55.5 22.5t55.5 -22.5t22.5 -55.5t-22.5 -55.5t-55.5 -22.5t-55.5 22.5t-22.5 55.5zM421 810q0 33 22.5 55.5t55.5 22.5t55.5 -22.5t22.5 -55.5t-22.5 -55.5t-55.5 -22.5t-55.5 22.5t-22.5 55.5zM277 250h238l-119 258zM580 110h-368l-51 -110
h-154l324 700h130l324 -700h-154z" />
    <glyph glyph-name="Aring" unicode="&#xc5;" horiz-adv-x="792" 
d="M447 751q0 23 -14.5 37t-36.5 14q-23 0 -37 -14t-14 -37q0 -22 14 -36.5t37 -14.5q22 0 36.5 14.5t14.5 36.5zM277 250h238l-119 258zM580 110h-368l-51 -110h-154l301 651q-20 17 -32 43t-12 57q0 28 10 52.5t28 42t42 27.5t52 10t52 -10t42 -27.5t28 -42t10 -52.5
q0 -31 -12 -57t-32 -43l301 -651h-154z" />
    <glyph glyph-name="AE" unicode="&#xc6;" horiz-adv-x="1048" 
d="M541 110h-296l-72 -110h-168l462 700h74v-139l-204 -311h204v450h452v-140h-312v-140h312v-140h-312v-140h312v-140h-452v110z" />
    <glyph glyph-name="Ccedilla" unicode="&#xc7;" horiz-adv-x="650" 
d="M377 -213q-21 0 -42 5t-41 12v103q23 -7 38.5 -10.5t27.5 -3.5q11 0 17 4.5t6 17.5q0 14 -9.5 35t-33.5 53q-65 8 -120 37.5t-95.5 75.5t-63.5 106t-23 129q0 75 26.5 138.5t73.5 110.5t111 73.5t138 26.5q71 0 137 -24t117 -72l-67 -129q-39 42 -86 63.5t-101 21.5
q-45 0 -83.5 -15.5t-66.5 -43t-43.5 -66.5t-15.5 -85q0 -47 15.5 -85.5t43.5 -66t66 -43t83 -15.5q28 0 63 6.5t73 26.5l30 -137q-27 -11 -53.5 -19t-53.5 -12q48 -63 48 -112q0 -48 -31.5 -77t-84.5 -29z" />
    <glyph glyph-name="Egrave" unicode="&#xc8;" horiz-adv-x="581" 
d="M216 939l224 -136l-58 -93l-225 136zM526 700v-140h-312v-140h312v-140h-312v-140h312v-140h-452v700h452z" />
    <glyph glyph-name="Eacute" unicode="&#xc9;" horiz-adv-x="581" 
d="M390 938l58 -92l-225 -136l-58 92zM526 700v-140h-312v-140h312v-140h-312v-140h312v-140h-452v700h452z" />
    <glyph glyph-name="Ecircumflex" unicode="&#xca;" horiz-adv-x="581" 
d="M301 943l185 -157l-69 -73l-116 100l-117 -100l-68 73zM526 700v-140h-312v-140h312v-140h-312v-140h312v-140h-452v700h452z" />
    <glyph glyph-name="Edieresis" unicode="&#xcb;" horiz-adv-x="581" 
d="M126 810q0 33 22.5 55.5t55.5 22.5t55.5 -22.5t22.5 -55.5t-22.5 -55.5t-55.5 -22.5t-55.5 22.5t-22.5 55.5zM332 810q0 33 22.5 55.5t55.5 22.5t55.5 -22.5t22.5 -55.5t-22.5 -55.5t-55.5 -22.5t-55.5 22.5t-22.5 55.5zM526 700v-140h-312v-140h312v-140h-312v-140h312
v-140h-452v700h452z" />
    <glyph glyph-name="Igrave" unicode="&#xcc;" horiz-adv-x="288" 
d="M52 939l224 -136l-58 -93l-225 136zM214 700v-700h-140v700h140z" />
    <glyph glyph-name="Iacute" unicode="&#xcd;" horiz-adv-x="288" 
d="M227 938l58 -92l-225 -136l-58 92zM214 700v-700h-140v700h140z" />
    <glyph glyph-name="Icircumflex" unicode="&#xce;" horiz-adv-x="288" 
d="M138 943l185 -157l-69 -73l-116 100l-117 -100l-68 73zM214 700v-700h-140v700h140z" />
    <glyph glyph-name="Idieresis" unicode="&#xcf;" horiz-adv-x="288" 
d="M-37 810q0 33 22.5 55.5t55.5 22.5t55.5 -22.5t22.5 -55.5t-22.5 -55.5t-55.5 -22.5t-55.5 22.5t-22.5 55.5zM169 810q0 33 22.5 55.5t55.5 22.5t55.5 -22.5t22.5 -55.5t-22.5 -55.5t-55.5 -22.5t-55.5 22.5t-22.5 55.5zM214 700v-700h-140v700h140z" />
    <glyph glyph-name="Eth" unicode="&#xd0;" horiz-adv-x="712" 
d="M71 0v285h-74v140h74v275h254q74 0 137 -26.5t108.5 -73t71.5 -110.5t26 -140t-26 -140t-71.5 -110.5t-108.5 -73t-137 -26.5h-254zM325 140q45 0 82.5 16t64 44t41.5 66.5t15 83.5t-15 83.5t-41.5 66.5t-64 44t-82.5 16h-114v-135h142v-140h-142v-145h114z" />
    <glyph glyph-name="Ntilde" unicode="&#xd1;" horiz-adv-x="780" 
d="M458 731q-20 0 -38 7t-34 15l-30 15q-14 7 -27 7q-17 0 -33.5 -13.5t-32.5 -28.5l-65 68l26 27q14 14 30.5 25t34.5 18.5t38 7.5t38 -7t34 -15l30 -15q14 -7 27 -7q17 0 33.5 13.5t32.5 28.5l65 -68l-26 -27q-14 -14 -30.5 -25t-34.5 -18.5t-38 -7.5zM710 700v-700h-122
l-378 460v-460h-140v700h122l378 -460v460h140z" />
    <glyph glyph-name="Ograve" unicode="&#xd2;" horiz-adv-x="775" 
d="M295 939l224 -136l-58 -93l-225 136zM38 350q0 75 26.5 139t73.5 111t111 73.5t139 26.5t139 -26.5t111 -73.5t73.5 -111t26.5 -139t-26.5 -139t-73.5 -111t-111 -73.5t-139 -26.5t-139 26.5t-111 73.5t-73.5 111t-26.5 139zM598 350q0 46 -15.5 84.5t-43.5 66.5
t-66.5 43.5t-84.5 15.5t-84.5 -15.5t-66.5 -43.5t-43.5 -66.5t-15.5 -84.5t15.5 -84.5t43.5 -66.5t66.5 -43.5t84.5 -15.5t84.5 15.5t66.5 43.5t43.5 66.5t15.5 84.5z" />
    <glyph glyph-name="Oacute" unicode="&#xd3;" horiz-adv-x="775" 
d="M470 938l58 -92l-225 -136l-58 92zM38 350q0 75 26.5 139t73.5 111t111 73.5t139 26.5t139 -26.5t111 -73.5t73.5 -111t26.5 -139t-26.5 -139t-73.5 -111t-111 -73.5t-139 -26.5t-139 26.5t-111 73.5t-73.5 111t-26.5 139zM598 350q0 46 -15.5 84.5t-43.5 66.5
t-66.5 43.5t-84.5 15.5t-84.5 -15.5t-66.5 -43.5t-43.5 -66.5t-15.5 -84.5t15.5 -84.5t43.5 -66.5t66.5 -43.5t84.5 -15.5t84.5 15.5t66.5 43.5t43.5 66.5t15.5 84.5z" />
    <glyph glyph-name="Ocircumflex" unicode="&#xd4;" horiz-adv-x="775" 
d="M381 943l185 -157l-69 -73l-116 100l-117 -100l-68 73zM38 350q0 75 26.5 139t73.5 111t111 73.5t139 26.5t139 -26.5t111 -73.5t73.5 -111t26.5 -139t-26.5 -139t-73.5 -111t-111 -73.5t-139 -26.5t-139 26.5t-111 73.5t-73.5 111t-26.5 139zM598 350q0 46 -15.5 84.5
t-43.5 66.5t-66.5 43.5t-84.5 15.5t-84.5 -15.5t-66.5 -43.5t-43.5 -66.5t-15.5 -84.5t15.5 -84.5t43.5 -66.5t66.5 -43.5t84.5 -15.5t84.5 15.5t66.5 43.5t43.5 66.5t15.5 84.5z" />
    <glyph glyph-name="Otilde" unicode="&#xd5;" horiz-adv-x="775" 
d="M453 731q-20 0 -38 7t-34 15l-30 15q-14 7 -27 7q-17 0 -33.5 -13.5t-32.5 -28.5l-65 68l26 27q14 14 30.5 25t34.5 18.5t38 7.5t38 -7t34 -15l30 -15q14 -7 27 -7q17 0 33.5 13.5t32.5 28.5l65 -68l-26 -27q-14 -14 -30.5 -25t-34.5 -18.5t-38 -7.5zM38 350
q0 75 26.5 139t73.5 111t111 73.5t139 26.5t139 -26.5t111 -73.5t73.5 -111t26.5 -139t-26.5 -139t-73.5 -111t-111 -73.5t-139 -26.5t-139 26.5t-111 73.5t-73.5 111t-26.5 139zM598 350q0 46 -15.5 84.5t-43.5 66.5t-66.5 43.5t-84.5 15.5t-84.5 -15.5t-66.5 -43.5
t-43.5 -66.5t-15.5 -84.5t15.5 -84.5t43.5 -66.5t66.5 -43.5t84.5 -15.5t84.5 15.5t66.5 43.5t43.5 66.5t15.5 84.5z" />
    <glyph glyph-name="Odieresis" unicode="&#xd6;" horiz-adv-x="775" 
d="M206 810q0 33 22.5 55.5t55.5 22.5t55.5 -22.5t22.5 -55.5t-22.5 -55.5t-55.5 -22.5t-55.5 22.5t-22.5 55.5zM412 810q0 33 22.5 55.5t55.5 22.5t55.5 -22.5t22.5 -55.5t-22.5 -55.5t-55.5 -22.5t-55.5 22.5t-22.5 55.5zM38 350q0 75 26.5 139t73.5 111t111 73.5
t139 26.5t139 -26.5t111 -73.5t73.5 -111t26.5 -139t-26.5 -139t-73.5 -111t-111 -73.5t-139 -26.5t-139 26.5t-111 73.5t-73.5 111t-26.5 139zM598 350q0 46 -15.5 84.5t-43.5 66.5t-66.5 43.5t-84.5 15.5t-84.5 -15.5t-66.5 -43.5t-43.5 -66.5t-15.5 -84.5t15.5 -84.5
t43.5 -66.5t66.5 -43.5t84.5 -15.5t84.5 15.5t66.5 43.5t43.5 66.5t15.5 84.5z" />
    <glyph glyph-name="multiply" unicode="&#xd7;" 
d="M480 578l99 -98l-161 -161l161 -160l-99 -99l-160 161l-161 -161l-98 99l161 160l-161 161l98 98l161 -161z" />
    <glyph glyph-name="Oslash" unicode="&#xd8;" horiz-adv-x="788" 
d="M178 350q0 -43 13.5 -79t38.5 -64l270 324q-47 29 -112 29q-46 0 -84.5 -15.5t-66.5 -43.5t-43.5 -66.5t-15.5 -84.5zM388 140q46 0 84.5 15.5t66.5 43.5t43.5 66.5t15.5 84.5q0 79 -45 135l-268 -321q23 -11 48.5 -17.5t54.5 -6.5zM388 0q-55 0 -103.5 14.5t-90.5 40.5
l-51 -61l-54 45l50 60q-48 47 -74.5 111t-26.5 140q0 75 26.5 139t73.5 111t111 73.5t139 26.5q58 0 109.5 -16t93.5 -45l56 67l53 -46l-56 -67q45 -47 69.5 -108.5t24.5 -134.5q0 -75 -26.5 -139t-73.5 -111t-111 -73.5t-139 -26.5z" />
    <glyph glyph-name="Ugrave" unicode="&#xd9;" horiz-adv-x="767" 
d="M292 939l224 -136l-58 -93l-225 136zM709 700v-376q0 -72 -24.5 -131.5t-68 -102.5t-103 -66.5t-129.5 -23.5t-129.5 23.5t-103 66.5t-68.5 102.5t-25 131.5v376h140v-376q0 -43 14 -77t39 -58t59 -36.5t74 -12.5t73.5 12.5t58.5 36.5t39 58t14 77v376h140z" />
    <glyph glyph-name="Uacute" unicode="&#xda;" horiz-adv-x="767" 
d="M467 938l58 -92l-225 -136l-58 92zM709 700v-376q0 -72 -24.5 -131.5t-68 -102.5t-103 -66.5t-129.5 -23.5t-129.5 23.5t-103 66.5t-68.5 102.5t-25 131.5v376h140v-376q0 -43 14 -77t39 -58t59 -36.5t74 -12.5t73.5 12.5t58.5 36.5t39 58t14 77v376h140z" />
    <glyph glyph-name="Ucircumflex" unicode="&#xdb;" horiz-adv-x="767" 
d="M378 943l185 -157l-69 -73l-116 100l-117 -100l-68 73zM709 700v-376q0 -72 -24.5 -131.5t-68 -102.5t-103 -66.5t-129.5 -23.5t-129.5 23.5t-103 66.5t-68.5 102.5t-25 131.5v376h140v-376q0 -43 14 -77t39 -58t59 -36.5t74 -12.5t73.5 12.5t58.5 36.5t39 58t14 77v376
h140z" />
    <glyph glyph-name="Udieresis" unicode="&#xdc;" horiz-adv-x="767" 
d="M203 810q0 33 22.5 55.5t55.5 22.5t55.5 -22.5t22.5 -55.5t-22.5 -55.5t-55.5 -22.5t-55.5 22.5t-22.5 55.5zM409 810q0 33 22.5 55.5t55.5 22.5t55.5 -22.5t22.5 -55.5t-22.5 -55.5t-55.5 -22.5t-55.5 22.5t-22.5 55.5zM709 700v-376q0 -72 -24.5 -131.5t-68 -102.5
t-103 -66.5t-129.5 -23.5t-129.5 23.5t-103 66.5t-68.5 102.5t-25 131.5v376h140v-376q0 -43 14 -77t39 -58t59 -36.5t74 -12.5t73.5 12.5t58.5 36.5t39 58t14 77v376h140z" />
    <glyph glyph-name="Yacute" unicode="&#xdd;" horiz-adv-x="710" 
d="M437 938l58 -92l-225 -136l-58 92zM285 0v271l-286 429h169l187 -280l187 280h169l-286 -429v-271h-140z" />
    <glyph glyph-name="Thorn" unicode="&#xde;" horiz-adv-x="623" 
d="M214 455v-210h113q49 0 78.5 30t29.5 75q0 46 -29.5 75.5t-78.5 29.5h-113zM214 105v-105h-140v700h140v-105h113q55 0 101 -18.5t79 -51t51 -77.5t18 -98t-18 -98t-51 -77.5t-79 -51t-101 -18.5h-113z" />
    <glyph glyph-name="germandbls" unicode="&#xdf;" horiz-adv-x="575" 
d="M58 471q0 52 14 96t42.5 76t71.5 50.5t100 18.5q52 0 91 -14.5t65 -38.5t39 -56t13 -68q0 -24 -6.5 -47.5t-19 -43.5t-30 -34.5t-38.5 -20.5q67 -10 107.5 -58t40.5 -126q0 -51 -17.5 -90.5t-49 -66.5t-75 -41t-96.5 -14q-17 0 -33 2l-36 3v126q12 -1 27.5 -2t28.5 -1
q54 0 86 24.5t32 74.5q0 46 -31.5 73.5t-94.5 26.5h-38v112h23q45 0 67.5 22.5t22.5 59.5q0 32 -22 52t-63 20q-42 0 -67 -28.5t-25 -86.5v-545h-129v545z" />
    <glyph glyph-name="agrave" unicode="&#xe0;" horiz-adv-x="538" 
d="M185 768l224 -136l-58 -93l-225 136zM352 222l-124 -15q-31 -5 -46.5 -19.5t-15.5 -35.5q0 -24 18 -38.5t53 -14.5q26 0 47.5 8.5t36.5 22.5t23 32.5t8 39.5v20zM42 398q25 57 83 85t140 28q110 0 164.5 -49t54.5 -154v-309h-132v68q-20 -30 -57.5 -54t-96.5 -24
q-37 0 -68 11.5t-53.5 32t-35 49t-12.5 63.5q0 34 12 61.5t33.5 47.5t50.5 32.5t64 15.5l137 12q26 3 26 20v8q0 22 -21 36t-66 14q-20 0 -39 -3.5t-36 -11t-30 -19.5t-20 -30z" />
    <glyph glyph-name="aacute" unicode="&#xe1;" horiz-adv-x="538" 
d="M349 767l58 -92l-225 -136l-58 92zM352 222l-124 -15q-31 -5 -46.5 -19.5t-15.5 -35.5q0 -24 18 -38.5t53 -14.5q26 0 47.5 8.5t36.5 22.5t23 32.5t8 39.5v20zM42 398q25 57 83 85t140 28q110 0 164.5 -49t54.5 -154v-309h-132v68q-20 -30 -57.5 -54t-96.5 -24
q-37 0 -68 11.5t-53.5 32t-35 49t-12.5 63.5q0 34 12 61.5t33.5 47.5t50.5 32.5t64 15.5l137 12q26 3 26 20v8q0 22 -21 36t-66 14q-20 0 -39 -3.5t-36 -11t-30 -19.5t-20 -30z" />
    <glyph glyph-name="acircumflex" unicode="&#xe2;" horiz-adv-x="538" 
d="M268 768l185 -157l-69 -73l-116 100l-117 -100l-68 73zM352 222l-124 -15q-31 -5 -46.5 -19.5t-15.5 -35.5q0 -24 18 -38.5t53 -14.5q26 0 47.5 8.5t36.5 22.5t23 32.5t8 39.5v20zM42 398q25 57 83 85t140 28q110 0 164.5 -49t54.5 -154v-309h-132v68q-20 -30 -57.5 -54
t-96.5 -24q-37 0 -68 11.5t-53.5 32t-35 49t-12.5 63.5q0 34 12 61.5t33.5 47.5t50.5 32.5t64 15.5l137 12q26 3 26 20v8q0 22 -21 36t-66 14q-20 0 -39 -3.5t-36 -11t-30 -19.5t-20 -30z" />
    <glyph glyph-name="atilde" unicode="&#xe3;" horiz-adv-x="538" 
d="M333 552q-20 0 -38 7t-34 15l-30 15q-14 7 -27 7q-17 0 -33.5 -13.5t-32.5 -28.5l-65 68l26 27q14 14 30.5 25t34.5 18.5t38 7.5t38 -7t34 -15l30 -15q14 -7 27 -7q17 0 33.5 13.5t32.5 28.5l65 -68l-26 -27q-14 -14 -30.5 -25t-34.5 -18.5t-38 -7.5zM352 222l-124 -15
q-31 -5 -46.5 -19.5t-15.5 -35.5q0 -24 18 -38.5t53 -14.5q26 0 47.5 8.5t36.5 22.5t23 32.5t8 39.5v20zM42 398q25 57 83 85t140 28q110 0 164.5 -49t54.5 -154v-309h-132v68q-20 -30 -57.5 -54t-96.5 -24q-37 0 -68 11.5t-53.5 32t-35 49t-12.5 63.5q0 34 12 61.5
t33.5 47.5t50.5 32.5t64 15.5l137 12q26 3 26 20v8q0 22 -21 36t-66 14q-20 0 -39 -3.5t-36 -11t-30 -19.5t-20 -30z" />
    <glyph glyph-name="adieresis" unicode="&#xe4;" horiz-adv-x="538" 
d="M87 644q0 33 22.5 55.5t55.5 22.5t55.5 -22.5t22.5 -55.5t-22.5 -55.5t-55.5 -22.5t-55.5 22.5t-22.5 55.5zM293 644q0 33 22.5 55.5t55.5 22.5t55.5 -22.5t22.5 -55.5t-22.5 -55.5t-55.5 -22.5t-55.5 22.5t-22.5 55.5zM352 222l-124 -15q-31 -5 -46.5 -19.5t-15.5 -35.5
q0 -24 18 -38.5t53 -14.5q26 0 47.5 8.5t36.5 22.5t23 32.5t8 39.5v20zM42 398q25 57 83 85t140 28q110 0 164.5 -49t54.5 -154v-309h-132v68q-20 -30 -57.5 -54t-96.5 -24q-37 0 -68 11.5t-53.5 32t-35 49t-12.5 63.5q0 34 12 61.5t33.5 47.5t50.5 32.5t64 15.5l137 12
q26 3 26 20v8q0 22 -21 36t-66 14q-20 0 -39 -3.5t-36 -11t-30 -19.5t-20 -30z" />
    <glyph glyph-name="aring" unicode="&#xe5;" horiz-adv-x="538" 
d="M136 683q0 28 10 52.5t28 42t42 27.5t52 10t52 -10t42 -27.5t28 -42t10 -52.5q0 -29 -10 -53t-28 -41.5t-42 -27.5t-52 -10t-52 10t-42 27.5t-28 41.5t-10 53zM319 683q0 23 -14.5 37t-36.5 14q-23 0 -37 -14t-14 -37q0 -22 14 -36.5t37 -14.5q22 0 36.5 14.5t14.5 36.5z
M352 222l-124 -15q-31 -5 -46.5 -19.5t-15.5 -35.5q0 -24 18 -38.5t53 -14.5q26 0 47.5 8.5t36.5 22.5t23 32.5t8 39.5v20zM42 398q25 57 83 85t140 28q110 0 164.5 -49t54.5 -154v-309h-132v68q-20 -30 -57.5 -54t-96.5 -24q-37 0 -68 11.5t-53.5 32t-35 49t-12.5 63.5
q0 34 12 61.5t33.5 47.5t50.5 32.5t64 15.5l137 12q26 3 26 20v8q0 22 -21 36t-66 14q-20 0 -39 -3.5t-36 -11t-30 -19.5t-20 -30z" />
    <glyph glyph-name="ae" unicode="&#xe6;" horiz-adv-x="877" 
d="M623 -12q-72 0 -123.5 25.5t-83.5 70.5q-36 -45 -89 -70t-116 -25q-41 0 -74.5 11.5t-57.5 32t-37 49.5t-13 64q0 34 12 61t33.5 47t50.5 32.5t64 15.5l137 12q26 3 26 20v8q0 22 -21 36t-66 14q-20 0 -39 -3.5t-36 -11t-30 -19.5t-20 -30l-98 70q23 55 81.5 84t133.5 29
q60 0 103.5 -19.5t70.5 -55.5q31 35 76 55.5t103 20.5q55 0 100 -19t76.5 -53.5t48.5 -84t17 -109.5v-36h-368v-2q13 -51 52 -73.5t85 -22.5q41 0 77 14.5t62 36.5l56 -109q-32 -26 -81 -46t-112 -20zM708 306q-5 41 -31.5 67.5t-77.5 26.5q-46 0 -76 -24t-40 -70h225z
M352 222l-124 -15q-31 -5 -46.5 -19.5t-15.5 -35.5q0 -24 18 -38.5t53 -14.5q26 0 47 8.5t36 22.5t23.5 32.5t8.5 39.5v20z" />
    <glyph glyph-name="ccedilla" unicode="&#xe7;" horiz-adv-x="502" 
d="M282 -213q-21 0 -42 5t-41 12v103q23 -7 38.5 -10.5t27.5 -3.5q11 0 17 4.5t6 17.5t-7.5 31t-26.5 44q-50 6 -91.5 27t-71.5 54.5t-47 78.5t-17 100q0 59 20 107.5t55.5 83t84.5 53t107 18.5q60 0 108 -19.5t82 -53.5l-75 -106q-21 21 -49 35.5t-66 14.5q-28 0 -52 -9.5
t-41.5 -27t-27.5 -42t-10 -54.5t10 -54.5t27.5 -42t41.5 -27t52 -9.5q38 0 67.5 15t50.5 36l73 -106q-23 -23 -55 -41t-72 -26q21 -29 30.5 -54t9.5 -48q0 -48 -31.5 -77t-84.5 -29z" />
    <glyph glyph-name="egrave" unicode="&#xe8;" horiz-adv-x="555" 
d="M207 768l224 -136l-58 -93l-225 136zM27 250q0 55 18 103t51 83.5t80.5 55.5t106.5 20q57 0 103 -19t78 -53.5t49 -84t17 -109.5v-36h-368l1 -2q6 -25 19.5 -43t31.5 -30t39.5 -17.5t43.5 -5.5q45 0 80.5 14t61.5 37l55 -109q-31 -26 -79 -46t-120 -20q-63 0 -113 20
t-84.5 55t-52.5 83t-18 104zM386 306q-5 41 -32 67.5t-75 26.5t-78 -24.5t-40 -69.5h225z" />
    <glyph glyph-name="eacute" unicode="&#xe9;" horiz-adv-x="555" 
d="M371 767l58 -92l-225 -136l-58 92zM27 250q0 55 18 103t51 83.5t80.5 55.5t106.5 20q57 0 103 -19t78 -53.5t49 -84t17 -109.5v-36h-368l1 -2q6 -25 19.5 -43t31.5 -30t39.5 -17.5t43.5 -5.5q45 0 80.5 14t61.5 37l55 -109q-31 -26 -79 -46t-120 -20q-63 0 -113 20
t-84.5 55t-52.5 83t-18 104zM386 306q-5 41 -32 67.5t-75 26.5t-78 -24.5t-40 -69.5h225z" />
    <glyph glyph-name="ecircumflex" unicode="&#xea;" horiz-adv-x="555" 
d="M291 768l185 -157l-69 -73l-116 100l-117 -100l-68 73zM27 250q0 55 18 103t51 83.5t80.5 55.5t106.5 20q57 0 103 -19t78 -53.5t49 -84t17 -109.5v-36h-368l1 -2q6 -25 19.5 -43t31.5 -30t39.5 -17.5t43.5 -5.5q45 0 80.5 14t61.5 37l55 -109q-31 -26 -79 -46t-120 -20
q-63 0 -113 20t-84.5 55t-52.5 83t-18 104zM386 306q-5 41 -32 67.5t-75 26.5t-78 -24.5t-40 -69.5h225z" />
    <glyph glyph-name="edieresis" unicode="&#xeb;" horiz-adv-x="555" 
d="M110 644q0 33 22.5 55.5t55.5 22.5t55.5 -22.5t22.5 -55.5t-22.5 -55.5t-55.5 -22.5t-55.5 22.5t-22.5 55.5zM316 644q0 33 22.5 55.5t55.5 22.5t55.5 -22.5t22.5 -55.5t-22.5 -55.5t-55.5 -22.5t-55.5 22.5t-22.5 55.5zM27 250q0 55 18 103t51 83.5t80.5 55.5t106.5 20
q57 0 103 -19t78 -53.5t49 -84t17 -109.5v-36h-368l1 -2q6 -25 19.5 -43t31.5 -30t39.5 -17.5t43.5 -5.5q45 0 80.5 14t61.5 37l55 -109q-31 -26 -79 -46t-120 -20q-63 0 -113 20t-84.5 55t-52.5 83t-18 104zM386 306q-5 41 -32 67.5t-75 26.5t-78 -24.5t-40 -69.5h225z" />
    <glyph glyph-name="igrave" unicode="&#xec;" horiz-adv-x="262" 
d="M48 768l224 -136l-58 -93l-225 136zM197 500v-500h-132v500h132z" />
    <glyph glyph-name="iacute" unicode="&#xed;" horiz-adv-x="262" 
d="M212 767l58 -92l-225 -136l-58 92zM197 500v-500h-132v500h132z" />
    <glyph glyph-name="icircumflex" unicode="&#xee;" horiz-adv-x="262" 
d="M131 768l185 -157l-69 -73l-116 100l-117 -100l-68 73zM197 500v-500h-132v500h132z" />
    <glyph glyph-name="idieresis" unicode="&#xef;" horiz-adv-x="262" 
d="M-50 644q0 33 22.5 55.5t55.5 22.5t55.5 -22.5t22.5 -55.5t-22.5 -55.5t-55.5 -22.5t-55.5 22.5t-22.5 55.5zM156 644q0 33 22.5 55.5t55.5 22.5t55.5 -22.5t22.5 -55.5t-22.5 -55.5t-55.5 -22.5t-55.5 22.5t-22.5 55.5zM197 500v-500h-132v500h132z" />
    <glyph glyph-name="eth" unicode="&#xf0;" horiz-adv-x="609" 
d="M293 -12q-59 0 -108 19.5t-84 54t-54.5 83t-19.5 107.5t19.5 107t53.5 82t80 52.5t99 18.5q51 0 94.5 -20.5t72.5 -67.5v7q-8 60 -39 106t-79 79l-65 -65l-69 59l49 49q-47 17 -95 23l30 115q42 -6 81.5 -17.5t77.5 -28.5l55 55l67 -60l-43 -42q32 -24 58.5 -54.5
t46.5 -68.5q27 -51 41.5 -113.5t14.5 -137.5q0 -94 -23.5 -159t-63.5 -106q-41 -42 -92 -59.5t-105 -17.5zM429 248q0 58 -35.5 96.5t-97.5 38.5q-60 0 -96.5 -35.5t-36.5 -95.5q0 -30 10 -55t27.5 -42.5t42 -27.5t53.5 -10q27 0 51.5 9t42.5 26t28.5 41t10.5 55z" />
    <glyph glyph-name="ntilde" unicode="&#xf1;" horiz-adv-x="585" 
d="M354 552q-20 0 -38 7t-34 15l-30 15q-14 7 -27 7q-17 0 -33.5 -13.5t-32.5 -28.5l-65 68l26 27q14 14 30.5 25t34.5 18.5t38 7.5t38 -7t34 -15l30 -15q14 -7 27 -7q17 0 33.5 13.5t32.5 28.5l65 -68l-26 -27q-14 -14 -30.5 -25t-34.5 -18.5t-38 -7.5zM186 428
q26 37 66.5 60.5t95.5 23.5q88 0 132.5 -53.5t44.5 -148.5v-310h-135v277q0 57 -24.5 82.5t-66.5 25.5q-58 0 -83.5 -39.5t-25.5 -106.5v-239h-132v500h128v-72z" />
    <glyph glyph-name="ograve" unicode="&#xf2;" horiz-adv-x="592" 
d="M213 768l224 -136l-58 -93l-225 136zM27 250q0 58 20.5 106.5t56.5 83t85 53.5t107 19t107 -19t85 -53.5t56.5 -83t20.5 -106.5q0 -59 -20.5 -107t-56.5 -82.5t-85 -53.5t-107 -19t-107 19t-85 53.5t-56.5 82.5t-20.5 107zM429 250q0 30 -10 54.5t-28 42t-42.5 27
t-52.5 9.5t-52.5 -9.5t-42.5 -27t-28 -42t-10 -54.5t10 -54.5t28 -42t42.5 -27t52.5 -9.5t52.5 9.5t42.5 27t28 42t10 54.5z" />
    <glyph glyph-name="oacute" unicode="&#xf3;" horiz-adv-x="592" 
d="M377 767l58 -92l-225 -136l-58 92zM27 250q0 58 20.5 106.5t56.5 83t85 53.5t107 19t107 -19t85 -53.5t56.5 -83t20.5 -106.5q0 -59 -20.5 -107t-56.5 -82.5t-85 -53.5t-107 -19t-107 19t-85 53.5t-56.5 82.5t-20.5 107zM429 250q0 30 -10 54.5t-28 42t-42.5 27
t-52.5 9.5t-52.5 -9.5t-42.5 -27t-28 -42t-10 -54.5t10 -54.5t28 -42t42.5 -27t52.5 -9.5t52.5 9.5t42.5 27t28 42t10 54.5z" />
    <glyph glyph-name="ocircumflex" unicode="&#xf4;" horiz-adv-x="592" 
d="M296 768l185 -157l-69 -73l-116 100l-117 -100l-68 73zM27 250q0 58 20.5 106.5t56.5 83t85 53.5t107 19t107 -19t85 -53.5t56.5 -83t20.5 -106.5q0 -59 -20.5 -107t-56.5 -82.5t-85 -53.5t-107 -19t-107 19t-85 53.5t-56.5 82.5t-20.5 107zM429 250q0 30 -10 54.5
t-28 42t-42.5 27t-52.5 9.5t-52.5 -9.5t-42.5 -27t-28 -42t-10 -54.5t10 -54.5t28 -42t42.5 -27t52.5 -9.5t52.5 9.5t42.5 27t28 42t10 54.5z" />
    <glyph glyph-name="otilde" unicode="&#xf5;" horiz-adv-x="592" 
d="M361 552q-20 0 -38 7t-34 15l-30 15q-14 7 -27 7q-17 0 -33.5 -13.5t-32.5 -28.5l-65 68l26 27q14 14 30.5 25t34.5 18.5t38 7.5t38 -7t34 -15l30 -15q14 -7 27 -7q17 0 33.5 13.5t32.5 28.5l65 -68l-26 -27q-14 -14 -30.5 -25t-34.5 -18.5t-38 -7.5zM27 250
q0 58 20.5 106.5t56.5 83t85 53.5t107 19t107 -19t85 -53.5t56.5 -83t20.5 -106.5q0 -59 -20.5 -107t-56.5 -82.5t-85 -53.5t-107 -19t-107 19t-85 53.5t-56.5 82.5t-20.5 107zM429 250q0 30 -10 54.5t-28 42t-42.5 27t-52.5 9.5t-52.5 -9.5t-42.5 -27t-28 -42t-10 -54.5
t10 -54.5t28 -42t42.5 -27t52.5 -9.5t52.5 9.5t42.5 27t28 42t10 54.5z" />
    <glyph glyph-name="odieresis" unicode="&#xf6;" horiz-adv-x="592" 
d="M115 644q0 33 22.5 55.5t55.5 22.5t55.5 -22.5t22.5 -55.5t-22.5 -55.5t-55.5 -22.5t-55.5 22.5t-22.5 55.5zM321 644q0 33 22.5 55.5t55.5 22.5t55.5 -22.5t22.5 -55.5t-22.5 -55.5t-55.5 -22.5t-55.5 22.5t-22.5 55.5zM27 250q0 58 20.5 106.5t56.5 83t85 53.5t107 19
t107 -19t85 -53.5t56.5 -83t20.5 -106.5q0 -59 -20.5 -107t-56.5 -82.5t-85 -53.5t-107 -19t-107 19t-85 53.5t-56.5 82.5t-20.5 107zM429 250q0 30 -10 54.5t-28 42t-42.5 27t-52.5 9.5t-52.5 -9.5t-42.5 -27t-28 -42t-10 -54.5t10 -54.5t28 -42t42.5 -27t52.5 -9.5
t52.5 9.5t42.5 27t28 42t10 54.5z" />
    <glyph glyph-name="divide" unicode="&#xf7;" 
d="M316 623q41 0 68 -26.5t27 -68.5q0 -41 -27 -67.5t-68 -26.5t-67.5 26.5t-26.5 67.5t26.5 68t67.5 27zM604 389v-140h-568v140h568zM316 209q41 0 68 -27t27 -68t-27 -67.5t-68 -26.5t-67.5 26.5t-26.5 67.5t26.5 68t67.5 27z" />
    <glyph glyph-name="oslash" unicode="&#xf8;" horiz-adv-x="592" 
d="M163 250q0 -23 6 -42.5t17 -36.5l170 199q-26 13 -60 13q-28 0 -52.5 -9.5t-42.5 -27t-28 -42t-10 -54.5zM296 117q28 0 52.5 9.5t42.5 27t28 42t10 54.5q0 43 -22 76l-168 -198q27 -11 57 -11zM296 -12q-82 0 -145 37l-33 -39l-52 44l31 37q-33 34 -51.5 80.5
t-18.5 102.5q0 58 20.5 106.5t56.5 83t85 53.5t107 19q42 0 79 -10t68 -29l35 41l51 -45l-32 -38q32 -34 50 -80t18 -101q0 -59 -20.5 -107t-56.5 -82.5t-85 -53.5t-107 -19z" />
    <glyph glyph-name="ugrave" unicode="&#xf9;" horiz-adv-x="578" 
d="M204 768l224 -136l-58 -93l-225 136zM518 500v-500h-128v76q-26 -38 -64 -63t-95 -25q-87 0 -130 54.5t-43 146.5v311h135v-278q0 -54 20 -80.5t64 -26.5q56 0 82 40.5t26 105.5v239h133z" />
    <glyph glyph-name="uacute" unicode="&#xfa;" horiz-adv-x="578" 
d="M368 767l58 -92l-225 -136l-58 92zM518 500v-500h-128v76q-26 -38 -64 -63t-95 -25q-87 0 -130 54.5t-43 146.5v311h135v-278q0 -54 20 -80.5t64 -26.5q56 0 82 40.5t26 105.5v239h133z" />
    <glyph glyph-name="ucircumflex" unicode="&#xfb;" horiz-adv-x="578" 
d="M287 768l185 -157l-69 -73l-116 100l-117 -100l-68 73zM518 500v-500h-128v76q-26 -38 -64 -63t-95 -25q-87 0 -130 54.5t-43 146.5v311h135v-278q0 -54 20 -80.5t64 -26.5q56 0 82 40.5t26 105.5v239h133z" />
    <glyph glyph-name="udieresis" unicode="&#xfc;" horiz-adv-x="578" 
d="M106 644q0 33 22.5 55.5t55.5 22.5t55.5 -22.5t22.5 -55.5t-22.5 -55.5t-55.5 -22.5t-55.5 22.5t-22.5 55.5zM312 644q0 33 22.5 55.5t55.5 22.5t55.5 -22.5t22.5 -55.5t-22.5 -55.5t-55.5 -22.5t-55.5 22.5t-22.5 55.5zM518 500v-500h-128v76q-26 -38 -64 -63t-95 -25
q-87 0 -130 54.5t-43 146.5v311h135v-278q0 -54 20 -80.5t64 -26.5q56 0 82 40.5t26 105.5v239h133z" />
    <glyph glyph-name="yacute" unicode="&#xfd;" horiz-adv-x="538" 
d="M353 767l58 -92l-225 -136l-58 92zM87 -200l122 272l-212 428h154l128 -274l123 274h140l-315 -700h-140z" />
    <glyph glyph-name="thorn" unicode="&#xfe;" horiz-adv-x="611" 
d="M317 116q28 0 52 9.5t41.5 27t27.5 42.5t10 55t-10 55t-27.5 42.5t-41.5 27t-52 9.5q-56 0 -93.5 -36t-37.5 -98q0 -63 37.5 -98.5t93.5 -35.5zM58 -200v900h132v-270q27 38 69 60.5t97 22.5q46 0 87.5 -17.5t73 -51t49.5 -82.5t18 -112t-18 -112t-49 -82.5t-72 -51
t-87 -17.5q-59 0 -100.5 24.5t-67.5 60.5v-272h-132z" />
    <glyph glyph-name="ydieresis" unicode="&#xff;" horiz-adv-x="538" 
d="M91 644q0 33 22.5 55.5t55.5 22.5t55.5 -22.5t22.5 -55.5t-22.5 -55.5t-55.5 -22.5t-55.5 22.5t-22.5 55.5zM297 644q0 33 22.5 55.5t55.5 22.5t55.5 -22.5t22.5 -55.5t-22.5 -55.5t-55.5 -22.5t-55.5 22.5t-22.5 55.5zM87 -200l122 272l-212 428h154l128 -274l123 274
h140l-315 -700h-140z" />
    <glyph glyph-name="Amacron" unicode="&#x100;" horiz-adv-x="792" 
d="M546 854v-99h-300v99h300zM277 250h238l-119 258zM580 110h-368l-51 -110h-154l324 700h130l324 -700h-154z" />
    <glyph glyph-name="amacron" unicode="&#x101;" horiz-adv-x="538" 
d="M418 695v-99h-300v99h300zM352 222l-124 -15q-31 -5 -46.5 -19.5t-15.5 -35.5q0 -24 18 -38.5t53 -14.5q26 0 47.5 8.5t36.5 22.5t23 32.5t8 39.5v20zM42 398q25 57 83 85t140 28q110 0 164.5 -49t54.5 -154v-309h-132v68q-20 -30 -57.5 -54t-96.5 -24q-37 0 -68 11.5
t-53.5 32t-35 49t-12.5 63.5q0 34 12 61.5t33.5 47.5t50.5 32.5t64 15.5l137 12q26 3 26 20v8q0 22 -21 36t-66 14q-20 0 -39 -3.5t-36 -11t-30 -19.5t-20 -30z" />
    <glyph glyph-name="Abreve" unicode="&#x102;" horiz-adv-x="792" 
d="M552 894q0 -35 -11 -65t-31 -51.5t-49 -33.5t-66 -12q-36 0 -65 12t-49.5 33.5t-31 51.5t-10.5 65h102q0 -28 14 -45t40 -17q27 0 41 17t14 45h102zM277 250h238l-119 258zM580 110h-368l-51 -110h-154l324 700h130l324 -700h-154z" />
    <glyph glyph-name="abreve" unicode="&#x103;" horiz-adv-x="538" 
d="M425 731q0 -35 -11 -65t-31 -51.5t-49 -33.5t-66 -12q-36 0 -65 12t-49.5 33.5t-31 51.5t-10.5 65h102q0 -28 14 -45t40 -17q27 0 41 17t14 45h102zM352 222l-124 -15q-31 -5 -46.5 -19.5t-15.5 -35.5q0 -24 18 -38.5t53 -14.5q26 0 47.5 8.5t36.5 22.5t23 32.5t8 39.5
v20zM42 398q25 57 83 85t140 28q110 0 164.5 -49t54.5 -154v-309h-132v68q-20 -30 -57.5 -54t-96.5 -24q-37 0 -68 11.5t-53.5 32t-35 49t-12.5 63.5q0 34 12 61.5t33.5 47.5t50.5 32.5t64 15.5l137 12q26 3 26 20v8q0 22 -21 36t-66 14q-20 0 -39 -3.5t-36 -11t-30 -19.5
t-20 -30z" />
    <glyph glyph-name="Aogonek" unicode="&#x104;" horiz-adv-x="792" 
d="M277 250h238l-119 258zM711 -202q-17 -5 -35 -8t-38 -3q-54 0 -83.5 26t-29.5 69q0 33 21 69t70 81l-36 78h-368l-51 -110h-154l324 700h130l324 -700h-107q-26 -28 -37 -47.5t-11 -35.5q0 -24 28 -24q7 0 20 1.5t33 6.5v-103z" />
    <glyph glyph-name="aogonek" unicode="&#x105;" horiz-adv-x="538" 
d="M352 222l-124 -15q-31 -5 -46.5 -19.5t-15.5 -35.5q0 -24 18 -38.5t53 -14.5q26 0 47.5 8.5t36.5 22.5t23 32.5t8 39.5v20zM455 -202q-17 -5 -35 -8t-38 -3q-54 0 -83.5 26t-29.5 69q0 32 19 66t64 76v43q-20 -30 -57.5 -54t-96.5 -24q-37 0 -68 11.5t-53.5 32t-35 49
t-12.5 63.5q0 34 12 61.5t33.5 47.5t50.5 32.5t64 15.5l137 12q26 3 26 20v8q0 22 -21 36t-66 14q-20 0 -39 -3.5t-36 -11t-30 -19.5t-20 -30l-98 70q25 57 83 85t140 28q110 0 164.5 -49t54.5 -154v-309h-63q-26 -27 -36.5 -46.5t-10.5 -35.5q0 -24 28 -24q7 0 20 1.5
t33 6.5v-103z" />
    <glyph glyph-name="Cacute" unicode="&#x106;" horiz-adv-x="650" 
d="M461 938l58 -92l-225 -136l-58 92zM38 351q0 75 26.5 138.5t73.5 110.5t111 73.5t138 26.5q71 0 137 -24t117 -72l-67 -129q-39 42 -86 63.5t-101 21.5q-45 0 -83.5 -15.5t-66.5 -43t-43.5 -66.5t-15.5 -85q0 -47 15.5 -85.5t43.5 -66t66 -43t83 -15.5q28 0 63 6.5
t73 26.5l30 -137q-42 -17 -81.5 -26.5t-84.5 -9.5q-74 0 -137.5 26.5t-110 74t-73.5 111.5t-27 139z" />
    <glyph glyph-name="cacute" unicode="&#x107;" horiz-adv-x="502" 
d="M365 767l58 -92l-225 -136l-58 92zM27 250q0 59 20 107.5t55.5 83t84.5 53t107 18.5q60 0 108 -19.5t82 -53.5l-75 -106q-21 21 -49 35.5t-66 14.5q-28 0 -52 -9.5t-41.5 -27t-27.5 -42t-10 -54.5t10 -54.5t27.5 -42t41.5 -27t52 -9.5q38 0 67.5 15t50.5 36l73 -106
q-32 -32 -81 -53t-112 -21q-57 0 -106 18.5t-84 53t-55 82.5t-20 108z" />
    <glyph glyph-name="Ccircumflex" unicode="&#x108;" horiz-adv-x="650" 
d="M372 943l185 -157l-69 -73l-116 100l-117 -100l-68 73zM38 351q0 75 26.5 138.5t73.5 110.5t111 73.5t138 26.5q71 0 137 -24t117 -72l-67 -129q-39 42 -86 63.5t-101 21.5q-45 0 -83.5 -15.5t-66.5 -43t-43.5 -66.5t-15.5 -85q0 -47 15.5 -85.5t43.5 -66t66 -43
t83 -15.5q28 0 63 6.5t73 26.5l30 -137q-42 -17 -81.5 -26.5t-84.5 -9.5q-74 0 -137.5 26.5t-110 74t-73.5 111.5t-27 139z" />
    <glyph glyph-name="ccircumflex" unicode="&#x109;" horiz-adv-x="502" 
d="M285 768l185 -157l-69 -73l-116 100l-117 -100l-68 73zM27 250q0 59 20 107.5t55.5 83t84.5 53t107 18.5q60 0 108 -19.5t82 -53.5l-75 -106q-21 21 -49 35.5t-66 14.5q-28 0 -52 -9.5t-41.5 -27t-27.5 -42t-10 -54.5t10 -54.5t27.5 -42t41.5 -27t52 -9.5q38 0 67.5 15
t50.5 36l73 -106q-32 -32 -81 -53t-112 -21q-57 0 -106 18.5t-84 53t-55 82.5t-20 108z" />
    <glyph glyph-name="Cdotaccent" unicode="&#x10a;" horiz-adv-x="650" 
d="M294 806q0 36 24 60.5t60 24.5t60.5 -24.5t24.5 -60.5t-24.5 -60t-60.5 -24t-60 24t-24 60zM38 351q0 75 26.5 138.5t73.5 110.5t111 73.5t138 26.5q71 0 137 -24t117 -72l-67 -129q-39 42 -86 63.5t-101 21.5q-45 0 -83.5 -15.5t-66.5 -43t-43.5 -66.5t-15.5 -85
q0 -47 15.5 -85.5t43.5 -66t66 -43t83 -15.5q28 0 63 6.5t73 26.5l30 -137q-42 -17 -81.5 -26.5t-84.5 -9.5q-74 0 -137.5 26.5t-110 74t-73.5 111.5t-27 139z" />
    <glyph glyph-name="cdotaccent" unicode="&#x10b;" horiz-adv-x="502" 
d="M200 643q0 36 24 60.5t60 24.5t60.5 -24.5t24.5 -60.5t-24.5 -60t-60.5 -24t-60 24t-24 60zM27 250q0 59 20 107.5t55.5 83t84.5 53t107 18.5q60 0 108 -19.5t82 -53.5l-75 -106q-21 21 -49 35.5t-66 14.5q-28 0 -52 -9.5t-41.5 -27t-27.5 -42t-10 -54.5t10 -54.5
t27.5 -42t41.5 -27t52 -9.5q38 0 67.5 15t50.5 36l73 -106q-32 -32 -81 -53t-112 -21q-57 0 -106 18.5t-84 53t-55 82.5t-20 108z" />
    <glyph glyph-name="Ccaron" unicode="&#x10c;" horiz-adv-x="650" 
d="M488 955l69 -73l-185 -157l-185 157l68 73l117 -100zM38 351q0 75 26.5 138.5t73.5 110.5t111 73.5t138 26.5q71 0 137 -24t117 -72l-67 -129q-39 42 -86 63.5t-101 21.5q-45 0 -83.5 -15.5t-66.5 -43t-43.5 -66.5t-15.5 -85q0 -47 15.5 -85.5t43.5 -66t66 -43t83 -15.5
q28 0 63 6.5t73 26.5l30 -137q-42 -17 -81.5 -26.5t-84.5 -9.5q-74 0 -137.5 26.5t-110 74t-73.5 111.5t-27 139z" />
    <glyph glyph-name="ccaron" unicode="&#x10d;" horiz-adv-x="502" 
d="M394 785l69 -73l-185 -157l-185 157l68 73l117 -100zM27 250q0 59 20 107.5t55.5 83t84.5 53t107 18.5q60 0 108 -19.5t82 -53.5l-75 -106q-21 21 -49 35.5t-66 14.5q-28 0 -52 -9.5t-41.5 -27t-27.5 -42t-10 -54.5t10 -54.5t27.5 -42t41.5 -27t52 -9.5q38 0 67.5 15
t50.5 36l73 -106q-32 -32 -81 -53t-112 -21q-57 0 -106 18.5t-84 53t-55 82.5t-20 108z" />
    <glyph glyph-name="Dcaron" unicode="&#x10e;" horiz-adv-x="708" 
d="M438 955l69 -73l-185 -157l-185 157l68 73l117 -100zM328 700q74 0 137 -26.5t108.5 -73t71.5 -110.5t26 -140t-26 -140t-71.5 -110.5t-108.5 -73t-137 -26.5h-254v700h254zM531 350q0 45 -15 83.5t-41.5 66.5t-64 44t-82.5 16h-114v-420h114q45 0 82.5 16t64 44
t41.5 66.5t15 83.5z" />
    <glyph glyph-name="dcaron" unicode="&#x10f;" horiz-adv-x="796" 
d="M586 415l72 118q-25 11 -40.5 34t-15.5 52q0 19 7 35.5t20 29.5t29.5 20.5t36.5 7.5q40 0 66.5 -27.5t26.5 -65.5q0 -30 -17 -53l-117 -190zM294 384q-28 0 -52 -9.5t-41.5 -27t-27.5 -42.5t-10 -55t10 -55t27.5 -42.5t41.5 -27t52 -9.5q56 0 93.5 36t37.5 98
q0 63 -37.5 98.5t-93.5 35.5zM553 700v-700h-132v70q-27 -38 -69 -60.5t-97 -22.5q-47 0 -88 17.5t-72.5 51t-49.5 82.5t-18 112t18 112t49 82.5t72 51t87 17.5q59 0 100.5 -24.5t67.5 -60.5v272h132z" />
    <glyph glyph-name="Dcroat" unicode="&#x110;" horiz-adv-x="712" 
d="M71 0v285h-74v140h74v275h254q74 0 137 -26.5t108.5 -73t71.5 -110.5t26 -140t-26 -140t-71.5 -110.5t-108.5 -73t-137 -26.5h-254zM325 140q45 0 82.5 16t64 44t41.5 66.5t15 83.5t-15 83.5t-41.5 66.5t-64 44t-82.5 16h-114v-135h142v-140h-142v-145h114z" />
    <glyph glyph-name="dcroat" unicode="&#x111;" horiz-adv-x="614" 
d="M294 384q-28 0 -52 -9.5t-41.5 -27t-27.5 -42.5t-10 -55t10 -55t27.5 -42.5t41.5 -27t52 -9.5q56 0 93.5 36t37.5 98q0 63 -37.5 98.5t-93.5 35.5zM421 70q-27 -38 -69 -60.5t-97 -22.5q-47 0 -88 17.5t-72.5 51t-49.5 82.5t-18 112t18 112t49 82.5t72 51t87 17.5
q59 0 100.5 -24.5t67.5 -60.5v131h-99v97h99v44h132v-44h59v-97h-59v-559h-132v70z" />
    <glyph glyph-name="Emacron" unicode="&#x112;" horiz-adv-x="581" 
d="M457 854v-99h-300v99h300zM526 700v-140h-312v-140h312v-140h-312v-140h312v-140h-452v700h452z" />
    <glyph glyph-name="emacron" unicode="&#x113;" horiz-adv-x="555" 
d="M440 695v-99h-300v99h300zM27 250q0 55 18 103t51 83.5t80.5 55.5t106.5 20q57 0 103 -19t78 -53.5t49 -84t17 -109.5v-36h-368l1 -2q6 -25 19.5 -43t31.5 -30t39.5 -17.5t43.5 -5.5q45 0 80.5 14t61.5 37l55 -109q-31 -26 -79 -46t-120 -20q-63 0 -113 20t-84.5 55
t-52.5 83t-18 104zM386 306q-5 41 -32 67.5t-75 26.5t-78 -24.5t-40 -69.5h225z" />
    <glyph glyph-name="Ebreve" unicode="&#x114;" horiz-adv-x="581" 
d="M463 894q0 -35 -11 -65t-31 -51.5t-49 -33.5t-66 -12q-36 0 -65 12t-49.5 33.5t-31 51.5t-10.5 65h102q0 -28 14 -45t40 -17q27 0 41 17t14 45h102zM526 700v-140h-312v-140h312v-140h-312v-140h312v-140h-452v700h452z" />
    <glyph glyph-name="ebreve" unicode="&#x115;" horiz-adv-x="555" 
d="M447 731q0 -35 -11 -65t-31 -51.5t-49 -33.5t-66 -12q-36 0 -65 12t-49.5 33.5t-31 51.5t-10.5 65h102q0 -28 14 -45t40 -17q27 0 41 17t14 45h102zM27 250q0 55 18 103t51 83.5t80.5 55.5t106.5 20q57 0 103 -19t78 -53.5t49 -84t17 -109.5v-36h-368l1 -2
q6 -25 19.5 -43t31.5 -30t39.5 -17.5t43.5 -5.5q45 0 80.5 14t61.5 37l55 -109q-31 -26 -79 -46t-120 -20q-63 0 -113 20t-84.5 55t-52.5 83t-18 104zM386 306q-5 41 -32 67.5t-75 26.5t-78 -24.5t-40 -69.5h225z" />
    <glyph glyph-name="Edotaccent" unicode="&#x116;" horiz-adv-x="581" 
d="M223 806q0 36 24 60.5t60 24.5t60.5 -24.5t24.5 -60.5t-24.5 -60t-60.5 -24t-60 24t-24 60zM526 700v-140h-312v-140h312v-140h-312v-140h312v-140h-452v700h452z" />
    <glyph glyph-name="edotaccent" unicode="&#x117;" horiz-adv-x="555" 
d="M206 643q0 36 24 60.5t60 24.5t60.5 -24.5t24.5 -60.5t-24.5 -60t-60.5 -24t-60 24t-24 60zM27 250q0 55 18 103t51 83.5t80.5 55.5t106.5 20q57 0 103 -19t78 -53.5t49 -84t17 -109.5v-36h-368l1 -2q6 -25 19.5 -43t31.5 -30t39.5 -17.5t43.5 -5.5q45 0 80.5 14t61.5 37
l55 -109q-31 -26 -79 -46t-120 -20q-63 0 -113 20t-84.5 55t-52.5 83t-18 104zM386 306q-5 41 -32 67.5t-75 26.5t-78 -24.5t-40 -69.5h225z" />
    <glyph glyph-name="Eogonek" unicode="&#x118;" horiz-adv-x="581" 
d="M506 -202q-17 -5 -35 -8t-38 -3q-54 0 -83.5 26t-29.5 69q0 27 13.5 55.5t45.5 62.5h-305v700h452v-140h-312v-140h312v-140h-312v-140h312v-140h-53q-26 -28 -37 -47.5t-11 -35.5q0 -24 28 -24q7 0 20 1.5t33 6.5v-103z" />
    <glyph glyph-name="eogonek" unicode="&#x119;" horiz-adv-x="555" 
d="M383 -213q-54 0 -83.5 26t-29.5 69q0 25 11.5 51t37.5 56q-6 -1 -12 -1h-12q-63 0 -113 20t-84.5 55t-52.5 83t-18 104q0 55 18 103t51 83.5t80.5 55.5t106.5 20q57 0 103 -19t78 -53.5t49 -84t17 -109.5v-36h-368l1 -2q6 -25 19.5 -43t31.5 -30t39.5 -17.5t43.5 -5.5
q45 0 80.5 14t61.5 37l55 -109l-23 -16q-12 -9 -26 -17q-39 -36 -54.5 -60.5t-15.5 -43.5q0 -24 28 -24q7 0 20 1.5t33 6.5v-103q-17 -5 -35 -8t-38 -3zM386 306q-5 41 -32 67.5t-75 26.5t-78 -24.5t-40 -69.5h225z" />
    <glyph glyph-name="Ecaron" unicode="&#x11a;" horiz-adv-x="581" 
d="M417 955l69 -73l-185 -157l-185 157l68 73l117 -100zM526 700v-140h-312v-140h312v-140h-312v-140h312v-140h-452v700h452z" />
    <glyph glyph-name="ecaron" unicode="&#x11b;" horiz-adv-x="555" 
d="M400 785l69 -73l-185 -157l-185 157l68 73l117 -100zM27 250q0 55 18 103t51 83.5t80.5 55.5t106.5 20q57 0 103 -19t78 -53.5t49 -84t17 -109.5v-36h-368l1 -2q6 -25 19.5 -43t31.5 -30t39.5 -17.5t43.5 -5.5q45 0 80.5 14t61.5 37l55 -109q-31 -26 -79 -46t-120 -20
q-63 0 -113 20t-84.5 55t-52.5 83t-18 104zM386 306q-5 41 -32 67.5t-75 26.5t-78 -24.5t-40 -69.5h225z" />
    <glyph glyph-name="Gcircumflex" unicode="&#x11c;" horiz-adv-x="653" 
d="M376 943l185 -157l-69 -73l-116 100l-117 -100l-68 73zM38 349q0 76 26 140t72.5 111t111.5 73.5t143 26.5q70 0 134.5 -24t115.5 -72l-67 -129q-39 42 -85.5 63.5t-100.5 21.5q-47 0 -85.5 -15.5t-66 -43t-43 -66.5t-15.5 -85q0 -47 15 -85.5t43 -66t67 -43t86 -15.5
q14 0 28 3v114h-131v140h271v-369q-42 -13 -82.5 -20.5t-85.5 -7.5q-77 0 -141.5 26t-111 72.5t-72.5 110.5t-26 140z" />
    <glyph glyph-name="gcircumflex" unicode="&#x11d;" horiz-adv-x="617" 
d="M295 768l185 -157l-69 -73l-116 100l-117 -100l-68 73zM428 250q0 63 -36.5 98.5t-93.5 35.5q-28 0 -52 -9.5t-41.5 -27t-27.5 -42.5t-10 -55t10 -55t27.5 -42.5t41.5 -27t52 -9.5q57 0 93.5 36t36.5 98zM31 252q0 63 18.5 111.5t50.5 81.5t73.5 50t88.5 17q58 0 100 -24
t63 -58v70h132v-467q0 -48 -13 -92.5t-44.5 -78.5t-83.5 -54.5t-131 -20.5q-76 0 -129 21t-92 57l65 109q32 -31 68.5 -47t82.5 -16q42 0 70 10t45.5 27.5t24.5 41t7 50.5v32q-25 -35 -66 -56t-95 -21q-50 0 -93 17t-74.5 49.5t-49.5 80.5t-18 110z" />
    <glyph glyph-name="Gbreve" unicode="&#x11e;" horiz-adv-x="653" 
d="M538 894q0 -35 -11 -65t-31 -51.5t-49 -33.5t-66 -12q-36 0 -65 12t-49.5 33.5t-31 51.5t-10.5 65h102q0 -28 14 -45t40 -17q27 0 41 17t14 45h102zM38 349q0 76 26 140t72.5 111t111.5 73.5t143 26.5q70 0 134.5 -24t115.5 -72l-67 -129q-39 42 -85.5 63.5t-100.5 21.5
q-47 0 -85.5 -15.5t-66 -43t-43 -66.5t-15.5 -85q0 -47 15 -85.5t43 -66t67 -43t86 -15.5q14 0 28 3v114h-131v140h271v-369q-42 -13 -82.5 -20.5t-85.5 -7.5q-77 0 -141.5 26t-111 72.5t-72.5 110.5t-26 140z" />
    <glyph glyph-name="gbreve" unicode="&#x11f;" horiz-adv-x="617" 
d="M452 731q0 -35 -11 -65t-31 -51.5t-49 -33.5t-66 -12q-36 0 -65 12t-49.5 33.5t-31 51.5t-10.5 65h102q0 -28 14 -45t40 -17q27 0 41 17t14 45h102zM428 250q0 63 -36.5 98.5t-93.5 35.5q-28 0 -52 -9.5t-41.5 -27t-27.5 -42.5t-10 -55t10 -55t27.5 -42.5t41.5 -27
t52 -9.5q57 0 93.5 36t36.5 98zM31 252q0 63 18.5 111.5t50.5 81.5t73.5 50t88.5 17q58 0 100 -24t63 -58v70h132v-467q0 -48 -13 -92.5t-44.5 -78.5t-83.5 -54.5t-131 -20.5q-76 0 -129 21t-92 57l65 109q32 -31 68.5 -47t82.5 -16q42 0 70 10t45.5 27.5t24.5 41t7 50.5v32
q-25 -35 -66 -56t-95 -21q-50 0 -93 17t-74.5 49.5t-49.5 80.5t-18 110z" />
    <glyph glyph-name="Gdotaccent" unicode="&#x120;" horiz-adv-x="653" 
d="M298 806q0 36 24 60.5t60 24.5t60.5 -24.5t24.5 -60.5t-24.5 -60t-60.5 -24t-60 24t-24 60zM38 349q0 76 26 140t72.5 111t111.5 73.5t143 26.5q70 0 134.5 -24t115.5 -72l-67 -129q-39 42 -85.5 63.5t-100.5 21.5q-47 0 -85.5 -15.5t-66 -43t-43 -66.5t-15.5 -85
q0 -47 15 -85.5t43 -66t67 -43t86 -15.5q14 0 28 3v114h-131v140h271v-369q-42 -13 -82.5 -20.5t-85.5 -7.5q-77 0 -141.5 26t-111 72.5t-72.5 110.5t-26 140z" />
    <glyph glyph-name="gdotaccent" unicode="&#x121;" horiz-adv-x="617" 
d="M211 643q0 36 24 60.5t60 24.5t60.5 -24.5t24.5 -60.5t-24.5 -60t-60.5 -24t-60 24t-24 60zM428 250q0 63 -36.5 98.5t-93.5 35.5q-28 0 -52 -9.5t-41.5 -27t-27.5 -42.5t-10 -55t10 -55t27.5 -42.5t41.5 -27t52 -9.5q57 0 93.5 36t36.5 98zM31 252q0 63 18.5 111.5
t50.5 81.5t73.5 50t88.5 17q58 0 100 -24t63 -58v70h132v-467q0 -48 -13 -92.5t-44.5 -78.5t-83.5 -54.5t-131 -20.5q-76 0 -129 21t-92 57l65 109q32 -31 68.5 -47t82.5 -16q42 0 70 10t45.5 27.5t24.5 41t7 50.5v32q-25 -35 -66 -56t-95 -21q-50 0 -93 17t-74.5 49.5
t-49.5 80.5t-18 110z" />
    <glyph glyph-name="Gcommaaccent" unicode="&#x122;" horiz-adv-x="653" 
d="M38 349q0 76 26 140t72.5 111t111.5 73.5t143 26.5q70 0 134.5 -24t115.5 -72l-67 -129q-39 42 -85.5 63.5t-100.5 21.5q-47 0 -85.5 -15.5t-66 -43t-43 -66.5t-15.5 -85q0 -47 15 -85.5t43 -66t67 -43t86 -15.5q14 0 28 3v114h-131v140h271v-369q-42 -13 -82.5 -20.5
t-85.5 -7.5q-77 0 -141.5 26t-111 72.5t-72.5 110.5t-26 140zM284 -258l51 77q-18 10 -29.5 28t-11.5 41q0 33 23.5 56.5t56.5 23.5t56 -23.5t23 -56.5q0 -12 -4 -23.5t-11 -21.5l-89 -142z" />
    <glyph glyph-name="gcommaaccent" unicode="&#x123;" horiz-adv-x="617" 
d="M286 543q-33 0 -56.5 23t-23.5 56q0 25 15 45l90 143l67 -43l-50 -77q17 -11 27 -28.5t10 -39.5q0 -33 -23 -56t-56 -23zM428 250q0 63 -36.5 98.5t-93.5 35.5q-28 0 -52 -9.5t-41.5 -27t-27.5 -42.5t-10 -55t10 -55t27.5 -42.5t41.5 -27t52 -9.5q57 0 93.5 36t36.5 98z
M31 252q0 63 18.5 111.5t50.5 81.5t73.5 50t88.5 17q58 0 100 -24t63 -58v70h132v-467q0 -48 -13 -92.5t-44.5 -78.5t-83.5 -54.5t-131 -20.5q-76 0 -129 21t-92 57l65 109q32 -31 68.5 -47t82.5 -16q42 0 70 10t45.5 27.5t24.5 41t7 50.5v32q-25 -35 -66 -56t-95 -21
q-50 0 -93 17t-74.5 49.5t-49.5 80.5t-18 110z" />
    <glyph glyph-name="Hcircumflex" unicode="&#x124;" horiz-adv-x="734" 
d="M362 943l185 -157l-69 -73l-116 100l-117 -100l-68 73zM661 700v-700h-140v280h-307v-280h-140v700h140v-280h307v280h140z" />
    <glyph glyph-name="hcircumflex" unicode="&#x125;" horiz-adv-x="581" 
d="M124 943l185 -157l-69 -73l-116 100l-117 -100l-68 73zM190 700v-272q25 38 63.5 61t94.5 23q88 0 132.5 -53.5t44.5 -148.5v-310h-135v277q0 54 -23.5 81t-67.5 27q-57 0 -83 -39.5t-26 -106.5v-239h-132v700h132z" />
    <glyph glyph-name="Hbar" unicode="&#x126;" horiz-adv-x="741" 
d="M521 420v77h-307v-77h307zM214 0h-140v497h-53v121h53v82h140v-82h307v82h140v-82h59v-121h-59v-497h-140v280h-307v-280z" />
    <glyph glyph-name="hbar" unicode="&#x127;" horiz-adv-x="585" 
d="M190 0h-132v559h-57v97h57v44h132v-44h93v-97h-93v-131q25 38 63.5 61t94.5 23q88 0 132.5 -53.5t44.5 -148.5v-310h-135v277q0 54 -23.5 81t-67.5 27q-57 0 -83 -39.5t-26 -106.5v-239z" />
    <glyph glyph-name="Itilde" unicode="&#x128;" horiz-adv-x="288" 
d="M210 731q-20 0 -38 7t-34 15l-30 15q-14 7 -27 7q-17 0 -33.5 -13.5t-32.5 -28.5l-65 68l26 27q14 14 30.5 25t34.5 18.5t38 7.5t38 -7t34 -15l30 -15q14 -7 27 -7q17 0 33.5 13.5t32.5 28.5l65 -68l-26 -27q-14 -14 -30.5 -25t-34.5 -18.5t-38 -7.5zM214 700v-700h-140
v700h140z" />
    <glyph glyph-name="itilde" unicode="&#x129;" horiz-adv-x="262" 
d="M196 552q-20 0 -38 7t-34 15l-30 15q-14 7 -27 7q-17 0 -33.5 -13.5t-32.5 -28.5l-65 68l26 27q14 14 30.5 25t34.5 18.5t38 7.5t38 -7t34 -15l30 -15q14 -7 27 -7q17 0 33.5 13.5t32.5 28.5l65 -68l-26 -27q-14 -14 -30.5 -25t-34.5 -18.5t-38 -7.5zM197 500v-500h-132
v500h132z" />
    <glyph glyph-name="Imacron" unicode="&#x12a;" horiz-adv-x="288" 
d="M294 854v-99h-300v99h300zM214 700v-700h-140v700h140z" />
    <glyph glyph-name="imacron" unicode="&#x12b;" horiz-adv-x="262" 
d="M281 695v-99h-300v99h300zM197 500v-500h-132v500h132z" />
    <glyph glyph-name="Ibreve" unicode="&#x12c;" horiz-adv-x="288" 
d="M300 894q0 -35 -11 -65t-31 -51.5t-49 -33.5t-66 -12q-36 0 -65 12t-49.5 33.5t-31 51.5t-10.5 65h102q0 -28 14 -45t40 -17q27 0 41 17t14 45h102zM214 700v-700h-140v700h140z" />
    <glyph glyph-name="ibreve" unicode="&#x12d;" horiz-adv-x="262" 
d="M288 731q0 -35 -11 -65t-31 -51.5t-49 -33.5t-66 -12q-36 0 -65 12t-49.5 33.5t-31 51.5t-10.5 65h102q0 -28 14 -45t40 -17q27 0 41 17t14 45h102zM197 500v-500h-132v500h132z" />
    <glyph glyph-name="Iogonek" unicode="&#x12e;" horiz-adv-x="288" 
d="M192 -202q-17 -5 -35 -8t-38 -3q-54 0 -83.5 26t-29.5 69q0 29 16 59.5t52 67.5v691h140v-700h-55q-26 -28 -37 -47.5t-11 -35.5q0 -24 28 -24q7 0 20 1.5t33 6.5v-103z" />
    <glyph glyph-name="iogonek" unicode="&#x12f;" horiz-adv-x="262" 
d="M47 643q0 36 24 60.5t60 24.5t60.5 -24.5t24.5 -60.5t-24.5 -60t-60.5 -24t-60 24t-24 60zM180 -202q-17 -5 -35 -8t-38 -3q-54 0 -83.5 26t-29.5 69q0 29 16.5 61t54.5 70v487h132v-500h-50q-26 -28 -37 -47.5t-11 -35.5q0 -24 28 -24q7 0 20 1.5t33 6.5v-103z" />
    <glyph glyph-name="Idotaccent" unicode="&#x130;" horiz-adv-x="288" 
d="M60 806q0 36 24 60.5t60 24.5t60.5 -24.5t24.5 -60.5t-24.5 -60t-60.5 -24t-60 24t-24 60zM214 700v-700h-140v700h140z" />
    <glyph glyph-name="dotlessi" unicode="&#x131;" horiz-adv-x="262" 
d="M197 500v-500h-132v500h132z" />
    <glyph glyph-name="Jcircumflex" unicode="&#x134;" horiz-adv-x="521" 
d="M382 943l185 -157l-69 -73l-116 100l-117 -100l-68 73zM458 700v-459q0 -60 -17.5 -105.5t-48 -75.5t-71.5 -45t-89 -15q-55 0 -96.5 18t-69.5 48t-42.5 69.5t-14.5 81.5l127 57q0 -62 23 -98t74 -36q42 0 63.5 26t21.5 76v458h140z" />
    <glyph glyph-name="jcircumflex" unicode="&#x135;" horiz-adv-x="279" 
d="M139 764l185 -157l-69 -73l-116 100l-117 -100l-68 73zM213 500v-515q0 -100 -54 -145t-156 -45h-19q-7 0 -18 1v122h15q60 0 79.5 19.5t19.5 59.5v503h133z" />
    <glyph glyph-name="Kcommaaccent" unicode="&#x136;" horiz-adv-x="705" 
d="M302 294l-88 -88v-206h-140v700h140v-295l294 295h197l-304 -306l305 -394h-178zM265 -258l51 77q-18 10 -29.5 28t-11.5 41q0 33 23.5 56.5t56.5 23.5t56 -23.5t23 -56.5q0 -12 -4 -23.5t-11 -21.5l-89 -142z" />
    <glyph glyph-name="kcommaaccent" unicode="&#x137;" horiz-adv-x="553" 
d="M242 196l-52 -51v-145h-132v700h132v-392l181 192h175l-215 -215l215 -285h-170zM186 -258l51 77q-18 10 -29.5 28t-11.5 41q0 33 23.5 56.5t56.5 23.5t56 -23.5t23 -56.5q0 -12 -4 -23.5t-11 -21.5l-89 -142z" />
    <glyph glyph-name="kgreenlandic" unicode="&#x138;" horiz-adv-x="553" 
d="M242 196l-52 -51v-145h-132v500h132v-192l181 192h175l-215 -215l215 -285h-170z" />
    <glyph glyph-name="Lacute" unicode="&#x139;" horiz-adv-x="541" 
d="M309 938l58 -92l-225 -136l-58 92zM214 700v-560h318v-140h-458v700h140z" />
    <glyph glyph-name="lacute" unicode="&#x13a;" horiz-adv-x="248" 
d="M232 944l58 -92l-225 -136l-58 92zM191 700v-700h-133v700h133z" />
    <glyph glyph-name="Lcommaaccent" unicode="&#x13b;" horiz-adv-x="541" 
d="M214 700v-560h318v-140h-458v700h140zM195 -258l51 77q-18 10 -29.5 28t-11.5 41q0 33 23.5 56.5t56.5 23.5t56 -23.5t23 -56.5q0 -12 -4 -23.5t-11 -21.5l-89 -142z" />
    <glyph glyph-name="lcommaaccent" unicode="&#x13c;" horiz-adv-x="248" 
d="M191 700v-700h-133v700h133zM25 -258l51 77q-18 10 -29.5 28t-11.5 41q0 33 23.5 56.5t56.5 23.5t56 -23.5t23 -56.5q0 -12 -4 -23.5t-11 -21.5l-89 -142z" />
    <glyph glyph-name="Lcaron" unicode="&#x13d;" horiz-adv-x="541" 
d="M329 415l72 118q-25 11 -40.5 34t-15.5 52q0 19 7 36t19.5 30t29.5 20.5t37 7.5t37 -7.5t29.5 -20.5t19.5 -30t7 -36q0 -30 -17 -52l-117 -190zM214 700v-560h318v-140h-458v700h140z" />
    <glyph glyph-name="lcaron" unicode="&#x13e;" horiz-adv-x="436" 
d="M241 437l66 109q-23 10 -38 31t-15 49q0 37 24.5 61.5t63.5 24.5q38 0 61.5 -24.5t23.5 -61.5q0 -13 -3 -25t-8 -20l-109 -184zM191 700v-700h-133v700h133z" />
    <glyph glyph-name="Ldot" unicode="&#x13f;" horiz-adv-x="541" 
d="M214 700v-560h318v-140h-458v700h140zM425 502q41 0 68.5 -27t27.5 -68t-27.5 -68t-68.5 -27t-67.5 27t-26.5 68t26.5 68t67.5 27z" />
    <glyph glyph-name="ldot" unicode="&#x140;" horiz-adv-x="431" 
d="M191 700v-700h-133v700h133zM242 396q0 39 26 65t65 26t65 -26t26 -65t-26 -65t-65 -26t-65 26t-26 65z" />
    <glyph glyph-name="Lslash" unicode="&#x141;" horiz-adv-x="541" 
d="M74 0v256l-58 -24l-46 102l104 43v323h140v-265l159 66l46 -102l-205 -85v-174h318v-140h-458z" />
    <glyph glyph-name="lslash" unicode="&#x142;" horiz-adv-x="248" 
d="M58 0v306l-55 -25l-41 83l96 43v293h133v-233l54 24l42 -83l-96 -43v-365h-133z" />
    <glyph glyph-name="Nacute" unicode="&#x143;" horiz-adv-x="780" 
d="M475 938l58 -92l-225 -136l-58 92zM710 700v-700h-122l-378 460v-460h-140v700h122l378 -460v460h140z" />
    <glyph glyph-name="nacute" unicode="&#x144;" horiz-adv-x="585" 
d="M370 767l58 -92l-225 -136l-58 92zM186 428q26 37 66.5 60.5t95.5 23.5q88 0 132.5 -53.5t44.5 -148.5v-310h-135v277q0 57 -24.5 82.5t-66.5 25.5q-58 0 -83.5 -39.5t-25.5 -106.5v-239h-132v500h128v-72z" />
    <glyph glyph-name="Ncommaaccent" unicode="&#x145;" horiz-adv-x="780" 
d="M710 700v-700h-122l-378 460v-460h-140v700h122l378 -460v460h140zM293 -258l51 77q-18 10 -29.5 28t-11.5 41q0 33 23.5 56.5t56.5 23.5t56 -23.5t23 -56.5q0 -12 -4 -23.5t-11 -21.5l-89 -142z" />
    <glyph glyph-name="ncommaaccent" unicode="&#x146;" horiz-adv-x="585" 
d="M186 428q26 37 66.5 60.5t95.5 23.5q88 0 132.5 -53.5t44.5 -148.5v-310h-135v277q0 57 -24.5 82.5t-66.5 25.5q-58 0 -83.5 -39.5t-25.5 -106.5v-239h-132v500h128v-72zM198 -258l51 77q-18 10 -29.5 28t-11.5 41q0 33 23.5 56.5t56.5 23.5t56 -23.5t23 -56.5
q0 -12 -4 -23.5t-11 -21.5l-89 -142z" />
    <glyph glyph-name="Ncaron" unicode="&#x147;" horiz-adv-x="780" 
d="M502 955l69 -73l-185 -157l-185 157l68 73l117 -100zM710 700v-700h-122l-378 460v-460h-140v700h122l378 -460v460h140z" />
    <glyph glyph-name="ncaron" unicode="&#x148;" horiz-adv-x="585" 
d="M399 785l69 -73l-185 -157l-185 157l68 73l117 -100zM186 428q26 37 66.5 60.5t95.5 23.5q88 0 132.5 -53.5t44.5 -148.5v-310h-135v277q0 57 -24.5 82.5t-66.5 25.5q-58 0 -83.5 -39.5t-25.5 -106.5v-239h-132v500h128v-72z" />
    <glyph glyph-name="napostrophe" unicode="&#x149;" horiz-adv-x="722" 
d="M8 415l72 118q-25 11 -40.5 34t-15.5 52q0 19 7 35.5t20 29.5t29.5 20.5t36.5 7.5q40 0 66.5 -27.5t26.5 -65.5q0 -30 -17 -53l-117 -190zM323 428q26 37 66.5 60.5t95.5 23.5q88 0 132.5 -53.5t44.5 -148.5v-310h-135v277q0 57 -24.5 82.5t-66.5 25.5q-58 0 -83.5 -39.5
t-25.5 -106.5v-239h-132v500h128v-72z" />
    <glyph glyph-name="Eng" unicode="&#x14a;" horiz-adv-x="780" 
d="M551 -208q-19 0 -41 2l-46 6v123q15 -2 28 -3.5t27 -1.5q26 0 39 12t13 50v41l-361 439v-460h-140v700h122l378 -460v460h140v-726q0 -50 -11.5 -85t-32.5 -56.5t-50.5 -31t-64.5 -9.5z" />
    <glyph glyph-name="eng" unicode="&#x14b;" horiz-adv-x="583" 
d="M360 -203q-30 0 -78 6v122q17 -2 31.5 -3.5t27.5 -1.5q24 0 36.5 13t12.5 52v292q0 57 -24.5 82.5t-66.5 25.5q-58 0 -83.5 -39.5t-25.5 -106.5v-239h-132v500h128v-72q26 37 66.5 60.5t95.5 23.5q88 0 132.5 -53.5t44.5 -148.5v-325q0 -52 -12 -87.5t-33.5 -58
t-52 -32.5t-67.5 -10z" />
    <glyph glyph-name="Omacron" unicode="&#x14c;" horiz-adv-x="775" 
d="M537 854v-99h-300v99h300zM38 350q0 75 26.5 139t73.5 111t111 73.5t139 26.5t139 -26.5t111 -73.5t73.5 -111t26.5 -139t-26.5 -139t-73.5 -111t-111 -73.5t-139 -26.5t-139 26.5t-111 73.5t-73.5 111t-26.5 139zM598 350q0 46 -15.5 84.5t-43.5 66.5t-66.5 43.5
t-84.5 15.5t-84.5 -15.5t-66.5 -43.5t-43.5 -66.5t-15.5 -84.5t15.5 -84.5t43.5 -66.5t66.5 -43.5t84.5 -15.5t84.5 15.5t66.5 43.5t43.5 66.5t15.5 84.5z" />
    <glyph glyph-name="omacron" unicode="&#x14d;" horiz-adv-x="592" 
d="M446 695v-99h-300v99h300zM27 250q0 58 20.5 106.5t56.5 83t85 53.5t107 19t107 -19t85 -53.5t56.5 -83t20.5 -106.5q0 -59 -20.5 -107t-56.5 -82.5t-85 -53.5t-107 -19t-107 19t-85 53.5t-56.5 82.5t-20.5 107zM429 250q0 30 -10 54.5t-28 42t-42.5 27t-52.5 9.5
t-52.5 -9.5t-42.5 -27t-28 -42t-10 -54.5t10 -54.5t28 -42t42.5 -27t52.5 -9.5t52.5 9.5t42.5 27t28 42t10 54.5z" />
    <glyph glyph-name="Obreve" unicode="&#x14e;" horiz-adv-x="775" 
d="M543 894q0 -35 -11 -65t-31 -51.5t-49 -33.5t-66 -12q-36 0 -65 12t-49.5 33.5t-31 51.5t-10.5 65h102q0 -28 14 -45t40 -17q27 0 41 17t14 45h102zM38 350q0 75 26.5 139t73.5 111t111 73.5t139 26.5t139 -26.5t111 -73.5t73.5 -111t26.5 -139t-26.5 -139t-73.5 -111
t-111 -73.5t-139 -26.5t-139 26.5t-111 73.5t-73.5 111t-26.5 139zM598 350q0 46 -15.5 84.5t-43.5 66.5t-66.5 43.5t-84.5 15.5t-84.5 -15.5t-66.5 -43.5t-43.5 -66.5t-15.5 -84.5t15.5 -84.5t43.5 -66.5t66.5 -43.5t84.5 -15.5t84.5 15.5t66.5 43.5t43.5 66.5t15.5 84.5z
" />
    <glyph glyph-name="obreve" unicode="&#x14f;" horiz-adv-x="592" 
d="M452 731q0 -35 -11 -65t-31 -51.5t-49 -33.5t-66 -12q-36 0 -65 12t-49.5 33.5t-31 51.5t-10.5 65h102q0 -28 14 -45t40 -17q27 0 41 17t14 45h102zM27 250q0 58 20.5 106.5t56.5 83t85 53.5t107 19t107 -19t85 -53.5t56.5 -83t20.5 -106.5q0 -59 -20.5 -107t-56.5 -82.5
t-85 -53.5t-107 -19t-107 19t-85 53.5t-56.5 82.5t-20.5 107zM429 250q0 30 -10 54.5t-28 42t-42.5 27t-52.5 9.5t-52.5 -9.5t-42.5 -27t-28 -42t-10 -54.5t10 -54.5t28 -42t42.5 -27t52.5 -9.5t52.5 9.5t42.5 27t28 42t10 54.5z" />
    <glyph glyph-name="Ohungarumlaut" unicode="&#x150;" horiz-adv-x="775" 
d="M359 973l88 -63l-131 -185l-84 58zM538 957l88 -63l-130 -185l-85 58zM38 350q0 75 26.5 139t73.5 111t111 73.5t139 26.5t139 -26.5t111 -73.5t73.5 -111t26.5 -139t-26.5 -139t-73.5 -111t-111 -73.5t-139 -26.5t-139 26.5t-111 73.5t-73.5 111t-26.5 139zM598 350
q0 46 -15.5 84.5t-43.5 66.5t-66.5 43.5t-84.5 15.5t-84.5 -15.5t-66.5 -43.5t-43.5 -66.5t-15.5 -84.5t15.5 -84.5t43.5 -66.5t66.5 -43.5t84.5 -15.5t84.5 15.5t66.5 43.5t43.5 66.5t15.5 84.5z" />
    <glyph glyph-name="ohungarumlaut" unicode="&#x151;" horiz-adv-x="592" 
d="M262 804l88 -63l-131 -185l-84 58zM441 788l88 -63l-130 -185l-85 58zM27 250q0 58 20.5 106.5t56.5 83t85 53.5t107 19t107 -19t85 -53.5t56.5 -83t20.5 -106.5q0 -59 -20.5 -107t-56.5 -82.5t-85 -53.5t-107 -19t-107 19t-85 53.5t-56.5 82.5t-20.5 107zM429 250
q0 30 -10 54.5t-28 42t-42.5 27t-52.5 9.5t-52.5 -9.5t-42.5 -27t-28 -42t-10 -54.5t10 -54.5t28 -42t42.5 -27t52.5 -9.5t52.5 9.5t42.5 27t28 42t10 54.5z" />
    <glyph glyph-name="OE" unicode="&#x152;" horiz-adv-x="901" 
d="M394 700h452v-140h-312v-140h312v-140h-312v-140h312v-140h-452q-75 0 -139 26.5t-111 73.5t-73.5 111t-26.5 139t26.5 139t73.5 111t111 73.5t139 26.5v-140q-46 0 -84.5 -15.5t-66.5 -43.5t-43.5 -66.5t-15.5 -84.5t15.5 -84.5t43.5 -66.5t66.5 -43.5t84.5 -15.5v560z
" />
    <glyph glyph-name="oe" unicode="&#x153;" horiz-adv-x="953" 
d="M693 -12q-66 0 -115.5 23t-81.5 64q-35 -42 -86 -64.5t-114 -22.5q-58 0 -107 19t-85 53.5t-56.5 82.5t-20.5 107q0 58 20.5 106.5t56.5 83t85 53.5t107 19q63 0 113.5 -22.5t85.5 -64.5q31 41 78 64t108 23q57 0 103 -19t78 -53.5t49 -84t17 -109.5v-36h-368l1 -2
q6 -25 19.5 -43t31.5 -30t39.5 -17.5t43.5 -5.5q45 0 80.5 14t61.5 37l56 -109q-32 -26 -80 -46t-120 -20zM784 306q-5 41 -32 67.5t-75 26.5t-78 -24t-40 -70h225zM429 250q0 30 -10 54.5t-28 42t-42.5 27t-52.5 9.5t-52.5 -9.5t-42.5 -27t-28 -42t-10 -54.5t10 -54.5
t28 -42t42.5 -27t52.5 -9.5t52.5 9.5t42.5 27t28 42t10 54.5z" />
    <glyph glyph-name="Racute" unicode="&#x154;" horiz-adv-x="687" 
d="M424 938l58 -92l-225 -136l-58 92zM375 211h-161v-211h-140v700h306q54 0 99.5 -18.5t78 -51t51 -77.5t18.5 -97q0 -68 -30 -122t-81 -86l156 -248l-165 -1zM287 351l-21 34l120 70l55 -88q46 28 46 89q0 45 -28 74.5t-79 29.5h-166v-209h73z" />
    <glyph glyph-name="racute" unicode="&#x155;" horiz-adv-x="386" 
d="M280 767l58 -92l-225 -136l-58 92zM185 418q20 44 54.5 69t87.5 25q14 0 25.5 -2t23.5 -5v-142q-14 5 -29 6.5t-31 1.5q-66 0 -96 -36.5t-30 -108.5v-226h-132v500h127v-82z" />
    <glyph glyph-name="Rcommaaccent" unicode="&#x156;" horiz-adv-x="687" 
d="M375 211h-161v-211h-140v700h306q54 0 99.5 -18.5t78 -51t51 -77.5t18.5 -97q0 -68 -30 -122t-81 -86l156 -248l-165 -1zM287 351l-21 34l120 70l55 -88q46 28 46 89q0 45 -28 74.5t-79 29.5h-166v-209h73zM264 -258l51 77q-18 10 -29.5 28t-11.5 41q0 33 23.5 56.5
t56.5 23.5t56 -23.5t23 -56.5q0 -12 -4 -23.5t-11 -21.5l-89 -142z" />
    <glyph glyph-name="rcommaaccent" unicode="&#x157;" horiz-adv-x="386" 
d="M185 418q20 44 54.5 69t87.5 25q14 0 25.5 -2t23.5 -5v-142q-14 5 -29 6.5t-31 1.5q-66 0 -96 -36.5t-30 -108.5v-226h-132v500h127v-82zM44 -258l51 77q-18 10 -29.5 28t-11.5 41q0 33 23.5 56.5t56.5 23.5t56 -23.5t23 -56.5q0 -12 -4 -23.5t-11 -21.5l-89 -142z" />
    <glyph glyph-name="Rcaron" unicode="&#x158;" horiz-adv-x="687" 
d="M451 955l69 -73l-185 -157l-185 157l68 73l117 -100zM375 211h-161v-211h-140v700h306q54 0 99.5 -18.5t78 -51t51 -77.5t18.5 -97q0 -68 -30 -122t-81 -86l156 -248l-165 -1zM287 351l-21 34l120 70l55 -88q46 28 46 89q0 45 -28 74.5t-79 29.5h-166v-209h73z" />
    <glyph glyph-name="rcaron" unicode="&#x159;" horiz-adv-x="386" 
d="M309 785l69 -73l-185 -157l-185 157l68 73l117 -100zM185 418q20 44 54.5 69t87.5 25q14 0 25.5 -2t23.5 -5v-142q-14 5 -29 6.5t-31 1.5q-66 0 -96 -36.5t-30 -108.5v-226h-132v500h127v-82z" />
    <glyph glyph-name="Sacute" unicode="&#x15a;" horiz-adv-x="553" 
d="M360 938l58 -92l-225 -136l-58 92zM51 499q0 48 17 85t47.5 63t72 39.5t89.5 13.5q89 0 151.5 -45t81.5 -132l-127 -51q-11 48 -38 68t-69 20q-43 0 -64 -18t-21 -44q0 -19 9.5 -31.5t26.5 -22t40 -17.5l52 -17q36 -12 69 -27.5t58.5 -39t41 -57.5t15.5 -83t-17.5 -87
t-47.5 -63.5t-71.5 -39t-89.5 -13.5q-41 0 -78.5 10t-69 31.5t-54 55t-32.5 80.5l125 54q21 -91 110 -91q41 0 63 17t22 46q0 19 -9.5 32.5t-26.5 23t-39 16.5l-49 15q-33 10 -66.5 25.5t-60.5 39.5t-44 59t-17 85z" />
    <glyph glyph-name="sacute" unicode="&#x15b;" horiz-adv-x="478" 
d="M330 767l58 -92l-225 -136l-58 92zM46 353q0 76 56 117.5t155 41.5q69 0 117.5 -20t81.5 -54l-74 -96q-21 23 -58 37t-77 14q-64 0 -64 -35q0 -9 5.5 -15.5t19 -12t36.5 -10.5l55 -12q33 -7 62 -17.5t50.5 -28.5t34.5 -45t13 -66q0 -86 -58 -124.5t-158 -38.5
q-72 0 -130.5 20.5t-91.5 62.5l77 100q25 -30 65 -47.5t93 -17.5q28 0 47.5 8.5t19.5 29.5q0 10 -5.5 17t-18.5 12t-34 10l-53 12q-28 6 -57.5 16t-53.5 28t-39.5 45.5t-15.5 68.5z" />
    <glyph glyph-name="Scircumflex" unicode="&#x15c;" horiz-adv-x="553" 
d="M271 943l185 -157l-69 -73l-116 100l-117 -100l-68 73zM51 499q0 48 17 85t47.5 63t72 39.5t89.5 13.5q89 0 151.5 -45t81.5 -132l-127 -51q-11 48 -38 68t-69 20q-43 0 -64 -18t-21 -44q0 -19 9.5 -31.5t26.5 -22t40 -17.5l52 -17q36 -12 69 -27.5t58.5 -39t41 -57.5
t15.5 -83t-17.5 -87t-47.5 -63.5t-71.5 -39t-89.5 -13.5q-41 0 -78.5 10t-69 31.5t-54 55t-32.5 80.5l125 54q21 -91 110 -91q41 0 63 17t22 46q0 19 -9.5 32.5t-26.5 23t-39 16.5l-49 15q-33 10 -66.5 25.5t-60.5 39.5t-44 59t-17 85z" />
    <glyph glyph-name="scircumflex" unicode="&#x15d;" horiz-adv-x="478" 
d="M249 768l185 -157l-69 -73l-116 100l-117 -100l-68 73zM46 353q0 76 56 117.5t155 41.5q69 0 117.5 -20t81.5 -54l-74 -96q-21 23 -58 37t-77 14q-64 0 -64 -35q0 -9 5.5 -15.5t19 -12t36.5 -10.5l55 -12q33 -7 62 -17.5t50.5 -28.5t34.5 -45t13 -66q0 -86 -58 -124.5
t-158 -38.5q-72 0 -130.5 20.5t-91.5 62.5l77 100q25 -30 65 -47.5t93 -17.5q28 0 47.5 8.5t19.5 29.5q0 10 -5.5 17t-18.5 12t-34 10l-53 12q-28 6 -57.5 16t-53.5 28t-39.5 45.5t-15.5 68.5z" />
    <glyph glyph-name="Scedilla" unicode="&#x15e;" horiz-adv-x="553" 
d="M268 -213q-21 0 -42 5t-41 12v103q23 -7 38.5 -10.5t27.5 -3.5q11 0 17 4.5t6 17.5q0 14 -9.5 35t-33.5 53q-33 5 -63.5 18t-55.5 34t-42.5 51.5t-26.5 70.5l125 54q21 -91 110 -91q41 0 63 17t22 46q0 19 -9.5 32.5t-26.5 23t-39 16.5l-49 15q-33 10 -66.5 25.5
t-60.5 39.5t-44 59t-17 85q0 48 17 85t47.5 63t72 39.5t89.5 13.5q89 0 151.5 -45t81.5 -132l-127 -51q-11 48 -38 68t-69 20q-43 0 -64 -18t-21 -44q0 -19 9.5 -31.5t26.5 -22t41 -17.5l51 -17q36 -12 69 -27.5t58.5 -39t41 -57.5t15.5 -83q0 -41 -12.5 -74.5t-34.5 -58.5
t-53 -41.5t-68 -23.5q26 -32 37.5 -59t11.5 -53q0 -48 -31.5 -77t-84.5 -29z" />
    <glyph glyph-name="scedilla" unicode="&#x15f;" horiz-adv-x="478" 
d="M232 -213q-21 0 -42 5t-41 12v103q23 -7 38.5 -10.5t27.5 -3.5q11 0 17 4.5t6 17.5q0 12 -7 30t-26 44q-60 5 -107.5 25.5t-76.5 56.5l77 100q25 -30 65 -47.5t93 -17.5q28 0 47.5 8.5t19.5 29.5q0 10 -5.5 17t-18.5 12t-34 10l-53 12q-28 6 -57.5 16t-53.5 28
t-39.5 45.5t-15.5 68.5q0 76 56 117.5t155 41.5q69 0 117.5 -20t81.5 -54l-74 -96q-21 23 -58 37t-77 14q-64 0 -64 -35q0 -9 5.5 -15.5t19 -12t36.5 -10.5l55 -12q33 -7 62 -17.5t50.5 -28.5t34.5 -45t13 -66q0 -71 -39.5 -109t-110.5 -49q20 -28 29.5 -52.5t9.5 -47.5
q0 -48 -31.5 -77t-84.5 -29z" />
    <glyph glyph-name="Scaron" unicode="&#x160;" horiz-adv-x="553" 
d="M387 955l69 -73l-185 -157l-185 157l68 73l117 -100zM51 499q0 48 17 85t47.5 63t72 39.5t89.5 13.5q89 0 151.5 -45t81.5 -132l-127 -51q-11 48 -38 68t-69 20q-43 0 -64 -18t-21 -44q0 -19 9.5 -31.5t26.5 -22t40 -17.5l52 -17q36 -12 69 -27.5t58.5 -39t41 -57.5
t15.5 -83t-17.5 -87t-47.5 -63.5t-71.5 -39t-89.5 -13.5q-41 0 -78.5 10t-69 31.5t-54 55t-32.5 80.5l125 54q21 -91 110 -91q41 0 63 17t22 46q0 19 -9.5 32.5t-26.5 23t-39 16.5l-49 15q-33 10 -66.5 25.5t-60.5 39.5t-44 59t-17 85z" />
    <glyph glyph-name="scaron" unicode="&#x161;" horiz-adv-x="478" 
d="M359 785l69 -73l-185 -157l-185 157l68 73l117 -100zM46 353q0 76 56 117.5t155 41.5q69 0 117.5 -20t81.5 -54l-74 -96q-21 23 -58 37t-77 14q-64 0 -64 -35q0 -9 5.5 -15.5t19 -12t36.5 -10.5l55 -12q33 -7 62 -17.5t50.5 -28.5t34.5 -45t13 -66q0 -86 -58 -124.5
t-158 -38.5q-72 0 -130.5 20.5t-91.5 62.5l77 100q25 -30 65 -47.5t93 -17.5q28 0 47.5 8.5t19.5 29.5q0 10 -5.5 17t-18.5 12t-34 10l-53 12q-28 6 -57.5 16t-53.5 28t-39.5 45.5t-15.5 68.5z" />
    <glyph glyph-name="Tcommaaccent" unicode="&#x162;" horiz-adv-x="656" 
d="M398 560v-560h-140v560h-253v140h646v-140h-253zM241 -258l51 77q-18 10 -29.5 28t-11.5 41q0 33 23.5 56.5t56.5 23.5t56 -23.5t23 -56.5q0 -12 -4 -23.5t-11 -21.5l-89 -142z" />
    <glyph glyph-name="tcommaaccent" unicode="&#x163;" horiz-adv-x="394" 
d="M358 10q-28 -7 -55.5 -11t-52.5 -4q-70 0 -108.5 36t-38.5 122v236h-91v111h91v134h132v-134h127v-111h-127v-217q0 -24 12 -34.5t38 -10.5q15 0 30.5 1.5t42.5 6.5v-125zM151 -258l51 77q-18 10 -29.5 28t-11.5 41q0 33 23.5 56.5t56.5 23.5t56 -23.5t23 -56.5
q0 -12 -4 -23.5t-11 -21.5l-89 -142z" />
    <glyph glyph-name="Tcaron" unicode="&#x164;" horiz-adv-x="656" 
d="M439 955l69 -73l-185 -157l-185 157l68 73l117 -100zM398 560v-560h-140v560h-253v140h646v-140h-253z" />
    <glyph glyph-name="tcaron" unicode="&#x165;" horiz-adv-x="595" 
d="M388 415l72 118q-26 11 -41 34t-15 52q0 38 26.5 65.5t66.5 27.5t66.5 -27.5t26.5 -65.5q0 -30 -17 -53l-117 -190zM358 10q-28 -7 -55.5 -11t-52.5 -4q-70 0 -108.5 36t-38.5 122v236h-91v111h91v134h132v-134h127v-111h-127v-217q0 -24 12 -34.5t38 -10.5
q15 0 30.5 1.5t42.5 6.5v-125z" />
    <glyph glyph-name="Tbar" unicode="&#x166;" horiz-adv-x="656" 
d="M398 280v-280h-140v280h-129v140h129v140h-253v140h646v-140h-253v-140h129v-140h-129z" />
    <glyph glyph-name="tbar" unicode="&#x167;" horiz-adv-x="385" 
d="M358 10q-28 -7 -55.5 -11t-52.5 -4q-70 0 -108.5 36t-38.5 122v75h-74v97h74v64h-91v111h91v134h132v-134h127v-111h-127v-64h103v-97h-103v-56q0 -24 12 -34.5t38 -10.5q15 0 30.5 1.5t42.5 6.5v-125z" />
    <glyph glyph-name="Utilde" unicode="&#x168;" horiz-adv-x="767" 
d="M450 731q-20 0 -38 7t-34 15l-30 15q-14 7 -27 7q-17 0 -33.5 -13.5t-32.5 -28.5l-65 68l26 27q14 14 30.5 25t34.5 18.5t38 7.5t38 -7t34 -15l30 -15q14 -7 27 -7q17 0 33.5 13.5t32.5 28.5l65 -68l-26 -27q-14 -14 -30.5 -25t-34.5 -18.5t-38 -7.5zM709 700v-376
q0 -72 -24.5 -131.5t-68 -102.5t-103 -66.5t-129.5 -23.5t-129.5 23.5t-103 66.5t-68.5 102.5t-25 131.5v376h140v-376q0 -43 14 -77t39 -58t59 -36.5t74 -12.5t73.5 12.5t58.5 36.5t39 58t14 77v376h140z" />
    <glyph glyph-name="utilde" unicode="&#x169;" horiz-adv-x="578" 
d="M352 552q-20 0 -38 7t-34 15l-30 15q-14 7 -27 7q-17 0 -33.5 -13.5t-32.5 -28.5l-65 68l26 27q14 14 30.5 25t34.5 18.5t38 7.5t38 -7t34 -15l30 -15q14 -7 27 -7q17 0 33.5 13.5t32.5 28.5l65 -68l-26 -27q-14 -14 -30.5 -25t-34.5 -18.5t-38 -7.5zM518 500v-500h-128
v76q-26 -38 -64 -63t-95 -25q-87 0 -130 54.5t-43 146.5v311h135v-278q0 -54 20 -80.5t64 -26.5q56 0 82 40.5t26 105.5v239h133z" />
    <glyph glyph-name="Umacron" unicode="&#x16a;" horiz-adv-x="767" 
d="M534 854v-99h-300v99h300zM709 700v-376q0 -72 -24.5 -131.5t-68 -102.5t-103 -66.5t-129.5 -23.5t-129.5 23.5t-103 66.5t-68.5 102.5t-25 131.5v376h140v-376q0 -43 14 -77t39 -58t59 -36.5t74 -12.5t73.5 12.5t58.5 36.5t39 58t14 77v376h140z" />
    <glyph glyph-name="umacron" unicode="&#x16b;" horiz-adv-x="578" 
d="M437 695v-99h-300v99h300zM518 500v-500h-128v76q-26 -38 -64 -63t-95 -25q-87 0 -130 54.5t-43 146.5v311h135v-278q0 -54 20 -80.5t64 -26.5q56 0 82 40.5t26 105.5v239h133z" />
    <glyph glyph-name="Ubreve" unicode="&#x16c;" horiz-adv-x="767" 
d="M540 894q0 -35 -11 -65t-31 -51.5t-49 -33.5t-66 -12q-36 0 -65 12t-49.5 33.5t-31 51.5t-10.5 65h102q0 -28 14 -45t40 -17q27 0 41 17t14 45h102zM709 700v-376q0 -72 -24.5 -131.5t-68 -102.5t-103 -66.5t-129.5 -23.5t-129.5 23.5t-103 66.5t-68.5 102.5t-25 131.5
v376h140v-376q0 -43 14 -77t39 -58t59 -36.5t74 -12.5t73.5 12.5t58.5 36.5t39 58t14 77v376h140z" />
    <glyph glyph-name="ubreve" unicode="&#x16d;" horiz-adv-x="578" 
d="M444 731q0 -35 -11 -65t-31 -51.5t-49 -33.5t-66 -12q-36 0 -65 12t-49.5 33.5t-31 51.5t-10.5 65h102q0 -28 14 -45t40 -17q27 0 41 17t14 45h102zM518 500v-500h-128v76q-26 -38 -64 -63t-95 -25q-87 0 -130 54.5t-43 146.5v311h135v-278q0 -54 20 -80.5t64 -26.5
q56 0 82 40.5t26 105.5v239h133z" />
    <glyph glyph-name="Uring" unicode="&#x16e;" horiz-adv-x="767" 
d="M252 751q0 28 10 52.5t28 42t42 27.5t52 10t52 -10t42 -27.5t28 -42t10 -52.5q0 -29 -10 -53t-28 -41.5t-42 -27.5t-52 -10t-52 10t-42 27.5t-28 41.5t-10 53zM435 751q0 23 -14.5 37t-36.5 14q-23 0 -37 -14t-14 -37q0 -22 14 -36.5t37 -14.5q22 0 36.5 14.5t14.5 36.5z
M709 700v-376q0 -72 -24.5 -131.5t-68 -102.5t-103 -66.5t-129.5 -23.5t-129.5 23.5t-103 66.5t-68.5 102.5t-25 131.5v376h140v-376q0 -43 14 -77t39 -58t59 -36.5t74 -12.5t73.5 12.5t58.5 36.5t39 58t14 77v376h140z" />
    <glyph glyph-name="uring" unicode="&#x16f;" horiz-adv-x="578" 
d="M155 683q0 28 10 52.5t28 42t42 27.5t52 10t52 -10t42 -27.5t28 -42t10 -52.5q0 -29 -10 -53t-28 -41.5t-42 -27.5t-52 -10t-52 10t-42 27.5t-28 41.5t-10 53zM338 683q0 23 -14.5 37t-36.5 14q-23 0 -37 -14t-14 -37q0 -22 14 -36.5t37 -14.5q22 0 36.5 14.5t14.5 36.5z
M518 500v-500h-128v76q-26 -38 -64 -63t-95 -25q-87 0 -130 54.5t-43 146.5v311h135v-278q0 -54 20 -80.5t64 -26.5q56 0 82 40.5t26 105.5v239h133z" />
    <glyph glyph-name="Uhungarumlaut" unicode="&#x170;" horiz-adv-x="767" 
d="M356 973l88 -63l-131 -185l-84 58zM535 957l88 -63l-130 -185l-85 58zM709 700v-376q0 -72 -24.5 -131.5t-68 -102.5t-103 -66.5t-129.5 -23.5t-129.5 23.5t-103 66.5t-68.5 102.5t-25 131.5v376h140v-376q0 -43 14 -77t39 -58t59 -36.5t74 -12.5t73.5 12.5t58.5 36.5
t39 58t14 77v376h140z" />
    <glyph glyph-name="uhungarumlaut" unicode="&#x171;" horiz-adv-x="578" 
d="M253 804l88 -63l-131 -185l-84 58zM432 788l88 -63l-130 -185l-85 58zM518 500v-500h-128v76q-26 -38 -64 -63t-95 -25q-87 0 -130 54.5t-43 146.5v311h135v-278q0 -54 20 -80.5t64 -26.5q56 0 82 40.5t26 105.5v239h133z" />
    <glyph glyph-name="Uogonek" unicode="&#x172;" horiz-adv-x="767" 
d="M399 -213q-54 0 -83.5 26t-29.5 69q0 28 14.5 56.5t46.5 63.5q-63 6 -116 32t-91.5 68t-60 98.5t-21.5 123.5v376h140v-376q0 -43 14 -77t39 -58t59 -36.5t74 -12.5t73.5 12.5t58.5 36.5t39 58t14 77v376h140v-376q0 -64 -19.5 -118.5t-55 -96t-84 -68.5t-106.5 -36
q-29 -29 -41 -50t-12 -38q0 -24 28 -24q7 0 20 1.5t33 6.5v-103q-17 -5 -35 -8t-38 -3z" />
    <glyph glyph-name="uogonek" unicode="&#x173;" horiz-adv-x="578" 
d="M493 -202q-17 -5 -35 -8t-38 -3q-54 0 -83.5 26t-29.5 69q0 32 19 66t64 76v52q-26 -38 -64 -63t-95 -25q-87 0 -130 54.5t-43 146.5v311h135v-278q0 -54 20 -80.5t64 -26.5q56 0 82 40.5t26 105.5v239h133v-500h-58q-26 -28 -37 -47.5t-11 -35.5q0 -24 28 -24
q7 0 20 1.5t33 6.5v-103z" />
    <glyph glyph-name="Wcircumflex" unicode="&#x174;" horiz-adv-x="1240" 
d="M617 943l185 -157l-69 -73l-116 100l-117 -100l-68 73zM281 0l-271 700h150l189 -488l202 488h138l202 -488l189 488h150l-271 -700h-131l-208 499l-208 -499h-131z" />
    <glyph glyph-name="wcircumflex" unicode="&#x175;" horiz-adv-x="851" 
d="M422 768l185 -157l-69 -73l-116 100l-117 -100l-68 73zM200 0l-203 500h144l112 -298l119 298h107l120 -298l111 298h144l-203 -500h-100l-125 297l-126 -297h-100z" />
    <glyph glyph-name="Ycircumflex" unicode="&#x176;" horiz-adv-x="710" 
d="M348 943l185 -157l-69 -73l-116 100l-117 -100l-68 73zM285 0v271l-286 429h169l187 -280l187 280h169l-286 -429v-271h-140z" />
    <glyph glyph-name="ycircumflex" unicode="&#x177;" horiz-adv-x="538" 
d="M272 768l185 -157l-69 -73l-116 100l-117 -100l-68 73zM87 -200l122 272l-212 428h154l128 -274l123 274h140l-315 -700h-140z" />
    <glyph glyph-name="Ydieresis" unicode="&#x178;" horiz-adv-x="710" 
d="M173 810q0 33 22.5 55.5t55.5 22.5t55.5 -22.5t22.5 -55.5t-22.5 -55.5t-55.5 -22.5t-55.5 22.5t-22.5 55.5zM379 810q0 33 22.5 55.5t55.5 22.5t55.5 -22.5t22.5 -55.5t-22.5 -55.5t-55.5 -22.5t-55.5 22.5t-22.5 55.5zM285 0v271l-286 429h169l187 -280l187 280h169
l-286 -429v-271h-140z" />
    <glyph glyph-name="Zacute" unicode="&#x179;" horiz-adv-x="665" 
d="M415 938l58 -92l-225 -136l-58 92zM618 700v-101l-362 -459h362v-140h-571v101l362 459h-362v140h571z" />
    <glyph glyph-name="zacute" unicode="&#x17a;" horiz-adv-x="488" 
d="M328 767l58 -92l-225 -136l-58 92zM456 500v-103l-253 -275h261v-122h-440v103l252 275h-234v122h414z" />
    <glyph glyph-name="Zdotaccent" unicode="&#x17b;" horiz-adv-x="665" 
d="M248 806q0 36 24 60.5t60 24.5t60.5 -24.5t24.5 -60.5t-24.5 -60t-60.5 -24t-60 24t-24 60zM618 700v-101l-362 -459h362v-140h-571v101l362 459h-362v140h571z" />
    <glyph glyph-name="zdotaccent" unicode="&#x17c;" horiz-adv-x="488" 
d="M163 643q0 36 24 60.5t60 24.5t60.5 -24.5t24.5 -60.5t-24.5 -60t-60.5 -24t-60 24t-24 60zM456 500v-103l-253 -275h261v-122h-440v103l252 275h-234v122h414z" />
    <glyph glyph-name="Zcaron" unicode="&#x17d;" horiz-adv-x="665" 
d="M442 955l69 -73l-185 -157l-185 157l68 73l117 -100zM618 700v-101l-362 -459h362v-140h-571v101l362 459h-362v140h571z" />
    <glyph glyph-name="zcaron" unicode="&#x17e;" horiz-adv-x="488" 
d="M357 785l69 -73l-185 -157l-185 157l68 73l117 -100zM456 500v-103l-253 -275h261v-122h-440v103l252 275h-234v122h414z" />
    <glyph glyph-name="florin" unicode="&#x192;" horiz-adv-x="437" 
d="M93 -209q-24 0 -43 1.5t-41 4.5v123q22 -3 36.5 -4t31.5 -1q33 0 46 16.5t13 53.5v434h-93v81h93v23q0 48 13 83t36.5 58t56.5 34t73 11q28 0 50.5 -2.5t47.5 -6.5v-123q-26 4 -44 6t-38 2q-37 0 -51 -16.5t-14 -53.5v-15h142v-81h-142v-442q0 -48 -12.5 -83t-35.5 -58
t-55 -34t-70 -11z" />
    <glyph glyph-name="AEacute" unicode="&#x1fc;" horiz-adv-x="1048" 
d="M875 938l58 -92l-225 -136l-58 92zM541 110h-296l-72 -110h-168l462 700h74v-139l-204 -311h204v450h452v-140h-312v-140h312v-140h-312v-140h312v-140h-452v110z" />
    <glyph glyph-name="aeacute" unicode="&#x1fd;" horiz-adv-x="877" 
d="M533 767l58 -92l-225 -136l-58 92zM623 -12q-72 0 -123.5 25.5t-83.5 70.5q-36 -45 -89 -70t-116 -25q-41 0 -74.5 11.5t-57.5 32t-37 49.5t-13 64q0 34 12 61t33.5 47t50.5 32.5t64 15.5l137 12q26 3 26 20v8q0 22 -21 36t-66 14q-20 0 -39 -3.5t-36 -11t-30 -19.5
t-20 -30l-98 70q23 55 81.5 84t133.5 29q60 0 103.5 -19.5t70.5 -55.5q31 35 76 55.5t103 20.5q55 0 100 -19t76.5 -53.5t48.5 -84t17 -109.5v-36h-368v-2q13 -51 52 -73.5t85 -22.5q41 0 77 14.5t62 36.5l56 -109q-32 -26 -81 -46t-112 -20zM708 306q-5 41 -31.5 67.5
t-77.5 26.5q-46 0 -76 -24t-40 -70h225zM352 222l-124 -15q-31 -5 -46.5 -19.5t-15.5 -35.5q0 -24 18 -38.5t53 -14.5q26 0 47 8.5t36 22.5t23.5 32.5t8.5 39.5v20z" />
    <glyph glyph-name="Oslashacute" unicode="&#x1fe;" horiz-adv-x="788" 
d="M480 938l58 -92l-225 -136l-58 92zM178 350q0 -43 13.5 -79t38.5 -64l270 324q-47 29 -112 29q-46 0 -84.5 -15.5t-66.5 -43.5t-43.5 -66.5t-15.5 -84.5zM388 140q46 0 84.5 15.5t66.5 43.5t43.5 66.5t15.5 84.5q0 79 -45 135l-268 -321q23 -11 48.5 -17.5t54.5 -6.5z
M388 0q-55 0 -103.5 14.5t-90.5 40.5l-51 -61l-54 45l50 60q-48 47 -74.5 111t-26.5 140q0 75 26.5 139t73.5 111t111 73.5t139 26.5q58 0 109.5 -16t93.5 -45l56 67l53 -46l-56 -67q45 -47 69.5 -108.5t24.5 -134.5q0 -75 -26.5 -139t-73.5 -111t-111 -73.5t-139 -26.5z
" />
    <glyph glyph-name="oslashacute" unicode="&#x1ff;" horiz-adv-x="592" 
d="M377 767l58 -92l-225 -136l-58 92zM163 250q0 -23 6 -42.5t17 -36.5l170 199q-26 13 -60 13q-28 0 -52.5 -9.5t-42.5 -27t-28 -42t-10 -54.5zM296 117q28 0 52.5 9.5t42.5 27t28 42t10 54.5q0 43 -22 76l-168 -198q27 -11 57 -11zM296 -12q-82 0 -145 37l-33 -39l-52 44
l31 37q-33 34 -51.5 80.5t-18.5 102.5q0 58 20.5 106.5t56.5 83t85 53.5t107 19q42 0 79 -10t68 -29l35 41l51 -45l-32 -38q32 -34 50 -80t18 -101q0 -59 -20.5 -107t-56.5 -82.5t-85 -53.5t-107 -19z" />
    <glyph glyph-name="Scommaaccent" unicode="&#x218;" horiz-adv-x="553" 
d="M51 499q0 48 17 85t47.5 63t72 39.5t89.5 13.5q89 0 151.5 -45t81.5 -132l-127 -51q-11 48 -38 68t-69 20q-43 0 -64 -18t-21 -44q0 -19 9.5 -31.5t26.5 -22t40 -17.5l52 -17q36 -12 69 -27.5t58.5 -39t41 -57.5t15.5 -83t-17.5 -87t-47.5 -63.5t-71.5 -39t-89.5 -13.5
q-41 0 -78.5 10t-69 31.5t-54 55t-32.5 80.5l125 54q21 -91 110 -91q41 0 63 17t22 46q0 19 -9.5 32.5t-26.5 23t-39 16.5l-49 15q-33 10 -66.5 25.5t-60.5 39.5t-44 59t-17 85zM189 -258l51 77q-18 10 -29.5 28t-11.5 41q0 33 23.5 56.5t56.5 23.5t56 -23.5t23 -56.5
q0 -12 -4 -23.5t-11 -21.5l-89 -142z" />
    <glyph glyph-name="scommaaccent" unicode="&#x219;" horiz-adv-x="478" 
d="M46 353q0 76 56 117.5t155 41.5q69 0 117.5 -20t81.5 -54l-74 -96q-21 23 -58 37t-77 14q-64 0 -64 -35q0 -9 5.5 -15.5t19 -12t36.5 -10.5l55 -12q33 -7 62 -17.5t50.5 -28.5t34.5 -45t13 -66q0 -86 -58 -124.5t-158 -38.5q-72 0 -130.5 20.5t-91.5 62.5l77 100
q25 -30 65 -47.5t93 -17.5q28 0 47.5 8.5t19.5 29.5q0 10 -5.5 17t-18.5 12t-34 10l-53 12q-28 6 -57.5 16t-53.5 28t-39.5 45.5t-15.5 68.5zM154 -258l51 77q-18 10 -29.5 28t-11.5 41q0 33 23.5 56.5t56.5 23.5t56 -23.5t23 -56.5q0 -12 -4 -23.5t-11 -21.5l-89 -142z" />
    <glyph glyph-name="uni021A" unicode="&#x21a;" horiz-adv-x="656" 
d="M398 560v-560h-140v560h-253v140h646v-140h-253zM241 -258l51 77q-18 10 -29.5 28t-11.5 41q0 33 23.5 56.5t56.5 23.5t56 -23.5t23 -56.5q0 -12 -4 -23.5t-11 -21.5l-89 -142z" />
    <glyph glyph-name="uni021B" unicode="&#x21b;" horiz-adv-x="394" 
d="M358 10q-28 -7 -55.5 -11t-52.5 -4q-70 0 -108.5 36t-38.5 122v236h-91v111h91v134h132v-134h127v-111h-127v-217q0 -24 12 -34.5t38 -10.5q15 0 30.5 1.5t42.5 6.5v-125zM151 -258l51 77q-18 10 -29.5 28t-11.5 41q0 33 23.5 56.5t56.5 23.5t56 -23.5t23 -56.5
q0 -12 -4 -23.5t-11 -21.5l-89 -142z" />
    <glyph glyph-name="apostrophemod" unicode="&#x2bc;" horiz-adv-x="282" 
d="M40 414l72 118q-25 11 -40.5 34t-15.5 52q0 19 7 36t19.5 30t29.5 20.5t37 7.5t37 -7.5t29.5 -20.5t19.5 -30t7 -36q0 -30 -17 -52l-117 -190z" />
    <glyph glyph-name="circumflex" unicode="&#x2c6;" horiz-adv-x="470" 
d="M235 768l185 -157l-69 -73l-116 100l-117 -100l-68 73z" />
    <glyph glyph-name="caron" unicode="&#x2c7;" horiz-adv-x="470" 
d="M351 785l69 -73l-185 -157l-185 157l68 73l117 -100z" />
    <glyph glyph-name="breve" unicode="&#x2d8;" horiz-adv-x="413" 
d="M363 731q0 -35 -11 -65t-31 -51.5t-49 -33.5t-66 -12q-36 0 -65 12t-49.5 33.5t-31 51.5t-10.5 65h102q0 -28 14 -45t40 -17q27 0 41 17t14 45h102z" />
    <glyph glyph-name="dotaccent" unicode="&#x2d9;" horiz-adv-x="269" 
d="M50 643q0 36 24 60.5t60 24.5t60.5 -24.5t24.5 -60.5t-24.5 -60t-60.5 -24t-60 24t-24 60z" />
    <glyph glyph-name="ring" unicode="&#x2da;" horiz-adv-x="364" 
d="M50 683q0 28 10 52.5t28 42t42 27.5t52 10t52 -10t42 -27.5t28 -42t10 -52.5q0 -29 -10 -53t-28 -41.5t-42 -27.5t-52 -10t-52 10t-42 27.5t-28 41.5t-10 53zM233 683q0 23 -14.5 37t-36.5 14q-23 0 -37 -14t-14 -37q0 -22 14 -36.5t37 -14.5q22 0 36.5 14.5t14.5 36.5z
" />
    <glyph glyph-name="ogonek" unicode="&#x2db;" horiz-adv-x="299" 
d="M249 43q-53 -46 -73.5 -75.5t-20.5 -50.5q0 -24 28 -24q7 0 20 1.5t33 6.5v-103q-17 -5 -35 -8t-38 -3q-54 0 -83.5 26t-29.5 69q0 35 23.5 73.5t80.5 87.5h95z" />
    <glyph glyph-name="tilde" unicode="&#x2dc;" horiz-adv-x="489" 
d="M310 552q-20 0 -38 7t-34 15l-30 15q-14 7 -27 7q-17 0 -33.5 -13.5t-32.5 -28.5l-65 68l26 27q14 14 30.5 25t34.5 18.5t38 7.5t38 -7t34 -15l30 -15q14 -7 27 -7q17 0 33.5 13.5t32.5 28.5l65 -68l-26 -27q-14 -14 -30.5 -25t-34.5 -18.5t-38 -7.5z" />
    <glyph glyph-name="hungarumlaut" unicode="&#x2dd;" horiz-adv-x="494" 
d="M177 804l88 -63l-131 -185l-84 58zM356 788l88 -63l-130 -185l-85 58z" />
    <glyph glyph-name="Delta" unicode="&#x394;" horiz-adv-x="724" 
d="M396 743l308 -743h-684l308 743h68zM362 521l-168 -435h337z" />
    <glyph glyph-name="Omega" unicode="&#x3a9;" horiz-adv-x="775" 
d="M32 0v113h126q-52 47 -86 110t-34 150q0 76 26.5 139t73.5 107t111 68.5t139 24.5t139 -24.5t111 -68.5t73.5 -107t26.5 -139q0 -87 -34.5 -150t-86.5 -110h127v-113h-320v113q36 22 67.5 48t54.5 57t36.5 68t13.5 81q0 49 -16 87.5t-44 65.5t-66 41t-82 14t-82 -14
t-66.5 -41t-44.5 -65.5t-16 -87.5q0 -44 13.5 -81t36.5 -68t54.5 -57t67.5 -48v-113h-319z" />
    <glyph glyph-name="mu" unicode="&#x3bc;" 
d="M264 -12q-27 0 -51 6v-194h-123v485h1v215h135v-278q0 -54 20 -80.5t64 -26.5q56 0 82 40.5t26 105.5v239h133v-500h-128v76q-26 -38 -64 -63t-95 -25z" />
    <glyph glyph-name="pi" unicode="&#x3c0;" 
d="M613 500v-140h-86v-360h-136v360h-103l-81 -360h-138l80 360q-39 -3 -69.5 -9.5t-53.5 -13.5v129q34 14 72 24t87 10h428z" />
    <glyph glyph-name="THB" unicode="&#xe3f;" horiz-adv-x="632" 
d="M309 420v140h-79v-140h79zM353 560v-140h17q32 0 52 20t20 52q0 30 -18.5 49t-53.5 19h-17zM309 140v140h-79v-140h79zM353 280v-140h17q35 0 53.5 18.5t18.5 49.5q0 33 -20 52.5t-52 19.5h-17zM353 0v-80h-44v80h-219v700h219v80h44v-80h20q49 0 88 -15t66 -41t41 -62.5
t14 -78.5q0 -55 -23.5 -94t-63.5 -59q41 -20 64 -59.5t23 -93.5q0 -42 -14 -78.5t-41 -62.5t-66 -41t-88 -15h-20z" />
    <glyph glyph-name="Wgrave" unicode="&#x1e80;" horiz-adv-x="1240" 
d="M532 939l224 -136l-58 -93l-225 136zM281 0l-271 700h150l189 -488l202 488h138l202 -488l189 488h150l-271 -700h-131l-208 499l-208 -499h-131z" />
    <glyph glyph-name="wgrave" unicode="&#x1e81;" horiz-adv-x="851" 
d="M339 768l224 -136l-58 -93l-225 136zM200 0l-203 500h144l112 -298l119 298h107l120 -298l111 298h144l-203 -500h-100l-125 297l-126 -297h-100z" />
    <glyph glyph-name="Wacute" unicode="&#x1e82;" horiz-adv-x="1240" 
d="M706 938l58 -92l-225 -136l-58 92zM281 0l-271 700h150l189 -488l202 488h138l202 -488l189 488h150l-271 -700h-131l-208 499l-208 -499h-131z" />
    <glyph glyph-name="wacute" unicode="&#x1e83;" horiz-adv-x="851" 
d="M503 767l58 -92l-225 -136l-58 92zM200 0l-203 500h144l112 -298l119 298h107l120 -298l111 298h144l-203 -500h-100l-125 297l-126 -297h-100z" />
    <glyph glyph-name="Wdieresis" unicode="&#x1e84;" horiz-adv-x="1240" 
d="M442 810q0 33 22.5 55.5t55.5 22.5t55.5 -22.5t22.5 -55.5t-22.5 -55.5t-55.5 -22.5t-55.5 22.5t-22.5 55.5zM648 810q0 33 22.5 55.5t55.5 22.5t55.5 -22.5t22.5 -55.5t-22.5 -55.5t-55.5 -22.5t-55.5 22.5t-22.5 55.5zM281 0l-271 700h150l189 -488l202 488h138
l202 -488l189 488h150l-271 -700h-131l-208 499l-208 -499h-131z" />
    <glyph glyph-name="wdieresis" unicode="&#x1e85;" horiz-adv-x="851" 
d="M241 644q0 33 22.5 55.5t55.5 22.5t55.5 -22.5t22.5 -55.5t-22.5 -55.5t-55.5 -22.5t-55.5 22.5t-22.5 55.5zM447 644q0 33 22.5 55.5t55.5 22.5t55.5 -22.5t22.5 -55.5t-22.5 -55.5t-55.5 -22.5t-55.5 22.5t-22.5 55.5zM200 0l-203 500h144l112 -298l119 298h107
l120 -298l111 298h144l-203 -500h-100l-125 297l-126 -297h-100z" />
    <glyph glyph-name="Ygrave" unicode="&#x1ef2;" horiz-adv-x="710" 
d="M262 939l224 -136l-58 -93l-225 136zM285 0v271l-286 429h169l187 -280l187 280h169l-286 -429v-271h-140z" />
    <glyph glyph-name="ygrave" unicode="&#x1ef3;" horiz-adv-x="538" 
d="M189 768l224 -136l-58 -93l-225 136zM87 -200l122 272l-212 428h154l128 -274l123 274h140l-315 -700h-140z" />
    <glyph glyph-name="endash" unicode="&#x2013;" horiz-adv-x="903" 
d="M833 370v-140h-763v140h763z" />
    <glyph glyph-name="emdash" unicode="&#x2014;" horiz-adv-x="1314" 
d="M1244 370v-140h-1174v140h1174z" />
    <glyph glyph-name="quoteleft" unicode="&#x2018;" horiz-adv-x="282" 
d="M133 376q-20 0 -37 7.5t-29.5 20.5t-19.5 30t-7 36q0 30 17 52l117 190l68 -38l-72 -118q25 -11 40.5 -34t15.5 -52q0 -19 -7 -36t-19.5 -30t-29.5 -20.5t-37 -7.5z" />
    <glyph glyph-name="quoteright" unicode="&#x2019;" horiz-adv-x="282" 
d="M40 414l72 118q-25 11 -40.5 34t-15.5 52q0 19 7 36t19.5 30t29.5 20.5t37 7.5t37 -7.5t29.5 -20.5t19.5 -30t7 -36q0 -30 -17 -52l-117 -190z" />
    <glyph glyph-name="quotesinglbase" unicode="&#x201a;" horiz-adv-x="282" 
d="M40 -111l72 118q-25 11 -40.5 34t-15.5 52q0 19 7 36t19.5 30t29.5 20.5t37 7.5t37 -7.5t29.5 -20.5t19.5 -30t7 -36q0 -30 -17 -52l-117 -190z" />
    <glyph glyph-name="quotedblleft" unicode="&#x201c;" horiz-adv-x="511" 
d="M362 376q-20 0 -36.5 7.5t-29 20t-19.5 29.5t-7 36q0 31 16 53l117 190l68 -39l-72 -118q26 -11 41 -34t15 -52q0 -38 -26.5 -65.5t-66.5 -27.5zM133 376q-40 0 -66.5 27.5t-26.5 65.5q0 31 17 53l117 190l68 -39l-72 -118q25 -11 40.5 -34t15.5 -52q0 -19 -7 -36
t-20 -29.5t-30 -20t-36 -7.5z" />
    <glyph glyph-name="quotedblright" unicode="&#x201d;" horiz-adv-x="511" 
d="M40 415l72 118q-26 11 -41 34t-15 52q0 38 26.5 65.5t66.5 27.5t66.5 -27.5t26.5 -65.5q0 -30 -17 -53l-117 -190zM270 415l72 118q-26 11 -41 34t-15 52q0 38 26.5 65.5t66.5 27.5q19 0 36 -7.5t29.5 -20.5t19.5 -29.5t7 -35.5q0 -29 -16 -53l-117 -190z" />
    <glyph glyph-name="quotedblbase" unicode="&#x201e;" horiz-adv-x="511" 
d="M49 -111l72 118q-25 11 -40 34.5t-15 51.5q0 19 7 35.5t19.5 29.5t29 20.5t36.5 7.5q40 0 66.5 -27.5t26.5 -65.5q0 -29 -16 -53l-117 -190zM279 -111l72 118q-26 11 -41 34.5t-15 51.5q0 38 26.5 65.5t66.5 27.5t66.5 -27.5t26.5 -65.5q0 -30 -17 -53l-117 -190z" />
    <glyph glyph-name="dagger" unicode="&#x2020;" horiz-adv-x="515" 
d="M323 386v-481h-132v481h-176v124h176v231h132v-231h177v-124h-177z" />
    <glyph glyph-name="daggerdbl" unicode="&#x2021;" horiz-adv-x="503" 
d="M318 103v-198h-133v198h-170v124h170v192h-170v124h170v198h133v-198h170v-124h-170v-192h170v-124h-170z" />
    <glyph glyph-name="bullet" unicode="&#x2022;" horiz-adv-x="456" 
d="M90 319q0 30 10.5 55.5t28.5 43.5t43.5 28.5t55.5 10.5t55.5 -10.5t43.5 -28.5t28.5 -43.5t10.5 -55.5t-10.5 -55t-28.5 -43t-43.5 -28.5t-55.5 -10.5t-55.5 10.5t-43.5 28.5t-28.5 43t-10.5 55z" />
    <glyph glyph-name="ellipsis" unicode="&#x2026;" horiz-adv-x="970" 
d="M485 190q41 0 68 -27t27 -68t-27 -68t-68 -27t-68 27t-27 68t27 68t68 27zM182 190q41 0 68.5 -27t27.5 -68t-27.5 -68t-68.5 -27t-67.5 27t-26.5 68t26.5 68t67.5 27zM787 190q41 0 68 -27t27 -68t-27 -68t-68 -27t-68 27t-27 68t27 68t68 27z" />
    <glyph glyph-name="perthousand" unicode="&#x2030;" horiz-adv-x="1079" 
d="M612 725l65 -54l-562 -696l-65 54zM38 546q0 33 12 61t32.5 48.5t48.5 32.5t61 12t61 -12t48.5 -32.5t32.5 -48.5t12 -61t-12 -61t-32.5 -48.5t-48.5 -32.5t-61 -12t-61 12t-48.5 32.5t-32.5 48.5t-12 61zM259 546q0 29 -19 48t-48 19t-48 -19t-19 -48t19 -48t48 -19
t48 19t19 48zM374 154q0 33 12 61t32.5 48.5t48.5 32.5t61 12q32 0 60 -12t49 -32.5t33 -48.5t12 -61t-12 -61t-33 -48.5t-49 -32.5t-60 -12q-33 0 -61 12t-48.5 32.5t-32.5 48.5t-12 61zM736 154q0 33 12 61t32.5 48.5t48.5 32.5t61 12q32 0 60 -12t49 -32.5t33 -48.5
t12 -61t-12 -61t-33 -48.5t-49 -32.5t-60 -12q-33 0 -61 12t-48.5 32.5t-32.5 48.5t-12 61zM956 154q0 29 -18.5 48t-47.5 19t-48 -19t-19 -48t19 -48t48 -19t47.5 19t18.5 48zM594 154q0 29 -18.5 48t-47.5 19t-48 -19t-19 -48t19 -48t48 -19t47.5 19t18.5 48z" />
    <glyph glyph-name="guilsinglleft" unicode="&#x2039;" horiz-adv-x="430" 
d="M264 498l88 -80l-150 -158l150 -158l-88 -79l-224 237z" />
    <glyph glyph-name="guilsinglright" unicode="&#x203a;" horiz-adv-x="430" 
d="M165 23l-87 79l150 158l-150 158l87 80l225 -238z" />
    <glyph glyph-name="fraction" unicode="&#x2044;" horiz-adv-x="274" 
d="M386 725l65 -54l-562 -696l-65 54z" />
    <glyph glyph-name="zerosuperior" unicode="&#x2070;" horiz-adv-x="485" 
d="M41 610q0 48 15.5 87t42.5 66t64 42t79 15t79 -15t64.5 -42t43 -66t15.5 -87t-15.5 -87t-43 -66t-64.5 -42t-79 -15t-79 15t-64 42t-42.5 66t-15.5 87zM348 610q0 55 -29.5 84t-76.5 29q-46 0 -75.5 -29t-29.5 -84t29.5 -84t75.5 -29q47 0 76.5 29t29.5 84z" />
    <glyph glyph-name="foursuperior" unicode="&#x2074;" horiz-adv-x="426" 
d="M338 820v-265h53v-96h-53v-59h-97v59h-213v82l230 279h80zM241 650l-76 -95h76v95z" />
    <glyph glyph-name="fivesuperior" unicode="&#x2075;" horiz-adv-x="366" 
d="M323 820v-97h-173v-32q1 0 6.5 0.5t8.5 0.5q71 0 114.5 -35.5t43.5 -107.5t-44 -110.5t-115 -38.5q-42 0 -79.5 12t-60.5 24l39 87q26 -13 52.5 -19.5t46.5 -6.5q26 0 45 11.5t19 37.5q0 22 -18.5 36t-64.5 14q-15 0 -38 -2t-52 -7v233h270z" />
    <glyph glyph-name="sixsuperior" unicode="&#x2076;" horiz-adv-x="365" 
d="M188 400q-48 0 -79 18t-50 50q-29 51 -29 130q0 45 9.5 85.5t31.5 70.5t56.5 48t84.5 18q22 0 46.5 -4.5t57.5 -18.5l-34 -90q-20 8 -39 12t-36 4q-34 0 -52.5 -16t-21.5 -36v-1q13 7 30 12t31 5q28 0 52.5 -9.5t43 -27.5t29.5 -44.5t11 -59.5q0 -68 -40.5 -107
t-101.5 -39zM182 590q-23 0 -37 -12.5t-14 -34.5q0 -21 14.5 -33.5t36.5 -12.5q23 0 37 12.5t14 34.5q0 20 -14 33t-37 13z" />
    <glyph glyph-name="sevensuperior" unicode="&#x2077;" horiz-adv-x="350" 
d="M321 820v-78l-181 -342h-108l171 323h-171v97h289z" />
    <glyph glyph-name="eightsuperior" unicode="&#x2078;" horiz-adv-x="378" 
d="M46 706q0 53 40 83.5t103 30.5t103 -30.5t40 -83.5q0 -29 -15 -55.5t-45 -40.5q30 -14 45 -40.5t15 -55.5q0 -53 -40 -83.5t-103 -30.5t-103 30.5t-40 83.5q0 30 14.5 56t44.5 40q-29 14 -44 40.5t-15 55.5zM235 691q0 14 -12 23t-34 9t-34 -9t-12 -23q0 -15 12.5 -23.5
t33.5 -8.5t33.5 8.5t12.5 23.5zM235 529q0 15 -12.5 23.5t-33.5 8.5t-33.5 -8.5t-12.5 -23.5q0 -14 12 -23t34 -9t34 9t12 23z" />
    <glyph glyph-name="ninesuperior" unicode="&#x2079;" horiz-adv-x="370" 
d="M239 677q0 21 -14 33.5t-37 12.5t-37 -12.5t-14 -33.5t14 -34t37 -13t37 13t14 34zM40 673q0 34 11 61t31 46t47.5 29.5t60.5 10.5q38 0 66 -13.5t46 -37.5q38 -53 38 -149q0 -49 -10.5 -89.5t-32 -69.5t-55.5 -45t-80 -16q-52 0 -110 24l33 89q19 -8 40 -12t38 -4
q34 0 51.5 16t21.5 36v1q-13 -6 -26.5 -11.5t-34.5 -5.5q-28 0 -52.5 9.5t-43 27.5t-29 44t-10.5 59z" />
    <glyph glyph-name="parenleftsuperior" unicode="&#x207d;" horiz-adv-x="242" 
d="M45 595q0 84 29.5 156t85.5 129l65 -57q-41 -49 -66.5 -103t-25.5 -125q0 -72 25 -132.5t66 -110.5l-65 -55q-27 28 -48.5 63.5t-36 74.5t-22 80t-7.5 80z" />
    <glyph glyph-name="parenrightsuperior" unicode="&#x207e;" horiz-adv-x="242" 
d="M82 880q56 -57 85.5 -129t29.5 -156q0 -39 -7.5 -80t-22 -80t-36 -74.5t-48.5 -63.5l-65 55q41 50 66 110.5t25 132.5q0 71 -25.5 125t-65.5 103z" />
    <glyph glyph-name="nsuperior" unicode="&#x207f;" horiz-adv-x="373" 
d="M130 656q14 20 38 35.5t59 15.5q51 0 77 -30t26 -87v-190h-93v161q0 32 -12.5 45t-35.5 13q-27 0 -42 -19t-15 -54v-146h-91v300h89v-44z" />
    <glyph glyph-name="zeroinferior" unicode="&#x2080;" horiz-adv-x="485" 
d="M41 60q0 48 15.5 87t42.5 66t64 42t79 15t79 -15t64.5 -42t43 -66t15.5 -87t-15.5 -87t-43 -66t-64.5 -42t-79 -15t-79 15t-64 42t-42.5 66t-15.5 87zM348 60q0 55 -29.5 84t-76.5 29q-46 0 -75.5 -29t-29.5 -84t29.5 -84t75.5 -29q47 0 76.5 29t29.5 84z" />
    <glyph glyph-name="oneinferior" unicode="&#x2081;" horiz-adv-x="319" 
d="M253 270v-420h-96v268l-72 -69l-67 70l155 151h80z" />
    <glyph glyph-name="twoinferior" unicode="&#x2082;" horiz-adv-x="367" 
d="M29 181q7 12 19 27.5t30.5 29t44 23t59.5 9.5q66 0 105 -37t39 -98q0 -39 -15 -67.5t-38 -50.5l-76 -70h129v-97h-286v76l155 146q14 13 24 26.5t10 30.5q0 20 -13.5 32t-36.5 12q-29 0 -48.5 -16.5t-30.5 -33.5z" />
    <glyph glyph-name="threeinferior" unicode="&#x2083;" horiz-adv-x="363" 
d="M24 213q19 23 55.5 40t87.5 17q75 0 112.5 -32.5t37.5 -83.5q0 -42 -20.5 -64.5t-43.5 -29.5q23 -7 43.5 -29.5t20.5 -64.5q0 -51 -37.5 -83.5t-112.5 -32.5q-51 0 -87.5 17t-55.5 41l62 73q17 -20 39 -27t42 -7q54 0 54 33q0 14 -13.5 23.5t-39.5 9.5h-34v94h34
q53 2 53 33q0 33 -54 33q-20 0 -42 -7t-39 -27z" />
    <glyph glyph-name="fourinferior" unicode="&#x2084;" horiz-adv-x="426" 
d="M338 270v-265h53v-96h-53v-59h-97v59h-213v81l230 280h80zM241 100l-76 -95h76v95z" />
    <glyph glyph-name="fiveinferior" unicode="&#x2085;" horiz-adv-x="366" 
d="M323 270v-97h-173v-32q1 0 6.5 0.5t8.5 0.5q71 0 114.5 -35.5t43.5 -107.5q0 -73 -44 -111t-115 -38q-42 0 -79.5 11.5t-60.5 24.5l39 87q26 -13 52.5 -19.5t46.5 -6.5q26 0 45 11.5t19 36.5q0 23 -18.5 37t-64.5 14q-15 0 -38 -2t-52 -7v233h270z" />
    <glyph glyph-name="sixinferior" unicode="&#x2086;" horiz-adv-x="365" 
d="M188 -150q-48 0 -79 18t-50 50q-15 26 -22 59t-7 71q0 45 9.5 85.5t31.5 70.5t56.5 48t84.5 18q22 0 46.5 -4.5t57.5 -18.5l-34 -90q-20 8 -39 12t-36 4q-34 0 -52.5 -16t-21.5 -36v-1q13 7 30 12t31 5q28 0 52.5 -9.5t43 -27.5t29.5 -44.5t11 -60.5q0 -33 -11 -60
t-30 -46t-45 -29t-56 -10zM182 40q-23 0 -37 -12.5t-14 -34.5q0 -21 14.5 -33.5t36.5 -12.5q23 0 37 12.5t14 33.5t-14 34t-37 13z" />
    <glyph glyph-name="seveninferior" unicode="&#x2087;" horiz-adv-x="350" 
d="M321 270v-78l-181 -342h-108l171 323h-171v97h289z" />
    <glyph glyph-name="eightinferior" unicode="&#x2088;" horiz-adv-x="378" 
d="M46 156q0 53 40 83.5t103 30.5t103 -30.5t40 -83.5q0 -29 -15 -55.5t-45 -40.5q30 -14 45 -40.5t15 -55.5q0 -53 -40 -83.5t-103 -30.5t-103 30.5t-40 83.5q0 30 14.5 56t44.5 40q-29 14 -44 40.5t-15 55.5zM235 141q0 14 -12 23t-34 9t-34 -9t-12 -23q0 -15 12.5 -23.5
t33.5 -8.5t33.5 8.5t12.5 23.5zM235 -21q0 15 -12.5 23.5t-33.5 8.5t-33.5 -8.5t-12.5 -23.5q0 -14 12 -23t34 -9t34 9t12 23z" />
    <glyph glyph-name="nineinferior" unicode="&#x2089;" horiz-adv-x="370" 
d="M239 127q0 21 -14 33.5t-37 12.5t-37 -12.5t-14 -33.5t14 -34t37 -13t37 13t14 34zM40 123q0 34 11 61t31 46t47.5 29.5t60.5 10.5q38 0 66 -13.5t46 -37.5q38 -53 38 -149q0 -49 -10.5 -89.5t-32 -69.5t-55.5 -45t-80 -16q-52 0 -110 24l33 89q19 -8 40 -12t38 -4
q34 0 51.5 16t21.5 36v1q-13 -6 -26.5 -11.5t-34.5 -5.5q-28 0 -52.5 9.5t-43 27.5t-29 44t-10.5 59z" />
    <glyph glyph-name="parenleftinferior" unicode="&#x208d;" horiz-adv-x="242" 
d="M45 45q0 84 29.5 156t85.5 129l65 -57q-41 -49 -66.5 -103t-25.5 -125q0 -72 25 -132.5t66 -110.5l-65 -56q-27 29 -48.5 64.5t-36 74.5t-22 80t-7.5 80z" />
    <glyph glyph-name="parenrightinferior" unicode="&#x208e;" horiz-adv-x="242" 
d="M82 330q56 -57 85.5 -129t29.5 -156q0 -39 -7.5 -80t-22 -80t-36 -74.5t-48.5 -64.5l-65 56q41 50 66 110.5t25 132.5q0 71 -25.5 125t-65.5 103z" />
    <glyph glyph-name="TRY" unicode="&#x20a4;" horiz-adv-x="668" 
d="M288 140q46 0 84.5 15.5t66.5 43.5t43.5 66.5t15.5 84.5h140q0 -75 -26.5 -139t-73.5 -111t-111 -73.5t-139 -26.5h-140v285l-98 -30v75l98 30v60l-98 -30v75l98 30v205h140v-162l188 58v-74l-188 -58v-61l188 58v-74l-188 -58v-189z" />
    <glyph glyph-name="Euro" unicode="&#x20ac;" horiz-adv-x="711" 
d="M604 36q-38 -18 -74 -27t-74 -9q-58 0 -109.5 17.5t-92.5 50.5t-70.5 80.5t-42.5 106.5h-95l34 70h51q-1 6 -1 12v14v12q0 7 1 13h-79l34 70h55q13 58 42.5 105t71.5 80t93.5 51t110.5 18q57 0 118 -17.5t111 -58.5l-66 -129q-35 32 -77.5 48.5t-85.5 16.5
q-61 0 -105.5 -30.5t-65.5 -83.5h306l-37 -70h-286q-1 -6 -1 -12v-14v-13q0 -6 1 -12h258l-36 -70h-206q21 -54 64.5 -84.5t103.5 -30.5q23 0 54 7t66 27z" />
    <glyph glyph-name="Indianrupeesign" unicode="&#x20b9;" horiz-adv-x="638" 
d="M499 437q-5 -44 -24.5 -81t-50 -64t-70.5 -42.5t-86 -15.5l243 -234h-195l-246 234h1l-1 140h197q35 0 57.5 18t31.5 45h-286v72h281q-11 23 -32 37t-52 14h-197v140h538l-50 -72h-119q23 -24 38 -54t20 -65h99l-52 -72h-45z" />
    <glyph glyph-name="RUB" unicode="&#x20bd;" horiz-adv-x="675" 
d="M296 392h117q45 0 68.5 24t23.5 60t-23.5 60t-68.5 24h-117v-168zM296 138v-138h-140v138h-85v72h85v42h-86v140h86v308h257q51 0 94 -17t73.5 -47t47.5 -71t17 -89t-17 -89t-47.5 -71t-73.5 -47t-94 -17h-117v-42h229v-72h-229z" />
    <glyph glyph-name="afii61289" unicode="&#x2113;" horiz-adv-x="548" 
d="M306 -12q-70 0 -117 43.5t-51 139.5q-13 -9 -25.5 -16.5t-24.5 -15.5l-58 86l54 34q27 19 54 40v245q0 63 14.5 106t38.5 69.5t55 37.5t64 11q72 0 114 -44t42 -119q0 -50 -17.5 -97.5t-47 -91.5t-68 -84.5t-80.5 -75.5v-50q0 -51 17.5 -77.5t52.5 -26.5q29 0 53.5 19
t50.5 56l71 -71q-42 -57 -86.5 -87.5t-105.5 -30.5zM253 405q43 48 70 97.5t27 96.5q0 29 -12.5 45.5t-33.5 16.5t-36 -19t-15 -62v-175z" />
    <glyph glyph-name="afii61352" unicode="&#x2116;" horiz-adv-x="1317" 
d="M1277 417q0 -51 -18.5 -94t-50 -73.5t-75 -48t-92.5 -17.5q-50 0 -93 17.5t-75 48t-50.5 73.5t-18.5 94t18.5 93.5t50.5 73t75 48t93 17.5q49 0 92.5 -17.5t75 -48t50 -73t18.5 -93.5zM1095 362q24 23 25 54.5t-23 57.5q-23 25 -55.5 23t-55.5 -25q-23 -24 -24.5 -55
t22.5 -57t56 -24t55 26zM720 700v-700h-122l-378 460v-460h-140v700h122l378 -460v460h140zM1256 114v-114h-430v114h430z" />
    <glyph glyph-name="trademark" unicode="&#x2122;" horiz-adv-x="1029" 
d="M423 700v-104h-134v-293h-104v293h-135v104h373zM979 700v-397h-104v201l-113 -201h-79l-114 201v-201h-104v397h103l155 -265l153 265h103z" />
    <glyph glyph-name="uni2126" unicode="&#x2126;" horiz-adv-x="775" 
d="M32 0v113h126q-52 47 -86 110t-34 150q0 76 26.5 139t73.5 107t111 68.5t139 24.5t139 -24.5t111 -68.5t73.5 -107t26.5 -139q0 -87 -34.5 -150t-86.5 -110h127v-113h-320v113q36 22 67.5 48t54.5 57t36.5 68t13.5 81q0 49 -16 87.5t-44 65.5t-66 41t-82 14t-82 -14
t-66.5 -41t-44.5 -65.5t-16 -87.5q0 -44 13.5 -81t36.5 -68t54.5 -57t67.5 -48v-113h-319z" />
    <glyph glyph-name="estimated" unicode="&#x212e;" horiz-adv-x="770" 
d="M35 304q0 66 27.5 123.5t75 100t111.5 67.5t137 25t137 -25t112 -67.5t75.5 -100t27.5 -123.5v-9h-574v-140q0 -23 5.5 -40.5t13 -30t16.5 -20.5t17 -13q38 -25 81.5 -35t90.5 -10q74 0 139 27.5t109 77.5h29q-48 -56 -120.5 -89.5t-158.5 -33.5q-73 0 -137 25
t-111.5 67.5t-75 100t-27.5 123.5zM565 552q-36 28 -81.5 39t-95.5 11q-48 0 -92.5 -10.5t-79.5 -35.5l-16 -12q-9 -7 -17 -17.5t-13.5 -24t-5.5 -31.5v-158h445v152q0 38 -15.5 57.5t-28.5 29.5z" />
    <glyph glyph-name="arrowleft" unicode="&#x2190;" horiz-adv-x="863" 
d="M428 619l94 -97l-175 -161h447v-134h-447l175 -160l-94 -98l-359 325z" />
    <glyph glyph-name="arrowup" unicode="&#x2191;" horiz-adv-x="787" 
d="M394 718l325 -359l-98 -94l-160 175v-440h-134v440l-161 -175l-97 94z" />
    <glyph glyph-name="arrowright" unicode="&#x2192;" horiz-adv-x="863" 
d="M435 619l359 -325l-359 -325l-94 98l175 160h-447v134h447l-175 161z" />
    <glyph glyph-name="arrowdown" unicode="&#x2193;" horiz-adv-x="787" 
d="M461 699v-440l160 175l98 -94l-325 -359l-325 359l97 94l161 -175v440h134z" />
    <glyph glyph-name="uni2196" unicode="&#x2196;" horiz-adv-x="700" 
d="M554 595l-2 -135l-238 10l317 -317l-95 -95l-317 317l10 -238l-135 -2l-25 485z" />
    <glyph glyph-name="uni2197" unicode="&#x2197;" horiz-adv-x="700" 
d="M631 620l-25 -485l-136 2l11 238l-317 -317l-95 95l317 317l-238 -10l-3 135z" />
    <glyph glyph-name="uni2198" unicode="&#x2198;" horiz-adv-x="700" 
d="M164 637l317 -317l-11 238l136 2l25 -485l-486 24l3 136l238 -10l-317 317z" />
    <glyph glyph-name="uni2199" unicode="&#x2199;" horiz-adv-x="700" 
d="M536 637l95 -95l-317 -317l238 10l2 -136l-485 -24l25 485l135 -2l-10 -238z" />
    <glyph glyph-name="partialdiff" unicode="&#x2202;" 
d="M293 -12q-58 0 -101 20t-71.5 52t-42.5 73.5t-14 85.5q0 52 18.5 95.5t50.5 75t74.5 48.5t89.5 17q45 0 78 -14.5t59 -31.5q-8 94 -49 138t-111 44q-50 0 -86 -16t-55 -28l-61 122q35 23 90 42t117 19q60 0 114 -22.5t94.5 -68t64.5 -114.5t24 -163q0 -80 -18 -148
t-54 -118.5t-89 -79t-122 -28.5zM298 117q49 0 81.5 40.5t46.5 107.5q-19 21 -50 37.5t-66 16.5q-48 0 -76.5 -29.5t-28.5 -74.5q0 -42 25.5 -70t67.5 -28z" />
    <glyph glyph-name="uni2206" unicode="&#x2206;" horiz-adv-x="724" 
d="M396 743l308 -743h-684l308 743h68zM362 521l-168 -435h337z" />
    <glyph glyph-name="product" unicode="&#x220f;" horiz-adv-x="683" 
d="M663 712v-135h-98v-666h-140v666h-166v-666h-140v666h-99v135h643z" />
    <glyph glyph-name="summation" unicode="&#x2211;" 
d="M560 700v-139h-274l169 -251l-180 -270h299v-139h-509v79l221 330l-212 312v78h486z" />
    <glyph glyph-name="minus" unicode="&#x2212;" 
d="M587 389v-140h-534v140h534z" />
    <glyph glyph-name="radical" unicode="&#x221a;" 
d="M487 926l134 -19l-173 -963h-143l-154 407l-78 -32l-54 121l210 88l128 -358z" />
    <glyph glyph-name="infinity" unicode="&#x221e;" horiz-adv-x="776" 
d="M388 376q19 20 39 38.5t42.5 32.5t48 22t54.5 8q36 0 69.5 -13.5t59 -37.5t40.5 -57.5t15 -73.5q0 -39 -14.5 -72t-39.5 -57t-58.5 -37.5t-70.5 -13.5q-58 0 -102.5 29.5t-82.5 69.5q-38 -40 -82.5 -69.5t-102.5 -29.5q-37 0 -70.5 13.5t-58.5 37.5t-39.5 57t-14.5 72
q0 40 15 73.5t40.5 57.5t59 37.5t69.5 13.5q29 0 54.5 -8t48 -22t42.5 -32.5t39 -38.5zM631 295q0 27 -18.5 45.5t-47.5 18.5q-28 0 -52.5 -18.5t-49.5 -45.5q25 -26 49.5 -44.5t53.5 -18.5q28 0 46.5 17.5t18.5 45.5zM313 295q-25 27 -49.5 45.5t-52.5 18.5
q-29 0 -47.5 -18t-18.5 -46t18.5 -45.5t46.5 -17.5t53 18.5t50 44.5z" />
    <glyph glyph-name="integral" unicode="&#x222b;" 
d="M248 696q0 85 44 123t118 38q28 0 51.5 -2.5t47.5 -6.5v-134q-22 3 -38.5 4.5t-30.5 1.5q-26 0 -39 -14t-13 -49v-705q0 -82 -43 -119t-115 -37q-28 0 -51.5 2.5t-47.5 6.5v134l39 -5q16 -2 30 -2q24 0 36 14.5t12 49.5v700z" />
    <glyph glyph-name="approxequal" unicode="&#x2248;" 
d="M34 440q40 35 82.5 60.5t96.5 25.5q34 0 64 -11.5t56.5 -25t50.5 -24.5t46 -11q43 0 102 53l73 -106q-39 -36 -82 -62.5t-96 -26.5q-35 0 -63 11.5t-53 25t-49.5 25t-52.5 11.5q-43 0 -102 -53zM34 199q40 36 82.5 61.5t96.5 25.5q34 0 64 -11.5t56.5 -25t50.5 -24.5
t46 -11q44 0 102 52l73 -106q-39 -36 -81.5 -62t-96.5 -26q-35 0 -63 11t-53 24.5t-49.5 25t-52.5 11.5q-43 0 -102 -53z" />
    <glyph glyph-name="notequal" unicode="&#x2260;" 
d="M274 113l-71 -126l-101 54l40 72h-94v140h173l52 94h-225v140h304l67 120l105 -54l-37 -66h105v-140h-185l-53 -94h238v-140h-318z" />
    <glyph glyph-name="lessequal" unicode="&#x2264;" 
d="M544 647l39 -144l-306 -78l306 -79l-39 -144l-488 145v155zM588 171v-139h-534v139h534z" />
    <glyph glyph-name="greaterequal" unicode="&#x2265;" 
d="M584 502v-155l-488 -145l-39 144l306 79l-306 78l39 144zM586 171v-139h-534v139h534z" />
    <glyph glyph-name="uni2460" unicode="&#x2460;" horiz-adv-x="824" 
d="M50 350q0 78 27.5 144t75.5 114.5t114.5 76t144.5 27.5t144.5 -27.5t114.5 -76t75.5 -114.5t27.5 -144t-27.5 -144t-75.5 -114.5t-114.5 -76t-144.5 -27.5t-144.5 27.5t-114.5 76t-75.5 114.5t-27.5 144zM687 350q0 60 -20 110.5t-56.5 87t-87 57t-111.5 20.5
q-60 0 -110.5 -20.5t-87 -57t-56.5 -87t-20 -110.5t20 -110.5t56.5 -87t87 -56.5t110.5 -20q61 0 111.5 20t87 56.5t56.5 87t20 110.5zM481 568v-420h-96v268l-72 -69l-67 70l155 151h80z" />
    <glyph glyph-name="uni2461" unicode="&#x2461;" horiz-adv-x="824" 
d="M412 712q78 0 144.5 -27.5t114.5 -76t75.5 -114.5t27.5 -144t-27.5 -144t-75.5 -114.5t-114.5 -76t-144.5 -27.5t-144.5 27.5t-114.5 76t-75.5 114.5t-27.5 144t27.5 144t75.5 114.5t114.5 76t144.5 27.5zM412 76q61 0 111.5 20t87 56.5t56.5 87t20 110.5t-20 110.5
t-56.5 87t-87 57t-111.5 20.5q-60 0 -110.5 -20.5t-87 -57t-56.5 -87t-20 -110.5t20 -110.5t56.5 -87t87 -56.5t110.5 -20zM412 579q66 0 105 -37.5t39 -98.5q0 -39 -15.5 -67.5t-38.5 -49.5l-75 -71h129v-96h-287v75l156 147q14 12 24 25.5t10 30.5q0 20 -14 32.5t-37 12.5
q-29 0 -48.5 -16.5t-30.5 -33.5l-70 58q7 12 19 27.5t30.5 29t44 23t59.5 9.5z" />
    <glyph glyph-name="uni2462" unicode="&#x2462;" horiz-adv-x="824" 
d="M412 712q78 0 144.5 -27.5t114.5 -76t75.5 -114.5t27.5 -144t-27.5 -144t-75.5 -114.5t-114.5 -76t-144.5 -27.5t-144.5 27.5t-114.5 76t-75.5 114.5t-27.5 144t27.5 144t75.5 114.5t114.5 76t144.5 27.5zM687 350q0 60 -20 110.5t-56.5 87t-87 57t-111.5 20.5
q-60 0 -110.5 -20.5t-87 -57t-56.5 -87t-20 -110.5t20 -110.5t56.5 -87t87 -56.5t110.5 -20q61 0 111.5 20t87 56.5t56.5 87t20 110.5zM414 564q75 0 112.5 -32.5t37.5 -83.5q0 -42 -20.5 -64.5t-43.5 -29.5q23 -7 43.5 -30t20.5 -64q0 -51 -37.5 -83.5t-112.5 -32.5
q-51 0 -87.5 17t-55.5 40l62 74q17 -20 39 -27.5t42 -7.5q54 0 54 34q0 31 -53 33h-34v94h34q53 2 53 33q0 33 -54 33q-20 0 -42 -7t-39 -27l-62 73q19 23 55.5 40.5t87.5 17.5z" />
    <glyph glyph-name="uni2463" unicode="&#x2463;" horiz-adv-x="824" 
d="M412 712q78 0 144.5 -27.5t114.5 -76t75.5 -114.5t27.5 -144t-27.5 -144t-75.5 -114.5t-114.5 -76t-144.5 -27.5t-144.5 27.5t-114.5 76t-75.5 114.5t-27.5 144t27.5 144t75.5 114.5t114.5 76t144.5 27.5zM412 625q-60 0 -110.5 -20.5t-87 -57t-56.5 -87t-20 -110.5
t20 -110.5t56.5 -87t87 -56.5t110.5 -20q61 0 111.5 20t87 56.5t56.5 87t20 110.5t-20 110.5t-56.5 87t-87 57t-111.5 20.5zM516 315h53v-97h-53v-59h-98v59h-202v82l220 279h80v-264zM342 315h76v100z" />
    <glyph glyph-name="uni2464" unicode="&#x2464;" horiz-adv-x="824" 
d="M412 712q78 0 144.5 -27.5t114.5 -76t75.5 -114.5t27.5 -144t-27.5 -144t-75.5 -114.5t-114.5 -76t-144.5 -27.5t-144.5 27.5t-114.5 76t-75.5 114.5t-27.5 144t27.5 144t75.5 114.5t114.5 76t144.5 27.5zM412 625q-60 0 -110.5 -20.5t-87 -57t-56.5 -87t-20 -110.5
t20 -110.5t56.5 -87t87 -56.5t110.5 -20q61 0 111.5 20t87 56.5t56.5 87t20 110.5t-20 110.5t-56.5 87t-87 57t-111.5 20.5zM546 557v-97h-154v-33q1 1 6.5 1.5t8.5 0.5q71 0 114.5 -35.5t43.5 -107.5q0 -73 -44 -111t-115 -38q-42 0 -79.5 11.5t-60.5 24.5l39 87
q26 -13 52.5 -19.5t46.5 -6.5q26 0 45 11.5t19 36.5q0 23 -18.5 37t-64.5 14q-15 0 -38 -2t-52 -7v233h251z" />
    <glyph glyph-name="uni2465" unicode="&#x2465;" horiz-adv-x="824" 
d="M412 712q78 0 144.5 -27.5t114.5 -76t75.5 -114.5t27.5 -144t-27.5 -144t-75.5 -114.5t-114.5 -76t-144.5 -27.5t-144.5 27.5t-114.5 76t-75.5 114.5t-27.5 144t27.5 144t75.5 114.5t114.5 76t144.5 27.5zM412 625q-60 0 -110.5 -20.5t-87 -57t-56.5 -87t-20 -110.5
t20 -110.5t56.5 -87t87 -56.5t110.5 -20q61 0 111.5 20t87 56.5t56.5 87t20 110.5t-20 110.5t-56.5 87t-87 57t-111.5 20.5zM248 340q0 45 9.5 85.5t31 70.5t56.5 48t85 18q22 0 46.5 -4.5t57.5 -18.5l-34 -90q-40 17 -75 17q-34 0 -53 -16.5t-21 -36.5v-1q13 8 30 12.5
t31 4.5q28 0 52.5 -9.5t43 -27.5t29.5 -44.5t11 -59.5q0 -34 -11 -61t-30 -46t-45.5 -29t-56.5 -10q-47 0 -78.5 18.5t-49.5 49.5q-15 26 -22 59t-7 71zM451 286q0 21 -14 33.5t-37 12.5t-37 -12.5t-14 -34.5q0 -21 14.5 -33.5t36.5 -12.5q23 0 37 12.5t14 34.5z" />
    <glyph glyph-name="uni2466" unicode="&#x2466;" horiz-adv-x="824" 
d="M412 712q78 0 144.5 -27.5t114.5 -76t75.5 -114.5t27.5 -144t-27.5 -144t-75.5 -114.5t-114.5 -76t-144.5 -27.5t-144.5 27.5t-114.5 76t-75.5 114.5t-27.5 144t27.5 144t75.5 114.5t114.5 76t144.5 27.5zM412 625q-60 0 -110.5 -20.5t-87 -57t-56.5 -87t-20 -110.5
t20 -110.5t56.5 -87t87 -56.5t110.5 -20q61 0 111.5 20t87 56.5t56.5 87t20 110.5t-20 110.5t-56.5 87t-87 57t-111.5 20.5zM561 559v-78l-161 -342h-106l152 324h-158v96h273z" />
    <glyph glyph-name="uni2467" unicode="&#x2467;" horiz-adv-x="824" 
d="M412 712q78 0 144.5 -27.5t114.5 -76t75.5 -114.5t27.5 -144t-27.5 -144t-75.5 -114.5t-114.5 -76t-144.5 -27.5t-144.5 27.5t-114.5 76t-75.5 114.5t-27.5 144t27.5 144t75.5 114.5t114.5 76t144.5 27.5zM412 625q-60 0 -110.5 -20.5t-87 -57t-56.5 -87t-20 -110.5
t20 -110.5t56.5 -87t87 -56.5t110.5 -20q61 0 111.5 20t87 56.5t56.5 87t20 110.5t-20 110.5t-56.5 87t-87 57t-111.5 20.5zM266 449q0 52 40.5 83t106.5 31q64 0 105.5 -30.5t41.5 -83.5q0 -29 -16 -55.5t-48 -40.5q32 -14 48 -40.5t16 -55.5q0 -53 -41.5 -83.5
t-105.5 -30.5q-65 0 -106 30.5t-41 83.5q0 30 15.5 56t47.5 40q-32 14 -47.5 40t-15.5 56zM463 434q0 14 -13.5 23t-36.5 9t-36.5 -9t-13.5 -23q0 -15 13.5 -23.5t36.5 -8.5t36.5 8.5t13.5 23.5zM463 272q0 15 -13.5 23.5t-36.5 8.5t-36.5 -8.5t-13.5 -23.5q0 -14 13.5 -23
t36.5 -9t36.5 9t13.5 23z" />
    <glyph glyph-name="uni2468" unicode="&#x2468;" horiz-adv-x="824" 
d="M412 712q78 0 144.5 -27.5t114.5 -76t75.5 -114.5t27.5 -144t-27.5 -144t-75.5 -114.5t-114.5 -76t-144.5 -27.5t-144.5 27.5t-114.5 76t-75.5 114.5t-27.5 144t27.5 144t75.5 114.5t114.5 76t144.5 27.5zM412 76q61 0 111.5 20t87 56.5t56.5 87t20 110.5t-20 110.5
t-56.5 87t-87 57t-111.5 20.5q-60 0 -110.5 -20.5t-87 -57t-56.5 -87t-20 -110.5t20 -110.5t56.5 -87t87 -56.5t110.5 -20zM421 378q23 0 37 13t14 34t-14.5 33.5t-36.5 12.5q-23 0 -37 -12.5t-14 -34.5q0 -20 14 -33t37 -13zM423 568q38 0 66 -13.5t46 -38.5
q38 -51 38 -148q0 -50 -10.5 -90.5t-32 -69t-55.5 -44.5t-80 -16q-52 0 -110 24l33 89q19 -8 39.5 -12.5t37.5 -4.5q35 0 52.5 16.5t21.5 36.5v1q-13 -6 -26.5 -11.5t-34.5 -5.5q-28 0 -52.5 9t-43 27t-29 44t-10.5 60q0 33 11 60.5t31 46.5t47.5 29.5t60.5 10.5z" />
    <glyph glyph-name="lozenge" unicode="&#x25ca;" 
d="M355 754l242 -422l-242 -422h-70l-242 422l242 422h70zM320 561l-124 -229l124 -229l124 229z" />
    <glyph glyph-name="circle" unicode="&#x25cb;" horiz-adv-x="824" 
d="M50 350q0 78 27.5 144t75.5 114.5t114.5 76t144.5 27.5t144.5 -27.5t114.5 -76t75.5 -114.5t27.5 -144t-27.5 -144t-75.5 -114.5t-114.5 -76t-144.5 -27.5t-144.5 27.5t-114.5 76t-75.5 114.5t-27.5 144zM687 350q0 60 -20 110.5t-56.5 87t-87 57t-111.5 20.5
q-60 0 -110.5 -20.5t-87 -57t-56.5 -87t-20 -110.5t20 -110.5t56.5 -87t87 -56.5t110.5 -20q61 0 111.5 20t87 56.5t56.5 87t20 110.5z" />
    <glyph glyph-name="uni2776" unicode="&#x2776;" horiz-adv-x="824" 
d="M412 712q78 0 144.5 -27.5t114.5 -76t75.5 -115t27.5 -143.5t-27.5 -143.5t-75.5 -115t-114.5 -76t-144.5 -27.5t-144.5 27.5t-114.5 76t-75.5 115t-27.5 143.5t27.5 143.5t75.5 115t114.5 76t144.5 27.5zM490 572h-80l-155 -151l67 -69l72 69v-269h96v420z" />
    <glyph glyph-name="uni2777" unicode="&#x2777;" horiz-adv-x="824" 
d="M412 712q78 0 144.5 -27.5t114.5 -76t75.5 -115t27.5 -143.5t-27.5 -143.5t-75.5 -115t-114.5 -76t-144.5 -27.5t-144.5 27.5t-114.5 76t-75.5 115t-27.5 143.5t27.5 143.5t75.5 115t114.5 76t144.5 27.5zM561 443q0 61 -39.5 98.5t-105.5 37.5q-34 0 -59.5 -9.5t-44 -23
t-30.5 -29t-19 -27.5l71 -58q11 17 30.5 33.5t48.5 16.5q23 0 36.5 -12.5t13.5 -32.5q0 -17 -10 -30.5t-24 -25.5l-155 -147v-75h287v96h-130l76 71q23 21 38.5 49.5t15.5 67.5z" />
    <glyph glyph-name="uni2778" unicode="&#x2778;" horiz-adv-x="824" 
d="M412 712q78 0 144.5 -27.5t114.5 -76t75.5 -115t27.5 -143.5t-27.5 -143.5t-75.5 -115t-114.5 -76t-144.5 -27.5t-144.5 27.5t-114.5 76t-75.5 115t-27.5 143.5t27.5 143.5t75.5 115t114.5 76t144.5 27.5zM409 570q-50 0 -87 -17t-56 -40l63 -74q17 20 39 27t42 7
q53 0 53 -33q0 -14 -13 -23t-39 -10h-35v-94h35q26 0 39 -9.5t13 -23.5q0 -33 -53 -33q-21 0 -42.5 7t-38.5 27l-63 -73q19 -23 55.5 -40.5t87.5 -17.5q75 0 113 32.5t38 83.5q0 42 -21 64.5t-44 29.5q23 7 44 29.5t21 64.5q0 51 -38 83.5t-113 32.5z" />
    <glyph glyph-name="uni2779" unicode="&#x2779;" horiz-adv-x="824" 
d="M412 712q78 0 144.5 -27.5t114.5 -76t75.5 -115t27.5 -143.5t-27.5 -143.5t-75.5 -115t-114.5 -76t-144.5 -27.5t-144.5 27.5t-114.5 76t-75.5 115t-27.5 143.5t27.5 143.5t75.5 115t114.5 76t144.5 27.5zM516 579h-80l-220 -279v-82h202v-59h98v59h53v97h-53v264z
M418 415v-100h-76z" />
    <glyph glyph-name="uni277A" unicode="&#x277a;" horiz-adv-x="824" 
d="M412 712q78 0 144.5 -27.5t114.5 -76t75.5 -115t27.5 -143.5t-27.5 -143.5t-75.5 -115t-114.5 -76t-144.5 -27.5t-144.5 27.5t-114.5 76t-75.5 115t-27.5 143.5t27.5 143.5t75.5 115t114.5 76t144.5 27.5zM546 557h-251v-233q29 5 52 7t38 2q46 0 64.5 -14t18.5 -37
q0 -25 -19 -36.5t-45 -11.5q-20 0 -46.5 6.5t-52.5 19.5l-39 -87q22 -13 59.5 -24.5t80.5 -11.5q71 0 114.5 38t43.5 111q0 72 -43 107.5t-114 35.5q-3 0 -8.5 -0.5t-7.5 -1.5v33h155v97z" />
    <glyph glyph-name="uni277B" unicode="&#x277b;" horiz-adv-x="824" 
d="M50 350q0 77 27.5 143.5t75.5 115t114.5 76t144.5 27.5t144.5 -27.5t114.5 -76t75.5 -115t27.5 -143.5t-27.5 -143.5t-75.5 -115t-114.5 -76t-144.5 -27.5t-144.5 27.5t-114.5 76t-75.5 115t-27.5 143.5zM534 548q-34 14 -58.5 18.5t-46.5 4.5q-50 0 -84.5 -18t-56 -48
t-31 -70.5t-9.5 -85.5q0 -78 28 -130q19 -32 50 -50t79 -18q61 0 101.5 39t40.5 107q0 33 -11 59.5t-29.5 44.5t-43 27.5t-52.5 9.5q-14 0 -31 -5t-29 -12v1q2 20 20.5 36t53.5 16q17 0 35.5 -4t38.5 -12zM348 294q0 22 14.5 34.5t37.5 12.5q22 0 36 -13t14 -33
q0 -22 -13.5 -34.5t-36.5 -12.5t-37.5 12.5t-14.5 33.5z" />
    <glyph glyph-name="uni277C" unicode="&#x277c;" horiz-adv-x="824" 
d="M50 350q0 77 27.5 143.5t75.5 115t114.5 76t144.5 27.5t144.5 -27.5t114.5 -76t75.5 -115t27.5 -143.5t-27.5 -143.5t-75.5 -115t-114.5 -76t-144.5 -27.5t-144.5 27.5t-114.5 76t-75.5 115t-27.5 143.5zM562 559h-273v-96h158l-152 -324h106l161 342v78z" />
    <glyph glyph-name="uni277D" unicode="&#x277d;" horiz-adv-x="824" 
d="M50 350q0 77 27.5 143.5t75.5 115t114.5 76t144.5 27.5t144.5 -27.5t114.5 -76t75.5 -115t27.5 -143.5t-27.5 -143.5t-75.5 -115t-114.5 -76t-144.5 -27.5t-144.5 27.5t-114.5 76t-75.5 115t-27.5 143.5zM560 452q0 53 -41.5 83.5t-105.5 30.5q-66 0 -106.5 -31
t-40.5 -83q0 -29 15.5 -55.5t47.5 -40.5q-32 -14 -47.5 -40t-15.5 -56q0 -52 41 -83t106 -31q64 0 105.5 31t41.5 83q0 29 -16 55.5t-48 40.5q32 14 48 40.5t16 55.5zM363 438q0 14 13.5 23t36.5 9t36.5 -9t13.5 -23q0 -16 -13.5 -24.5t-36.5 -8.5t-36.5 8.5t-13.5 24.5z
M363 275q0 15 13.5 24t36.5 9t36.5 -9t13.5 -24q0 -14 -13.5 -23t-36.5 -9t-36.5 9t-13.5 23z" />
    <glyph glyph-name="uni277E" unicode="&#x277e;" horiz-adv-x="824" 
d="M50 350q0 77 27.5 143.5t75.5 115t114.5 76t144.5 27.5t144.5 -27.5t114.5 -76t75.5 -115t27.5 -143.5t-27.5 -143.5t-75.5 -115t-114.5 -76t-144.5 -27.5t-144.5 27.5t-114.5 76t-75.5 115t-27.5 143.5zM363 426q0 21 14 34t37 13q22 0 36.5 -13t14.5 -34
q0 -20 -14 -33.5t-37 -13.5t-37 13t-14 34zM528 518q-18 24 -46 37.5t-66 13.5q-66 0 -108 -39.5t-42 -106.5q0 -34 10.5 -60t29 -44t43 -27t52.5 -9q21 0 34.5 5t26.5 11v-1q-4 -20 -21.5 -36t-52.5 -16q-17 0 -37.5 4t-39.5 12l-33 -88q57 -25 110 -25q46 0 80 16t55.5 45
t32 69.5t10.5 90.5q0 47 -9 84.5t-29 63.5z" />
    <glyph glyph-name="commaaccent" unicode="&#xf6c3;" horiz-adv-x="269" 
d="M50 -258l51 77q-18 10 -29.5 28t-11.5 41q0 33 23.5 56.5t56.5 23.5t56 -23.5t23 -56.5q0 -12 -4 -23.5t-11 -21.5l-89 -142z" />
    <glyph glyph-name="asuperior" unicode="&#xf6e9;" horiz-adv-x="348" 
d="M215 529l-65 -8q-32 -5 -32 -28q0 -12 9 -19.5t27 -7.5q27 0 44 16t17 39v8zM30 642q17 34 54.5 49.5t85.5 15.5q67 0 101 -30.5t34 -96.5v-181h-90v40q-11 -16 -32.5 -31t-57.5 -15q-44 0 -72.5 25.5t-28.5 68.5q0 41 26.5 65.5t68.5 28.5l81 8q15 1 15 11v2
q0 22 -47 22q-20 0 -41.5 -6t-31.5 -26z" />
    <glyph glyph-name="bsuperior" unicode="&#xf6ea;" horiz-adv-x="388" 
d="M132 820v-162q14 20 39.5 35t60.5 15q26 0 49.5 -10t41.5 -30t29 -49.5t11 -68.5t-11 -68.5t-29.5 -49.5t-42.5 -30t-50 -10q-32 0 -56.5 13t-41.5 36v-41h-91v420h91zM200 482q29 0 49 18t20 50t-20 50t-49 18t-49 -18t-20 -50t20 -50t49 -18z" />
    <glyph glyph-name="dsuperior" unicode="&#xf6eb;" horiz-adv-x="388" 
d="M188 618q-29 0 -49 -18t-20 -50t20 -50t49 -18t49 18t20 50t-20 50t-49 18zM347 820v-420h-91v41q-17 -23 -41.5 -36t-56.5 -13q-26 0 -50 10t-42 30t-29 49.5t-11 68.5t10.5 68.5t28.5 49.5t42 30t50 10q35 0 60 -15t39 -35v162h91z" />
    <glyph glyph-name="esuperior" unicode="&#xf6ec;" horiz-adv-x="357" 
d="M26 551q0 33 11 61.5t31 49.5t49 33t65 12q68 0 109 -42.5t41 -117.5v-25h-213v-1q10 -23 31 -33t42 -10q24 0 44.5 7t36.5 18l36 -76q-19 -14 -47 -24t-73 -10q-40 0 -70.5 12.5t-51 34t-31 50t-10.5 61.5zM232 587q-2 19 -16.5 31.5t-38.5 12.5q-22 0 -37.5 -10.5
t-22.5 -33.5h115z" />
    <glyph glyph-name="isuperior" unicode="&#xf6ed;" horiz-adv-x="184" 
d="M92 840q23 0 39 -15.5t16 -38.5t-16 -39t-39 -16q-24 0 -39 16t-15 39t15 38.5t39 15.5zM138 700v-300h-91v300h91z" />
    <glyph glyph-name="lsuperior" unicode="&#xf6ee;" horiz-adv-x="174" 
d="M133 820v-420h-92v420h92z" />
    <glyph glyph-name="msuperior" unicode="&#xf6ef;" horiz-adv-x="565" 
d="M313 653q12 23 37 38.5t60 15.5q48 0 80 -31.5t32 -88.5v-187h-92v161q0 58 -47 58q-30 0 -43 -20.5t-13 -52.5v-146h-91v161q0 58 -48 58q-30 0 -43 -20.5t-13 -52.5v-146h-91v300h89v-44q14 21 35.5 36t57.5 15q64 0 90 -54z" />
    <glyph glyph-name="osuperior" unicode="&#xf6f0;" horiz-adv-x="377" 
d="M26 550q0 36 12 65t34 49.5t51.5 31.5t64.5 11t65 -11t51.5 -31.5t34 -49.5t12.5 -65t-12.5 -65t-34 -49.5t-51.5 -31.5t-65 -11t-64.5 11t-51.5 31.5t-34 49.5t-12 65zM258 550q0 32 -20.5 50t-49.5 18q-28 0 -48.5 -18t-20.5 -50t20.5 -50t48.5 -18q29 0 49.5 18
t20.5 50z" />
    <glyph glyph-name="rsuperior" unicode="&#xf6f1;" horiz-adv-x="255" 
d="M129 649q11 26 31 42t52 16q9 0 15.5 -1.5t13.5 -3.5v-97q-18 5 -38 5q-35 0 -53 -18t-18 -58v-134h-91v300h88v-51z" />
    <glyph glyph-name="ssuperior" unicode="&#xf6f2;" horiz-adv-x="310" 
d="M36 609q0 48 35 73t98 25q39 0 68.5 -9.5t51.5 -26.5l-46 -70q-14 12 -37.5 18.5t-45.5 6.5q-29 0 -29 -13q0 -4 2.5 -6.5t10 -5t20.5 -5.5l36 -8q40 -8 65.5 -29t25.5 -67q0 -52 -35.5 -75.5t-100.5 -23.5q-44 0 -78.5 10.5t-54.5 30.5l47 74q16 -14 40 -24.5t57 -10.5
q11 0 21 3t10 12q0 7 -13 11.5t-54 13.5q-16 3 -32.5 9.5t-30 17.5t-22.5 28t-9 41z" />
    <glyph glyph-name="tsuperior" unicode="&#xf6f3;" horiz-adv-x="264" 
d="M230 407q-19 -5 -37.5 -7.5t-33.5 -2.5q-42 0 -66 22.5t-24 75.5v130h-52v75h52v80h91v-80h74v-75h-74v-112q0 -14 7 -19t21 -5q7 0 15.5 1t26.5 4v-87z" />
    <glyph glyph-name="apple" unicode="&#xf8ff;" horiz-adv-x="870" 
d="M326 580l-64 -95v-68h-30v68l-65 95h34l46 -64l45 64h34zM613 474q0 8 -2 18.5t-12.5 20.5t-33 16.5t-63.5 6.5q-40 0 -101 -12v-171q0 -12 -10 -18.5t-22 -10.5t-22 -9t-10 -14q0 -16 22 -16q35 0 70.5 8.5t73.5 8.5q30 0 59 -6.5t51 -18.5v197zM415 414q0 35 22 57.5
t57 22.5q36 0 58.5 -22.5t22.5 -57.5t-22.5 -58t-58.5 -23q-35 0 -57 23t-22 58zM547 414q0 23 -15 37t-38 14q-22 0 -36.5 -14t-14.5 -37t14.5 -37.5t36.5 -14.5q23 0 38 14.5t15 37.5zM372 577q0 15 -7 25.5t-17.5 17t-24 9.5t-26.5 3q-20 0 -43 -4.5t-47 -11t-46 -14.5
l-40 -15v-230q45 17 89.5 29.5t86.5 12.5q17 0 37.5 -3t37.5 -11v192zM720 373v-100h-29v100h29zM65 676q0 16 10.5 26t26.5 10q15 0 26 -10t11 -26q0 -10 -4.5 -19.5t-13.5 -14.5v-24q18 7 40 14.5t45.5 13.5t46.5 10t44 4q19 0 37.5 -5t33.5 -15t24 -26t9 -37v-25
q17 4 45 8t57 4q25 0 49.5 -3.5t44 -13t32 -25.5t12.5 -41v-48q18 5 37.5 8.5t39.5 3.5q62 0 87 -22.5t25 -56.5v-240q-31 19 -58.5 25.5t-53.5 6.5q-29 0 -57.5 -10t-60.5 -10q-48 0 -48 46v86q-23 5 -49 5q-35 0 -70.5 -9t-73.5 -9q-23 0 -35.5 12.5t-12.5 33.5v68h-14
q-21 0 -44.5 -4.5t-47.5 -11t-46 -14.5l-38 -14v-327h-39v643q-17 11 -17 33zM371 352q0 5 -9 9.5t-23 6.5v-32q9 5 20.5 7.5t11.5 8.5zM613 238q0 11 -10 16t-24 10v-47q11 8 22.5 11t11.5 10zM686 231q0 19 20 19q19 0 19 -19q0 -20 -19 -20q-20 0 -20 20zM803 365
q0 31 -23.5 41t-61.5 10q-29 0 -77 -12v-167q0 -14 -9.5 -20.5t-21.5 -11t-21.5 -9.5t-9.5 -15q0 -16 21 -16q29 0 58.5 10.5t60.5 10.5q23 0 44 -4t40 -11v194z" />
    <glyph glyph-name="commaturn" horiz-adv-x="272" 
d="M130 543q-33 0 -56.5 23t-23.5 56q0 25 15 45l90 143l67 -43l-50 -77q17 -11 27 -28.5t10 -39.5q0 -33 -23 -56t-56 -23z" />
    <glyph glyph-name="zero.slash" horiz-adv-x="776" 
d="M194 350q0 -89 47 -145l231 337q-38 18 -84 18q-42 0 -78 -14.5t-61.5 -42t-40 -66.5t-14.5 -87zM388 140q42 0 77.5 14.5t61.5 42t40.5 66.5t14.5 87t-14 86t-39 66l-233 -341q40 -21 92 -21zM388 0q-48 0 -90.5 11.5t-80.5 33.5l-39 -57l-58 39l41 60
q-50 47 -78.5 113.5t-28.5 149.5q0 78 26 142.5t71 110.5t106 71.5t131 25.5q91 0 164 -41l36 53l57 -40l-36 -53q53 -47 83 -115t30 -154q0 -78 -26 -142.5t-71 -110.5t-106 -71.5t-131 -25.5z" />
    <glyph glyph-name="zero.tlfslash" 
d="M190 350q0 -58 11 -102l194 284q-31 28 -75 28q-28 0 -52 -11.5t-41 -37t-27 -65t-10 -96.5zM320 140q28 0 52 11.5t41 36.5t27 65t10 97q0 71 -15 116l-199 -290q33 -36 84 -36zM320 0q-95 0 -163 59l-49 -71l-58 39l60 87q-29 43 -44.5 102t-15.5 134q0 87 21 152.5
t57.5 109.5t86 66t105.5 22q44 0 83 -13t71 -39l44 64l57 -40l-52 -76q32 -44 49.5 -105t17.5 -141q0 -87 -21 -152.5t-57.5 -109.5t-86 -66t-105.5 -22z" />
    <glyph glyph-name="zero.tlf" 
d="M50 350q0 87 21 152.5t57.5 109.5t86 66t105.5 22t105.5 -22t86 -66t57.5 -109.5t21 -152.5t-21 -152.5t-57.5 -109.5t-86 -66t-105.5 -22t-105.5 22t-86 66t-57.5 109.5t-21 152.5zM450 350q0 57 -10 96.5t-27 65t-41 37t-52 11.5t-52 -11.5t-41 -37t-27 -65t-10 -96.5
t10 -97t27 -65t41 -36.5t52 -11.5t52 11.5t41 36.5t27 65t10 97zM238 350q0 34 24 57.5t58 23.5t57.5 -23.5t23.5 -57.5t-23.5 -57.5t-57.5 -23.5t-58 23.5t-24 57.5z" />
    <glyph glyph-name="one.tlf" 
d="M67 0v140h219v343l-136 -131l-97 101l255 247h118v-560h165v-140h-524z" />
    <glyph glyph-name="two.tlf" 
d="M73 549q14 24 35.5 51t53 49t72.5 36.5t94 14.5q54 0 97.5 -16t74 -45.5t47 -70t16.5 -88.5q0 -62 -26 -111t-71 -94l-142 -135h240v-140h-465v112l261 250q29 29 46 55.5t17 55.5q0 38 -27 62.5t-72 24.5q-26 0 -48 -8.5t-40.5 -22t-33.5 -31t-25 -35.5z" />
    <glyph glyph-name="three.tlf" 
d="M79 585q29 49 91 82t147 33q57 0 101.5 -14t75.5 -39.5t47 -61.5t16 -79q0 -32 -8.5 -57.5t-22 -45t-31.5 -33t-36 -20.5q18 -8 36 -21t31.5 -32.5t22 -45t8.5 -57.5q0 -43 -16 -79t-47 -61.5t-75.5 -39.5t-101.5 -14q-85 0 -147 33t-91 82l95 104q24 -40 63 -59.5
t81 -19.5q47 0 73 18.5t26 52.5q0 32 -25 51t-75 19h-54v138h54q50 0 75 19.5t25 51.5q0 33 -26 51.5t-73 18.5q-42 0 -81.5 -19.5t-63.5 -59.5z" />
    <glyph glyph-name="four.tlf" 
d="M509 700v-449h87v-140h-87v-111h-140v111h-326v120l351 469h115zM369 443l-138 -192h138v192z" />
    <glyph glyph-name="five.tlf" 
d="M559 700v-140h-293v-84q3 1 16.5 2.5t23.5 1.5q57 0 103.5 -15.5t80 -45.5t51.5 -74t18 -101q0 -60 -19.5 -105.5t-53.5 -76t-80.5 -46.5t-100.5 -16q-66 0 -126 18.5t-98 43.5l59 126q42 -23 84.5 -35.5t78.5 -12.5q48 0 82 24.5t34 76.5q0 46 -33.5 73t-107.5 27
q-29 0 -68 -5t-84 -15v379h433z" />
    <glyph glyph-name="six.tlf" 
d="M75 322q0 72 15 140t49.5 121t90 85t137.5 32q42 0 82 -10.5t87 -32.5l-55 -127q-29 14 -59.5 22t-62.5 8q-30 0 -54 -10t-41 -26.5t-26.5 -38t-11.5 -43.5v-2q25 14 55 23t56 9q47 0 88.5 -16t72 -46t48.5 -73.5t18 -97.5t-18 -98.5t-49.5 -75.5t-75 -48t-93.5 -17
q-75 0 -125.5 29.5t-80.5 78.5q-25 42 -36 95.5t-11 118.5zM424 237q0 43 -28 69t-73 26t-73.5 -26.5t-28.5 -69.5q0 -45 29.5 -70.5t72.5 -25.5q45 0 73 26.5t28 70.5z" />
    <glyph glyph-name="seven.tlf" 
d="M565 700v-117l-305 -583h-158l294 560h-308v140h477z" />
    <glyph glyph-name="eight.tlf" 
d="M87 509q0 43 17.5 78.5t48 60.5t73.5 38.5t94 13.5t94 -13.5t73.5 -38.5t48 -60.5t17.5 -78.5q0 -51 -24.5 -92.5t-72.5 -66.5q48 -25 72.5 -66.5t24.5 -91.5q0 -44 -17.5 -79.5t-48 -60.5t-73.5 -38.5t-94 -13.5t-94 13.5t-73.5 38.5t-48 60.5t-17.5 79.5
q0 50 24.5 91.5t72.5 66.5q-48 25 -72.5 66.5t-24.5 92.5zM413 491q0 31 -25 50t-68 19t-68 -19t-25 -50q0 -33 26.5 -52t66.5 -19q41 0 67 19t26 52zM413 209q0 34 -26 52.5t-67 18.5q-40 0 -66.5 -18.5t-26.5 -52.5q0 -31 25 -50t68 -19t68 19t25 50z" />
    <glyph glyph-name="nine.tlf" 
d="M417 465q0 45 -29 70t-72 25q-45 0 -73 -26.5t-28 -70.5q0 -43 27.5 -69t72.5 -26t73.5 26.5t28.5 70.5zM75 459q0 54 18 98.5t50.5 76t77.5 49t98 17.5q64 0 110 -23.5t77 -65.5q31 -43 44.5 -102.5t13.5 -135.5q0 -77 -15 -145t-49 -118.5t-89 -80t-136 -29.5
q-46 0 -88.5 10.5t-87.5 31.5l50 127q32 -14 65.5 -21.5t62.5 -7.5q33 0 57 10.5t40.5 27t25.5 37.5t11 43v1q-24 -14 -50 -22.5t-60 -8.5q-47 0 -88 15.5t-72 45.5t-48.5 73t-17.5 97z" />
    <glyph glyph-name="plussuperior" horiz-adv-x="440" 
d="M269 758v-118h117v-96h-117v-118h-98v118h-117v96h117v118h98z" />
    <glyph glyph-name="minussuperior" horiz-adv-x="440" 
d="M390 640v-96h-340v96h340z" />
    <glyph glyph-name="equalsuperior" horiz-adv-x="440" 
d="M391 703v-96h-341v96h341zM391 558v-97h-341v97h341z" />
    <glyph glyph-name="csuperior" horiz-adv-x="322" 
d="M26 550q0 36 12.5 65.5t34 49.5t51 31t63.5 11q37 0 66.5 -12t49.5 -32l-50 -73q-11 12 -27.5 20t-36.5 8q-30 0 -50 -18.5t-20 -49.5q0 -30 20 -49t49 -19q21 0 37.5 8.5t27.5 19.5l50 -74q-20 -19 -49.5 -31t-66.5 -12q-34 0 -63.5 11t-51 31t-34 49.5t-12.5 65.5z" />
    <glyph glyph-name="fsuperior" horiz-adv-x="273" 
d="M168 625v-225h-92v225h-62v75h62v14q0 58 33 85.5t81 27.5q19 0 33.5 -2t30.5 -4v-84q-15 3 -26 4.5t-22 1.5q-22 0 -30 -11t-8 -30v-2h84v-75h-84z" />
    <glyph glyph-name="gsuperior" horiz-adv-x="392" 
d="M258 550q0 32 -20 50t-49 18t-49 -18t-20 -50t20 -50t49 -18t49 18t20 50zM26 552q0 38 11.5 67t30 48.5t43 29.5t51.5 10q33 0 57.5 -15t36.5 -35v43h92v-278q0 -30 -8.5 -57.5t-28.5 -48t-53 -32.5t-81 -12q-42 0 -73.5 9.5t-57.5 26.5l38 79q41 -28 87 -28
q48 0 67.5 18.5t19.5 50.5v16q-15 -21 -38.5 -33t-54.5 -12q-29 0 -54 9.5t-44 28.5t-30 48t-11 67z" />
    <glyph glyph-name="hsuperior" horiz-adv-x="372" 
d="M132 820v-164q15 22 37.5 36.5t57.5 14.5q51 0 77 -30t26 -87v-190h-93v161q0 31 -12.5 44.5t-35.5 13.5q-27 0 -42 -19t-15 -54v-146h-91v420h91z" />
    <glyph glyph-name="jsuperior" horiz-adv-x="191" 
d="M99 840q23 0 39 -15.5t16 -38.5t-16 -39t-39 -16t-38.5 16t-15.5 39t15.5 38.5t38.5 15.5zM145 700v-307q0 -62 -35 -89.5t-93 -27.5h-15q-6 0 -16 2v83h12q33 0 44.5 10t11.5 33v296h91z" />
    <glyph glyph-name="ksuperior" horiz-adv-x="361" 
d="M157 511l-25 -25v-86h-91v420h91v-223l97 103h120l-130 -129l129 -171h-116z" />
    <glyph glyph-name="psuperior" horiz-adv-x="388" 
d="M200 482q29 0 49 18t20 50t-20 50t-49 18t-49 -18t-20 -50t20 -50t49 -18zM41 280v420h91v-41q17 23 41.5 36t56.5 13q26 0 50 -10t42.5 -30t29.5 -49.5t11 -68.5t-11 -68.5t-29 -49.5t-41.5 -30t-49.5 -10q-35 0 -60.5 15t-39.5 35v-162h-91z" />
    <glyph glyph-name="qsuperior" horiz-adv-x="388" 
d="M256 280v162q-14 -20 -39 -35t-60 -15q-26 0 -50 10t-42 30t-28.5 49.5t-10.5 68.5t11 68.5t29 49.5t42 30t50 10q32 0 56.5 -13t41.5 -36v41h91v-420h-91zM119 550q0 -32 20 -50t49 -18t49 18t20 50t-20 50t-49 18t-49 -18t-20 -50z" />
    <glyph glyph-name="usuperior" horiz-adv-x="369" 
d="M325 700v-300h-88v46q-14 -22 -37.5 -37.5t-57.5 -15.5q-48 0 -74.5 30.5t-26.5 86.5v190h93v-162q0 -31 12 -44t32 -13q26 0 41 19.5t15 54.5v145h91z" />
    <glyph glyph-name="vsuperior" horiz-adv-x="351" 
d="M141 400l-136 300h100l70 -168l71 168h100l-136 -300h-69z" />
    <glyph glyph-name="wsuperior" horiz-adv-x="527" 
d="M126 400l-121 300h98l59 -161l64 161h75l64 -161l59 161h98l-121 -300h-69l-68 163l-69 -163h-69z" />
    <glyph glyph-name="xsuperior" horiz-adv-x="368" 
d="M184 482l-62 -82h-108l116 155l-109 145h108l55 -73l55 73h109l-109 -145l116 -155h-109z" />
    <glyph glyph-name="ysuperior" horiz-adv-x="346" 
d="M58 280l73 165l-126 255h105l69 -149l66 149h95l-186 -420h-96z" />
    <glyph glyph-name="zsuperior" horiz-adv-x="321" 
d="M294 700v-69l-146 -147h151v-84h-276v69l144 148h-132v83h259z" />
    <glyph glyph-name="plusinferior" horiz-adv-x="440" 
d="M269 208v-118h117v-96h-117v-118h-98v118h-117v96h117v118h98z" />
    <glyph glyph-name="minusinferior" horiz-adv-x="440" 
d="M390 90v-96h-340v96h340z" />
    <glyph glyph-name="equalinferior" horiz-adv-x="440" 
d="M391 153v-96h-341v96h341zM391 8v-97h-341v97h341z" />
    <glyph glyph-name="zero.num" horiz-adv-x="485" 
d="M242 700q42 0 79 -15t64.5 -42t43 -66t15.5 -87t-15.5 -87t-43 -66t-64.5 -42t-79 -15t-79 15t-64 42t-42.5 66t-15.5 87t15.5 87t42.5 66t64 42t79 15zM348 490q0 55 -29.5 84t-76.5 29q-46 0 -75.5 -29t-29.5 -84t29.5 -84t75.5 -29q47 0 76.5 29t29.5 84z" />
    <glyph glyph-name="one.num" horiz-adv-x="319" 
d="M253 700v-420h-96v268l-72 -69l-67 70l155 151h80z" />
    <glyph glyph-name="two.num" horiz-adv-x="367" 
d="M40 280v76l155 146q14 13 24 26.5t10 30.5q0 20 -13.5 32t-36.5 12q-29 0 -48.5 -16.5t-30.5 -33.5l-71 58q7 12 19 27.5t30.5 29t44 23t59.5 9.5q66 0 105 -37t39 -98q0 -39 -15 -67.5t-38 -50.5l-76 -70h129v-97h-286z" />
    <glyph glyph-name="three.num" horiz-adv-x="363" 
d="M167 700q75 0 112.5 -32.5t37.5 -83.5q0 -42 -20.5 -64.5t-43.5 -29.5q23 -7 43.5 -29.5t20.5 -64.5q0 -51 -37.5 -83.5t-112.5 -32.5q-51 0 -87.5 17.5t-55.5 40.5l62 73q17 -20 39 -27t42 -7q54 0 54 33q0 14 -13.5 23.5t-39.5 9.5h-34v94h34q53 2 53 33q0 33 -54 33
q-20 0 -42 -7t-39 -27l-62 74q19 23 55.5 40t87.5 17z" />
    <glyph glyph-name="four.num" horiz-adv-x="426" 
d="M338 700v-265h53v-96h-53v-59h-97v59h-213v82l230 279h80zM241 530l-76 -95h76v95z" />
    <glyph glyph-name="five.num" horiz-adv-x="366" 
d="M323 700v-97h-173v-32q1 0 6.5 0.5t8.5 0.5q71 0 114.5 -35.5t43.5 -107.5t-44 -110.5t-115 -38.5q-42 0 -79.5 12t-60.5 24l39 87q26 -13 52.5 -19.5t46.5 -6.5q26 0 45 11.5t19 37.5q0 22 -18.5 36t-64.5 14q-15 0 -38 -2t-52 -7v233h270z" />
    <glyph glyph-name="six.num" horiz-adv-x="365" 
d="M282 587q-20 8 -39 12t-36 4q-34 0 -52.5 -16t-21.5 -36v-1q13 7 30 12t31 5q28 0 52.5 -9.5t43 -27.5t29.5 -44.5t11 -59.5q0 -68 -40.5 -107t-101.5 -39q-48 0 -79 18t-50 50q-29 51 -29 130q0 45 9.5 85.5t31.5 70.5t56.5 48t84.5 18q22 0 46.5 -4.5t57.5 -18.5z
M182 377q23 0 37 12.5t14 34.5q0 20 -14 33t-37 13t-37 -12.5t-14 -34.5q0 -21 14.5 -33.5t36.5 -12.5z" />
    <glyph glyph-name="seven.num" horiz-adv-x="350" 
d="M321 700v-78l-181 -342h-108l171 323h-171v97h289z" />
    <glyph glyph-name="eight.num" horiz-adv-x="378" 
d="M189 280q-63 0 -103 30.5t-40 83.5q0 30 14.5 56t44.5 40q-29 14 -44 40.5t-15 55.5q0 53 40 83.5t103 30.5t103 -30.5t40 -83.5q0 -29 -15 -55.5t-45 -40.5q30 -14 45 -40.5t15 -55.5q0 -53 -40 -83.5t-103 -30.5zM189 539q21 0 33.5 8.5t12.5 23.5q0 14 -12 23t-34 9
t-34 -9t-12 -23q0 -15 12.5 -23.5t33.5 -8.5zM189 377q22 0 34 9t12 23q0 15 -12.5 23.5t-33.5 8.5t-33.5 -8.5t-12.5 -23.5q0 -14 12 -23t34 -9z" />
    <glyph glyph-name="nine.num" horiz-adv-x="370" 
d="M188 510q23 0 37 13t14 34t-14 33.5t-37 12.5t-37 -12.5t-14 -33.5t14 -34t37 -13zM85 393q19 -8 40 -12t38 -4q34 0 51.5 16t21.5 36v1q-13 -6 -26.5 -11.5t-34.5 -5.5q-28 0 -52.5 9.5t-43 27.5t-29 44t-10.5 59q0 34 11 61t31 46t47.5 29.5t60.5 10.5q38 0 66 -13.5
t46 -37.5q38 -53 38 -149q0 -49 -10.5 -89.5t-32 -69.5t-55.5 -45t-80 -16q-52 0 -110 24z" />
    <glyph glyph-name="plus.num" horiz-adv-x="440" 
d="M269 638v-118h117v-96h-117v-118h-98v118h-117v96h117v118h98z" />
    <glyph glyph-name="minus.num" horiz-adv-x="440" 
d="M390 520v-96h-340v96h340z" />
    <glyph glyph-name="equal.num" horiz-adv-x="440" 
d="M391 583v-96h-341v96h341zM391 438v-97h-341v97h341z" />
    <glyph glyph-name="parenleft.num" horiz-adv-x="242" 
d="M225 703q-41 -49 -66.5 -103t-25.5 -125q0 -72 25 -132.5t66 -110.5l-65 -55q-27 28 -48.5 63.5t-36 74.5t-22 80t-7.5 80q0 84 29.5 156t85.5 129z" />
    <glyph glyph-name="parenright.num" horiz-adv-x="242" 
d="M82 760q56 -57 85.5 -129t29.5 -156q0 -39 -7.5 -80t-22 -80t-36 -74.5t-48.5 -63.5l-65 55q41 50 66 110.5t25 132.5q0 71 -25.5 125t-65.5 103z" />
    <glyph glyph-name="zero.den" horiz-adv-x="485" 
d="M41 210q0 48 15.5 87t42.5 66t64 42t79 15t79 -15t64.5 -42t43 -66t15.5 -87t-15.5 -87t-43 -66t-64.5 -42t-79 -15t-79 15t-64 42t-42.5 66t-15.5 87zM348 210q0 55 -29.5 84t-76.5 29q-46 0 -75.5 -29t-29.5 -84t29.5 -84t75.5 -29q47 0 76.5 29t29.5 84z" />
    <glyph glyph-name="one.den" horiz-adv-x="319" 
d="M253 420v-420h-96v268l-72 -69l-67 70l155 151h80z" />
    <glyph glyph-name="two.den" horiz-adv-x="367" 
d="M29 331q7 12 19 27.5t30.5 29t44 23t59.5 9.5q66 0 105 -37t39 -98q0 -39 -15 -67.5t-38 -50.5l-76 -70h129v-97h-286v76l155 146q14 13 24 26.5t10 30.5q0 20 -13.5 32t-36.5 12q-29 0 -48.5 -16.5t-30.5 -33.5z" />
    <glyph glyph-name="three.den" horiz-adv-x="363" 
d="M24 363q19 23 55.5 40t87.5 17q75 0 112.5 -32.5t37.5 -83.5q0 -42 -20.5 -64.5t-43.5 -29.5q23 -7 43.5 -29.5t20.5 -64.5q0 -51 -37.5 -83.5t-112.5 -32.5q-51 0 -87.5 17.5t-55.5 40.5l62 73q17 -20 39 -27t42 -7q54 0 54 33q0 14 -13.5 23.5t-39.5 9.5h-34v94h34
q53 2 53 33q0 33 -54 33q-20 0 -42 -7t-39 -27z" />
    <glyph glyph-name="four.den" horiz-adv-x="426" 
d="M338 420v-265h53v-96h-53v-59h-97v59h-213v82l230 279h80zM241 250l-76 -95h76v95z" />
    <glyph glyph-name="five.den" horiz-adv-x="366" 
d="M323 420v-97h-173v-32q1 0 6.5 0.5t8.5 0.5q71 0 114.5 -35.5t43.5 -107.5t-44 -110.5t-115 -38.5q-42 0 -79.5 12t-60.5 24l39 87q26 -13 52.5 -19.5t46.5 -6.5q26 0 45 11.5t19 37.5q0 22 -18.5 36t-64.5 14q-15 0 -38 -2t-52 -7v233h270z" />
    <glyph glyph-name="six.den" horiz-adv-x="365" 
d="M188 0q-48 0 -79 18t-50 50q-29 51 -29 130q0 45 9.5 85.5t31.5 70.5t56.5 48t84.5 18q22 0 46.5 -4.5t57.5 -18.5l-34 -90q-20 8 -39 12t-36 4q-34 0 -52.5 -16t-21.5 -36v-1q13 7 30 12t31 5q28 0 52.5 -9.5t43 -27.5t29.5 -44.5t11 -59.5q0 -68 -40.5 -107t-101.5 -39
zM233 144q0 20 -14 33t-37 13t-37 -12.5t-14 -34.5q0 -21 14.5 -33.5t36.5 -12.5q23 0 37 12.5t14 34.5z" />
    <glyph glyph-name="seven.den" horiz-adv-x="350" 
d="M321 420v-78l-181 -342h-108l171 323h-171v97h289z" />
    <glyph glyph-name="eight.den" horiz-adv-x="378" 
d="M46 306q0 53 40 83.5t103 30.5t103 -30.5t40 -83.5q0 -29 -15 -55.5t-45 -40.5q30 -14 45 -40.5t15 -55.5q0 -53 -40 -83.5t-103 -30.5t-103 30.5t-40 83.5q0 30 14.5 56t44.5 40q-29 14 -44 40.5t-15 55.5zM235 291q0 14 -12 23t-34 9t-34 -9t-12 -23q0 -15 12.5 -23.5
t33.5 -8.5t33.5 8.5t12.5 23.5zM235 129q0 15 -12.5 23.5t-33.5 8.5t-33.5 -8.5t-12.5 -23.5q0 -14 12 -23t34 -9t34 9t12 23z" />
    <glyph glyph-name="nine.den" horiz-adv-x="370" 
d="M239 277q0 21 -14 33.5t-37 12.5t-37 -12.5t-14 -33.5t14 -34t37 -13t37 13t14 34zM40 273q0 34 11 61t31 46t47.5 29.5t60.5 10.5q38 0 66 -13.5t46 -37.5q38 -53 38 -149q0 -49 -10.5 -89.5t-32 -69.5t-55.5 -45t-80 -16q-52 0 -110 24l33 89q19 -8 40 -12t38 -4
q34 0 51.5 16t21.5 36v1q-13 -6 -26.5 -11.5t-34.5 -5.5q-28 0 -52.5 9.5t-43 27.5t-29 44t-10.5 59z" />
    <glyph glyph-name="plus.den" horiz-adv-x="440" 
d="M269 358v-118h117v-96h-117v-118h-98v118h-117v96h117v118h98z" />
    <glyph glyph-name="minus.den" horiz-adv-x="440" 
d="M390 240v-96h-340v96h340z" />
    <glyph glyph-name="equal.den" horiz-adv-x="440" 
d="M391 303v-96h-341v96h341zM391 158v-97h-341v97h341z" />
    <glyph glyph-name="parenleft.den" horiz-adv-x="242" 
d="M45 195q0 84 29.5 156t85.5 129l65 -57q-41 -49 -66.5 -103t-25.5 -125q0 -72 25 -132.5t66 -110.5l-65 -56q-27 29 -48.5 64.5t-36 74.5t-22 80t-7.5 80z" />
    <glyph glyph-name="parenright.den" horiz-adv-x="242" 
d="M197 195q0 -39 -7.5 -80t-22 -80t-36 -74.5t-48.5 -64.5l-65 56q41 50 66 110.5t25 132.5q0 71 -25.5 125t-65.5 103l64 57q56 -57 85.5 -129t29.5 -156z" />
    <glyph glyph-name="colon.case" horiz-adv-x="325" 
d="M162 556q41 0 68.5 -27t27.5 -68t-27.5 -68t-68.5 -27t-67.5 27t-26.5 68t26.5 68t67.5 27zM162 234q41 0 68.5 -27t27.5 -68t-27.5 -68t-68.5 -27t-67.5 27t-26.5 68t26.5 68t67.5 27z" />
    <glyph glyph-name="at.case" horiz-adv-x="965" 
d="M895 401q0 -59 -14 -107t-39.5 -82t-62 -52.5t-80.5 -18.5q-45 0 -72 19.5t-39 57.5q-20 -32 -54 -54.5t-83 -22.5q-32 0 -58.5 10.5t-45 28.5t-28.5 42.5t-10 51.5q0 28 10.5 50t28 38t40.5 25t49 12l116 12q0 32 -16 46.5t-51 14.5q-29 0 -54 -12.5t-37 -41.5l-83 52
q20 47 64 74t113 27q45 0 77.5 -12t54 -34t31.5 -51.5t10 -65.5v-120q0 -45 36 -45t56 40.5t20 109.5q0 51 -17.5 97t-52.5 81t-88 55.5t-124 20.5q-73 0 -129 -23t-94.5 -63t-58 -94t-19.5 -115q0 -64 20.5 -118.5t59.5 -94t95 -62t127 -22.5q54 0 104 9t88 21l14 -112
q-42 -14 -93 -23t-113 -9q-98 0 -176.5 32t-133 87.5t-84 130.5t-29.5 161q0 84 29 159t84 130.5t133 88t177 32.5q93 0 167 -27.5t126.5 -75.5t80.5 -114t28 -144zM467 238q34 0 60.5 20.5t26.5 56.5v13l-95 -13q-17 -2 -28.5 -12.5t-11.5 -27.5q0 -15 11 -26t37 -11z" />
    <glyph glyph-name="bar.case" horiz-adv-x="322" 
d="M222 801v-895h-122v895h122z" />
    <glyph glyph-name="brokenbar.case" horiz-adv-x="322" 
d="M222 801v-388h-122v388h122zM222 324v-418h-122v418h122z" />
    <glyph glyph-name="plus.case" 
d="M390 607v-200h200v-140h-200v-199h-140v199h-200v140h200v200h140z" />
    <glyph glyph-name="minus.case" 
d="M587 407v-140h-534v140h534z" />
    <glyph glyph-name="multiply.case" 
d="M480 596l99 -98l-161 -161l161 -160l-99 -99l-160 161l-161 -161l-98 99l161 160l-161 161l98 98l161 -161z" />
    <glyph glyph-name="divide.case" 
d="M316 641q41 0 68 -26.5t27 -68.5q0 -41 -27 -67.5t-68 -26.5t-67.5 26.5t-26.5 67.5t26.5 68t67.5 27zM604 407v-140h-568v140h568zM316 227q41 0 68 -27t27 -68t-27 -67.5t-68 -26.5t-67.5 26.5t-26.5 67.5t26.5 68t67.5 27z" />
    <glyph glyph-name="equal.case" 
d="M592 505v-140h-544v140h544zM592 271v-140h-544v140h544z" />
    <glyph glyph-name="notequal.case" 
d="M274 131l-71 -126l-101 54l40 72h-94v140h173l52 94h-225v140h304l67 120l105 -54l-37 -66h105v-140h-185l-53 -94h238v-140h-318z" />
    <glyph glyph-name="approxequal.case" 
d="M34 458q40 35 82.5 60.5t96.5 25.5q34 0 64 -11.5t56.5 -25t50.5 -24.5t46 -11q43 0 102 53l73 -106q-39 -36 -82 -62.5t-96 -26.5q-35 0 -63 11.5t-53 25t-49.5 25t-52.5 11.5q-43 0 -102 -53zM34 217q40 36 82.5 61.5t96.5 25.5q34 0 64 -11.5t56.5 -25t50.5 -24.5
t46 -11q44 0 102 52l73 -106q-39 -36 -81.5 -62t-96.5 -26q-35 0 -63 11t-53 24.5t-49.5 25t-52.5 11.5q-43 0 -102 -53z" />
    <glyph glyph-name="logicalnot.case" 
d="M583 482v-319h-140v179h-387v140h527z" />
    <glyph glyph-name="parenleft.case" horiz-adv-x="349" 
d="M53 345q0 140 49.5 260.5t141.5 214.5l92 -81q-36 -42 -64.5 -85.5t-48.5 -91.5t-30.5 -101.5t-10.5 -115.5q0 -123 41 -224t113 -186l-93 -81q-45 47 -80.5 105t-60 121.5t-37 131t-12.5 133.5z" />
    <glyph glyph-name="parenright.case" horiz-adv-x="349" 
d="M105 819q92 -94 141.5 -214.5t49.5 -260.5q0 -66 -12.5 -133.5t-37 -131t-60 -121.5t-80.5 -105l-93 81q72 85 113 186t41 224q0 62 -10.5 115.5t-30.5 101.5t-48.5 91.5t-64.5 85.5z" />
    <glyph glyph-name="hyphen.case" horiz-adv-x="626" 
d="M546 420v-140h-466v140h466z" />
    <glyph glyph-name="bracketleft.case" horiz-adv-x="346" 
d="M332 791v-115h-119v-665h119v-115h-241v895h241z" />
    <glyph glyph-name="bracketright.case" horiz-adv-x="346" 
d="M255 791v-895h-241v115h119v665h-119v115h241z" />
    <glyph glyph-name="braceleft.case" horiz-adv-x="382" 
d="M372 801v-116h-46q-26 0 -42 -13.5t-16 -40.5v-160q0 -37 -16 -69.5t-64 -45.5q24 -6 39.5 -17.5t24.5 -26.5t12.5 -32t3.5 -35v-169q0 -27 16 -40.5t42 -13.5h46v-116h-47q-40 0 -72.5 8t-56 27t-36.5 49.5t-13 74.5v159q0 34 -24.5 50.5t-81.5 17.5v121q57 2 81.5 22
t24.5 54v154q0 44 13 74t36.5 49t56 27t72.5 8h47z" />
    <glyph glyph-name="braceright.case" horiz-adv-x="382" 
d="M57 801q40 0 72.5 -8t56 -27t36.5 -49t13 -74v-154q0 -34 24.5 -54t81.5 -22v-121q-57 -1 -81.5 -17.5t-24.5 -50.5v-159q0 -44 -13 -74.5t-36.5 -49.5t-56 -27t-72.5 -8h-47v116h46q26 0 42 13.5t16 40.5v169q0 18 3.5 35t12.5 32t24.5 26.5t39.5 17.5q-48 13 -64 45.5
t-16 69.5v160q0 27 -16 40.5t-42 13.5h-46v116h47z" />
    <glyph glyph-name="guillemotleft.case" horiz-adv-x="692" 
d="M40 310l224 238l88 -80l-150 -158l150 -158l-88 -79zM300 310l225 238l87 -80l-150 -158l150 -158l-87 -79z" />
    <glyph glyph-name="guillemotright.case" horiz-adv-x="692" 
d="M428 73l-88 79l151 158l-151 158l88 80l224 -238zM168 73l-88 79l151 158l-151 158l88 80l224 -238z" />
    <glyph glyph-name="endash.case" horiz-adv-x="903" 
d="M833 420v-140h-763v140h763z" />
    <glyph glyph-name="emdash.case" horiz-adv-x="1314" 
d="M1244 420v-140h-1174v140h1174z" />
    <glyph glyph-name="guilsinglleft.case" horiz-adv-x="448" 
d="M264 548l88 -80l-150 -158l150 -158l-88 -79l-224 237z" />
    <glyph glyph-name="guilsinglright.case" horiz-adv-x="448" 
d="M408 310l-224 -237l-88 79l150 158l-150 158l88 80z" />
    <glyph glyph-name="less.case" 
d="M516 611l57 -136l-333 -132l333 -133l-57 -136l-450 190v157z" />
    <glyph glyph-name="greater.case" 
d="M573 421v-157l-450 -190l-57 136l333 133l-333 132l57 136z" />
    <glyph glyph-name="exclamdown.case" horiz-adv-x="362" 
d="M277 605q0 -41 -27.5 -68t-68.5 -27t-67.5 27t-26.5 68t26.5 68t67.5 27t68.5 -27t27.5 -68zM111 0v458h140v-458h-140z" />
    <glyph glyph-name="questiondown.case" horiz-adv-x="535" 
d="M288 510q-41 0 -68.5 27t-27.5 68t27.5 68t68.5 27t67.5 -27t26.5 -68t-26.5 -68t-67.5 -27zM496 226q0 -109 -58.5 -167.5t-160.5 -58.5q-49 0 -87.5 14.5t-65.5 41t-41 62.5t-14 78q0 30 6.5 52.5t17.5 41t25 33.5t30 29l28 23q13 11 23.5 23t16.5 26t6 33v12h140v-39
q0 -27 -9 -49.5t-23 -40.5t-32 -33l-33 -28q-22 -17 -39 -34.5t-17 -40.5q0 -26 16.5 -45t54.5 -19t59 22t21 64h136z" />
    <glyph glyph-name="arrowup.case" horiz-adv-x="787" 
d="M394 728l325 -359l-98 -94l-160 175v-440h-134v440l-161 -175l-97 94z" />
    <glyph glyph-name="arrowright.case" horiz-adv-x="863" 
d="M435 685l359 -324l-359 -325l-94 97l175 161h-447v134h447l-175 160z" />
    <glyph glyph-name="arrowdown.case" horiz-adv-x="787" 
d="M461 699v-440l160 175l98 -94l-325 -359l-325 359l97 94l161 -175v440h134z" />
    <glyph glyph-name="arrowleft.case" horiz-adv-x="863" 
d="M428 685l94 -97l-175 -160h447v-134h-447l175 -161l-94 -97l-359 325z" />
    <glyph glyph-name="uni2196.case" horiz-adv-x="698" 
d="M554 603l-3 -136l-238 11l317 -317l-95 -95l-317 317l11 -238l-136 -3l-25 486z" />
    <glyph glyph-name="uni2197.case" horiz-adv-x="699" 
d="M630 639l-25 -485l-135 2l10 239l-317 -318l-95 95l317 318l-238 -11l-2 136z" />
    <glyph glyph-name="uni2198.case" horiz-adv-x="698" 
d="M145 126l2 135l238 -10l-317 317l95 95l317 -317l-10 238l135 2l25 -485z" />
    <glyph glyph-name="uni2199.case" horiz-adv-x="698" 
d="M69 100l25 485l135 -2l-10 -238l317 317l95 -95l-317 -317l238 10l2 -136z" />
    <glyph glyph-name="Ccedilla.001" horiz-adv-x="668" 
d="M385 -213q-21 0 -42 5t-41 12v103q23 -7 38.5 -10.5t27.5 -3.5q11 0 17 4.5t6 17.5q0 14 -9.5 35t-33.5 53q-66 8 -122 37.5t-96.5 75.5t-63 106t-22.5 129q0 75 26.5 138.5t74 110.5t111.5 73.5t139 26.5q73 0 137 -24t115 -71l-67 -128q-39 40 -84 61.5t-102 21.5
q-46 0 -84.5 -15.5t-66.5 -43t-43.5 -66.5t-15.5 -85q0 -47 15.5 -85.5t43.5 -66t66 -43t83 -15.5q115 0 197 89l69 -130q-84 -78 -205 -95q26 -32 37 -59t11 -52q0 -48 -31.5 -77t-84.5 -29z" />
    <glyph glyph-name="Gcommaaccent.001" horiz-adv-x="764" 
d="M44 349q0 76 25.5 140t72.5 111t112.5 73.5t145.5 26.5q72 0 138.5 -24t118.5 -75l-68 -130q-40 46 -89.5 67.5t-106.5 21.5q-46 0 -84.5 -15.5t-66 -43t-43 -66.5t-15.5 -85q0 -47 15.5 -86t43.5 -66.5t67 -43t87 -15.5q28 0 56.5 7.5t52 22.5t41 38t23.5 53h-196v140
h357v-46q0 -86 -26 -152t-71 -111t-105.5 -68t-128.5 -23q-79 0 -144.5 26t-112.5 72.5t-73 110.5t-26 140zM297 -258l51 77q-18 10 -29.5 28t-11.5 41q0 33 23.5 56.5t56.5 23.5t56 -23.5t23 -56.5q0 -12 -4 -23.5t-11 -21.5l-89 -142z" />
    <glyph glyph-name="Rcommaaccent.001" horiz-adv-x="646" 
d="M465 467q0 38 -24.5 65.5t-68.5 27.5h-158v-186h158q44 0 68.5 27.5t24.5 65.5zM74 0v700h298q50 0 93 -18t74 -49.5t48.5 -74t17.5 -91.5q0 -38 -11 -72.5t-30.5 -63t-47 -49.5t-60.5 -33l166 -249h-171l-150 234h-87v-234h-140zM242 -258l51 77q-18 10 -29.5 28
t-11.5 41q0 33 23.5 56.5t56.5 23.5t56 -23.5t23 -56.5q0 -12 -4 -23.5t-11 -21.5l-89 -142z" />
    <glyph glyph-name="zero.001" horiz-adv-x="776" 
d="M54 350q0 78 26 142.5t71 110.5t106 71.5t131 25.5t131 -25.5t106 -71.5t71 -110.5t26 -142.5t-26 -142.5t-71 -110.5t-106 -71.5t-131 -25.5t-131 25.5t-106 71.5t-71 110.5t-26 142.5zM582 350q0 48 -14.5 87t-40.5 66.5t-61.5 42t-77.5 14.5t-78 -14.5t-61.5 -42
t-40 -66.5t-14.5 -87t14.5 -87t40 -66.5t61.5 -42t78 -14.5t77.5 14.5t61.5 42t40.5 66.5t14.5 87z" />
    <glyph glyph-name="tilde.case" horiz-adv-x="489" 
d="M310 731q-20 0 -38 7t-34 15l-30 15q-14 7 -27 7q-17 0 -33.5 -13.5t-32.5 -28.5l-65 68l26 27q14 14 30.5 25t34.5 18.5t38 7.5t38 -7t34 -15l30 -15q14 -7 27 -7q17 0 33.5 13.5t32.5 28.5l65 -68l-26 -27q-14 -14 -30.5 -25t-34.5 -18.5t-38 -7.5z" />
    <glyph glyph-name="Gbreve.001" horiz-adv-x="764" 
d="M547 894q0 -35 -11 -65t-31 -51.5t-49 -33.5t-66 -12q-36 0 -65 12t-49.5 33.5t-31 51.5t-10.5 65h102q0 -28 14 -45t40 -17q27 0 41 17t14 45h102zM44 349q0 76 25.5 140t72.5 111t112.5 73.5t145.5 26.5q72 0 138.5 -24t118.5 -75l-68 -130q-40 46 -89.5 67.5
t-106.5 21.5q-46 0 -84.5 -15.5t-66 -43t-43 -66.5t-15.5 -85q0 -47 15.5 -86t43.5 -66.5t67 -43t87 -15.5q28 0 56.5 7.5t52 22.5t41 38t23.5 53h-196v140h357v-46q0 -86 -26 -152t-71 -111t-105.5 -68t-128.5 -23q-79 0 -144.5 26t-112.5 72.5t-73 110.5t-26 140z" />
    <glyph glyph-name="Gcircumflex.001" horiz-adv-x="764" 
d="M385 943l185 -157l-69 -73l-116 100l-117 -100l-68 73zM44 349q0 76 25.5 140t72.5 111t112.5 73.5t145.5 26.5q72 0 138.5 -24t118.5 -75l-68 -130q-40 46 -89.5 67.5t-106.5 21.5q-46 0 -84.5 -15.5t-66 -43t-43 -66.5t-15.5 -85q0 -47 15.5 -86t43.5 -66.5t67 -43
t87 -15.5q28 0 56.5 7.5t52 22.5t41 38t23.5 53h-196v140h357v-46q0 -86 -26 -152t-71 -111t-105.5 -68t-128.5 -23q-79 0 -144.5 26t-112.5 72.5t-73 110.5t-26 140z" />
    <glyph glyph-name="acute.case" horiz-adv-x="396" 
d="M275 938l58 -92l-225 -136l-58 92z" />
    <glyph glyph-name="dotaccent.case" horiz-adv-x="269" 
d="M50 806q0 36 24 60.5t60 24.5t60.5 -24.5t24.5 -60.5t-24.5 -60t-60.5 -24t-60 24t-24 60z" />
    <glyph glyph-name="G.001" horiz-adv-x="764" 
d="M44 349q0 76 25.5 140t72.5 111t112.5 73.5t145.5 26.5q72 0 138.5 -24t118.5 -75l-68 -130q-40 46 -89.5 67.5t-106.5 21.5q-46 0 -84.5 -15.5t-66 -43t-43 -66.5t-15.5 -85q0 -47 15.5 -86t43.5 -66.5t67 -43t87 -15.5q28 0 56.5 7.5t52 22.5t41 38t23.5 53h-196v140
h357v-46q0 -86 -26 -152t-71 -111t-105.5 -68t-128.5 -23q-79 0 -144.5 26t-112.5 72.5t-73 110.5t-26 140z" />
    <glyph glyph-name="circumflex.case" horiz-adv-x="482" 
d="M235 943l185 -157l-69 -73l-116 100l-117 -100l-68 73z" />
    <glyph glyph-name="zero.tlf.001" 
d="M50 350q0 87 21 152.5t57.5 109.5t86 66t105.5 22t105.5 -22t86 -66t57.5 -109.5t21 -152.5t-21 -152.5t-57.5 -109.5t-86 -66t-105.5 -22t-105.5 22t-86 66t-57.5 109.5t-21 152.5zM450 350q0 57 -10 96.5t-27 65t-41 37t-52 11.5t-52 -11.5t-41 -37t-27 -65t-10 -96.5
t10 -97t27 -65t41 -36.5t52 -11.5t52 11.5t41 36.5t27 65t10 97z" />
    <glyph glyph-name="ring.case" horiz-adv-x="364" 
d="M50 751q0 28 10 52.5t28 42t42 27.5t52 10t52 -10t42 -27.5t28 -42t10 -52.5q0 -29 -10 -53t-28 -41.5t-42 -27.5t-52 -10t-52 10t-42 27.5t-28 41.5t-10 53zM233 751q0 23 -14.5 37t-36.5 14q-23 0 -37 -14t-14 -37q0 -22 14 -36.5t37 -14.5q22 0 36.5 14.5t14.5 36.5z
" />
    <glyph glyph-name="macron.case" horiz-adv-x="400" 
d="M350 854v-99h-300v99h300z" />
    <glyph glyph-name="Ccaron.001" horiz-adv-x="668" 
d="M500 955l69 -73l-185 -157l-185 157l68 73l117 -100zM44 351q0 75 26.5 138.5t74 110.5t111.5 73.5t139 26.5q73 0 137 -24t115 -71l-67 -128q-39 40 -84 61.5t-102 21.5q-46 0 -84.5 -15.5t-66.5 -43t-43.5 -66.5t-15.5 -85q0 -47 15.5 -85.5t43.5 -66t66 -43t83 -15.5
q115 0 197 89l69 -130q-53 -48 -119 -73.5t-145 -25.5q-75 0 -139 26.5t-111 74t-73.5 111.5t-26.5 139z" />
    <glyph glyph-name="hungarumlaut.case" horiz-adv-x="494" 
d="M177 973l88 -63l-131 -185l-84 58zM356 957l88 -63l-130 -185l-85 58z" />
    <glyph glyph-name="lessequal.case" 
d="M544 655l39 -145l-306 -78l306 -78l-39 -145l-488 145v156zM588 178v-139h-534v139h534z" />
    <glyph glyph-name="caron.case" horiz-adv-x="482" 
d="M351 955l69 -73l-185 -157l-185 157l68 73l117 -100z" />
    <glyph glyph-name="dieresis.case" horiz-adv-x="462" 
d="M50 807q0 33 22.5 55.5t55.5 22.5t55.5 -22.5t22.5 -55.5t-22.5 -55.5t-55.5 -22.5t-55.5 22.5t-22.5 55.5zM256 807q0 33 22.5 55.5t55.5 22.5t55.5 -22.5t22.5 -55.5t-22.5 -55.5t-55.5 -22.5t-55.5 22.5t-22.5 55.5z" />
    <glyph glyph-name="grave.case" horiz-adv-x="396" 
d="M109 939l224 -136l-58 -93l-225 136z" />
    <glyph glyph-name="Cacute.001" horiz-adv-x="668" 
d="M473 938l58 -92l-225 -136l-58 92zM44 351q0 75 26.5 138.5t74 110.5t111.5 73.5t139 26.5q73 0 137 -24t115 -71l-67 -128q-39 40 -84 61.5t-102 21.5q-46 0 -84.5 -15.5t-66.5 -43t-43.5 -66.5t-15.5 -85q0 -47 15.5 -85.5t43.5 -66t66 -43t83 -15.5q115 0 197 89
l69 -130q-53 -48 -119 -73.5t-145 -25.5q-75 0 -139 26.5t-111 74t-73.5 111.5t-26.5 139z" />
    <glyph glyph-name="Ccircumflex.001" horiz-adv-x="668" 
d="M384 943l185 -157l-69 -73l-116 100l-117 -100l-68 73zM44 351q0 75 26.5 138.5t74 110.5t111.5 73.5t139 26.5q73 0 137 -24t115 -71l-67 -128q-39 40 -84 61.5t-102 21.5q-46 0 -84.5 -15.5t-66.5 -43t-43.5 -66.5t-15.5 -85q0 -47 15.5 -85.5t43.5 -66t66 -43
t83 -15.5q115 0 197 89l69 -130q-53 -48 -119 -73.5t-145 -25.5q-75 0 -139 26.5t-111 74t-73.5 111.5t-26.5 139z" />
    <glyph glyph-name="plusminus.case" 
d="M389 649v-111h201v-139h-201v-110h-138v110h-201v139h201v111h138zM590 230v-139h-540v139h540z" />
    <glyph glyph-name="breve.case" horiz-adv-x="413" 
d="M363 894q0 -35 -11 -65t-31 -51.5t-49 -33.5t-66 -12q-36 0 -65 12t-49.5 33.5t-31 51.5t-10.5 65h102q0 -28 14 -45t40 -17q27 0 41 17t14 45h102z" />
    <glyph glyph-name="greaterequal.case" 
d="M584 510v-155l-488 -145l-39 144l306 79l-306 78l39 144zM586 179v-139h-534v139h534z" />
    <glyph glyph-name="R.001" horiz-adv-x="646" 
d="M465 467q0 38 -24.5 65.5t-68.5 27.5h-158v-186h158q44 0 68.5 27.5t24.5 65.5zM74 0v700h298q50 0 93 -18t74 -49.5t48.5 -74t17.5 -91.5q0 -38 -11 -72.5t-30.5 -63t-47 -49.5t-60.5 -33l166 -249h-171l-150 234h-87v-234h-140z" />
    <glyph glyph-name="C.001" horiz-adv-x="668" 
d="M44 351q0 75 26.5 138.5t74 110.5t111.5 73.5t139 26.5q73 0 137 -24t115 -71l-67 -128q-39 40 -84 61.5t-102 21.5q-46 0 -84.5 -15.5t-66.5 -43t-43.5 -66.5t-15.5 -85q0 -47 15.5 -85.5t43.5 -66t66 -43t83 -15.5q115 0 197 89l69 -130q-53 -48 -119 -73.5t-145 -25.5
q-75 0 -139 26.5t-111 74t-73.5 111.5t-26.5 139z" />
    <glyph glyph-name="Cdotaccent.001" horiz-adv-x="668" 
d="M306 806q0 36 24 60.5t60 24.5t60.5 -24.5t24.5 -60.5t-24.5 -60t-60.5 -24t-60 24t-24 60zM44 351q0 75 26.5 138.5t74 110.5t111.5 73.5t139 26.5q73 0 137 -24t115 -71l-67 -128q-39 40 -84 61.5t-102 21.5q-46 0 -84.5 -15.5t-66.5 -43t-43.5 -66.5t-15.5 -85
q0 -47 15.5 -85.5t43.5 -66t66 -43t83 -15.5q115 0 197 89l69 -130q-53 -48 -119 -73.5t-145 -25.5q-75 0 -139 26.5t-111 74t-73.5 111.5t-26.5 139z" />
    <glyph glyph-name="Racute.001" horiz-adv-x="646" 
d="M393 938l58 -92l-225 -136l-58 92zM465 467q0 38 -24.5 65.5t-68.5 27.5h-158v-186h158q44 0 68.5 27.5t24.5 65.5zM74 0v700h298q50 0 93 -18t74 -49.5t48.5 -74t17.5 -91.5q0 -38 -11 -72.5t-30.5 -63t-47 -49.5t-60.5 -33l166 -249h-171l-150 234h-87v-234h-140z" />
    <glyph glyph-name="Rcaron.001" horiz-adv-x="646" 
d="M420 955l69 -73l-185 -157l-185 157l68 73l117 -100zM465 467q0 38 -24.5 65.5t-68.5 27.5h-158v-186h158q44 0 68.5 27.5t24.5 65.5zM74 0v700h298q50 0 93 -18t74 -49.5t48.5 -74t17.5 -91.5q0 -38 -11 -72.5t-30.5 -63t-47 -49.5t-60.5 -33l166 -249h-171l-150 234
h-87v-234h-140z" />
    <glyph glyph-name="Gdotaccent.001" horiz-adv-x="764" 
d="M307 806q0 36 24 60.5t60 24.5t60.5 -24.5t24.5 -60.5t-24.5 -60t-60.5 -24t-60 24t-24 60zM44 349q0 76 25.5 140t72.5 111t112.5 73.5t145.5 26.5q72 0 138.5 -24t118.5 -75l-68 -130q-40 46 -89.5 67.5t-106.5 21.5q-46 0 -84.5 -15.5t-66 -43t-43 -66.5t-15.5 -85
q0 -47 15.5 -86t43.5 -66.5t67 -43t87 -15.5q28 0 56.5 7.5t52 22.5t41 38t23.5 53h-196v140h357v-46q0 -86 -26 -152t-71 -111t-105.5 -68t-128.5 -23q-79 0 -144.5 26t-112.5 72.5t-73 110.5t-26 140z" />
    <glyph glyph-name="cent.tlf" 
d="M567 59q-32 -29 -79.5 -48.5t-108.5 -21.5v-66h-65v69q-51 7 -93 28t-72 54t-47 77.5t-17 98.5t17 98.5t47 78t72 54.5t93 28v70h65v-66q59 -2 106 -20.5t81 -49.5l-70 -109q-23 20 -51.5 33.5t-65.5 15.5v-265q38 3 67.5 17t51.5 34zM221 251q0 -48 25.5 -80.5
t67.5 -45.5v251q-42 -13 -67.5 -45t-25.5 -80z" />
    <glyph glyph-name="dollar.tlf" 
d="M230 498q0 -24 15.5 -38.5t42.5 -25.5v123q-29 -5 -43.5 -21t-14.5 -38zM409 203q0 25 -15 39.5t-41 24.5v-124q56 11 56 60zM288 -80v82q-36 3 -69 15t-60 33.5t-47 53t-29 73.5l125 54q16 -73 80 -88v145l-6 2q-33 10 -67 25t-62 39t-45.5 59.5t-17.5 86.5q0 44 15 79
t41.5 60t62.5 40t79 19v82h65v-82q78 -8 132 -52t72 -123l-127 -51q-9 37 -28.5 57t-48.5 27v-143l9 -3q36 -12 70 -27t60 -38.5t41.5 -58t15.5 -83.5q0 -45 -14.5 -81t-41 -61.5t-62.5 -40t-78 -18.5v-82h-65z" />
    <glyph glyph-name="euro.tlf" 
d="M542 36q-36 -18 -70 -27t-70 -9q-55 0 -103.5 18t-87.5 51t-66.5 80t-40.5 106h-83l33 70h41q-1 6 -1 12v13v13q0 7 1 13h-68l34 70h43q13 58 41 105t67 80t88 51t104 18q53 0 110.5 -17.5t105.5 -58.5l-67 -129q-31 32 -70.5 48.5t-78.5 16.5q-56 0 -95.5 -30.5
t-58.5 -83.5h279l-37 -70h-257q-1 -6 -1 -12v-14v-13q0 -6 1 -12h229l-37 -70h-178q19 -54 58.5 -84.5t93.5 -30.5q20 0 50 7t62 27z" />
    <glyph glyph-name="florin.tlf" 
d="M203 -209q-28 0 -50.5 1.5t-48.5 4.5v123q28 -3 45.5 -4t37.5 -1q33 0 46 16.5t13 53.5v415h-108v100h108v23q0 48 13 83t36.5 58t56.5 34t73 11q28 0 52 -2.5t57 -6.5v-123q-34 4 -53.5 6t-39.5 2q-37 0 -51 -16.5t-14 -53.5v-15h157v-100h-157v-423q0 -48 -12.5 -83
t-35.5 -58t-55 -34t-70 -11z" />
    <glyph glyph-name="sterling.tlf" 
d="M590 92q-15 -18 -33.5 -34.5t-42.5 -29.5t-56.5 -20.5t-75.5 -7.5h-331v126q37 5 56.5 24t19.5 61v102h-80v90h80v81q0 46 14 85.5t41.5 68.5t69 45.5t96.5 16.5q38 0 70 -8.5t58.5 -23t47.5 -33t37 -38.5l-93 -99q-22 30 -50 47t-62 17q-44 0 -66.5 -24.5t-22.5 -68.5
v-66h179v-90h-179v-93q0 -32 -12 -52.5t-26 -29.5h153q53 0 85.5 20t59.5 52z" />
    <glyph glyph-name="yen.tlf" 
d="M390 129v-129h-140v129h-165v75h165v45l-9 17h-156v75h115l-198 359h162l156 -286l156 286h163l-198 -359h114v-75h-156l-9 -17v-45h165v-75h-165z" />
    <glyph glyph-name="circleinvert" horiz-adv-x="824" 
d="M50 350q0 77 27.5 143.5t75.5 115t114.5 76t144.5 27.5t144.5 -27.5t114.5 -76t75.5 -115t27.5 -143.5t-27.5 -143.5t-75.5 -115t-114.5 -76t-144.5 -27.5t-144.5 27.5t-114.5 76t-75.5 115t-27.5 143.5z" />
    <glyph glyph-name="Indianrupeesign.tlf" 
d="M247 234l255 -234h-198l-260 234v140h211q31 0 52 14t32 37h-295v90h292q-11 20 -31.5 32.5t-49.5 12.5h-211v140h552l-50 -90h-104q31 -40 42 -95h100l-50 -90h-49q-7 -41 -27 -76t-50 -60.5t-69 -40t-84 -14.5h-8z" />
    <glyph glyph-name="THB.tlf" 
d="M288 420v140h-80v-140h80zM332 560v-140h27q32 0 52 20t20 52q0 30 -18.5 49t-53.5 19h-27zM288 140v140h-80v-140h80zM332 280v-140h27q35 0 53.5 18.5t18.5 49.5q0 33 -20 52.5t-52 19.5h-27zM332 0v-80h-44v80h-220v700h220v80h44v-80h30q49 0 88 -15t66 -41t41 -62.5
t14 -78.5q0 -55 -23.5 -94t-63.5 -59q41 -20 64 -59.5t23 -93.5q0 -42 -14 -78.5t-41 -62.5t-66 -41t-88 -15h-30z" />
    <glyph glyph-name="RUB.tlf" 
d="M252 392h117q46 0 69.5 24t23.5 60t-23.5 60t-69.5 24h-117v-168zM252 120v-120h-140v120h-73v90h73v42h-74v140h74v308h257q51 0 94 -17t74 -47t48 -71t17 -89t-17 -89t-48 -71t-74 -47t-94 -17h-117v-42h223v-90h-223z" />
    <glyph glyph-name="TRY.tlf" 
d="M264 140q46 0 84.5 15.5t66.5 43.5t43.5 66.5t15.5 84.5h140q0 -75 -26.5 -139t-73.5 -111t-111 -73.5t-139 -26.5h-140v279l-98 -30v93l98 30v61l-98 -30v93l98 30v174h140v-130l188 58v-93l-188 -58v-61l188 58v-93l-188 -58v-183z" />
    </font>
</defs>
</svg>
