<?xml version="1.0" standalone="no"?>
<!DOCTYPE svg PUBLIC "-//W3C//DTD SVG 1.1//EN" "http://www.w3.org/Graphics/SVG/1.1/DTD/svg11.dtd" >
<svg xmlns="http://www.w3.org/2000/svg" xmlns:xlink="http://www.w3.org/1999/xlink" version="1.1">
<metadata>
Created by FontForge 20200314 at Wed Mar 28 23:05:43 2018
 By Unknown
Copyright (c) 2014 by Reto Moser and Tobias Rechsteiner. All rights reserved.
</metadata>
<defs>
<font id="GTHaptik-Bold" horiz-adv-x="665" >
  <font-face 
    font-family="GT Haptik Bold"
    font-weight="700"
    font-stretch="normal"
    units-per-em="1000"
    panose-1="0 0 8 0 0 0 0 0 0 0"
    ascent="800"
    descent="-200"
    x-height="520"
    cap-height="728"
    bbox="-457 -264 1328 981"
    underline-thickness="50"
    underline-position="-300"
    unicode-range="U+000D-FB04"
  />
<missing-glyph horiz-adv-x="364" 
d="M33 0v666h265v-666h-265zM66 33h199v600h-199v-600z" />
    <glyph glyph-name="uniFB01" unicode="fi" horiz-adv-x="709" 
d="M266 0h-138v405h-112v115h112v26q0 97 52 145.5t136 48.5q42 0 103 -9v-127q-53 9 -79 9q-40 0 -57 -20t-17 -62v-11h147v-115h-147v-405zM641 0h-137v520h137v-520zM508 606q-25 25 -25 63t25 63t63 25t63 -25t25 -63t-25 -63t-63 -25t-63 25z" />
    <glyph glyph-name="uniFB02" unicode="fl" horiz-adv-x="692" 
d="M266 0h-138v405h-112v115h112v26q0 97 52 145.5t136 48.5q42 0 103 -9v-127q-53 9 -79 9q-40 0 -57 -20t-17 -62v-11h147v-115h-147v-405zM634 0h-139v728h139v-728z" />
    <glyph glyph-name=".notdef" horiz-adv-x="364" 
d="M33 0v666h265v-666h-265zM66 33h199v600h-199v-600z" />
    <glyph glyph-name="glyph1" horiz-adv-x="0" 
 />
    <glyph glyph-name="uni000D" unicode="&#xd;" horiz-adv-x="624" 
 />
    <glyph glyph-name="space" unicode=" " horiz-adv-x="295" 
 />
    <glyph glyph-name="exclam" unicode="!" horiz-adv-x="351" 
d="M103 728h146v-476h-146v476zM246 169q29 -29 29 -70q0 -42 -29 -70.5t-71 -28.5t-70 28t-28 71q0 42 28 70.5t70 28.5t71 -29z" />
    <glyph glyph-name="quotedbl" unicode="&#x22;" horiz-adv-x="448" 
d="M193 435h-120v293h120v-293zM375 435h-120v293h120v-293z" />
    <glyph glyph-name="numbersign" unicode="#" horiz-adv-x="633" 
d="M240 204l-30 -204h-98l30 204h-111l15 97h111l20 138h-111l14 97h111l28 192h99l-29 -192h113l29 192h98l-29 -192h102l-14 -97h-101l-21 -138h102l-15 -97h-102l-30 -204h-98l31 204h-114zM276 439l-21 -138h113l20 138h-112z" />
    <glyph glyph-name="dollar" unicode="$" horiz-adv-x="583" 
d="M470.5 344.5q50.5 -49.5 50.5 -133.5q0 -87 -53 -143t-142 -66v-85h-68v84q-85 7 -141.5 55t-73.5 128l131 54q17 -77 84 -90v148l-15 6q-92 32 -142.5 81.5t-50.5 133.5q0 90 56.5 146.5t151.5 63.5v84h68v-85q80 -10 132.5 -57.5t69.5 -124.5l-131 -54q-15 71 -71 87
v-150l2 -1q92 -32 142.5 -81.5zM210 480.5q14 -14.5 48 -29.5v129q-30 -5 -46 -20.5t-16 -40.5q0 -24 14 -38.5zM375 209q0 22 -11 36t-38 26v-121q49 12 49 59z" />
    <glyph glyph-name="percent" unicode="%" horiz-adv-x="856" 
d="M751 698l-585 -724l-67 56l584 724zM290.5 705.5q38.5 -22.5 60.5 -61t22 -84.5q0 -47 -22 -85.5t-60.5 -61t-85.5 -22.5t-85.5 22.5t-61 61t-22.5 85.5q0 46 22.5 84.5t61 61t85.5 22.5t85.5 -22.5zM258 612.5q-21 20.5 -53 20.5t-53 -20.5t-21 -52.5q0 -33 21 -53.5
t53 -20.5t53 20.5t21 53.5q0 32 -21 52.5zM506 253.5q22 38.5 60.5 61t85.5 22.5t85.5 -22.5t61 -61t22.5 -85.5q0 -46 -22.5 -84.5t-61 -61t-85.5 -22.5t-85.5 22.5t-60.5 61t-22 84.5q0 47 22 85.5zM599 221.5q-21 -20.5 -21 -53.5q0 -32 21 -52.5t53 -20.5t53 20.5
t21 52.5q0 33 -21 53.5t-53 20.5t-53 -20.5z" />
    <glyph glyph-name="ampersand" unicode="&#x26;" horiz-adv-x="783" 
d="M189.5 15q-53.5 27 -82.5 76t-29 115q0 69 32 115.5t92 85.5l-10 10q-30 34 -46 68.5t-16 77.5q0 50 24 90.5t68.5 64.5t105.5 24q86 0 138.5 -49.5t52.5 -131.5q0 -60 -28 -103t-77 -77l106 -114q28 46 52 101l115 -67q-35 -83 -71 -135l69 -74l-101 -97l-63 68
q-91 -75 -205 -75q-73 0 -126.5 27zM367 513.5q15 20.5 15 44.5q0 28 -15 43t-39 15t-40 -15t-16 -39q0 -32 31 -64l20 -24q29 19 44 39.5zM425 164l-136 149q-36 -24 -54 -46.5t-18 -53.5q0 -40 26.5 -64.5t75.5 -24.5q60 0 106 40z" />
    <glyph glyph-name="quotesingle" unicode="'" horiz-adv-x="266" 
d="M193 435h-120v293h120v-293z" />
    <glyph glyph-name="parenleft" unicode="(" horiz-adv-x="372" 
d="M127.5 603.5q51.5 126.5 147.5 224.5l95 -84q-79 -94 -119.5 -190.5t-40.5 -219.5q0 -237 160 -427l-96 -84q-94 97 -146 233.5t-52 277.5q0 143 51.5 269.5z" />
    <glyph glyph-name="parenright" unicode=")" horiz-adv-x="372" 
d="M245.5 603.5q51.5 -126.5 51.5 -269.5q0 -141 -52.5 -277.5t-145.5 -233.5l-96 84q160 191 160 427q0 122 -40.5 219t-120.5 191l96 84q96 -98 147.5 -224.5z" />
    <glyph glyph-name="asterisk" unicode="*" horiz-adv-x="477" 
d="M292 630l113 37l33 -101l-112 -37l68 -95l-85 -64l-71 96l-70 -96l-86 64l70 95l-112 37l33 101l112 -37v119h107v-119z" />
    <glyph glyph-name="plus" unicode="+" 
d="M406 405h208v-146h-208v-207h-146v207h-208v146h208v208h146v-208z" />
    <glyph glyph-name="comma" unicode="," horiz-adv-x="377" 
d="M305 135l-192 -343l-107 57l192 345z" />
    <glyph glyph-name="hyphen" unicode="-" horiz-adv-x="625" 
d="M555 239h-484v146h484v-146z" />
    <glyph glyph-name="period" unicode="." horiz-adv-x="338" 
d="M239.5 169q28.5 -29 28.5 -70q0 -42 -28.5 -70.5t-71.5 -28.5q-41 0 -69 28t-28 71q0 42 28 70.5t69 28.5q43 0 71.5 -29z" />
    <glyph glyph-name="slash" unicode="/" horiz-adv-x="712" 
d="M695 747l-565 -826l-113 77l564 825z" />
    <glyph glyph-name="zero" unicode="0" horiz-adv-x="807" 
d="M56 364q0 106 46 189t125.5 129t176.5 46q96 0 175 -46t125.5 -129t46.5 -189t-46.5 -189t-125.5 -129t-175 -46q-97 0 -176.5 46t-125.5 129t-46 189zM605 364q0 66 -26 115.5t-71.5 76t-103.5 26.5q-59 0 -104.5 -26.5t-71.5 -76t-26 -115.5t26 -115.5t71.5 -76
t104.5 -26.5q58 0 103.5 26.5t71.5 76t26 115.5zM319 364q0 35 24.5 59.5t60.5 24.5q35 0 59.5 -24.5t24.5 -59.5t-24.5 -59.5t-59.5 -24.5q-36 0 -60.5 24.5t-24.5 59.5z" />
    <glyph glyph-name="one" unicode="1" horiz-adv-x="508" 
d="M407 0h-146v502l-138 -136l-101 105l262 257h123v-728z" />
    <glyph glyph-name="two" unicode="2" horiz-adv-x="589" 
d="M141 685.5q67 42.5 149 42.5q72 0 127 -29t86 -81.5t31 -121.5q0 -112 -87 -195l-159 -155h246v-146h-480v116l279 271q30 29 42.5 52t12.5 49q0 42 -28.5 68t-72.5 26q-43 0 -81 -27t-64 -73l-109 89q41 72 108 114.5z" />
    <glyph glyph-name="three" unicode="3" horiz-adv-x="580" 
d="M130.5 695q63.5 33 140.5 33q73 0 129.5 -25t87 -70.5t30.5 -106.5q0 -57 -28 -100t-74 -62q47 -18 74.5 -61.5t27.5 -100.5q0 -94 -67 -148t-180 -54q-78 0 -142.5 33.5t-96.5 87.5l100 108q21 -39 57.5 -61t82.5 -22q47 0 73.5 19t26.5 54t-26 54t-70 20h-56v143h56
q44 1 70 20t26 54q0 34 -27 53t-73 19q-45 0 -81.5 -22t-58.5 -60l-99 110q34 52 97.5 85z" />
    <glyph glyph-name="four" unicode="4" horiz-adv-x="699" 
d="M555 261h109v-146h-109v-115h-145v115h-379v125l405 488h119v-467zM237 261h173v210z" />
    <glyph glyph-name="five" unicode="5" horiz-adv-x="587" 
d="M146 17.5q-63 17.5 -110 48.5l62 131q39 -25 83.5 -38t83.5 -13q55 0 89 27.5t34 77.5q0 51 -37.5 77.5t-109.5 26.5q-71 0 -158 -23v396h452v-146h-306v-87q4 0 16 2t25 2q124 0 194.5 -65.5t70.5 -179.5q0 -79 -34 -136.5t-95 -87.5t-140 -30q-57 0 -120 17.5z" />
    <glyph glyph-name="six" unicode="6" horiz-adv-x="601" 
d="M183.5 28.5q-54.5 28.5 -87.5 83.5q-49 84 -49 223q0 123 36 211t104.5 135t162.5 47q93 0 176 -45l-57 -132q-62 31 -127 31q-57 0 -95.5 -34.5t-43.5 -90.5q27 15 58 24.5t57 9.5q69 0 123 -30.5t84 -86t30 -125.5q0 -73 -31 -129.5t-87 -88t-127 -31.5
q-72 0 -126.5 28.5zM380 174q30 28 30 72q0 45 -29 72t-76 27t-76.5 -27.5t-29.5 -72.5q0 -44 29.5 -71.5t76.5 -27.5q45 0 75 28z" />
    <glyph glyph-name="seven" unicode="7" horiz-adv-x="562" 
d="M359 582h-321v146h497v-122l-318 -606h-164z" />
    <glyph glyph-name="eight" unicode="8" horiz-adv-x="588" 
d="M170.5 25q-54.5 25 -84.5 70t-30 105q0 113 97 164q-45 24 -71 67t-26 97q0 60 30 105t84.5 70t123.5 25q70 0 124 -25t84 -69.5t30 -104.5q0 -54 -26 -97t-71 -68q97 -52 97 -164q0 -60 -30 -105t-84 -70t-124 -25q-69 0 -123.5 25zM361 456.5q26 19.5 26 54.5
q0 32 -25.5 51.5t-67.5 19.5q-41 0 -66.5 -19.5t-25.5 -51.5q0 -35 26 -54.5t66 -19.5q41 0 67 19.5zM361.5 165.5q25.5 19.5 25.5 51.5q0 35 -26 54.5t-67 19.5q-40 0 -66 -19.5t-26 -54.5q0 -32 25.5 -51.5t66.5 -19.5q42 0 67.5 19.5z" />
    <glyph glyph-name="nine" unicode="9" horiz-adv-x="602" 
d="M77 44l52 132q32 -14 67.5 -22t65.5 -8q58 0 96.5 34.5t43.5 91.5q-27 -16 -54 -25.5t-61 -9.5q-69 0 -122.5 30.5t-83 85.5t-29.5 124q0 74 31.5 131t89.5 88.5t133 31.5q127 0 194 -93q61 -85 61 -247q0 -189 -77 -288.5t-223 -99.5q-90 0 -184 44zM379 411
q30 28 30 73q0 43 -30.5 70.5t-75.5 27.5q-47 0 -76 -28t-29 -72q0 -45 29 -72t76 -27q46 0 76 28z" />
    <glyph glyph-name="colon" unicode=":" horiz-adv-x="338" 
d="M239.5 503.5q28.5 -28.5 28.5 -69.5q0 -42 -28.5 -70.5t-71.5 -28.5q-41 0 -69 28t-28 71q0 42 28 70t69 28q43 0 71.5 -28.5zM239.5 169q28.5 -29 28.5 -70q0 -42 -28.5 -70.5t-71.5 -28.5q-41 0 -69 28t-28 71q0 42 28 70.5t69 28.5q43 0 71.5 -29z" />
    <glyph glyph-name="semicolon" unicode=";" horiz-adv-x="420" 
d="M178.5 363.5q-28.5 28.5 -28.5 70.5t28.5 70t70.5 28t70 -28t28 -70t-28 -70.5t-70 -28.5t-70.5 28.5zM6 -151l192 345l107 -59l-192 -343z" />
    <glyph glyph-name="less" unicode="&#x3c;" 
d="M596 469l-346 -137l346 -139l-59 -141l-468 198v163l468 197z" />
    <glyph glyph-name="equal" unicode="=" 
d="M616 361h-566v145h566v-145zM616 118h-566v145h566v-145z" />
    <glyph glyph-name="greater" unicode="&#x3e;" 
d="M596 250l-468 -198l-59 141l346 139l-346 137l59 141l468 -197v-163z" />
    <glyph glyph-name="question" unicode="?" horiz-adv-x="560" 
d="M184 281q0 50 27 84t75 73q28 22 42.5 39t14.5 39q0 29 -18 47.5t-55 18.5q-40 0 -61.5 -22.5t-21.5 -66.5h-141q0 112 60.5 173.5t167.5 61.5q66 0 115 -26t75 -72.5t26 -105.5q0 -56 -21.5 -91.5t-60.5 -70.5q-9 -6 -32 -26t-34.5 -39.5t-11.5 -43.5v-13h-146v41z
M333.5 169q28.5 -29 28.5 -70q0 -42 -28.5 -70.5t-71.5 -28.5q-42 0 -70 28t-28 71q0 42 28 70.5t70 28.5q43 0 71.5 -29z" />
    <glyph glyph-name="at" unicode="@" horiz-adv-x="1003" 
d="M281 -56.5q-100 56.5 -154 153.5t-54 217q0 118 53.5 215t153.5 154t233 57q126 0 220.5 -48t146 -134t51.5 -193q0 -81 -25.5 -142.5t-72 -94.5t-106.5 -33q-47 0 -75 19.5t-40 60.5q-23 -37 -59 -58.5t-84 -21.5q-65 0 -106.5 40t-41.5 98q0 56 38.5 90t94.5 40l121 12
q0 34 -16.5 49t-53.5 15q-32 0 -57.5 -13.5t-36.5 -42.5l-87 54q22 50 68.5 77.5t116.5 27.5q90 0 134.5 -46t44.5 -124v-124q0 -47 38 -47q37 0 58 42t21 114q0 73 -33.5 132.5t-99.5 95.5t-160 36q-99 0 -170 -40.5t-107 -110.5t-36 -156q0 -89 37.5 -159.5t108.5 -110
t168 -39.5q100 0 199 31l15 -116q-102 -33 -214 -33q-132 0 -232 56.5zM549 217.5q27 21.5 27 58.5v13l-99 -13q-18 -2 -29.5 -13.5t-11.5 -28.5t12.5 -27.5t37.5 -10.5q36 0 63 21.5z" />
    <glyph glyph-name="A" unicode="A" horiz-adv-x="823" 
d="M603 115h-383l-53 -115h-160l337 728h135l337 -728h-160zM536 261l-124 267l-124 -267h248z" />
    <glyph glyph-name="B" unicode="B" horiz-adv-x="645" 
d="M77 728h310q67 0 116 -26.5t75 -73t26 -105.5q0 -56 -24 -97t-66 -62q42 -22 66 -63t24 -96q0 -59 -26 -105.5t-75 -73t-116 -26.5h-310v728zM384 437q33 0 54 20.5t21 54.5q0 31 -20.5 50.5t-54.5 19.5h-161v-145h161zM384 146q34 0 54.5 19t20.5 51q0 35 -21 55t-54 20
h-161v-145h161z" />
    <glyph glyph-name="C" unicode="C" horiz-adv-x="694" 
d="M93.5 550q47.5 83 131 130.5t186.5 47.5q76 0 143 -25.5t119 -73.5l-70 -133q-41 43 -88.5 64.5t-104.5 21.5q-63 0 -112.5 -27.5t-78 -77.5t-28.5 -113t28.5 -113t77.5 -77.5t111 -27.5q119 0 205 92l71 -135q-112 -103 -274 -103q-102 0 -185.5 48t-131 131t-47.5 186
q0 102 47.5 185z" />
    <glyph glyph-name="D" unicode="D" horiz-adv-x="733" 
d="M77 728h264q102 0 183 -47.5t127.5 -130t46.5 -186.5t-46.5 -186.5t-127.5 -130t-183 -47.5h-264v728zM341 146q61 0 109 28t75 78t27 112t-27 112t-75 78t-109 28h-118v-436h118z" />
    <glyph glyph-name="E" unicode="E" horiz-adv-x="604" 
d="M77 728h470v-146h-324v-145h324v-146h-324v-145h324v-146h-470v728z" />
    <glyph glyph-name="F" unicode="F" horiz-adv-x="581" 
d="M77 728h470v-146h-324v-145h324v-146h-324v-291h-146v728z" />
    <glyph glyph-name="G" unicode="G" horiz-adv-x="775" 
d="M81.5 550q46.5 83 130.5 130.5t194 47.5q77 0 146 -25.5t121 -77.5l-71 -135q-80 92 -204 92q-63 0 -112.5 -27.5t-77 -77.5t-27.5 -113q0 -64 27.5 -114t78 -77.5t115.5 -27.5q64 0 116 32.5t64 92.5h-203v146h371v-48q0 -115 -46 -198.5t-124.5 -126.5t-173.5 -43
q-109 0 -193 47t-131 129.5t-47 186.5t46.5 187z" />
    <glyph glyph-name="H" unicode="H" horiz-adv-x="763" 
d="M77 728h146v-291h319v291h145v-728h-145v291h-319v-291h-146v728z" />
    <glyph glyph-name="I" unicode="I" horiz-adv-x="299" 
d="M77 728h146v-728h-146v728z" />
    <glyph glyph-name="J" unicode="J" horiz-adv-x="546" 
d="M119.5 31q-52.5 31 -80 82.5t-27.5 112.5l133 59q0 -67 24.5 -103t75.5 -36q44 0 66.5 27t22.5 79v476h145v-477q0 -81 -30.5 -138t-83.5 -85t-121 -28q-72 0 -124.5 31z" />
    <glyph glyph-name="K" unicode="K" horiz-adv-x="733" 
d="M77 728h146v-307l305 307h205l-316 -318l317 -410h-185l-235 306l-91 -92v-214h-146v728z" />
    <glyph glyph-name="L" unicode="L" horiz-adv-x="562" 
d="M77 728h146v-582h330v-146h-476v728z" />
    <glyph glyph-name="M" unicode="M" horiz-adv-x="1047" 
d="M77 728h140l307 -538l306 538h140v-728h-145v423l-242 -423h-119l-241 423v-423h-146v728z" />
    <glyph glyph-name="N" unicode="N" horiz-adv-x="819" 
d="M77 728h127l393 -478v478h146v-728h-127l-393 478v-478h-146v728z" />
    <glyph glyph-name="O" unicode="O" horiz-adv-x="798" 
d="M213 47.5q-83 47.5 -130.5 130.5t-47.5 186t47.5 186t130.5 130.5t186 47.5t186.5 -47.5t130.5 -130.5t47 -186t-47 -186t-130.5 -130.5t-186.5 -47.5t-186 47.5zM512 174q50 28 78 78t28 112q0 63 -28 112.5t-78 77.5t-113 28t-112.5 -28t-77.5 -77.5t-28 -112.5
q0 -62 28 -112t77.5 -78t112.5 -28t113 28z" />
    <glyph glyph-name="P" unicode="P" horiz-adv-x="642" 
d="M77 728h285q73 0 131.5 -33.5t91.5 -91t33 -130.5t-33 -130.5t-91 -90.5t-132 -33h-139v-219h-146v728zM362 365q51 0 80.5 30t29.5 78q0 49 -29.5 79t-80.5 30h-139v-217h139z" />
    <glyph glyph-name="Q" unicode="Q" horiz-adv-x="841" 
d="M600 58q-87 -58 -201 -58q-103 0 -186 47.5t-130.5 130.5t-47.5 186t47.5 186t130.5 130.5t186 47.5t186.5 -47.5t130.5 -130.5t47 -186q0 -115 -60 -205l172 -171l-100 -104zM491 167l-158 159l100 106l161 -163q24 42 24 95q0 63 -28 112.5t-78 77.5t-113 28
t-112.5 -28t-77.5 -77.5t-28 -112.5q0 -62 28 -112t77.5 -78t112.5 -28q53 0 92 21z" />
    <glyph glyph-name="R" unicode="R" horiz-adv-x="667" 
d="M469 0l-156 243h-90v-243h-146v728h310q67 0 123 -31.5t87.5 -87.5t31.5 -123q0 -79 -42.5 -140.5t-113.5 -86.5l174 -259h-178zM223 389h164q43 0 70 27.5t27 69.5t-27 69t-70 27h-164v-193z" />
    <glyph glyph-name="S" unicode="S" horiz-adv-x="562" 
d="M122 48.5q-64 48.5 -84 135.5l132 54q20 -92 113 -92q41 0 64.5 16t23.5 47q0 23 -12.5 37t-38.5 25.5t-81 30.5q-92 32 -142.5 81.5t-50.5 133.5q0 97 64 154t170 57q96 0 160 -48.5t84 -135.5l-131 -54q-10 47 -37.5 69.5t-75.5 22.5q-42 0 -65.5 -16t-23.5 -47
q0 -23 12.5 -37t38.5 -25.5t81 -30.5q93 -32 143.5 -81.5t50.5 -133.5q0 -97 -64 -154t-170 -57q-97 0 -161 48.5z" />
    <glyph glyph-name="T" unicode="T" horiz-adv-x="682" 
d="M268 582h-263v146h672v-146h-263v-582h-146v582z" />
    <glyph glyph-name="U" unicode="U" horiz-adv-x="797" 
d="M226.5 42.5q-77.5 42.5 -122 119.5t-44.5 175v391h146v-391q0 -58 25 -101.5t69 -66.5t99 -23t99 23t69 66.5t25 101.5v391h145v-391q0 -98 -43.5 -175t-121 -119.5t-173.5 -42.5q-95 0 -172.5 42.5z" />
    <glyph glyph-name="V" unicode="V" horiz-adv-x="814" 
d="M-1 728h161l248 -523l246 523h161l-344 -728h-128z" />
    <glyph glyph-name="W" unicode="W" horiz-adv-x="1289" 
d="M10 728h156l197 -508l210 508h144l210 -508l196 508h156l-282 -728h-136l-216 519l-217 -519h-136z" />
    <glyph glyph-name="X" unicode="X" horiz-adv-x="795" 
d="M304 364l-295 364h188l200 -248l201 248h188l-294 -364l294 -364h-188l-201 248l-199 -248h-189z" />
    <glyph glyph-name="Y" unicode="Y" horiz-adv-x="738" 
d="M296 282l-297 446h176l194 -291l195 291h175l-297 -446v-282h-146v282z" />
    <glyph glyph-name="Z" unicode="Z" horiz-adv-x="668" 
d="M37 105l377 477h-377v146h594v-105l-376 -477h376v-146h-594v105z" />
    <glyph glyph-name="bracketleft" unicode="[" horiz-adv-x="351" 
d="M352 672h-124v-692h124v-119h-250v930h250v-119z" />
    <glyph glyph-name="backslash" unicode="\" horiz-adv-x="712" 
d="M696 -2l-114 -77l-564 826l113 76z" />
    <glyph glyph-name="bracketright" unicode="]" horiz-adv-x="351" 
d="M251 -139h-251v119h124v692h-124v119h251v-930z" />
    <glyph glyph-name="asciicircum" unicode="^" horiz-adv-x="496" 
d="M475 462l-119 -62l-108 201l-109 -201l-118 62l153 281h148z" />
    <glyph glyph-name="underscore" unicode="_" horiz-adv-x="540" 
d="M541 -207l-541 -1v121h541v-120z" />
    <glyph glyph-name="grave" unicode="`" horiz-adv-x="398" 
d="M346 657l-60 -96l-234 141l61 97z" />
    <glyph glyph-name="a" unicode="a" horiz-adv-x="559" 
d="M127.5 501.5q59.5 30.5 148.5 30.5q115 0 171 -52.5t56 -159.5v-321h-137v71q-25 -39 -66.5 -60.5t-93.5 -21.5q-77 0 -126.5 45.5t-49.5 117.5q0 67 45.5 111.5t121.5 51.5l142 13q27 3 27 20v9q0 25 -23.5 39t-66.5 14q-50 0 -84 -18t-46 -50l-102 73q24 57 83.5 87.5z
M237 215q-30 -4 -47 -19t-17 -38q0 -27 19.5 -42t53.5 -15q51 0 85.5 31.5t34.5 77.5v21z" />
    <glyph glyph-name="b" unicode="b" horiz-adv-x="635" 
d="M198 445q30 43 75 65t99 22q69 0 122.5 -34t83 -96t29.5 -142t-30 -142t-83.5 -96t-123.5 -34q-54 0 -98.5 21.5t-73.5 63.5v-73h-138v728h138v-283zM428 359.5q-38 38.5 -98 38.5q-61 0 -99 -38t-38 -100t38 -100t99 -38q60 0 98 38.5t38 99.5t-38 99.5z" />
    <glyph glyph-name="c" unicode="c" horiz-adv-x="522" 
d="M63.5 402q35.5 62 98.5 96t144 34q59 0 109.5 -19t87.5 -56l-78 -111q-52 52 -119 52q-61 0 -98.5 -38.5t-37.5 -99.5q0 -60 37.5 -99t98.5 -39q67 0 122 53l76 -111q-37 -37 -88.5 -56.5t-111.5 -19.5q-81 0 -143.5 34t-97.5 96t-35 142t35.5 142z" />
    <glyph glyph-name="d" unicode="d" horiz-adv-x="635" 
d="M575 0h-137v73q-30 -42 -74.5 -63.5t-99.5 -21.5q-68 0 -122.5 34t-84 96t-29.5 142t29.5 142t82.5 96t122 34q54 0 100 -22t76 -65v283h137v-728zM207.5 359.5q-37.5 -38.5 -37.5 -99.5t37.5 -99.5t98.5 -38.5q60 0 97.5 38t37.5 100t-37.5 100t-97.5 38
q-61 0 -98.5 -38.5z" />
    <glyph glyph-name="e" unicode="e" horiz-adv-x="579" 
d="M61 399q33 62 93 97.5t140 35.5q79 0 137 -34t89 -96.5t31 -145.5v-38h-383l2 -2q11 -49 50.5 -74.5t88.5 -25.5q86 0 148 54l57 -114q-83 -68 -207 -68q-85 0 -148.5 35t-97 97t-33.5 140q0 77 33 139zM367.5 389q-28.5 27 -77.5 27t-80.5 -25t-42.5 -73h234
q-5 44 -33.5 71z" />
    <glyph glyph-name="f" unicode="f" horiz-adv-x="434" 
d="M266 0h-138v405h-112v115h112v26q0 97 52 145.5t136 48.5q42 0 103 -9v-127q-53 9 -79 9q-40 0 -57 -20t-17 -62v-11h147v-115h-147v-405z" />
    <glyph glyph-name="g" unicode="g" horiz-adv-x="638" 
d="M58.5 402.5q30.5 61.5 85.5 95.5t124 34q54 0 99.5 -22.5t70.5 -62.5v73h137v-486q0 -124 -72 -190t-211 -66q-73 0 -129 20t-101 62l68 113q68 -66 158 -66q152 0 152 135v33q-27 -39 -70 -59.5t-98 -20.5q-72 0 -128 33t-86 93.5t-30 140.5q0 79 30.5 140.5zM404 360.5
q-37 38.5 -97 38.5q-61 0 -99 -39t-38 -100t38 -100t99 -39q60 0 97 38.5t37 100.5t-37 100.5z" />
    <glyph glyph-name="h" unicode="h" horiz-adv-x="608" 
d="M198 442q57 90 164 90q88 0 136 -54t48 -156v-322h-140v288q0 55 -24.5 83.5t-70.5 28.5q-56 0 -84.5 -38.5t-28.5 -112.5v-249h-138v728h138v-286z" />
    <glyph glyph-name="i" unicode="i" horiz-adv-x="274" 
d="M206 0h-137v520h137v-520zM74 606q-25 25 -25 63t25 63t63 25t63 -25t25 -63t-25 -63t-63 -25t-63 25z" />
    <glyph glyph-name="j" unicode="j" horiz-adv-x="289" 
d="M218 -16q0 -102 -55 -149.5t-162 -47.5q-24 0 -38 1v127h14q60 0 82 19t22 63v523h137v-536zM87 606q-25 25 -25 63t25 63t63 25t63 -25t25 -63t-25 -63t-63 -25t-63 25z" />
    <glyph glyph-name="k" unicode="k" horiz-adv-x="575" 
d="M198 151v-151h-138v728h138v-409l188 201h182l-225 -224l225 -296h-177l-139 204z" />
    <glyph glyph-name="l" unicode="l" horiz-adv-x="257" 
d="M199 0h-139v728h139v-728z" />
    <glyph glyph-name="m" unicode="m" horiz-adv-x="950" 
d="M587.5 507q44.5 25 104.5 25q90 0 143 -56.5t53 -159.5v-316h-138v288q0 112 -94 112q-57 0 -85.5 -39t-28.5 -112v-249h-137v288q0 56 -24 84t-71 28q-112 0 -112 -151v-249h-138v520h133v-80q52 92 163 92q56 0 97.5 -24t63.5 -72q26 46 70.5 71z" />
    <glyph glyph-name="n" unicode="n" horiz-adv-x="608" 
d="M60 520h133v-79q30 45 73.5 68t96.5 23q87 0 135 -54t48 -152v-326h-140v288q0 55 -24.5 83.5t-72.5 28.5q-54 0 -82.5 -39t-28.5 -112v-249h-138v520z" />
    <glyph glyph-name="o" unicode="o" horiz-adv-x="615" 
d="M64.5 402q36.5 62 100.5 96t143 34t143 -34t100.5 -96t36.5 -142t-36.5 -142t-100.5 -96t-143 -34t-143 34t-100.5 96t-36.5 142t36.5 142zM406.5 359.5q-39.5 38.5 -98.5 38.5t-98.5 -38.5t-39.5 -99.5t39.5 -99.5t98.5 -38.5t98.5 38.5t39.5 99.5t-39.5 99.5z" />
    <glyph glyph-name="p" unicode="p" horiz-adv-x="635" 
d="M60 520h138v-72q29 42 73.5 63t98.5 21q70 0 123.5 -34t83.5 -96t30 -142t-29.5 -142t-83 -96t-122.5 -34q-54 0 -99 22.5t-75 64.5v-283h-138v728zM428 160.5q38 38.5 38 99.5t-38 99.5t-98 38.5q-61 0 -99 -38t-38 -100t38 -100t99 -38q60 0 98 38.5z" />
    <glyph glyph-name="q" unicode="q" horiz-adv-x="638" 
d="M438 75q-30 -43 -76 -65t-100 -22q-69 0 -122 34t-82.5 96t-29.5 142t29.5 142t84 96t122.5 34q55 0 99.5 -21t74.5 -63v72h137v-728h-137v283zM207.5 160.5q37.5 -38.5 98.5 -38.5q60 0 97.5 38t37.5 100t-37.5 100t-97.5 38q-61 0 -98.5 -38.5t-37.5 -99.5t37.5 -99.5z
" />
    <glyph glyph-name="r" unicode="r" horiz-adv-x="401" 
d="M340 532q22 0 51 -7v-147q-25 8 -62 8q-68 0 -99.5 -37.5t-31.5 -113.5v-235h-138v520h132v-85q46 97 148 97z" />
    <glyph glyph-name="s" unicode="s" horiz-adv-x="497" 
d="M106 489q58 43 161 43q133 0 207 -76l-77 -100q-23 25 -61.5 39t-79.5 14q-31 0 -48.5 -9.5t-17.5 -27.5q0 -12 10 -19.5t32 -13t79 -19.5q82 -18 124 -54t42 -109q0 -84 -57.5 -126.5t-166.5 -42.5q-78 0 -138 22t-93 64l80 104q27 -31 68.5 -49.5t96.5 -18.5
q31 0 50 9.5t19 30.5q0 13 -10 21t-32 14t-74 18q-76 16 -124 52.5t-48 111.5q0 79 58 122z" />
    <glyph glyph-name="t" unicode="t" horiz-adv-x="409" 
d="M260 -5q-75 0 -114 39t-39 125v246h-95v115h95v139h137v-139h132v-115h-132v-226q0 -25 12.5 -36t39.5 -11q26 0 76 8v-130q-64 -15 -112 -15z" />
    <glyph glyph-name="u" unicode="u" horiz-adv-x="601" 
d="M539 0h-133v79q-62 -91 -166 -91q-88 0 -134 55.5t-46 153.5v323h141v-289q0 -56 21 -83.5t66 -27.5q56 0 84 41t28 110v249h139v-520z" />
    <glyph glyph-name="v" unicode="v" horiz-adv-x="565" 
d="M-3 520h154l132 -322l133 322h153l-234 -520h-104z" />
    <glyph glyph-name="w" unicode="w" horiz-adv-x="885" 
d="M-3 520h150l116 -310l124 310h111l125 -310l115 310h150l-211 -520h-104l-130 309l-131 -309h-104z" />
    <glyph glyph-name="x" unicode="x" horiz-adv-x="585" 
d="M173 0h-166l203 266l-194 254h165l111 -146l112 146h166l-195 -254l203 -266h-165l-121 157z" />
    <glyph glyph-name="y" unicode="y" horiz-adv-x="559" 
d="M217 75l-220 445h160l132 -285l129 285h146l-328 -728h-146z" />
    <glyph glyph-name="z" unicode="z" horiz-adv-x="504" 
d="M471 413l-263 -286h271v-127h-457v107l261 286h-243v127h431v-107z" />
    <glyph glyph-name="braceleft" unicode="{" horiz-adv-x="382" 
d="M383 671h-48q-27 0 -43.5 -14.5t-16.5 -41.5v-167q0 -98 -84 -119q84 -22 84 -116v-176q0 -27 16.5 -41.5t43.5 -14.5h48v-120h-49q-185 0 -185 165v165q0 36 -25.5 53t-83.5 18v126q109 3 109 79v160q0 164 185 164h49v-120z" />
    <glyph glyph-name="bar" unicode="|" horiz-adv-x="334" 
d="M231 -139h-127v930h127v-930z" />
    <glyph glyph-name="braceright" unicode="}" horiz-adv-x="382" 
d="M234 627v-160q0 -76 110 -79v-126q-58 -1 -84 -18t-26 -53v-165q0 -165 -185 -165h-49v120h48q27 0 43.5 14.5t16.5 41.5v176q0 94 83 116q-83 21 -83 119v167q0 27 -16.5 41.5t-43.5 14.5h-48v120h49q185 0 185 -164z" />
    <glyph glyph-name="asciitilde" unicode="~" horiz-adv-x="785" 
d="M270 440q39 0 72.5 -13t78.5 -38q35 -18 54 -26t37 -8q25 0 53 16.5t64 48.5l83 -94q-50 -49 -98.5 -81.5t-100.5 -32.5q-37 0 -70 13t-77 37q-33 18 -54 26.5t-40 8.5q-23 0 -51 -16.5t-65 -48.5l-83 109q111 99 197 99z" />
    <glyph glyph-name="uni00A0" unicode="&#xa0;" horiz-adv-x="295" 
 />
    <glyph glyph-name="exclamdown" unicode="&#xa1;" horiz-adv-x="351" 
d="M105 350.5q-28 28.5 -28 70.5q0 43 28 71t70 28t71 -28.5t29 -70.5q0 -41 -29 -70t-71 -29t-70 28.5zM249 268v-476h-146v476h146z" />
    <glyph glyph-name="cent" unicode="&#xa2;" horiz-adv-x="522" 
d="M330 -11v-69h-68v70q-70 8 -123 44.5t-82 94.5t-29 131t29 130.5t82 94t123 44.5v73h68v-71q105 -6 173 -74l-78 -111q-41 42 -95 50v-272q54 7 98 51l76 -111q-67 -67 -174 -75zM194.5 176.5q24.5 -35.5 67.5 -48.5v264q-43 -12 -67.5 -47.5t-24.5 -84.5
q0 -48 24.5 -83.5z" />
    <glyph glyph-name="sterling" unicode="&#xa3;" horiz-adv-x="638" 
d="M538 25q-48 -25 -130 -25h-347v131q41 5 62 26t21 62v125h-88v75h88v97q0 94 56 153t161 59q66 0 117.5 -30t88.5 -77l-97 -103q-20 31 -46.5 48.5t-54.5 17.5q-39 0 -59.5 -21.5t-20.5 -62.5v-81h179v-75h-179v-115q0 -30 -11.5 -52.5t-27.5 -32.5h158q51 0 84.5 18.5
t65.5 55.5l67 -122q-39 -46 -87 -71z" />
    <glyph glyph-name="currency" unicode="&#xa4;" horiz-adv-x="554" 
d="M25 155l73 74q-41 55 -41 129q0 73 43 132l-76 76l47 48l77 -76q58 41 129 41q72 0 129 -41l77 77l47 -48l-77 -76q44 -58 44 -133q0 -71 -39 -128l72 -74l-47 -48l-72 74q-57 -46 -134 -46q-70 0 -131 43l-73 -72zM342.5 292q27.5 27 27.5 66q0 38 -27.5 65t-65.5 27
t-65 -27t-27 -65q0 -39 27 -66t65 -27t65.5 27z" />
    <glyph glyph-name="yen" unicode="&#xa5;" horiz-adv-x="738" 
d="M471 326h143v-78h-172v-58h172v-78h-172v-112h-146v112h-171v78h171v58h-171v78h142l-268 402h176l194 -291l195 291h175z" />
    <glyph glyph-name="brokenbar" unicode="&#xa6;" horiz-adv-x="334" 
d="M231 388h-127v403h127v-403zM231 -139h-127v434h127v-434z" />
    <glyph glyph-name="section" unicode="&#xa7;" horiz-adv-x="574" 
d="M515 644l-90 -103q-20 26 -57 45t-76 19q-32 0 -50 -14t-18 -35q0 -24 23.5 -39.5t80.5 -37.5q59 -22 98 -43.5t67 -59.5t28 -95q0 -48 -21 -84.5t-57 -59.5q52 -50 52 -125q0 -54 -25.5 -96.5t-74.5 -67t-115 -24.5q-130 0 -221 97l91 102q20 -26 56 -45t76 -19
q33 0 50.5 14.5t17.5 35.5q0 25 -25 41t-80 36q-59 23 -97.5 44.5t-66.5 59t-28 94.5q0 50 22 86t58 57q-54 49 -54 126q0 54 26 97t75.5 66.5t114.5 23.5q130 0 220 -96zM216 330.5q-18 -16.5 -18 -38.5q0 -20 14.5 -33.5t32 -21.5t68.5 -28q27 8 45 25t18 38
q0 20 -14.5 33.5t-32.5 22t-67 28.5q-28 -9 -46 -25.5z" />
    <glyph glyph-name="dieresis" unicode="&#xa8;" horiz-adv-x="480" 
d="M75 727.5q23 23.5 58 23.5q34 0 57.5 -23.5t23.5 -57.5q0 -35 -23.5 -58t-57.5 -23q-35 0 -58 23t-23 58q0 34 23 57.5zM289.5 727.5q23.5 23.5 57.5 23.5t57.5 -23.5t23.5 -57.5q0 -35 -23.5 -58t-57.5 -23t-57.5 23t-23.5 58q0 34 23.5 57.5z" />
    <glyph glyph-name="copyright" unicode="&#xa9;" horiz-adv-x="856" 
d="M101 556.5q49 86.5 134.5 135t192.5 48.5q108 0 193.5 -48.5t134.5 -135t49 -192.5t-49 -192.5t-134.5 -135t-193.5 -48.5q-107 0 -192.5 48.5t-134.5 135t-49 192.5t49 192.5zM678 512q-36 65 -101 101.5t-149 36.5q-82 0 -147 -36.5t-101 -101.5t-36 -148t36 -147.5
t100.5 -101t147.5 -36.5q84 0 149 36.5t101 101t36 147.5t-36 148zM259 470q27 47 74 74t104 27q90 0 152 -68l-41 -69q-26 27 -52.5 40.5t-59.5 13.5q-51 0 -86 -34t-35 -88q0 -55 35 -89t87 -34q31 0 58 13t53 39l41 -69q-61 -66 -151 -66q-58 0 -105 27t-74 74t-27 105
q0 57 27 104z" />
    <glyph glyph-name="ordfeminine" unicode="&#xaa;" horiz-adv-x="476" 
d="M90 370.5q-38 35.5 -38 93.5q0 59 39 89.5t99 37.5l126 13q0 56 -77 56q-36 0 -64.5 -13t-41.5 -37l-76 71q56 77 183 77q184 0 184 -166v-249h-108v57q-45 -65 -126 -65q-62 0 -100 35.5zM289 456.5q27 22.5 27 56.5v8l-103 -13q-40 -7 -40 -37q0 -17 13 -27t38 -10
q38 0 65 22.5z" />
    <glyph glyph-name="guillemotleft" unicode="&#xab;" horiz-adv-x="670" 
d="M376 435l-156 -165l156 -164l-91 -82l-233 246l233 248zM646 435l-156 -165l156 -164l-91 -82l-233 246l233 248z" />
    <glyph glyph-name="logicalnot" unicode="&#xac;" 
d="M606 144h-145v186h-403v145h548v-331z" />
    <glyph glyph-name="uni00AD" unicode="&#xad;" horiz-adv-x="551" 
d="M468 239h-385v146h385v-146z" />
    <glyph glyph-name="registered" unicode="&#xae;" horiz-adv-x="856" 
d="M621.5 691.5q85.5 -48.5 134.5 -135t49 -192.5t-49 -192.5t-134.5 -135t-193.5 -48.5q-107 0 -192.5 48.5t-134.5 135t-49 192.5t49 192.5t134.5 135t192.5 48.5q108 0 193.5 -48.5zM577 115.5q65 36.5 101 101t36 147.5t-36 148t-101 101.5t-149 36.5q-82 0 -147 -36.5
t-101 -101.5t-36 -148t36 -147.5t100.5 -101t147.5 -36.5q84 0 149 36.5zM566.5 362q-22.5 -31 -63.5 -43l87 -141h-88l-78 135h-55v-135h-73v383h162q58 0 94.5 -35t36.5 -89q0 -44 -22.5 -75zM369 385h87q23 0 39.5 14t16.5 38q0 22 -16 37t-40 15h-87v-104z" />
    <glyph glyph-name="macron" unicode="&#xaf;" horiz-adv-x="416" 
d="M364 620h-312v103h312v-103z" />
    <glyph glyph-name="degree" unicode="&#xb0;" horiz-adv-x="410" 
d="M95.5 720q43.5 42 110.5 42q65 0 109 -42.5t44 -105.5q0 -64 -44 -106t-109 -42q-67 0 -110.5 42t-43.5 106t43.5 106zM252.5 660q-17.5 18 -46.5 18q-30 0 -47.5 -18t-17.5 -46t17.5 -46.5t47.5 -18.5q29 0 46.5 18.5t17.5 46.5t-17.5 46z" />
    <glyph glyph-name="plusminus" unicode="&#xb1;" 
d="M405 515h209v-145h-209v-114h-144v114h-209v145h209v115h144v-115zM614 50h-562v144h562v-144z" />
    <glyph glyph-name="acute" unicode="&#xb4;" horiz-adv-x="398" 
d="M346 702l-234 -141l-60 95l234 142z" />
    <glyph glyph-name="mu" unicode="&#xb5;" 
d="M95 520h140v-289q0 -56 21.5 -83.5t65.5 -27.5q57 0 84.5 41t27.5 110v249h138v-520h-133v79q-61 -91 -164 -91q-29 0 -47 9v-205h-133v728z" />
    <glyph glyph-name="paragraph" unicode="&#xb6;" horiz-adv-x="602" 
d="M558 -139h-121v751h-108v-751h-122v470q-53 4 -94.5 32t-64.5 73.5t-23 98.5q0 54 27.5 98t75.5 69.5t107 25.5h323v-867z" />
    <glyph glyph-name="periodcentered" unicode="&#xb7;" horiz-adv-x="405" 
d="M135.5 297q-27.5 27 -27.5 68t27.5 68t67.5 27t67 -27t27 -68t-27 -68t-67 -27t-67.5 27z" />
    <glyph glyph-name="cedilla" unicode="&#xb8;" horiz-adv-x="310" 
d="M259 -94q0 -50 -33 -80t-88 -30q-37 0 -86 19v107q22 -6 39.5 -11t29.5 -5q24 0 24 23q0 38 -56 90h108q62 -52 62 -113z" />
    <glyph glyph-name="ordmasculine" unicode="&#xba;" horiz-adv-x="538" 
d="M80 655.5q28 48.5 77.5 75.5t111.5 27q63 0 112.5 -27t77.5 -75.5t28 -109.5t-28 -109.5t-77.5 -75.5t-112.5 -27q-62 0 -111.5 27t-77.5 75.5t-28 109.5t28 109.5zM343 620.5q-29 29.5 -74 29.5q-44 0 -73.5 -29.5t-29.5 -74.5t29.5 -74.5t73.5 -29.5q45 0 74 29.5
t29 74.5t-29 74.5z" />
    <glyph glyph-name="guillemotright" unicode="&#xbb;" horiz-adv-x="671" 
d="M25 106l156 164l-156 165l90 83l234 -248l-234 -246zM295 106l156 164l-156 165l90 83l234 -248l-234 -246z" />
    <glyph glyph-name="onequarter" unicode="&#xbc;" horiz-adv-x="930" 
d="M810 698l-584 -724l-68 56l585 724zM197 570l-75 -72l-70 73l161 157h83v-437h-99v279zM879 61h-55v-61h-101v61h-222v86l239 290h84v-276h55v-100zM723 161v99l-79 -99h79z" />
    <glyph glyph-name="onehalf" unicode="&#xbd;" horiz-adv-x="948" 
d="M148 30l584 724l68 -56l-585 -724zM197 570l-75 -72l-70 73l161 157h83v-437h-99v279zM598 79l161 152q18 15 27 29t9 30q0 21 -14.5 33.5t-37.5 12.5q-27 0 -48 -15t-35 -37l-73 60q20 37 58.5 65t100.5 28q68 0 109 -38.5t41 -102.5q0 -68 -56 -122l-79 -73h135v-101
h-298v79z" />
    <glyph glyph-name="threequarters" unicode="&#xbe;" horiz-adv-x="937" 
d="M826 698l-584 -724l-67 56l583 724zM317 324.5q-41 -33.5 -116 -33.5q-50 0 -89 17.5t-60 43.5l66 75q28 -35 84 -35q55 0 55 34q0 16 -14 25.5t-41 9.5h-36v97h36q27 2 41 10.5t14 24.5q0 34 -55 34q-54 0 -84 -35l-66 77q21 26 60 42.5t89 16.5q75 0 116 -33.5
t41 -87.5q0 -39 -20 -64t-48 -33q28 -9 48 -34t20 -64q0 -54 -41 -87.5zM885 61h-55v-61h-101v61h-221v86l239 290h83v-276h55v-100zM729 161v99l-79 -99h79z" />
    <glyph glyph-name="questiondown" unicode="&#xbf;" horiz-adv-x="579" 
d="M246 351q-29 29 -29 70q0 42 29 70.5t71 28.5t70 -28t28 -71q0 -42 -28 -70.5t-70 -28.5t-71 29zM395 239q0 -50 -27 -84t-75 -73q-28 -22 -42.5 -39t-14.5 -39q0 -29 18 -47.5t55 -18.5q40 0 61.5 22.5t21.5 66.5h142q0 -112 -61 -173.5t-167 -61.5q-67 0 -116 26
t-75 72.5t-26 105.5q0 56 21.5 91.5t61.5 70.5q8 6 31.5 26t35 39.5t11.5 43.5v13h145v-41z" />
    <glyph glyph-name="Agrave" unicode="&#xc0;" horiz-adv-x="823" 
d="M486 738l-234 143l61 96l234 -142zM603 115h-383l-53 -115h-160l337 728h135l337 -728h-160zM536 261l-124 267l-124 -267h248z" />
    <glyph glyph-name="Aacute" unicode="&#xc1;" horiz-adv-x="823" 
d="M347 738l-61 96l234 142l61 -96zM603 115h-383l-53 -115h-160l337 728h135l337 -728h-160zM536 261l-124 267l-124 -267h248z" />
    <glyph glyph-name="Acircumflex" unicode="&#xc2;" horiz-adv-x="823" 
d="M291 742l-71 75l192 164l192 -164l-70 -75l-122 104zM603 115h-383l-53 -115h-160l337 728h135l337 -728h-160zM536 261l-124 267l-124 -267h248z" />
    <glyph glyph-name="Atilde" unicode="&#xc3;" horiz-adv-x="823" 
d="M315 795q-15 -11 -38 -33l-68 70q72 82 134 82q21 0 38.5 -6.5t43.5 -20.5q5 -2 22 -10.5t30 -8.5q16 0 32 11.5t37 32.5l68 -71q-33 -37 -67 -59t-67 -22q-20 0 -37.5 7t-45.5 20q-13 8 -27 13.5t-25 5.5q-15 0 -30 -11zM603 115h-383l-53 -115h-160l337 728h135
l337 -728h-160zM536 261l-124 267l-124 -267h248z" />
    <glyph glyph-name="Adieresis" unicode="&#xc4;" horiz-adv-x="823" 
d="M247 781q-23 23 -23 58t23 58t58 23q34 0 57.5 -23t23.5 -58t-23.5 -58t-57.5 -23q-35 0 -58 23zM461.5 781q-23.5 23 -23.5 58t23.5 58t57.5 23t57.5 -23t23.5 -58t-23.5 -58t-57.5 -23t-57.5 23zM603 115h-383l-53 -115h-160l337 728h135l337 -728h-160zM536 261
l-124 267l-124 -267h248z" />
    <glyph glyph-name="Aring" unicode="&#xc5;" horiz-adv-x="823" 
d="M603 115h-383l-53 -115h-160l313 677q-22 19 -33.5 46t-11.5 58q0 59 39.5 98.5t97.5 39.5t97.5 -39.5t39.5 -98.5q0 -31 -12 -58t-34 -46l313 -677h-160zM374 820q-15 -15 -15 -39q0 -23 15 -38t38 -15t38 15t15 38t-15 38.5t-38 15.5t-38 -15zM536 261l-124 267
l-124 -267h248z" />
    <glyph glyph-name="AE" unicode="&#xc6;" horiz-adv-x="1092" 
d="M488 728h547v-146h-325v-145h325v-146h-325v-145h325v-146h-470v114h-308l-75 -114h-175zM565 260v323l-211 -323h211z" />
    <glyph glyph-name="Ccedilla" unicode="&#xc7;" horiz-adv-x="694" 
d="M517 -94q0 -50 -33 -80t-88 -30q-37 0 -86 19v107q22 -6 39.5 -11t29.5 -5q23 0 23 23q0 31 -39 74q-91 11 -163 60t-113 128t-41 174q0 102 47.5 185t131 130.5t186.5 47.5q76 0 143 -25.5t119 -73.5l-70 -133q-41 43 -88.5 64.5t-104.5 21.5q-63 0 -112.5 -27.5
t-78 -77.5t-28.5 -113t28.5 -113t77.5 -77.5t111 -27.5q119 0 205 92l71 -135q-89 -82 -213 -99q46 -46 46 -98z" />
    <glyph glyph-name="Egrave" unicode="&#xc8;" horiz-adv-x="604" 
d="M150 881l61 96l234 -142l-61 -97zM77 728h470v-146h-324v-145h324v-146h-324v-145h324v-146h-470v728z" />
    <glyph glyph-name="Eacute" unicode="&#xc9;" horiz-adv-x="604" 
d="M184 834l234 142l61 -96l-234 -142zM77 728h470v-146h-324v-145h324v-146h-324v-145h324v-146h-470v728z" />
    <glyph glyph-name="Ecircumflex" unicode="&#xca;" horiz-adv-x="604" 
d="M119 817l191 164l192 -164l-70 -75l-122 104l-121 -104zM77 728h470v-146h-324v-145h324v-146h-324v-145h324v-146h-470v728z" />
    <glyph glyph-name="Edieresis" unicode="&#xcb;" horiz-adv-x="604" 
d="M145 781q-23 23 -23 58t23 58t58 23q34 0 57.5 -23t23.5 -58t-23.5 -58t-57.5 -23q-35 0 -58 23zM359.5 781q-23.5 23 -23.5 58t23.5 58t57.5 23t57.5 -23t23.5 -58t-23.5 -58t-57.5 -23t-57.5 23zM77 728h470v-146h-324v-145h324v-146h-324v-145h324v-146h-470v728z" />
    <glyph glyph-name="Igrave" unicode="&#xcc;" horiz-adv-x="299" 
d="M26 908l89 63l119 -151l-89 -64zM77 728h146v-728h-146v728z" />
    <glyph glyph-name="Iacute" unicode="&#xcd;" horiz-adv-x="299" 
d="M78 820l119 151l89 -63l-119 -152zM77 728h146v-728h-146v728z" />
    <glyph glyph-name="Icircumflex" unicode="&#xce;" horiz-adv-x="299" 
d="M-10 807l159 163l158 -163l-72 -62l-86 90l-88 -90zM77 728h146v-728h-146v728z" />
    <glyph glyph-name="Idieresis" unicode="&#xcf;" horiz-adv-x="299" 
d="M-0.5 781q-23.5 23 -23.5 58t23.5 58t57.5 23q35 0 58 -23t23 -58t-23 -58t-58 -23q-34 0 -57.5 23zM184.5 781q-23.5 23 -23.5 58t23.5 58t57.5 23q35 0 58 -23t23 -58t-23 -58t-58 -23q-34 0 -57.5 23zM77 728h146v-728h-146v728z" />
    <glyph glyph-name="Eth" unicode="&#xd0;" horiz-adv-x="730" 
d="M521 680.5q81 -47.5 127.5 -130t46.5 -186.5t-46.5 -186.5t-127.5 -130t-183 -47.5h-264v296h-77v146h77v286h264q102 0 183 -47.5zM447 174q48 28 75 78t27 112t-27 112t-75 78t-109 28h-119v-140h148v-146h-148v-150h119q61 0 109 28z" />
    <glyph glyph-name="Ntilde" unicode="&#xd1;" horiz-adv-x="819" 
d="M440.5 767q-17.5 7 -45.5 20q-13 8 -27 13.5t-25 5.5q-15 0 -30.5 -11t-37.5 -33l-68 70q72 82 134 82q21 0 38.5 -6.5t43.5 -20.5q4 -2 21.5 -10.5t30.5 -8.5q16 0 32 11.5t37 32.5l68 -71q-33 -37 -67 -59t-67 -22q-20 0 -37.5 7zM77 728h127l393 -478v478h146v-728
h-127l-393 478v-478h-146v728z" />
    <glyph glyph-name="Ograve" unicode="&#xd2;" horiz-adv-x="798" 
d="M239 881l62 96l234 -142l-62 -97zM213 47.5q-83 47.5 -130.5 130.5t-47.5 186t47.5 186t130.5 130.5t186 47.5t186.5 -47.5t130.5 -130.5t47 -186t-47 -186t-130.5 -130.5t-186.5 -47.5t-186 47.5zM512 174q50 28 78 78t28 112q0 63 -28 112.5t-78 77.5t-113 28
t-112.5 -28t-77.5 -77.5t-28 -112.5q0 -62 28 -112t77.5 -78t112.5 -28t113 28z" />
    <glyph glyph-name="Oacute" unicode="&#xd3;" horiz-adv-x="798" 
d="M274 834l234 142l61 -96l-234 -142zM213 47.5q-83 47.5 -130.5 130.5t-47.5 186t47.5 186t130.5 130.5t186 47.5t186.5 -47.5t130.5 -130.5t47 -186t-47 -186t-130.5 -130.5t-186.5 -47.5t-186 47.5zM512 174q50 28 78 78t28 112q0 63 -28 112.5t-78 77.5t-113 28
t-112.5 -28t-77.5 -77.5t-28 -112.5q0 -62 28 -112t77.5 -78t112.5 -28t113 28z" />
    <glyph glyph-name="Ocircumflex" unicode="&#xd4;" horiz-adv-x="798" 
d="M208 817l191 164l193 -164l-71 -75l-122 104l-120 -104zM213 47.5q-83 47.5 -130.5 130.5t-47.5 186t47.5 186t130.5 130.5t186 47.5t186.5 -47.5t130.5 -130.5t47 -186t-47 -186t-130.5 -130.5t-186.5 -47.5t-186 47.5zM512 174q50 28 78 78t28 112q0 63 -28 112.5
t-78 77.5t-113 28t-112.5 -28t-77.5 -77.5t-28 -112.5q0 -62 28 -112t77.5 -78t112.5 -28t113 28z" />
    <glyph glyph-name="Otilde" unicode="&#xd5;" horiz-adv-x="798" 
d="M430 767q-17 7 -45 20q-14 8 -28 13.5t-24 5.5q-16 0 -31 -11t-38 -33l-67 70q71 82 134 82q21 0 38.5 -6.5t43.5 -20.5l21 -10.5t31 -8.5q15 0 31.5 11.5t37.5 32.5l67 -71q-32 -37 -66.5 -59t-66.5 -22q-21 0 -38 7zM213 47.5q-83 47.5 -130.5 130.5t-47.5 186
t47.5 186t130.5 130.5t186 47.5t186.5 -47.5t130.5 -130.5t47 -186t-47 -186t-130.5 -130.5t-186.5 -47.5t-186 47.5zM512 174q50 28 78 78t28 112q0 63 -28 112.5t-78 77.5t-113 28t-112.5 -28t-77.5 -77.5t-28 -112.5q0 -62 28 -112t77.5 -78t112.5 -28t113 28z" />
    <glyph glyph-name="Odieresis" unicode="&#xd6;" horiz-adv-x="798" 
d="M234.5 781q-23.5 23 -23.5 58t23.5 58t57.5 23q35 0 58 -23t23 -58t-23 -58t-58 -23q-34 0 -57.5 23zM448.5 781q-23.5 23 -23.5 58t23.5 58t57.5 23q35 0 58.5 -23t23.5 -58t-23.5 -58t-58.5 -23q-34 0 -57.5 23zM213 47.5q-83 47.5 -130.5 130.5t-47.5 186t47.5 186
t130.5 130.5t186 47.5t186.5 -47.5t130.5 -130.5t47 -186t-47 -186t-130.5 -130.5t-186.5 -47.5t-186 47.5zM512 174q50 28 78 78t28 112q0 63 -28 112.5t-78 77.5t-113 28t-112.5 -28t-77.5 -77.5t-28 -112.5q0 -62 28 -112t77.5 -78t112.5 -28t113 28z" />
    <glyph glyph-name="multiply" unicode="&#xd7;" 
d="M602 499l-167 -167l167 -167l-103 -103l-166 168l-168 -168l-102 103l168 167l-168 167l102 102l168 -167l166 167z" />
    <glyph glyph-name="Oslash" unicode="&#xd8;" horiz-adv-x="798" 
d="M737 504.5q26 -65.5 26 -140.5q0 -103 -47 -186t-130.5 -130.5t-186.5 -47.5q-114 0 -203 58l-55 -64l-56 47l53 64q-49 49 -76 115.5t-27 143.5q0 103 47.5 186t130.5 130.5t186 47.5q118 0 209 -62l58 68l55 -48l-56 -67q46 -49 72 -114.5zM233 217l281 336
q-50 29 -115 29q-63 0 -112.5 -28t-77.5 -77.5t-28 -112.5q0 -88 52 -147zM512 174q50 28 78 78t28 112q0 83 -48 142l-280 -334q49 -26 109 -26q63 0 113 28z" />
    <glyph glyph-name="Ugrave" unicode="&#xd9;" horiz-adv-x="797" 
d="M239 881l62 96l234 -142l-62 -97zM226.5 42.5q-77.5 42.5 -122 119.5t-44.5 175v391h146v-391q0 -58 25 -101.5t69 -66.5t99 -23t99 23t69 66.5t25 101.5v391h145v-391q0 -98 -43.5 -175t-121 -119.5t-173.5 -42.5q-95 0 -172.5 42.5z" />
    <glyph glyph-name="Uacute" unicode="&#xda;" horiz-adv-x="797" 
d="M274 834l234 142l61 -96l-234 -142zM226.5 42.5q-77.5 42.5 -122 119.5t-44.5 175v391h146v-391q0 -58 25 -101.5t69 -66.5t99 -23t99 23t69 66.5t25 101.5v391h145v-391q0 -98 -43.5 -175t-121 -119.5t-173.5 -42.5q-95 0 -172.5 42.5z" />
    <glyph glyph-name="Ucircumflex" unicode="&#xdb;" horiz-adv-x="797" 
d="M208 817l191 164l193 -164l-71 -75l-122 104l-120 -104zM226.5 42.5q-77.5 42.5 -122 119.5t-44.5 175v391h146v-391q0 -58 25 -101.5t69 -66.5t99 -23t99 23t69 66.5t25 101.5v391h145v-391q0 -98 -43.5 -175t-121 -119.5t-173.5 -42.5q-95 0 -172.5 42.5z" />
    <glyph glyph-name="Udieresis" unicode="&#xdc;" horiz-adv-x="797" 
d="M234.5 781q-23.5 23 -23.5 58t23.5 58t57.5 23q35 0 58 -23t23 -58t-23 -58t-58 -23q-34 0 -57.5 23zM448.5 781q-23.5 23 -23.5 58t23.5 58t57.5 23q35 0 58.5 -23t23.5 -58t-23.5 -58t-58.5 -23q-34 0 -57.5 23zM226.5 42.5q-77.5 42.5 -122 119.5t-44.5 175v391h146
v-391q0 -58 25 -101.5t69 -66.5t99 -23t99 23t69 66.5t25 101.5v391h145v-391q0 -98 -43.5 -175t-121 -119.5t-173.5 -42.5q-95 0 -172.5 42.5z" />
    <glyph glyph-name="Yacute" unicode="&#xdd;" horiz-adv-x="738" 
d="M243 834l234 142l62 -96l-234 -142zM296 282l-297 446h176l194 -291l195 291h175l-297 -446v-282h-146v282z" />
    <glyph glyph-name="Thorn" unicode="&#xde;" horiz-adv-x="647" 
d="M223 0h-146v728h146v-109h117q75 0 134.5 -33t92 -91t32.5 -131t-32.5 -131t-92 -91t-134.5 -33h-117v-109zM223 255h117q50 0 81 30.5t31 78.5t-31 78.5t-81 30.5h-117v-218z" />
    <glyph glyph-name="germandbls" unicode="&#xdf;" horiz-adv-x="598" 
d="M121 671q61 69 176 69q70 0 118.5 -24.5t73.5 -66.5t25 -93q0 -52 -27 -95.5t-71 -55.5q71 -11 112.5 -62t41.5 -130q0 -104 -67.5 -162t-180.5 -58q-27 0 -71 5v131q50 -3 58 -3q57 0 90 26.5t33 76.5q0 49 -33.5 77t-97.5 27h-40v116h24q45 0 69.5 23t24.5 63
q0 33 -23.5 53.5t-65.5 20.5q-45 0 -70.5 -30.5t-25.5 -88.5v-567h-134v567q0 112 61 181z" />
    <glyph glyph-name="agrave" unicode="&#xe0;" horiz-adv-x="559" 
d="M127.5 501.5q59.5 30.5 148.5 30.5q115 0 171 -52.5t56 -159.5v-321h-137v71q-25 -39 -66.5 -60.5t-93.5 -21.5q-77 0 -126.5 45.5t-49.5 117.5q0 67 45.5 111.5t121.5 51.5l142 13q27 3 27 20v9q0 25 -23.5 39t-66.5 14q-50 0 -84 -18t-46 -50l-102 73q24 57 83.5 87.5z
M237 215q-30 -4 -47 -19t-17 -38q0 -27 19.5 -42t53.5 -15q51 0 85.5 31.5t34.5 77.5v21zM426 657l-60 -96l-234 141l61 97z" />
    <glyph glyph-name="aacute" unicode="&#xe1;" horiz-adv-x="559" 
d="M127.5 501.5q59.5 30.5 148.5 30.5q115 0 171 -52.5t56 -159.5v-321h-137v71q-25 -39 -66.5 -60.5t-93.5 -21.5q-77 0 -126.5 45.5t-49.5 117.5q0 67 45.5 111.5t121.5 51.5l142 13q27 3 27 20v9q0 25 -23.5 39t-66.5 14q-50 0 -84 -18t-46 -50l-102 73q24 57 83.5 87.5z
M237 215q-30 -4 -47 -19t-17 -38q0 -27 19.5 -42t53.5 -15q51 0 85.5 31.5t34.5 77.5v21zM424 702l-234 -141l-60 95l234 142z" />
    <glyph glyph-name="acircumflex" unicode="&#xe2;" horiz-adv-x="559" 
d="M127.5 501.5q59.5 30.5 148.5 30.5q115 0 171 -52.5t56 -159.5v-321h-137v71q-25 -39 -66.5 -60.5t-93.5 -21.5q-77 0 -126.5 45.5t-49.5 117.5q0 67 45.5 111.5t121.5 51.5l142 13q27 3 27 20v9q0 25 -23.5 39t-66.5 14q-50 0 -84 -18t-46 -50l-102 73q24 57 83.5 87.5z
M237 215q-30 -4 -47 -19t-17 -38q0 -27 19.5 -42t53.5 -15q51 0 85.5 31.5t34.5 77.5v21zM472 635l-72 -75l-120 104l-122 -104l-71 75l193 164z" />
    <glyph glyph-name="atilde" unicode="&#xe3;" horiz-adv-x="559" 
d="M127.5 501.5q59.5 30.5 148.5 30.5q115 0 171 -52.5t56 -159.5v-321h-137v71q-25 -39 -66.5 -60.5t-93.5 -21.5q-77 0 -126.5 45.5t-49.5 117.5q0 67 45.5 111.5t121.5 51.5l142 13q27 3 27 20v9q0 25 -23.5 39t-66.5 14q-50 0 -84 -18t-46 -50l-102 73q24 57 83.5 87.5z
M237 215q-30 -4 -47 -19t-17 -38q0 -27 19.5 -42t53.5 -15q51 0 85.5 31.5t34.5 77.5v21zM311 581q-17 7 -45 20q-14 7 -28 13t-24 6q-16 0 -31 -11t-38 -33l-68 71q32 35 64.5 58t70.5 23q19 0 36.5 -7t45.5 -20q13 -7 27 -13t25 -6q15 0 30.5 11t37.5 33l68 -71
q-31 -35 -64 -58t-70 -23q-20 0 -37 7z" />
    <glyph glyph-name="adieresis" unicode="&#xe4;" horiz-adv-x="559" 
d="M127.5 501.5q59.5 30.5 148.5 30.5q115 0 171 -52.5t56 -159.5v-321h-137v71q-25 -39 -66.5 -60.5t-93.5 -21.5q-77 0 -126.5 45.5t-49.5 117.5q0 67 45.5 111.5t121.5 51.5l142 13q27 3 27 20v9q0 25 -23.5 39t-66.5 14q-50 0 -84 -18t-46 -50l-102 73q24 57 83.5 87.5z
M237 215q-30 -4 -47 -19t-17 -38q0 -27 19.5 -42t53.5 -15q51 0 85.5 31.5t34.5 77.5v21zM115 727.5q23 23.5 58 23.5q34 0 57.5 -23.5t23.5 -57.5q0 -35 -23.5 -58t-57.5 -23q-35 0 -58 23t-23 58q0 34 23 57.5zM329.5 727.5q23.5 23.5 57.5 23.5t57.5 -23.5t23.5 -57.5
q0 -35 -23.5 -58t-57.5 -23t-57.5 23t-23.5 58q0 34 23.5 57.5z" />
    <glyph glyph-name="aring" unicode="&#xe5;" horiz-adv-x="559" 
d="M127.5 501.5q59.5 30.5 148.5 30.5q115 0 171 -52.5t56 -159.5v-321h-137v71q-25 -39 -66.5 -60.5t-93.5 -21.5q-77 0 -126.5 45.5t-49.5 117.5q0 67 45.5 111.5t121.5 51.5l142 13q27 3 27 20v9q0 25 -23.5 39t-66.5 14q-50 0 -84 -18t-46 -50l-102 73q24 57 83.5 87.5z
M237 215q-30 -4 -47 -19t-17 -38q0 -27 19.5 -42t53.5 -15q51 0 85.5 31.5t34.5 77.5v21zM181.5 809q39.5 39 98.5 39q58 0 97.5 -39t39.5 -99q0 -59 -39.5 -98t-97.5 -39q-59 0 -98.5 39t-39.5 98q0 60 39.5 99zM318 748q-15 15 -38 15q-24 0 -38.5 -14.5t-14.5 -38.5
q0 -23 15 -38t38 -15t38 15t15 38t-15 38z" />
    <glyph glyph-name="ae" unicode="&#xe6;" horiz-adv-x="914" 
d="M520.5 14.5q-54.5 26.5 -87.5 74.5q-38 -46 -93.5 -73t-120.5 -27q-84 0 -136.5 45t-52.5 118q0 68 46.5 111.5t120.5 50.5l142 13q15 1 21 6t6 14v9q0 24 -23 38t-67 14q-46 0 -81.5 -16t-48.5 -51l-102 73q23 56 83.5 86.5t139.5 30.5q124 0 180 -79q32 39 80 59.5
t107 20.5q76 0 133 -34t88 -96.5t31 -145.5v-38h-383v-2q13 -50 52.5 -75t90.5 -25q40 0 77.5 15t66.5 39l59 -114q-37 -30 -88.5 -49t-112.5 -19q-73 0 -127.5 26.5zM736 318q-5 44 -34 71t-79 27q-48 0 -79 -25t-42 -73h234zM332 134.5q34 31.5 34 75.5v21l-129 -16
q-31 -4 -47.5 -19.5t-16.5 -37.5q0 -25 19 -40t54 -15q52 0 86 31.5z" />
    <glyph glyph-name="ccedilla" unicode="&#xe7;" horiz-adv-x="522" 
d="M371 -5q37 -44 37 -89q0 -50 -33 -80t-88 -30q-37 0 -86 19v107q22 -6 39.5 -11t28.5 -5q24 0 24 23q0 26 -28 61q-71 7 -124.5 43.5t-83 94.5t-29.5 132q0 80 35.5 142t98.5 96t144 34q59 0 109.5 -19t87.5 -56l-78 -111q-52 52 -119 52q-61 0 -98.5 -38.5t-37.5 -99.5
q0 -60 37.5 -99t98.5 -39q67 0 122 53l76 -111q-54 -54 -133 -69z" />
    <glyph glyph-name="egrave" unicode="&#xe8;" horiz-adv-x="579" 
d="M61 399q33 62 93 97.5t140 35.5q79 0 137 -34t89 -96.5t31 -145.5v-38h-383l2 -2q11 -49 50.5 -74.5t88.5 -25.5q86 0 148 54l57 -114q-83 -68 -207 -68q-85 0 -148.5 35t-97 97t-33.5 140q0 77 33 139zM367.5 389q-28.5 27 -77.5 27t-80.5 -25t-42.5 -73h234
q-5 44 -33.5 71zM442 657l-60 -96l-234 141l61 97z" />
    <glyph glyph-name="eacute" unicode="&#xe9;" horiz-adv-x="579" 
d="M61 399q33 62 93 97.5t140 35.5q79 0 137 -34t89 -96.5t31 -145.5v-38h-383l2 -2q11 -49 50.5 -74.5t88.5 -25.5q86 0 148 54l57 -114q-83 -68 -207 -68q-85 0 -148.5 35t-97 97t-33.5 140q0 77 33 139zM367.5 389q-28.5 27 -77.5 27t-80.5 -25t-42.5 -73h234
q-5 44 -33.5 71zM440 702l-234 -141l-60 95l234 142z" />
    <glyph glyph-name="ecircumflex" unicode="&#xea;" horiz-adv-x="579" 
d="M61 399q33 62 93 97.5t140 35.5q79 0 137 -34t89 -96.5t31 -145.5v-38h-383l2 -2q11 -49 50.5 -74.5t88.5 -25.5q86 0 148 54l57 -114q-83 -68 -207 -68q-85 0 -148.5 35t-97 97t-33.5 140q0 77 33 139zM367.5 389q-28.5 27 -77.5 27t-80.5 -25t-42.5 -73h234
q-5 44 -33.5 71zM488 635l-72 -75l-120 104l-122 -104l-71 75l193 164z" />
    <glyph glyph-name="edieresis" unicode="&#xeb;" horiz-adv-x="579" 
d="M61 399q33 62 93 97.5t140 35.5q79 0 137 -34t89 -96.5t31 -145.5v-38h-383l2 -2q11 -49 50.5 -74.5t88.5 -25.5q86 0 148 54l57 -114q-83 -68 -207 -68q-85 0 -148.5 35t-97 97t-33.5 140q0 77 33 139zM367.5 389q-28.5 27 -77.5 27t-80.5 -25t-42.5 -73h234
q-5 44 -33.5 71zM131 727.5q23 23.5 58 23.5q34 0 57.5 -23.5t23.5 -57.5q0 -35 -23.5 -58t-57.5 -23q-35 0 -58 23t-23 58q0 34 23 57.5zM345.5 727.5q23.5 23.5 57.5 23.5t57.5 -23.5t23.5 -57.5q0 -35 -23.5 -58t-57.5 -23t-57.5 23t-23.5 58q0 34 23.5 57.5z" />
    <glyph glyph-name="igrave" unicode="&#xec;" horiz-adv-x="274" 
d="M205 622l-96 -57l-136 193l97 58zM206 0h-137v520h137v-520z" />
    <glyph glyph-name="iacute" unicode="&#xed;" horiz-adv-x="274" 
d="M295 758l-136 -193l-96 57l136 194zM206 0h-137v520h137v-520z" />
    <glyph glyph-name="icircumflex" unicode="&#xee;" horiz-adv-x="274" 
d="M312 630l-72 -70l-103 99l-103 -99l-71 70l174 169zM206 0h-137v520h137v-520z" />
    <glyph glyph-name="idieresis" unicode="&#xef;" horiz-adv-x="274" 
d="M-13 727.5q23 23.5 58 23.5q34 0 57.5 -23.5t23.5 -57.5q0 -35 -23.5 -58t-57.5 -23q-35 0 -58 23t-23 58q0 34 23 57.5zM172.5 727.5q23.5 23.5 57.5 23.5t57.5 -23.5t23.5 -57.5q0 -35 -23.5 -58t-57.5 -23t-57.5 23t-23.5 58q0 34 23.5 57.5zM206 0h-137v520h137v-520
z" />
    <glyph glyph-name="eth" unicode="&#xf0;" horiz-adv-x="633" 
d="M161 22.5q-63 34.5 -98 97t-35 142.5q0 78 34 139.5t93 96t135 34.5q57 0 101.5 -23t72.5 -68q-11 117 -118 198l-72 -66l-72 61l56 49q-45 18 -104 26l31 120q89 -11 164 -46l59 55l69 -62l-44 -43q66 -49 109 -129q58 -108 58 -261q0 -185 -90 -275q-39 -40 -91.5 -60
t-113.5 -20q-81 0 -144 34.5zM407.5 359.5q-38.5 38.5 -99.5 38.5q-63 0 -100.5 -37.5t-37.5 -98.5t39 -100.5t99 -39.5q61 0 99.5 38t38.5 98q0 63 -38.5 101.5z" />
    <glyph glyph-name="ntilde" unicode="&#xf1;" horiz-adv-x="608" 
d="M60 520h133v-79q30 45 73.5 68t96.5 23q87 0 135 -54t48 -152v-326h-140v288q0 55 -24.5 83.5t-72.5 28.5q-54 0 -82.5 -39t-28.5 -112v-249h-138v520zM335 581q-17 7 -45 20q-14 7 -28 13t-24 6q-16 0 -31 -11t-38 -33l-68 71q32 35 64.5 58t70.5 23q19 0 36.5 -7
t45.5 -20q13 -7 27 -13t25 -6q15 0 30.5 11t37.5 33l68 -71q-31 -35 -64 -58t-70 -23q-20 0 -37 7z" />
    <glyph glyph-name="ograve" unicode="&#xf2;" horiz-adv-x="615" 
d="M64.5 402q36.5 62 100.5 96t143 34t143 -34t100.5 -96t36.5 -142t-36.5 -142t-100.5 -96t-143 -34t-143 34t-100.5 96t-36.5 142t36.5 142zM406.5 359.5q-39.5 38.5 -98.5 38.5t-98.5 -38.5t-39.5 -99.5t39.5 -99.5t98.5 -38.5t98.5 38.5t39.5 99.5t-39.5 99.5zM454 657
l-60 -96l-234 141l61 97z" />
    <glyph glyph-name="oacute" unicode="&#xf3;" horiz-adv-x="615" 
d="M64.5 402q36.5 62 100.5 96t143 34t143 -34t100.5 -96t36.5 -142t-36.5 -142t-100.5 -96t-143 -34t-143 34t-100.5 96t-36.5 142t36.5 142zM406.5 359.5q-39.5 38.5 -98.5 38.5t-98.5 -38.5t-39.5 -99.5t39.5 -99.5t98.5 -38.5t98.5 38.5t39.5 99.5t-39.5 99.5zM452 702
l-234 -141l-60 95l234 142z" />
    <glyph glyph-name="ocircumflex" unicode="&#xf4;" horiz-adv-x="615" 
d="M64.5 402q36.5 62 100.5 96t143 34t143 -34t100.5 -96t36.5 -142t-36.5 -142t-100.5 -96t-143 -34t-143 34t-100.5 96t-36.5 142t36.5 142zM406.5 359.5q-39.5 38.5 -98.5 38.5t-98.5 -38.5t-39.5 -99.5t39.5 -99.5t98.5 -38.5t98.5 38.5t39.5 99.5t-39.5 99.5zM500 635
l-72 -75l-120 104l-122 -104l-71 75l193 164z" />
    <glyph glyph-name="otilde" unicode="&#xf5;" horiz-adv-x="615" 
d="M64.5 402q36.5 62 100.5 96t143 34t143 -34t100.5 -96t36.5 -142t-36.5 -142t-100.5 -96t-143 -34t-143 34t-100.5 96t-36.5 142t36.5 142zM406.5 359.5q-39.5 38.5 -98.5 38.5t-98.5 -38.5t-39.5 -99.5t39.5 -99.5t98.5 -38.5t98.5 38.5t39.5 99.5t-39.5 99.5zM339 581
q-17 7 -45 20q-14 7 -28 13t-24 6q-16 0 -31 -11t-38 -33l-68 71q32 35 64.5 58t70.5 23q19 0 36.5 -7t45.5 -20q13 -7 27 -13t25 -6q15 0 30.5 11t37.5 33l68 -71q-31 -35 -64 -58t-70 -23q-20 0 -37 7z" />
    <glyph glyph-name="odieresis" unicode="&#xf6;" horiz-adv-x="615" 
d="M64.5 402q36.5 62 100.5 96t143 34t143 -34t100.5 -96t36.5 -142t-36.5 -142t-100.5 -96t-143 -34t-143 34t-100.5 96t-36.5 142t36.5 142zM406.5 359.5q-39.5 38.5 -98.5 38.5t-98.5 -38.5t-39.5 -99.5t39.5 -99.5t98.5 -38.5t98.5 38.5t39.5 99.5t-39.5 99.5z
M143 727.5q23 23.5 58 23.5q34 0 57.5 -23.5t23.5 -57.5q0 -35 -23.5 -58t-57.5 -23q-35 0 -58 23t-23 58q0 34 23 57.5zM357.5 727.5q23.5 23.5 57.5 23.5t57.5 -23.5t23.5 -57.5q0 -35 -23.5 -58t-57.5 -23t-57.5 23t-23.5 58q0 34 23.5 57.5z" />
    <glyph glyph-name="divide" unicode="&#xf7;" 
d="M259 479.5q-28 28.5 -28 69.5q0 43 28 71t70 28t70 -27.5t28 -71.5q0 -41 -28 -69.5t-70 -28.5t-70 28.5zM37 405h591v-146h-591v146zM259 49q-28 28 -28 70t28 70t70 28t70 -28t28 -70t-28 -70t-70 -28t-70 28z" />
    <glyph glyph-name="oslash" unicode="&#xf8;" horiz-adv-x="615" 
d="M569 364.5q19 -48.5 19 -104.5q0 -80 -36.5 -142t-100.5 -96t-143 -34q-84 0 -152 38l-34 -41l-54 46l33 39q-35 36 -54 84.5t-19 105.5q0 80 36.5 142t100.5 96t143 34q83 0 153 -39l35 42l53 -47l-33 -39q34 -36 53 -84.5zM193 179l176 207q-28 12 -61 12
q-59 0 -98.5 -38.5t-39.5 -99.5q0 -48 23 -81zM406.5 160.5q39.5 38.5 39.5 99.5q0 46 -23 80l-175 -206q28 -12 60 -12q59 0 98.5 38.5z" />
    <glyph glyph-name="ugrave" unicode="&#xf9;" horiz-adv-x="601" 
d="M539 0h-133v79q-62 -91 -166 -91q-88 0 -134 55.5t-46 153.5v323h141v-289q0 -56 21 -83.5t66 -27.5q56 0 84 41t28 110v249h139v-520zM447 657l-60 -96l-234 141l61 97z" />
    <glyph glyph-name="uacute" unicode="&#xfa;" horiz-adv-x="601" 
d="M539 0h-133v79q-62 -91 -166 -91q-88 0 -134 55.5t-46 153.5v323h141v-289q0 -56 21 -83.5t66 -27.5q56 0 84 41t28 110v249h139v-520zM445 702l-234 -141l-60 95l234 142z" />
    <glyph glyph-name="ucircumflex" unicode="&#xfb;" horiz-adv-x="601" 
d="M539 0h-133v79q-62 -91 -166 -91q-88 0 -134 55.5t-46 153.5v323h141v-289q0 -56 21 -83.5t66 -27.5q56 0 84 41t28 110v249h139v-520zM493 635l-72 -75l-120 104l-122 -104l-71 75l193 164z" />
    <glyph glyph-name="udieresis" unicode="&#xfc;" horiz-adv-x="601" 
d="M539 0h-133v79q-62 -91 -166 -91q-88 0 -134 55.5t-46 153.5v323h141v-289q0 -56 21 -83.5t66 -27.5q56 0 84 41t28 110v249h139v-520zM136 727.5q23 23.5 58 23.5q34 0 57.5 -23.5t23.5 -57.5q0 -35 -23.5 -58t-57.5 -23q-35 0 -58 23t-23 58q0 34 23 57.5zM350.5 727.5
q23.5 23.5 57.5 23.5t57.5 -23.5t23.5 -57.5q0 -35 -23.5 -58t-57.5 -23t-57.5 23t-23.5 58q0 34 23.5 57.5z" />
    <glyph glyph-name="yacute" unicode="&#xfd;" horiz-adv-x="559" 
d="M217 75l-220 445h160l132 -285l129 285h146l-328 -728h-146zM424 702l-234 -141l-60 95l234 142z" />
    <glyph glyph-name="thorn" unicode="&#xfe;" horiz-adv-x="635" 
d="M60 728h138v-280q29 41 73 63.5t99 22.5q66 0 120 -32.5t85.5 -94.5t31.5 -147t-31.5 -147t-85 -94.5t-118.5 -32.5q-58 0 -102 24t-72 65v-283h-138v936zM427.5 159.5q38.5 38.5 38.5 100.5t-38.5 100.5t-97.5 38.5q-60 0 -98.5 -38t-38.5 -101q0 -62 38.5 -100.5
t98.5 -38.5q59 0 97.5 38.5z" />
    <glyph glyph-name="ydieresis" unicode="&#xff;" horiz-adv-x="559" 
d="M217 75l-220 445h160l132 -285l129 285h146l-328 -728h-146zM115 727.5q23 23.5 58 23.5q34 0 57.5 -23.5t23.5 -57.5q0 -35 -23.5 -58t-57.5 -23q-35 0 -58 23t-23 58q0 34 23 57.5zM329.5 727.5q23.5 23.5 57.5 23.5t57.5 -23.5t23.5 -57.5q0 -35 -23.5 -58t-57.5 -23
t-57.5 23t-23.5 58q0 34 23.5 57.5z" />
    <glyph glyph-name="dotlessi" unicode="&#x131;" horiz-adv-x="274" 
d="M206 0h-137v520h137v-520z" />
    <glyph glyph-name="Ldot" unicode="&#x13f;" horiz-adv-x="562" 
d="M77 728h146v-582h330v-146h-476v728zM345.5 326q-27.5 27 -27.5 68t27.5 68t67.5 27t67 -27t27 -68t-27 -68t-67 -27t-67.5 27z" />
    <glyph glyph-name="ldot" unicode="&#x140;" horiz-adv-x="341" 
d="M199 0h-139v728h139v-728zM259.5 340q-27.5 27 -27.5 68t27.5 68t67.5 27t67 -27t27 -68t-27 -68t-67 -27t-67.5 27z" />
    <glyph glyph-name="OE" unicode="&#x152;" horiz-adv-x="926" 
d="M545 582v-145h324v-146h-324v-145h324v-146h-470q-103 0 -186 47.5t-130.5 130.5t-47.5 186t47.5 186t130.5 130.5t186 47.5h470v-146h-324zM399 582q-63 0 -112.5 -28t-77.5 -77.5t-28 -112.5q0 -62 28 -112t77.5 -78t112.5 -28v436z" />
    <glyph glyph-name="oe" unicode="&#x153;" horiz-adv-x="993" 
d="M601 12q-52 24 -85 69q-36 -45 -89.5 -69t-118.5 -24q-79 0 -143 34t-100.5 96t-36.5 142t36.5 142t100.5 96t143 34q64 0 117.5 -24t89.5 -69q32 45 81 69t112 24q79 0 137 -34t89 -96.5t31 -145.5v-38h-383l1 -2q12 -49 51.5 -74.5t88.5 -25.5q86 0 147 54l59 -114
q-86 -68 -208 -68q-68 0 -120 24zM781.5 389q-28.5 27 -77.5 27t-80.5 -25t-42.5 -73h234q-5 44 -33.5 71zM406.5 359.5q-39.5 38.5 -98.5 38.5t-98.5 -38.5t-39.5 -99.5t39.5 -99.5t98.5 -38.5t98.5 38.5t39.5 99.5t-39.5 99.5z" />
    <glyph glyph-name="Ydieresis" unicode="&#x178;" horiz-adv-x="738" 
d="M204.5 781q-23.5 23 -23.5 58t23.5 58t57.5 23t57.5 -23t23.5 -58t-23.5 -58t-57.5 -23t-57.5 23zM418.5 781q-23.5 23 -23.5 58t23.5 58t57.5 23q35 0 58 -23t23 -58t-23 -58t-58 -23q-34 0 -57.5 23zM296 282l-297 446h176l194 -291l195 291h175l-297 -446v-282h-146
v282z" />
    <glyph glyph-name="uni0237" unicode="&#x237;" horiz-adv-x="289" 
d="M218 -16q0 -102 -55 -149.5t-162 -47.5q-24 0 -38 1v127h14q60 0 82 19t22 63v523h137v-536z" />
    <glyph glyph-name="circumflex" unicode="&#x2c6;" horiz-adv-x="488" 
d="M437 635l-72 -75l-120 104l-122 -104l-71 75l193 164z" />
    <glyph glyph-name="tilde" unicode="&#x2dc;" horiz-adv-x="508" 
d="M286 581q-17 7 -45 20q-14 7 -28 13t-24 6q-16 0 -31 -11t-38 -33l-68 71q32 35 64.5 58t70.5 23q19 0 36.5 -7t45.5 -20q13 -7 27 -13t25 -6q15 0 30.5 11t37.5 33l68 -71q-31 -35 -64 -58t-70 -23q-20 0 -37 7z" />
    <glyph glyph-name="gravecomb" unicode="&#x300;" horiz-adv-x="0" 
d="M-52 657l-60 -96l-234 141l61 97z" />
    <glyph glyph-name="acutecomb" unicode="&#x301;" horiz-adv-x="0" 
d="M-52 702l-234 -141l-60 95l234 142z" />
    <glyph glyph-name="uni0302" unicode="&#x302;" horiz-adv-x="0" 
d="M-52 635l-72 -75l-120 104l-122 -104l-71 75l193 164z" />
    <glyph glyph-name="tildecomb" unicode="&#x303;" horiz-adv-x="0" 
d="M-223 581q-17 7 -45 20q-14 7 -28 13t-24 6q-16 0 -31 -11t-38 -33l-68 71q32 35 64.5 58t70.5 23q19 0 36.5 -7t45.5 -20q13 -7 27 -13t25 -6q15 0 30.5 11t37.5 33l68 -71q-31 -35 -64 -58t-70 -23q-20 0 -37 7z" />
    <glyph glyph-name="uni0304" unicode="&#x304;" horiz-adv-x="0" 
d="M-52 620h-312v103h312v-103z" />
    <glyph glyph-name="uni0307" unicode="&#x307;" horiz-adv-x="0" 
d="M-203 606q-25 25 -25 63t25 63t63 25t63 -25t25 -63t-25 -63t-63 -25t-63 25z" />
    <glyph glyph-name="uni0308" unicode="&#x308;" horiz-adv-x="0" 
d="M-405 727.5q23 23.5 58 23.5q34 0 57.5 -23.5t23.5 -57.5q0 -35 -23.5 -58t-57.5 -23q-35 0 -58 23t-23 58q0 34 23 57.5zM-190.5 727.5q23.5 23.5 57.5 23.5t57.5 -23.5t23.5 -57.5q0 -35 -23.5 -58t-57.5 -23t-57.5 23t-23.5 58q0 34 23.5 57.5z" />
    <glyph glyph-name="uni030A" unicode="&#x30a;" horiz-adv-x="0" 
d="M-287.5 809q39.5 39 98.5 39q58 0 97.5 -39t39.5 -99q0 -59 -39.5 -98t-97.5 -39q-59 0 -98.5 39t-39.5 98q0 60 39.5 99zM-151 748q-15 15 -38 15q-24 0 -38.5 -14.5t-14.5 -38.5q0 -23 15 -38t38 -15t38 15t15 38t-15 38z" />
    <glyph glyph-name="uni0327" unicode="&#x327;" horiz-adv-x="0" 
d="M-52 -94q0 -50 -33 -80t-88 -30q-37 0 -86 19v107q22 -6 39.5 -11t29.5 -5q24 0 24 23q0 38 -56 90h108q62 -52 62 -113z" />
    <glyph glyph-name="uni2000" unicode="&#x2000;" horiz-adv-x="490" 
 />
    <glyph glyph-name="uni2001" unicode="&#x2001;" horiz-adv-x="981" 
 />
    <glyph glyph-name="uni2002" unicode="&#x2002;" horiz-adv-x="490" 
 />
    <glyph glyph-name="uni2003" unicode="&#x2003;" horiz-adv-x="981" 
 />
    <glyph glyph-name="uni2004" unicode="&#x2004;" horiz-adv-x="327" 
 />
    <glyph glyph-name="uni2005" unicode="&#x2005;" horiz-adv-x="245" 
 />
    <glyph glyph-name="uni2006" unicode="&#x2006;" horiz-adv-x="163" 
 />
    <glyph glyph-name="uni2007" unicode="&#x2007;" horiz-adv-x="163" 
 />
    <glyph glyph-name="uni2008" unicode="&#x2008;" horiz-adv-x="122" 
 />
    <glyph glyph-name="uni2009" unicode="&#x2009;" horiz-adv-x="196" 
 />
    <glyph glyph-name="uni200A" unicode="&#x200a;" horiz-adv-x="54" 
 />
    <glyph glyph-name="uni2010" unicode="&#x2010;" horiz-adv-x="625" 
d="M555 239h-484v146h484v-146z" />
    <glyph glyph-name="uni2011" unicode="&#x2011;" horiz-adv-x="625" 
d="M555 239h-484v146h484v-146z" />
    <glyph glyph-name="figuredash" unicode="&#x2012;" horiz-adv-x="625" 
d="M555 239h-484v146h484v-146z" />
    <glyph glyph-name="endash" unicode="&#x2013;" horiz-adv-x="933" 
d="M864 239h-793v146h793v-146z" />
    <glyph glyph-name="emdash" unicode="&#x2014;" horiz-adv-x="1361" 
d="M1292 239h-1221v146h1221v-146z" />
    <glyph glyph-name="quoteleft" unicode="&#x2018;" horiz-adv-x="293" 
d="M252 701l-75 -124q26 -11 42 -35t16 -53q0 -41 -28 -69.5t-69 -28.5q-40 0 -68 28t-28 70q0 27 19 59l120 192z" />
    <glyph glyph-name="quoteright" unicode="&#x2019;" horiz-adv-x="293" 
d="M42 431l74 123q-26 12 -42 36t-16 53q0 40 28 68.5t69 28.5t69 -28t28 -69q0 -27 -20 -60l-120 -192z" />
    <glyph glyph-name="quotesinglbase" unicode="&#x201a;" horiz-adv-x="293" 
d="M42 -115l74 123q-26 12 -42 36t-16 53q0 40 28 68.5t69 28.5t69 -28t28 -69q0 -27 -20 -60l-120 -192z" />
    <glyph glyph-name="quotedblleft" unicode="&#x201c;" horiz-adv-x="531" 
d="M252 701l-75 -124q26 -11 42 -35t16 -53q0 -41 -28 -69.5t-69 -28.5q-40 0 -68 28t-28 70q0 27 19 59l120 192zM490 701l-75 -124q26 -11 42 -35t16 -53q0 -41 -28 -69.5t-69 -28.5q-40 0 -68 28t-28 70q0 27 20 59l119 192z" />
    <glyph glyph-name="quotedblright" unicode="&#x201d;" horiz-adv-x="531" 
d="M281 431l74 123q-26 12 -42 36t-16 53q0 40 28 68.5t69 28.5t69 -28t28 -69q0 -27 -20 -60l-120 -192zM42 431l74 123q-26 12 -42 36t-16 53q0 40 28 68.5t69 28.5t69 -28t28 -69q0 -27 -20 -60l-120 -192z" />
    <glyph glyph-name="quotedblbase" unicode="&#x201e;" horiz-adv-x="531" 
d="M291 -116l74 123q-26 12 -42 36t-16 53q0 40 28 68.5t69 28.5t69 -28t28 -69q0 -27 -20 -60l-120 -192zM51 -116l74 123q-26 12 -42 36t-16 53q0 40 28 68.5t69 28.5t69 -28t28 -69q0 -27 -20 -60l-120 -192z" />
    <glyph glyph-name="bullet" unicode="&#x2022;" horiz-adv-x="474" 
d="M134.5 229.5q-40.5 40.5 -40.5 102.5t40.5 102.5t102.5 40.5q63 0 103.5 -40.5t40.5 -102.5t-40.5 -102.5t-103.5 -40.5q-62 0 -102.5 40.5z" />
    <glyph glyph-name="ellipsis" unicode="&#x2026;" horiz-adv-x="1008" 
d="M120 28q-28 28 -28 71q0 42 28 70.5t69 28.5q43 0 71.5 -29t28.5 -70q0 -42 -28.5 -70.5t-71.5 -28.5q-41 0 -69 28zM434.5 28.5q-28.5 28.5 -28.5 70.5t28.5 70.5t69.5 28.5q43 0 71 -28.5t28 -70.5t-28 -70.5t-71 -28.5q-41 0 -69.5 28.5zM748.5 28.5
q-28.5 28.5 -28.5 70.5t28.5 70.5t69.5 28.5q43 0 71 -28.5t28 -70.5t-28 -70.5t-71 -28.5q-41 0 -69.5 28.5z" />
    <glyph glyph-name="uni202F" unicode="&#x202f;" horiz-adv-x="196" 
 />
    <glyph glyph-name="guilsinglleft" unicode="&#x2039;" horiz-adv-x="401" 
d="M376 435l-156 -165l156 -164l-91 -82l-233 246l233 248z" />
    <glyph glyph-name="guilsinglright" unicode="&#x203a;" horiz-adv-x="401" 
d="M25 106l156 164l-156 165l90 83l234 -248l-234 -246z" />
    <glyph glyph-name="fraction" unicode="&#x2044;" horiz-adv-x="284" 
d="M469 698l-584 -724l-68 56l584 724z" />
    <glyph glyph-name="uni205F" unicode="&#x205f;" horiz-adv-x="245" 
 />
    <glyph glyph-name="Euro" unicode="&#x20ac;" horiz-adv-x="730" 
d="M651 207l68 -134q-98 -73 -230 -73q-87 0 -158.5 33.5t-120 93t-68.5 138.5h-94l35 73h49q-1 8 -1 26t1 27h-78l35 73h55q19 78 67 137.5t119.5 93t158.5 33.5q132 0 230 -73l-68 -133q-72 60 -164 60q-69 0 -118.5 -31.5t-73.5 -86.5h323l-39 -73h-301q-1 -8 -1 -27
q0 -18 1 -26h272l-37 -73h-218q24 -56 73.5 -87.5t118.5 -31.5q93 0 164 61z" />
    <glyph glyph-name="uni2116" unicode="&#x2116;" horiz-adv-x="1369" 
d="M87 728h127l393 -478v478h146v-728h-127l-393 478v-478h-146v728zM1295.5 309q-32.5 -55 -89 -86.5t-123.5 -31.5q-69 0 -125 31.5t-89 86.5t-33 125q0 68 33 123.5t89 86.5t125 31q67 0 123.5 -31t89 -86.5t32.5 -123.5q0 -70 -32.5 -125zM1165 436q0 33 -24 57
q-23 24 -55 24q-35 0 -61 -26q-26 -28 -26 -60q0 -31 24 -57q23 -25 55 -25q36 0 61 27q26 26 26 60zM1306 0h-447v119h447v-119z" />
    <glyph glyph-name="trademark" unicode="&#x2122;" horiz-adv-x="1057" 
d="M434 620h-140v-305h-108v305h-140v108h388v-108zM1012 315h-108v208l-118 -208h-82l-118 208v-208h-109v413h107l161 -276l160 276h107v-413z" />
    <glyph glyph-name="uni25FC" unicode="&#x25fc;" horiz-adv-x="520" 
d="M0 520h520v-520h-520v520z" />
    <glyph glyph-name="uniFB03" unicode="&#xfb03;" horiz-adv-x="1094" 
d="M895 606q-25 25 -25 63q0 37 25 62.5t63 25.5q37 0 62 -25.5t25 -62.5q0 -38 -25 -63t-62 -25q-38 0 -63 25zM114 405h-105v115h105v26q0 97 51.5 145t137.5 48q40 0 102 -9v-127q-52 9 -79 9q-41 0 -57.5 -19.5t-16.5 -61.5v-11h273v26q0 97 51.5 145t136.5 48
q41 0 102 -9v-127q-52 9 -79 9q-40 0 -57 -19.5t-17 -61.5v-11h148v-115h-148v-405h-137v405h-273v-405h-138v405zM889 520h137v-520h-137v520z" />
    <glyph glyph-name="uniFB04" unicode="&#xfb04;" horiz-adv-x="1085" 
d="M252 405v-405h-138v405h-105v115h105v26q0 97 51.5 145t137.5 48q40 0 102 -9v-127q-52 9 -79 9q-41 0 -57.5 -19.5t-16.5 -61.5v-11h273v26q0 97 51.5 145t136.5 48q41 0 102 -9v-127q-52 9 -79 9q-40 0 -57 -19.5t-17 -61.5v-11h148v-115h-148v-405h-137v405h-273z
M1020 0h-138v728h138v-728z" />
    <glyph glyph-name="zero.zero" horiz-adv-x="807" 
d="M720.5 522.5q30.5 -71.5 30.5 -158.5q0 -106 -46 -189t-125.5 -129t-175.5 -46q-97 0 -178 47l-41 -59l-60 40l42 62q-53 50 -82 120t-29 154q0 106 46 189t125.5 129t176.5 46q94 0 170 -43l38 55l59 -41l-38 -55q57 -50 87.5 -121.5zM251 213l240 351q-40 18 -87 18
q-59 0 -104.5 -26.5t-71.5 -76t-26 -115.5q0 -93 49 -151zM507.5 172.5q45.5 26.5 71.5 76t26 115.5q0 97 -55 158l-242 -355q42 -21 96 -21q58 0 103.5 26.5z" />
    <glyph glyph-name="zero.tnum" 
d="M89 562.5q37 82.5 100.5 124t143.5 41.5q79 0 143 -41.5t101 -124t37 -198.5t-37 -198.5t-100.5 -124t-143.5 -41.5t-143.5 41.5t-100.5 124t-37 198.5t37 198.5zM431.5 529q-36.5 53 -98.5 53q-63 0 -99 -53t-36 -165q0 -113 36 -165.5t99 -52.5q62 0 98.5 52.5
t36.5 165.5q0 112 -36.5 165z" />
    <glyph glyph-name="one.tnum" 
d="M70 146h227v356l-141 -136l-101 105l265 257h123v-582h172v-146h-545v146z" />
    <glyph glyph-name="two.tnum" 
d="M177 681.5q65 46.5 164 46.5q74 0 129 -29t85.5 -81t30.5 -119q0 -61 -25.5 -112.5t-75.5 -100.5l-148 -140h250v-146h-484v116l271 260q33 33 49.5 60.5t16.5 55.5q0 39 -28.5 64.5t-74.5 25.5q-50 0 -89 -28.5t-64 -71.5l-108 89q36 64 101 110.5z" />
    <glyph glyph-name="three.tnum" 
d="M179 694.5q66 33.5 151 33.5q116 0 182.5 -55t66.5 -147q0 -61 -29.5 -102.5t-72.5 -59.5q43 -18 72.5 -59.5t29.5 -102.5q0 -92 -66.5 -147t-182.5 -55q-85 0 -151 33.5t-97 86.5l99 108q24 -40 64.5 -61t85.5 -21q49 0 76 19t27 54q0 34 -27 53.5t-77 19.5h-56v144h56
q51 0 77.5 19.5t26.5 54.5q0 34 -27 53t-76 19q-46 0 -86.5 -21t-64.5 -61l-98 108q31 53 97 86.5z" />
    <glyph glyph-name="four.tnum" 
d="M529 261h91v-146h-91v-115h-145v115h-339v125l365 488h119v-467zM240 261h144v200z" />
    <glyph glyph-name="five.tnum" 
d="M581 582h-304v-87q25 4 41 4q123 0 193 -65.5t70 -179.5q0 -77 -32 -134.5t-92 -88.5t-140 -31q-59 0 -122 17.5t-111 46.5l62 132q41 -24 85.5 -37t83.5 -13q55 0 88 28.5t33 76.5q0 51 -37.5 77.5t-109.5 26.5q-70 0 -158 -21v394h450v-146z" />
    <glyph glyph-name="six.tnum" 
d="M108 530.5q30 88.5 98 143t176 54.5q42 0 84.5 -11t90.5 -34l-57 -132q-67 31 -127 31t-97 -36t-41 -88q26 14 57 23.5t58 9.5q66 0 120 -29.5t85.5 -84.5t31.5 -128q0 -74 -32.5 -131t-88 -87.5t-125.5 -30.5q-75 0 -128.5 29.5t-85.5 82.5q-49 81 -49 223
q0 107 30 195.5zM412 318q-29 27 -76 27t-76.5 -28t-29.5 -72q0 -45 30 -72t76 -27t75.5 28t29.5 72q0 45 -29 72z" />
    <glyph glyph-name="seven.tnum" 
d="M588 606l-318 -606h-164l306 582h-320v146h496v-122z" />
    <glyph glyph-name="eight.tnum" 
d="M121 634q31 45 86 69.5t126 24.5t126 -24.5t85.5 -69.5t30.5 -105q0 -53 -26 -96.5t-75 -68.5q49 -25 75 -68.5t26 -95.5q0 -61 -30.5 -106t-85.5 -69.5t-126 -24.5t-126 24.5t-86 69.5t-31 106q0 52 26 95.5t75 68.5q-49 25 -75 68.5t-26 96.5q0 60 31 105zM403 562.5
q-27 19.5 -70 19.5q-44 0 -70.5 -19.5t-26.5 -51.5q0 -34 27 -54t70 -20q42 0 69.5 19.5t27.5 54.5q0 32 -27 51.5zM402.5 271.5q-27.5 19.5 -69.5 19.5q-43 0 -70 -19.5t-27 -54.5q0 -32 26.5 -51.5t70.5 -19.5q43 0 70 19.5t27 51.5q0 35 -27.5 54.5z" />
    <glyph glyph-name="nine.tnum" 
d="M110 608.5q32 57.5 90 88.5t132 31q126 0 194 -93q61 -84 61 -247q0 -176 -71.5 -282t-229.5 -106q-89 0 -183 44l52 132q32 -15 67.5 -22.5t65.5 -7.5q64 0 100 36.5t39 86.5q-28 -15 -55 -23.5t-59 -8.5q-65 0 -119 29t-85 83.5t-31 127.5q0 74 32 131.5zM404 555
q-30 27 -75 27q-46 0 -75.5 -28t-29.5 -72q0 -45 29 -72t75 -27t76 28t30 73q0 44 -30 71z" />
    <glyph glyph-name="dollar.aalt" 
d="M519 350.5q52 -47.5 52 -140.5q0 -91 -55.5 -145.5t-149.5 -63.5v-84h-68v85q-80 8 -137 53.5t-75 128.5l130 56q17 -76 82 -90v151l-5 1q-87 26 -143 75t-56 144q0 88 55.5 142.5t148.5 62.5v85h68v-85q82 -8 138.5 -55t74.5 -127l-132 -53q-17 74 -81 88v-149l10 -4
q91 -28 143 -75.5zM254 480.5q15 -15.5 44 -28.5v127q-30 -5 -44.5 -21t-14.5 -39t15 -38.5zM425 210q0 24 -15 40t-44 29v-131q59 10 59 62z" />
    <glyph glyph-name="cent.aalt" 
d="M591 61q-43 -34 -90 -51.5t-107 -19.5v-70h-67v72q-71 8 -124.5 44.5t-84 94.5t-30.5 130t30.5 130t84 94.5t124.5 44.5v72h67v-70q60 -2 107 -19.5t90 -51.5l-73 -114q-32 24 -60 36t-64 15v-274q36 3 63.5 15.5t60.5 36.5zM255.5 175.5q25.5 -35.5 71.5 -47.5v266
q-46 -12 -71.5 -47.5t-25.5 -85.5t25.5 -85.5z" />
    <glyph glyph-name="sterling.aalt" 
d="M527 25q-48 -25 -130 -25h-344v131q40 5 59.5 26t19.5 62v107h-83v93h83v84q0 100 59.5 162.5t170.5 62.5q134 0 221 -107l-96 -103q-48 66 -117 66q-44 0 -68 -25t-24 -71v-69h186v-93h-186v-97q0 -30 -11.5 -52.5t-28.5 -32.5h159q51 0 85 18.5t66 55.5l66 -122
q-39 -46 -87 -71z" />
    <glyph glyph-name="yen.aalt" 
d="M431 326h146v-78h-171v-58h171v-78h-171v-112h-146v112h-172v78h172v58h-172v78h147l-230 402h176l152 -297l152 297h175z" />
    <glyph glyph-name="Euro.aalt" 
d="M418 0q-75 0 -139.5 32t-108.5 92.5t-61 140.5h-87l34 73h43q-1 8 -1 26t1 27h-71l35 73h45q18 80 62.5 140t109 92t140.5 32q58 0 118 -20t107 -59l-70 -134q-31 33 -72 50t-83 17q-56 0 -97.5 -31.5t-61.5 -86.5h289l-38 -73h-268q-1 -9 -1 -27q0 -9 2 -26h238l-39 -73
h-184q19 -56 60.5 -87.5t96.5 -31.5q60 0 117 35l30 -144q-75 -37 -146 -37z" />
    <glyph glyph-name="J.aalt" horiz-adv-x="546" 
d="M281 834l234 142l61 -96l-234 -142zM119.5 31q-52.5 31 -80 82.5t-27.5 112.5l133 59q0 -67 24.5 -103t75.5 -36q44 0 66.5 27t22.5 79v476h145v-477q0 -81 -30.5 -138t-83.5 -85t-121 -28q-72 0 -124.5 31z" />
    <glyph glyph-name="C.aalt" horiz-adv-x="671" 
d="M213.5 48q-82.5 48 -130.5 131.5t-48 185.5t48 185t131 130.5t185 47.5q74 0 142.5 -25.5t120.5 -74.5l-69 -134q-83 88 -195 88q-61 0 -111 -27.5t-78 -77.5t-28 -113t28 -113t77.5 -77.5t110.5 -27.5q74 0 143 34l30 -143q-88 -37 -173 -37q-101 0 -183.5 48z" />
    <glyph glyph-name="Ccedilla.aalt" horiz-adv-x="671" 
d="M541.5 702.5q68.5 -25.5 120.5 -74.5l-69 -134q-83 88 -195 88q-61 0 -111 -27.5t-78 -77.5t-28 -113t28 -113t77.5 -77.5t110.5 -27.5q74 0 143 34l30 -143q-60 -25 -120 -34q46 -46 46 -97q0 -50 -32.5 -80t-88.5 -30q-37 0 -86 19v107q22 -6 39.5 -11t29.5 -5
q24 0 24 23q0 33 -41 75q-87 13 -157 63.5t-109.5 127.5t-39.5 170q0 102 48 185t131 130.5t185 47.5q74 0 142.5 -25.5z" />
    <glyph glyph-name="G.aalt" horiz-adv-x="674" 
d="M212 47q-83 47 -130 129.5t-47 186.5t47 187t130.5 130.5t189.5 47.5q74 0 141 -25.5t119 -74.5l-69 -134q-83 88 -193 88q-64 0 -114 -27.5t-77.5 -77.5t-27.5 -113t27.5 -113t78 -77.5t114.5 -27.5q16 0 30 3v118h-138v146h283v-384q-96 -29 -175 -29q-106 0 -189 47z
" />
    <glyph glyph-name="R.aalt" horiz-adv-x="714" 
d="M530 -1l-137 220h-170v-219h-146v728h318q74 0 133 -33t91.5 -90.5t32.5 -130.5q0 -69 -30.5 -126t-84.5 -90l162 -258zM302 365l-22 35l121 73l58 -91q23 13 35 37.5t12 54.5q0 48 -29.5 78t-81.5 30h-172v-217h79z" />
    <glyph glyph-name="glyph251" horiz-adv-x="289" 
d="M308 758l-136 -193l-96 57l135 194zM218 -16q0 -102 -55 -149.5t-162 -47.5q-24 0 -38 1v127h14q60 0 82 19t22 63v523h137v-536z" />
    <glyph glyph-name="a.superior" horiz-adv-x="361" 
d="M54.5 436q-29.5 27 -29.5 70q0 42 27.5 68t71.5 30l84 9q16 2 16 11v2q0 10 -12.5 16.5t-36.5 6.5q-60 0 -76 -33l-68 52q18 34 56.5 50.5t89.5 16.5q71 0 105.5 -32t34.5 -100v-188h-93v42q-14 -20 -37 -34t-57 -14q-46 0 -75.5 27zM206 501q18 16 18 41v8l-68 -8
q-33 -5 -33 -29q0 -13 9 -20.5t28 -7.5q28 0 46 16z" />
    <glyph glyph-name="b.aalt" horiz-adv-x="403" 
d="M181 421.5q-26 13.5 -44 37.5v-43h-94v437h94v-169q17 23 43.5 37.5t60.5 14.5q57 0 97 -43.5t40 -120.5t-40.5 -120.5t-98.5 -43.5q-32 0 -58 13.5zM259 520.5q21 19.5 21 51.5t-21 51.5t-51 19.5q-31 0 -51.5 -19.5t-20.5 -51.5t20.5 -51.5t51.5 -19.5q30 0 51 19.5z
" />
    <glyph glyph-name="c.aalt" horiz-adv-x="334" 
d="M74.5 453.5q-47.5 44.5 -47.5 118.5t47.5 118.5t119.5 44.5q38 0 68.5 -12t52.5 -33l-52 -76q-27 29 -66 29q-32 0 -52.5 -20t-20.5 -51t20 -51t52 -20q38 0 67 29l52 -77q-21 -20 -52.5 -32t-68.5 -12q-72 0 -119.5 44.5z" />
    <glyph glyph-name="d.aalt" horiz-adv-x="403" 
d="M66.5 451q-39.5 43 -39.5 121t39 121t97 43q35 0 61.5 -14.5t41.5 -37.5v169h95v-437h-95v43q-17 -24 -43 -37.5t-59 -13.5q-58 0 -97.5 43zM247 520.5q20 19.5 20 51.5t-20 51.5t-51 19.5t-51.5 -19.5t-20.5 -51.5t20.5 -51.5t51.5 -19.5t51 19.5z" />
    <glyph glyph-name="e.aalt" horiz-adv-x="371" 
d="M71.5 455.5q-44.5 46.5 -44.5 117.5t44 116.5t118 45.5q71 0 113.5 -44.5t42.5 -121.5v-26h-221v-1q9 -23 30.5 -34t45.5 -11q48 0 84 26l37 -79q-46 -35 -124 -35q-81 0 -125.5 46.5zM241 610q-2 20 -17.5 33t-39.5 13q-49 0 -62 -46h119z" />
    <glyph glyph-name="f.aalt" horiz-adv-x="283" 
d="M79 650h-64v78h64v15q0 57 33 87t86 30q22 0 66 -6v-88q-31 7 -50 7q-39 0 -39 -42v-3h87v-78h-87v-234h-96v234z" />
    <glyph glyph-name="g.aalt" horiz-adv-x="407" 
d="M48 320l39 82q43 -29 91 -29q90 0 90 72v17q-15 -22 -40 -34.5t-56 -12.5q-63 0 -104 41.5t-41 117.5t41 118.5t100 42.5q33 0 59 -14.5t39 -37.5v45h96v-289q0 -70 -42 -113t-136 -43q-81 0 -136 37zM248 520.5q20 19.5 20 51.5t-20 51.5t-51 19.5t-51.5 -19.5
t-20.5 -51.5t20.5 -51.5t51.5 -19.5t51 19.5z" />
    <glyph glyph-name="h.aalt" horiz-adv-x="386" 
d="M43 853h94v-171q37 53 99 53q52 0 79.5 -31.5t27.5 -89.5v-198h-97v167q0 61 -49 61q-29 0 -44.5 -20t-15.5 -56v-152h-94v437z" />
    <glyph glyph-name="i.superior" horiz-adv-x="191" 
d="M55.5 776q-15.5 16 -15.5 41q0 24 15.5 40.5t40.5 16.5q24 0 40.5 -16.5t16.5 -40.5q0 -23 -16.5 -40t-40.5 -17q-25 0 -40.5 16zM49 728h95v-312h-95v312z" />
    <glyph glyph-name="j.superior" horiz-adv-x="198" 
d="M63 777q-16 17 -16 40q0 24 16 40.5t40 16.5t40.5 -16.5t16.5 -40.5q0 -23 -16.5 -40t-40.5 -17t-40 17zM-15 289v86h13q33 0 45.5 10.5t12.5 34.5v308h95v-319q0 -62 -35.5 -92t-97.5 -30q-19 0 -33 2z" />
    <glyph glyph-name="k.aalt" horiz-adv-x="375" 
d="M43 853h94v-232l101 107h125l-135 -134l134 -178h-121l-78 115l-26 -26v-89h-94v437z" />
    <glyph glyph-name="l.aalt" horiz-adv-x="180" 
d="M43 853h95v-437h-95v437z" />
    <glyph glyph-name="m.aalt" horiz-adv-x="587" 
d="M43 728h92v-46q35 53 97 53q32 0 56 -14t38 -42q13 25 39 40.5t61 15.5q51 0 84 -33t33 -92v-194h-96v167q0 61 -49 61q-30 0 -44 -20.5t-14 -55.5v-152h-95v167q0 30 -13 45.5t-36 15.5q-31 0 -45 -20.5t-14 -55.5v-152h-94v312z" />
    <glyph glyph-name="n.aalt" horiz-adv-x="387" 
d="M43 728h92v-46q17 24 42.5 38.5t58.5 14.5q52 0 79.5 -31.5t27.5 -89.5v-198h-97v167q0 61 -49 61q-29 0 -44.5 -20t-15.5 -56v-152h-94v312z" />
    <glyph glyph-name="o.superior" horiz-adv-x="392" 
d="M74.5 454q-47.5 45 -47.5 118q0 74 47.5 118.5t121.5 44.5q73 0 121 -44.5t48 -118.5q0 -73 -48 -118t-121 -45q-74 0 -121.5 45zM247 520.5q21 19.5 21 51.5t-21 51.5t-51 19.5q-31 0 -51.5 -19.5t-20.5 -51.5t20.5 -51.5t51.5 -19.5q30 0 51 19.5z" />
    <glyph glyph-name="p.aalt" horiz-adv-x="403" 
d="M43 728h94v-43q18 24 44 37.5t58 13.5q58 0 98.5 -43.5t40.5 -120.5t-40 -120.5t-97 -43.5q-34 0 -60.5 14.5t-43.5 37.5v-169h-94v437zM259 520.5q21 19.5 21 51.5t-21 51.5t-51 19.5q-31 0 -51.5 -19.5t-20.5 -51.5t20.5 -51.5t51.5 -19.5q30 0 51 19.5z" />
    <glyph glyph-name="q.aalt" horiz-adv-x="403" 
d="M266 460q-15 -23 -41.5 -37.5t-61.5 -14.5q-58 0 -97 43t-39 121t39.5 121t97.5 43q33 0 59 -13.5t43 -37.5v43h95v-437h-95v169zM247 520.5q20 19.5 20 51.5t-20 51.5t-51 19.5t-51.5 -19.5t-20.5 -51.5t20.5 -51.5t51.5 -19.5t51 19.5z" />
    <glyph glyph-name="r.aalt" horiz-adv-x="265" 
d="M43 728h91v-53q26 60 86 60q15 0 31 -5v-101q-19 5 -40 5q-74 0 -74 -79v-139h-94v312z" />
    <glyph glyph-name="s.aalt" horiz-adv-x="322" 
d="M79.5 420q-35.5 11 -56.5 31l49 77q40 -36 101 -36q32 0 32 16q0 7 -12 11t-58 15q-98 20 -98 99q0 49 36.5 75.5t102.5 26.5q76 0 125 -37l-48 -73q-15 13 -39 19.5t-48 6.5q-30 0 -30 -13q0 -8 11.5 -12t60.5 -14q46 -10 70.5 -33t24.5 -67q0 -103 -142 -103
q-46 0 -81.5 11z" />
    <glyph glyph-name="t.aalt" horiz-adv-x="274" 
d="M72 515v135h-54v78h54v83h94v-83h77v-78h-77v-116q0 -14 7.5 -19.5t22.5 -5.5q12 0 43 5v-91q-43 -10 -74 -10q-93 0 -93 102z" />
    <glyph glyph-name="u.aalt" horiz-adv-x="383" 
d="M70.5 440.5q-27.5 31.5 -27.5 89.5v198h96v-168q0 -60 46 -60q27 0 42.5 20.5t15.5 56.5v151h95v-312h-92v48q-36 -55 -98 -55q-50 0 -77.5 31.5z" />
    <glyph glyph-name="v.aalt" horiz-adv-x="365" 
d="M5 728h104l73 -175l74 175h104l-142 -312h-71z" />
    <glyph glyph-name="w.aalt" horiz-adv-x="548" 
d="M5 728h102l61 -167l67 167h78l67 -167l61 167h102l-126 -312h-72l-70 170l-72 -170h-72z" />
    <glyph glyph-name="x.aalt" horiz-adv-x="382" 
d="M135 577l-113 151h112l58 -76l57 76h113l-113 -151l120 -161h-113l-65 85l-64 -85h-112z" />
    <glyph glyph-name="y.aalt" horiz-adv-x="359" 
d="M136 462l-131 266h109l72 -155l69 155h99l-194 -437h-100z" />
    <glyph glyph-name="z.aalt" horiz-adv-x="333" 
d="M24 488l150 154h-138v86h270v-72l-152 -153h157v-87h-287v72z" />
    <glyph glyph-name="zero.salt" horiz-adv-x="793" 
d="M221 46q-80 46 -125.5 129t-45.5 189t45.5 189t125.5 129t176 46q97 0 176 -46t125.5 -129t46.5 -189t-46.5 -189t-125.5 -129t-176 -46q-96 0 -176 46zM501.5 172.5q45.5 26.5 71.5 76t26 115.5t-26 115.5t-71.5 76t-104.5 26.5q-58 0 -103.5 -26.5t-71.5 -76
t-26 -115.5t26 -115.5t71.5 -76t103.5 -26.5q59 0 104.5 26.5zM337.5 304.5q-24.5 24.5 -24.5 59.5t24.5 59.5t59.5 24.5q36 0 60.5 -24.5t24.5 -59.5t-24.5 -59.5t-60.5 -24.5q-35 0 -59.5 24.5z" />
    <glyph glyph-name="zero.inferior" horiz-adv-x="504" 
d="M70.5 177.5q27.5 49.5 75 76.5t106.5 27t107 -27t75.5 -76.5t27.5 -115.5q0 -65 -27.5 -114.5t-75.5 -76.5t-107 -27t-106.5 27t-75 76.5t-27.5 114.5q0 66 27.5 115.5zM332 149.5q-30 30.5 -80 30.5q-49 0 -79.5 -31t-30.5 -87q0 -55 30.5 -86t79.5 -31q50 0 80 30.5
t30 86.5q0 57 -30 87.5z" />
    <glyph glyph-name="one.inferior" horiz-adv-x="331" 
d="M263 -156h-100v279l-75 -72l-69 73l161 157h83v-437z" />
    <glyph glyph-name="two.inferior" horiz-adv-x="381" 
d="M89.5 253q38.5 28 99.5 28q69 0 109.5 -38.5t40.5 -102.5q0 -69 -55 -122l-79 -73h134v-101h-297v79l161 152q17 17 26 30t9 29q0 21 -14 33.5t-38 12.5q-27 0 -47.5 -15t-34.5 -37l-74 60q21 37 59.5 65z" />
    <glyph glyph-name="three.inferior" horiz-adv-x="377" 
d="M85 264.5q39 16.5 89 16.5q75 0 115.5 -33.5t40.5 -87.5q0 -39 -20 -64t-47 -34q27 -8 47 -33t20 -64q0 -55 -40.5 -88t-115.5 -33q-50 0 -89 17t-60 43l64 76q31 -35 85 -35q56 0 56 34q0 16 -14.5 25.5t-40.5 9.5h-36v97h36q27 1 41 10t14 25q0 34 -56 34
q-53 0 -85 -35l-64 77q21 26 60 42.5z" />
    <glyph glyph-name="four.inferior" horiz-adv-x="443" 
d="M352 5h55v-100h-55v-61h-101v61h-222v85l239 291h84v-276zM172 5h79v99z" />
    <glyph glyph-name="five.inferior" horiz-adv-x="380" 
d="M336 180h-180v-33l16 1q77 0 120.5 -39.5t43.5 -109.5q0 -73 -44 -114t-121 -41q-36 0 -75 10t-71 27l41 91q24 -13 52 -20t50 -7q31 0 49 13.5t18 36.5q0 53 -86 53q-48 0 -94 -10v243h281v-101z" />
    <glyph glyph-name="six.inferior" horiz-adv-x="379" 
d="M61 -85q-30 51 -30 135q0 102 46 166.5t143 64.5q50 0 109 -24l-36 -94q-43 17 -78 17q-33 0 -53.5 -15.5t-23.5 -38.5v-1q15 7 32 12t32 5q60 0 100.5 -40t40.5 -107q0 -69 -41.5 -110t-105.5 -41q-93 0 -135 71zM150.5 29q-14.5 -13 -14.5 -36q0 -22 15 -35t38 -13
q24 0 38.5 13t14.5 35t-14.5 35.5t-38.5 13.5t-38.5 -13z" />
    <glyph glyph-name="seven.inferior" horiz-adv-x="364" 
d="M334 200l-188 -356h-113l178 336h-178v101h301v-81z" />
    <glyph glyph-name="eight.inferior" horiz-adv-x="393" 
d="M89 248.5q41 32.5 108 32.5q65 0 106.5 -32.5t41.5 -86.5q0 -31 -16 -58t-46 -42q30 -14 46 -41t16 -58q0 -55 -41.5 -87t-106.5 -32q-67 0 -108 32t-41 87q0 32 15.5 58.5t45.5 40.5q-29 14 -45 41.5t-16 58.5q0 54 41 86.5zM231 170.5q-13 9.5 -34 9.5q-22 0 -35 -9.5
t-13 -23.5q0 -16 13 -25t35 -9q21 0 34 9t13 25q0 14 -13 23.5zM231 2.5q-13 8.5 -34 8.5q-22 0 -35 -8.5t-13 -24.5q0 -14 13 -23.5t35 -9.5q21 0 34 9.5t13 23.5q0 16 -13 24.5z" />
    <glyph glyph-name="nine.inferior" horiz-adv-x="384" 
d="M85 239.5q43 41.5 113 41.5q77 0 116 -53q40 -55 40 -155q0 -107 -46 -168t-140 -61q-54 0 -114 25l34 93q38 -17 82 -17q33 0 52 15.5t23 38.5v1q-20 -9 -32 -13.5t-31 -4.5q-60 0 -100 39t-40 107q0 70 43 111.5zM234 167q-15 13 -38 13q-24 0 -39 -13t-15 -35
t15 -35.5t39 -13.5q23 0 38 13.5t15 35.5t-15 35z" />
    <glyph glyph-name="zero.dnom" horiz-adv-x="504" 
d="M70.5 333.5q27.5 49.5 75 76.5t106.5 27t107 -27t75.5 -76.5t27.5 -115.5q0 -65 -27.5 -114.5t-75.5 -76.5t-107 -27t-106.5 27t-75 76.5t-27.5 114.5q0 66 27.5 115.5zM332 305.5q-30 30.5 -80 30.5q-49 0 -79.5 -31t-30.5 -87q0 -55 30.5 -86t79.5 -31q50 0 80 30.5
t30 86.5q0 57 -30 87.5z" />
    <glyph glyph-name="one.dnom" horiz-adv-x="331" 
d="M263 0h-100v279l-75 -72l-69 73l161 157h83v-437z" />
    <glyph glyph-name="two.dnom" horiz-adv-x="381" 
d="M89.5 409q38.5 28 99.5 28q69 0 109.5 -38.5t40.5 -102.5q0 -69 -55 -122l-79 -73h134v-101h-297v79l161 152q17 17 26 30t9 29q0 21 -14 33.5t-38 12.5q-27 0 -47.5 -15t-34.5 -37l-74 60q21 37 59.5 65z" />
    <glyph glyph-name="three.dnom" horiz-adv-x="377" 
d="M85 420.5q39 16.5 89 16.5q75 0 115.5 -33.5t40.5 -87.5q0 -39 -20 -64t-47 -34q27 -8 47 -33t20 -64q0 -54 -40.5 -87.5t-115.5 -33.5q-50 0 -89 17t-60 43l64 76q31 -35 85 -35q56 0 56 34q0 16 -14.5 25.5t-40.5 9.5h-36v97h36q27 1 41 10t14 25q0 34 -56 34
q-53 0 -85 -35l-64 77q21 26 60 42.5z" />
    <glyph glyph-name="four.dnom" horiz-adv-x="443" 
d="M352 161h55v-100h-55v-61h-101v61h-222v86l239 290h84v-276zM172 161h79v99z" />
    <glyph glyph-name="five.dnom" horiz-adv-x="380" 
d="M336 336h-180v-33l16 1q76 0 120 -38.5t44 -110.5q0 -74 -45.5 -114.5t-119.5 -40.5q-40 0 -79 11.5t-67 25.5l41 91q27 -13 54 -20t48 -7q30 0 48.5 13t18.5 38q0 52 -86 52q-35 0 -94 -10v243h281v-101z" />
    <glyph glyph-name="six.dnom" horiz-adv-x="379" 
d="M61 71q-30 53 -30 135q0 102 46 166.5t143 64.5q50 0 109 -24l-36 -94q-43 17 -78 17q-33 0 -53.5 -15.5t-23.5 -38.5v-1q15 7 32 12t32 5q60 0 100.5 -39.5t40.5 -106.5q0 -69 -41.5 -110.5t-105.5 -41.5q-93 0 -135 71zM227 184.5q-15 13.5 -38 13.5q-24 0 -38.5 -13
t-14.5 -36q0 -22 15 -35t38 -13q24 0 38.5 13t14.5 36q0 21 -15 34.5z" />
    <glyph glyph-name="seven.dnom" horiz-adv-x="364" 
d="M334 356l-188 -356h-113l178 336h-178v101h301v-81z" />
    <glyph glyph-name="eight.dnom" horiz-adv-x="393" 
d="M89 404.5q41 32.5 108 32.5q65 0 106.5 -32.5t41.5 -86.5q0 -31 -16 -58t-46 -42q30 -14 46 -41t16 -58q0 -55 -41.5 -87t-106.5 -32q-67 0 -108 32t-41 87q0 32 15.5 58.5t45.5 40.5q-29 14 -45 41.5t-16 58.5q0 54 41 86.5zM231 326.5q-13 9.5 -34 9.5q-22 0 -35 -9.5
t-13 -23.5q0 -16 13 -25t35 -9q21 0 34 9t13 25q0 14 -13 23.5zM231 158.5q-13 8.5 -34 8.5q-22 0 -35 -8.5t-13 -24.5q0 -14 13 -23.5t35 -9.5q21 0 34 9.5t13 23.5q0 16 -13 24.5z" />
    <glyph glyph-name="nine.dnom" horiz-adv-x="384" 
d="M85 395.5q43 41.5 113 41.5q77 0 116 -53q40 -55 40 -155q0 -107 -46 -168t-140 -61q-54 0 -114 25l34 93q38 -17 82 -17q33 0 52 15.5t23 38.5v1q-20 -9 -32 -13.5t-31 -4.5q-60 0 -100 39t-40 107q0 70 43 111.5zM234 323q-15 13 -38 13q-24 0 -39 -13t-15 -35
t15 -35.5t39 -13.5q23 0 38 13.5t15 35.5t-15 35z" />
    <glyph glyph-name="zero.numr" horiz-adv-x="504" 
d="M145.5 318q-47.5 27 -75 76.5t-27.5 115.5q0 65 27.5 114.5t75 76.5t106.5 27t107 -27t75.5 -76.5t27.5 -114.5q0 -66 -27.5 -115.5t-75.5 -76.5t-107 -27t-106.5 27zM332 422.5q30 30.5 30 87.5q0 56 -30 86.5t-80 30.5q-49 0 -79.5 -31t-30.5 -86q0 -56 30.5 -87
t79.5 -31q50 0 80 30.5z" />
    <glyph glyph-name="one.numr" horiz-adv-x="331" 
d="M263 291h-100v279l-75 -72l-69 73l161 157h83v-437z" />
    <glyph glyph-name="two.numr" horiz-adv-x="381" 
d="M42 370l161 152q17 17 26 30t9 29q0 21 -14 33.5t-38 12.5q-27 0 -47.5 -15t-34.5 -37l-74 60q21 37 59.5 65t99.5 28q69 0 109.5 -38.5t40.5 -101.5q0 -70 -55 -123l-79 -73h134v-101h-297v79z" />
    <glyph glyph-name="three.numr" horiz-adv-x="377" 
d="M85 308.5q-39 17.5 -60 43.5l64 75q31 -35 85 -35q56 0 56 34q0 16 -14.5 25.5t-40.5 9.5h-36v97h36q27 2 41 10.5t14 24.5q0 34 -56 34q-53 0 -85 -35l-64 77q21 26 60 42.5t89 16.5q75 0 115.5 -33.5t40.5 -87.5q0 -39 -20 -64t-47 -33q27 -9 47 -34t20 -64
q0 -54 -40.5 -87.5t-115.5 -33.5q-50 0 -89 17.5z" />
    <glyph glyph-name="four.numr" horiz-adv-x="443" 
d="M251 353h-222v85l239 290h84v-276h55v-99h-55v-62h-101v62zM251 452v99l-79 -99h79z" />
    <glyph glyph-name="five.numr" horiz-adv-x="380" 
d="M92 302q-39 11 -67 27l41 90q26 -12 53 -19.5t49 -7.5q31 0 49 13.5t18 37.5q0 52 -86 52q-37 0 -94 -9v242h281v-101h-180v-33l16 1q76 0 120 -38.5t44 -110.5q0 -73 -45 -114t-120 -41q-40 0 -79 11z" />
    <glyph glyph-name="six.numr" horiz-adv-x="379" 
d="M61 362q-30 53 -30 135q0 102 46 166.5t143 64.5q50 0 109 -24l-36 -94q-43 17 -78 17q-33 0 -53.5 -15.5t-23.5 -38.5v-1q15 7 32 12.5t32 5.5q60 0 100.5 -39.5t40.5 -107.5q0 -69 -41.5 -110.5t-105.5 -41.5q-93 0 -135 71zM227.5 405q14.5 13 14.5 36q0 21 -15 34.5
t-38 13.5q-24 0 -38.5 -13t-14.5 -36q0 -22 15 -35t38 -13q24 0 38.5 13z" />
    <glyph glyph-name="seven.numr" horiz-adv-x="364" 
d="M211 627h-178v101h301v-81l-188 -356h-113z" />
    <glyph glyph-name="eight.numr" horiz-adv-x="393" 
d="M89 323.5q-41 32.5 -41 86.5q0 32 15.5 58.5t45.5 41.5q-29 13 -45 40.5t-16 58.5q0 55 41 87t108 32q65 0 106.5 -32t41.5 -87q0 -31 -16 -58t-46 -41q30 -15 46 -42t16 -58q0 -54 -41.5 -86.5t-106.5 -32.5q-67 0 -108 32.5zM231 569.5q13 8.5 13 24.5q0 14 -13 23.5
t-34 9.5q-22 0 -35 -9.5t-13 -23.5q0 -16 13 -24.5t35 -8.5q21 0 34 8.5zM231 401.5q13 9.5 13 23.5q0 16 -13 25t-34 9q-22 0 -35 -9t-13 -25q0 -14 13 -23.5t35 -9.5q21 0 34 9.5z" />
    <glyph glyph-name="nine.numr" horiz-adv-x="384" 
d="M54 316l34 93q38 -17 82 -17q33 0 52 15.5t23 38.5v1q-20 -9 -32 -13t-31 -4q-60 0 -100 39t-40 106q0 70 43 111.5t113 41.5q77 0 116 -53q40 -55 40 -155q0 -107 -46 -168t-140 -61q-54 0 -114 25zM234 543.5q15 13.5 15 35.5t-15 35t-38 13q-24 0 -39 -13t-15 -35
t15 -35.5t39 -13.5q23 0 38 13.5z" />
    <glyph glyph-name="zero.superior" horiz-adv-x="504" 
d="M70.5 749.5q27.5 49.5 75 76.5t106.5 27t107 -27t75.5 -76.5t27.5 -115.5q0 -65 -27.5 -114.5t-75.5 -76.5t-107 -27t-106.5 27t-75 76.5t-27.5 114.5q0 66 27.5 115.5zM332 721.5q-30 30.5 -80 30.5q-49 0 -79.5 -31t-30.5 -87q0 -55 30.5 -86t79.5 -31q50 0 80 30.5
t30 86.5q0 57 -30 87.5z" />
    <glyph glyph-name="one.superior" horiz-adv-x="331" 
d="M263 416h-100v279l-75 -72l-69 73l161 157h83v-437z" />
    <glyph glyph-name="two.superior" horiz-adv-x="381" 
d="M89.5 825q38.5 28 99.5 28q69 0 109.5 -38.5t40.5 -102.5q0 -69 -55 -122l-79 -73h134v-101h-297v79l161 152q17 17 26 30t9 29q0 21 -14 33.5t-38 12.5q-27 0 -47.5 -15t-34.5 -37l-74 60q21 37 59.5 65z" />
    <glyph glyph-name="three.superior" horiz-adv-x="377" 
d="M85 836.5q39 16.5 89 16.5q75 0 115.5 -33.5t40.5 -87.5q0 -39 -20 -64t-47 -34q27 -8 47 -33t20 -64q0 -54 -40.5 -87.5t-115.5 -33.5q-50 0 -89 17t-60 43l64 76q31 -35 85 -35q56 0 56 34q0 16 -14.5 25.5t-40.5 9.5h-36v97h36q27 1 41 10t14 25q0 34 -56 34
q-53 0 -85 -35l-64 77q21 26 60 42.5z" />
    <glyph glyph-name="four.superior" horiz-adv-x="443" 
d="M352 577h55v-100h-55v-61h-101v61h-222v86l239 290h84v-276zM172 577h79v99z" />
    <glyph glyph-name="five.superior" horiz-adv-x="380" 
d="M336 752h-180v-33l16 1q77 0 120.5 -39.5t43.5 -109.5q0 -73 -44 -114t-121 -41q-36 0 -75 10t-71 27l41 91q24 -13 52 -20t50 -7q31 0 49 14t18 37q0 52 -86 52q-49 0 -94 -10v243h281v-101z" />
    <glyph glyph-name="six.superior" horiz-adv-x="379" 
d="M61 487q-30 53 -30 135q0 102 46 166.5t143 64.5q50 0 109 -24l-36 -94q-43 17 -78 17q-33 0 -53.5 -15.5t-23.5 -38.5v-1q15 7 32 12t32 5q60 0 100.5 -39.5t40.5 -106.5q0 -69 -41.5 -110.5t-105.5 -41.5q-93 0 -135 71zM150.5 601q-14.5 -13 -14.5 -36q0 -22 15 -35
t38 -13q24 0 38.5 13t14.5 36q0 21 -15 34.5t-38 13.5q-24 0 -38.5 -13z" />
    <glyph glyph-name="seven.superior" horiz-adv-x="364" 
d="M334 772l-188 -356h-113l178 336h-178v101h301v-81z" />
    <glyph glyph-name="eight.superior" horiz-adv-x="393" 
d="M89 820.5q41 32.5 108 32.5q65 0 106.5 -32.5t41.5 -86.5q0 -31 -16 -58t-46 -42q30 -14 46 -41t16 -58q0 -55 -41.5 -87t-106.5 -32q-67 0 -108 32t-41 87q0 32 15.5 58.5t45.5 40.5q-29 14 -45 41.5t-16 58.5q0 54 41 86.5zM231 742.5q-13 9.5 -34 9.5q-22 0 -35 -9.5
t-13 -23.5q0 -16 13 -25t35 -9q21 0 34 9t13 25q0 14 -13 23.5zM231 574.5q-13 8.5 -34 8.5q-22 0 -35 -8.5t-13 -24.5q0 -14 13 -23.5t35 -9.5q21 0 34 9.5t13 23.5q0 16 -13 24.5z" />
    <glyph glyph-name="nine.superior" horiz-adv-x="384" 
d="M85 811.5q43 41.5 113 41.5q77 0 116 -53q40 -55 40 -155q0 -107 -46 -168t-140 -61q-54 0 -114 25l34 93q38 -17 82 -17q33 0 52 15.5t23 38.5v1q-20 -9 -32 -13.5t-31 -4.5q-60 0 -100 39t-40 107q0 70 43 111.5zM234 739q-15 13 -38 13q-24 0 -39 -13t-15 -35
t15 -35.5t39 -13.5q23 0 38 13.5t15 35.5t-15 35z" />
    <glyph glyph-name="colon.case" horiz-adv-x="338" 
d="M239.5 549.5q28.5 -28.5 28.5 -70.5q0 -41 -28.5 -69.5t-71.5 -28.5q-41 0 -69 28t-28 70q0 43 28 71t69 28q43 0 71.5 -28.5zM239.5 214.5q28.5 -28.5 28.5 -69.5q0 -42 -28.5 -70.5t-71.5 -28.5q-41 0 -69 28t-28 71q0 42 28 70t69 28q43 0 71.5 -28.5z" />
    <glyph glyph-name="semicolon.case" horiz-adv-x="420" 
d="M319 550q28 -28 28 -71q0 -41 -28 -69.5t-70 -28.5t-70.5 28.5t-28.5 69.5q0 43 28.5 71t70.5 28t70 -28zM6 -151l192 345l107 -59l-192 -343z" />
    <glyph glyph-name="exclamdown.aalt" horiz-adv-x="376" 
d="M259 559q-28 -29 -71 -29q-41 0 -70 29t-29 70q0 43 29 71t70 28q43 0 71 -28t28 -71q0 -41 -28 -70zM115 476h146v-476h-146v476z" />
    <glyph glyph-name="questiondown.aalt" horiz-adv-x="556" 
d="M228.5 559q-28.5 29 -28.5 70q0 42 28.5 70.5t71.5 28.5q42 0 70 -28t28 -71q0 -41 -28 -70t-70 -29q-43 0 -71.5 29zM173 26q-49 26 -75 72.5t-26 105.5q0 56 21 91.5t61 70.5q7 6 31 25.5t35 39.5t11 44v13h145v-40q0 -51 -26.5 -85.5t-73.5 -72.5q-30 -22 -44.5 -39
t-14.5 -39q0 -29 19 -47.5t55 -18.5q41 0 62 23t21 66h142q0 -112 -61 -173.5t-167 -61.5q-66 0 -115 26z" />
    <glyph glyph-name="period.aalt" horiz-adv-x="332" 
d="M237 169.5q28 -28.5 28 -70.5t-28 -70.5t-71 -28.5q-41 0 -69.5 28.5t-28.5 70.5t28.5 70.5t69.5 28.5q43 0 71 -28.5z" />
    <glyph glyph-name="comma.aalt" horiz-adv-x="332" 
d="M315 135l-191 -343l-107 57l191 345z" />
    <glyph glyph-name="colon.tnum" horiz-adv-x="332" 
d="M237 504q28 -28 28 -70t-28 -70.5t-71 -28.5q-41 0 -69.5 28.5t-28.5 70.5t28.5 70t69.5 28q43 0 71 -28zM237 169.5q28 -28.5 28 -70.5t-28 -70.5t-71 -28.5q-41 0 -69.5 28.5t-28.5 70.5t28.5 70.5t69.5 28.5q43 0 71 -28.5z" />
    <glyph glyph-name="semicolon.tnum" horiz-adv-x="332" 
d="M168 363.5q-29 28.5 -29 70.5t29 70t70 28q43 0 71 -28t28 -70t-28 -70.5t-71 -28.5q-41 0 -70 28.5zM-5 -151l191 345l108 -59l-192 -343z" />
    <glyph glyph-name="slash.tnum" 
d="M672 747l-565 -826l-113 77l564 825z" />
    <glyph glyph-name="parenleft.case" horiz-adv-x="372" 
d="M127.5 628.5q51.5 126.5 147.5 224.5l95 -84q-79 -94 -119.5 -191.5t-40.5 -218.5q0 -237 160 -427l-96 -85q-94 98 -146 235t-52 277q0 143 51.5 269.5z" />
    <glyph glyph-name="parenright.case" horiz-adv-x="372" 
d="M245.5 627.5q51.5 -126.5 51.5 -269.5q0 -141 -52.5 -277t-145.5 -234l-96 84q160 191 160 427q0 122 -41 219.5t-120 190.5l96 84q96 -98 147.5 -224.5z" />
    <glyph glyph-name="braceleft.aalt" horiz-adv-x="382" 
d="M383 712h-48q-27 0 -43.5 -14.5t-16.5 -41.5v-166q0 -98 -84 -120q84 -22 84 -115v-176q0 -27 16.5 -41.5t43.5 -14.5h48v-121h-49q-185 0 -185 166v165q0 35 -25.5 52.5t-83.5 18.5v126q109 3 109 79v160q0 164 185 164h49v-121z" />
    <glyph glyph-name="braceright.aalt" horiz-adv-x="382" 
d="M234 669v-160q0 -76 110 -79v-126q-58 -1 -84 -18.5t-26 -52.5v-165q0 -166 -185 -166h-49v121h48q27 0 43.5 14.5t16.5 41.5v176q0 93 83 115q-83 22 -83 120v166q0 27 -16.5 41.5t-43.5 14.5h-48v121h49q185 0 185 -164z" />
    <glyph glyph-name="bracketleft.aalt" horiz-adv-x="351" 
d="M352 703h-124v-692h124v-119h-250v931h250v-120z" />
    <glyph glyph-name="bracketright.aalt" horiz-adv-x="351" 
d="M251 -108h-251v119h124v692h-124v120h251v-931z" />
    <glyph glyph-name="parenleft.tnum" 
d="M236.5 603.5q51.5 126.5 148.5 224.5l95 -84q-80 -94 -120.5 -191t-40.5 -219q0 -236 160 -427l-95 -84q-94 97 -146.5 233.5t-52.5 277.5q0 143 51.5 269.5z" />
    <glyph glyph-name="parenright.tnum" 
d="M429 603.5q51 -126.5 51 -269.5q0 -141 -52.5 -277.5t-145.5 -233.5l-96 84q160 191 160 427q0 122 -40.5 219t-120.5 191l96 84q97 -98 148 -224.5z" />
    <glyph glyph-name="hyphen.aalt" horiz-adv-x="625" 
d="M555 291h-484v146h484v-146z" />
    <glyph glyph-name="endash.aalt" horiz-adv-x="933" 
d="M864 291h-793v146h793v-146z" />
    <glyph glyph-name="emdash.aalt" horiz-adv-x="1361" 
d="M1292 291h-1221v146h1221v-146z" />
    <glyph glyph-name="underscore.aalt" 
d="M603 -207l-541 -1v121h541v-120z" />
    <glyph glyph-name="guillemotleft.aalt" horiz-adv-x="671" 
d="M376 487l-156 -165l156 -164l-91 -82l-233 246l233 248zM646 487l-156 -165l156 -164l-91 -82l-233 246l233 248z" />
    <glyph glyph-name="guillemotright.aalt" horiz-adv-x="671" 
d="M25 158l156 164l-156 165l90 83l234 -248l-234 -246zM295 158l156 164l-156 165l90 83l234 -248l-234 -246z" />
    <glyph glyph-name="guilsinglleft.aalt" horiz-adv-x="401" 
d="M376 487l-156 -165l156 -164l-91 -82l-233 246l233 248z" />
    <glyph glyph-name="guilsinglright.aalt" horiz-adv-x="401" 
d="M25 158l156 164l-156 165l90 83l234 -248l-234 -246z" />
    <glyph glyph-name="parenleft.dnom" horiz-adv-x="251" 
d="M77.5 364.5q30.5 75.5 88.5 134.5l68 -59q-47 -55 -71.5 -111.5t-24.5 -125.5q0 -137 95 -253l-68 -58q-56 59 -87 143.5t-31 167.5q0 86 30.5 161.5z" />
    <glyph glyph-name="parenright.dnom" horiz-adv-x="251" 
d="M173.5 35.5q-31.5 -84.5 -87.5 -143.5l-67 58q94 116 94 253q0 69 -24.5 125t-69.5 112l66 59q59 -59 89.5 -134.5t30.5 -161.5q0 -83 -31.5 -167.5z" />
    <glyph glyph-name="parenleft.numr" horiz-adv-x="251" 
d="M78 326q-31 84 -31 168q0 86 30.5 161.5t88.5 134.5l68 -59q-47 -55 -71.5 -111t-24.5 -126q0 -137 95 -253l-68 -57q-56 58 -87 142z" />
    <glyph glyph-name="parenright.numr" horiz-adv-x="251" 
d="M174.5 655.5q30.5 -75.5 30.5 -161.5q0 -84 -31.5 -168t-87.5 -142l-67 57q94 116 94 253q0 70 -24.5 125.5t-69.5 111.5l66 59q59 -59 89.5 -134.5z" />
    <glyph glyph-name="parenleft.inferior" horiz-adv-x="251" 
d="M77.5 208.5q30.5 75.5 88.5 134.5l68 -59q-47 -55 -71.5 -111.5t-24.5 -125.5q0 -137 95 -253l-68 -58q-56 59 -87 143.5t-31 167.5q0 86 30.5 161.5z" />
    <glyph glyph-name="parenright.inferior" horiz-adv-x="251" 
d="M174.5 208.5q30.5 -75.5 30.5 -161.5q0 -83 -31.5 -167.5t-87.5 -143.5l-67 58q94 116 94 253q0 69 -24.5 125t-69.5 112l66 59q59 -59 89.5 -134.5z" />
    <glyph glyph-name="parenleft.superior" horiz-adv-x="251" 
d="M77.5 780.5q30.5 75.5 88.5 134.5l68 -59q-47 -55 -71.5 -111.5t-24.5 -125.5q0 -137 95 -253l-68 -57q-56 58 -87 142t-31 168q0 86 30.5 161.5z" />
    <glyph glyph-name="parenright.superior" horiz-adv-x="251" 
d="M174.5 780.5q30.5 -75.5 30.5 -161.5q0 -84 -31.5 -168t-87.5 -142l-67 57q94 116 94 253q0 69 -24.5 125t-69.5 112l66 59q59 -59 89.5 -134.5z" />
    <glyph glyph-name="plus.case" 
d="M406 423h208v-145h-208v-208h-146v208h-208v145h208v207h146v-207z" />
    <glyph glyph-name="multiply.aalt" 
d="M602 517l-167 -168l167 -166l-103 -102l-166 168l-168 -168l-102 102l168 166l-168 168l102 102l168 -168l166 169z" />
    <glyph glyph-name="divide.aalt" 
d="M259 498.5q-28 28.5 -28 69.5q0 43 28 71t70 28t70 -27.5t28 -71.5q0 -41 -28 -69.5t-70 -28.5t-70 28.5zM37 424h591v-146h-591v146zM259 68q-28 28 -28 70t28 70t70 28t70 -28t28 -70t-28 -70t-70 -28t-70 28z" />
    <glyph glyph-name="equal.case" 
d="M616 379h-566v145h566v-145zM616 136h-566v146h566v-146z" />
    <glyph glyph-name="greater.aalt" 
d="M596 275l-468 -199l-59 142l346 139l-346 137l59 141l468 -197v-163z" />
    <glyph glyph-name="less.aalt" 
d="M596 494l-346 -137l346 -139l-59 -142l-468 199v163l468 197z" />
    <glyph glyph-name="plusminus.aalt" 
d="M405 560h209v-145h-209v-115h-144v115h-209v145h209v114h144v-114zM614 94h-562v144h562v-144z" />
    <glyph glyph-name="logicalnot.aalt" 
d="M606 170h-145v186h-403v145h548v-331z" />
    <glyph glyph-name="at.aalt" horiz-adv-x="1003" 
d="M281 -4.5q-100 56.5 -154 153.5t-54 217q0 118 53.5 215t153.5 154t233 57q126 0 220.5 -48t146 -134t51.5 -193q0 -81 -25.5 -142.5t-72 -94.5t-106.5 -33q-47 0 -75 19.5t-40 60.5q-23 -37 -59 -58.5t-84 -21.5q-65 0 -106.5 40t-41.5 98q0 56 38.5 90t94.5 40l121 12
q0 34 -16.5 49t-53.5 15q-32 0 -57.5 -13.5t-36.5 -42.5l-87 54q22 50 68.5 77.5t116.5 27.5q90 0 134.5 -46t44.5 -124v-124q0 -47 38 -47q37 0 58 42t21 114q0 73 -33.5 132.5t-99.5 95.5t-160 36q-99 0 -170 -40.5t-107 -110.5t-36 -156q0 -89 37.5 -159.5t108.5 -110
t168 -39.5q100 0 199 31l15 -116q-102 -33 -214 -33q-132 0 -232 56.5zM549 269.5q27 21.5 27 58.5v13l-99 -13q-18 -2 -29.5 -13.5t-11.5 -28.5t12.5 -27.5t37.5 -10.5q36 0 63 21.5z" />
    <glyph glyph-name="bar.case" horiz-adv-x="334" 
d="M231 -98h-127v931h127v-931z" />
    <glyph glyph-name="brokenbar.aalt" horiz-adv-x="334" 
d="M231 430h-127v403h127v-403zM231 -98h-127v435h127v-435z" />
    <glyph glyph-name="bar.tnum" horiz-adv-x="332" 
d="M230 -139h-127v930h127v-930z" />
    <glyph glyph-name="plus.dnom" horiz-adv-x="457" 
d="M280 250h121v-100h-121v-123h-102v123h-122v100h122v122h102v-122z" />
    <glyph glyph-name="equal.dnom" horiz-adv-x="457" 
d="M407 215h-355v100h355v-100zM407 63h-355v101h355v-101z" />
    <glyph glyph-name="plus.numr" horiz-adv-x="457" 
d="M280 541h121v-100h-121v-123h-102v123h-122v100h122v123h102v-123z" />
    <glyph glyph-name="equal.numr" horiz-adv-x="457" 
d="M407 506h-355v100h355v-100zM407 355h-355v101h355v-101z" />
    <glyph glyph-name="plus.inferior" horiz-adv-x="457" 
d="M280 94h121v-100h-121v-123h-102v123h-122v100h122v122h102v-122z" />
    <glyph glyph-name="equal.inferior" horiz-adv-x="457" 
d="M407 59h-355v100h355v-100zM407 -93h-355v101h355v-101z" />
    <glyph glyph-name="plus.superior" horiz-adv-x="457" 
d="M280 666h121v-100h-121v-123h-102v123h-122v100h122v122h102v-122z" />
    <glyph glyph-name="equal.superior" horiz-adv-x="457" 
d="M407 631h-355v100h355v-100zM407 479h-355v101h355v-101z" />
    </font>
</defs>
</svg>
